<svg width="530" height="821" viewBox="0 0 530 821" fill="none" xmlns="http://www.w3.org/2000/svg">
<path d="M367 581.5L444.264 534L521.598 579.514" stroke="#CD6026" stroke-width="3" stroke-linecap="round" stroke-linejoin="round"/>
<path d="M522 580.5V679.302L442.471 725L442.886 624.728" fill="#CD6026"/>
<path d="M522 580.5V679.302L442.471 725L442.886 624.728" stroke="#CD6026" stroke-width="3" stroke-linecap="round" stroke-linejoin="round"/>
<path d="M442.47 724.99L367 678.767V581.575L442.47 623.993L522 580" stroke="#CD6026" stroke-width="3" stroke-linecap="round" stroke-linejoin="round"/>
<path d="M82 339.5L159.264 292L236.598 337.514" stroke="#CD6026" stroke-width="3" stroke-linecap="round" stroke-linejoin="round"/>
<path d="M237 338.5V437.302L157.471 483L157.886 382.728" fill="#CD6026"/>
<path d="M237 338.5V437.302L157.471 483L157.886 382.728" stroke="#CD6026" stroke-width="3" stroke-linecap="round" stroke-linejoin="round"/>
<path d="M157.47 482.99L82 436.767V339.575L157.47 381.993L237 338" stroke="#CD6026" stroke-width="3" stroke-linecap="round" stroke-linejoin="round"/>
<path d="M370 244.5L447.264 197L524.598 242.514" stroke="#CD6026" stroke-width="3" stroke-linecap="round" stroke-linejoin="round"/>
<path d="M525 243.5V342.302L445.471 388L445.886 287.728" fill="#CD6026"/>
<path d="M525 243.5V342.302L445.471 388L445.886 287.728" stroke="#CD6026" stroke-width="3" stroke-linecap="round" stroke-linejoin="round"/>
<path d="M445.47 387.99L370 341.767V244.575L445.47 286.993L525 243" stroke="#CD6026" stroke-width="3" stroke-linecap="round" stroke-linejoin="round"/>
<path d="M373 49.5L450.264 2L527.598 47.5144" stroke="#CD6026" stroke-width="3" stroke-linecap="round" stroke-linejoin="round"/>
<path d="M528 48.5V147.302L448.471 193L448.886 92.7279" fill="#CD6026"/>
<path d="M528 48.5V147.302L448.471 193L448.886 92.7279" stroke="#CD6026" stroke-width="3" stroke-linecap="round" stroke-linejoin="round"/>
<path d="M448.47 192.99L373 146.767V49.5753L448.47 91.9925L528 48" stroke="#CD6026" stroke-width="3" stroke-linecap="round" stroke-linejoin="round"/>
<path d="M2 675.5L79.2638 628L156.598 673.514" stroke="#CD6026" stroke-width="3" stroke-linecap="round" stroke-linejoin="round"/>
<path d="M157 674.5V773.302L77.4712 819L77.886 718.728" fill="#CD6026"/>
<path d="M157 674.5V773.302L77.4712 819L77.886 718.728" stroke="#CD6026" stroke-width="3" stroke-linecap="round" stroke-linejoin="round"/>
<path d="M77.47 818.99L2 772.767V675.575L77.47 717.993L157 674" stroke="#CD6026" stroke-width="3" stroke-linecap="round" stroke-linejoin="round"/>
<path d="M4 485.5L81.2638 438L158.598 483.514" stroke="#CD6026" stroke-width="3" stroke-linecap="round" stroke-linejoin="round"/>
<path d="M159 484.5V583.302L79.4712 629L79.886 528.728" fill="#CD6026"/>
<path d="M159 484.5V583.302L79.4712 629L79.886 528.728" stroke="#CD6026" stroke-width="3" stroke-linecap="round" stroke-linejoin="round"/>
<path d="M79.47 628.99L4 582.767V485.575L79.47 527.993L159 484" stroke="#CD6026" stroke-width="3" stroke-linecap="round" stroke-linejoin="round"/>
</svg>
