<svg width="534" height="825" viewBox="0 0 534 825" fill="none" xmlns="http://www.w3.org/2000/svg">
<path d="M369 583.5L446.264 536L523.598 581.514" stroke="#CD6026" stroke-width="8" stroke-linecap="round" stroke-linejoin="round"/>
<path d="M524 582.5V681.302L444.471 727L444.886 626.728" fill="#CD6026"/>
<path d="M524 582.5V681.302L444.471 727L444.886 626.728" stroke="#CD6026" stroke-width="8" stroke-linecap="round" stroke-linejoin="round"/>
<path d="M444.47 726.99L369 680.767V583.575L444.47 625.993L524 582" stroke="#CD6026" stroke-width="8" stroke-linecap="round" stroke-linejoin="round"/>
<path d="M84 341.5L161.264 294L238.598 339.514" stroke="#CD6026" stroke-width="8" stroke-linecap="round" stroke-linejoin="round"/>
<path d="M239 340.5V439.302L159.471 485L159.886 384.728" fill="#CD6026"/>
<path d="M239 340.5V439.302L159.471 485L159.886 384.728" stroke="#CD6026" stroke-width="8" stroke-linecap="round" stroke-linejoin="round"/>
<path d="M159.47 484.99L84 438.767V341.575L159.47 383.993L239 340" stroke="#CD6026" stroke-width="8" stroke-linecap="round" stroke-linejoin="round"/>
<path d="M372 246.5L449.264 199L526.598 244.514" stroke="#CD6026" stroke-width="8" stroke-linecap="round" stroke-linejoin="round"/>
<path d="M527 245.5V344.302L447.471 390L447.886 289.728" fill="#CD6026"/>
<path d="M527 245.5V344.302L447.471 390L447.886 289.728" stroke="#CD6026" stroke-width="8" stroke-linecap="round" stroke-linejoin="round"/>
<path d="M447.47 389.99L372 343.767V246.575L447.47 288.993L527 245" stroke="#CD6026" stroke-width="8" stroke-linecap="round" stroke-linejoin="round"/>
<path d="M375 51.5L452.264 4L529.598 49.5144" stroke="#CD6026" stroke-width="8" stroke-linecap="round" stroke-linejoin="round"/>
<path d="M530 50.5V149.302L450.471 195L450.886 94.7279" fill="#CD6026"/>
<path d="M530 50.5V149.302L450.471 195L450.886 94.7279" stroke="#CD6026" stroke-width="8" stroke-linecap="round" stroke-linejoin="round"/>
<path d="M450.47 194.99L375 148.767V51.5753L450.47 93.9925L530 50" stroke="#CD6026" stroke-width="8" stroke-linecap="round" stroke-linejoin="round"/>
<path d="M4 677.5L81.2638 630L158.598 675.514" stroke="#CD6026" stroke-width="8" stroke-linecap="round" stroke-linejoin="round"/>
<path d="M159 676.5V775.302L79.4712 821L79.886 720.728" fill="#CD6026"/>
<path d="M159 676.5V775.302L79.4712 821L79.886 720.728" stroke="#CD6026" stroke-width="8" stroke-linecap="round" stroke-linejoin="round"/>
<path d="M79.47 820.99L4 774.767V677.575L79.47 719.993L159 676" stroke="#CD6026" stroke-width="8" stroke-linecap="round" stroke-linejoin="round"/>
<path d="M6 487.5L83.2638 440L160.598 485.514" stroke="#CD6026" stroke-width="8" stroke-linecap="round" stroke-linejoin="round"/>
<path d="M161 486.5V585.302L81.4712 631L81.886 530.728" fill="#CD6026"/>
<path d="M161 486.5V585.302L81.4712 631L81.886 530.728" stroke="#CD6026" stroke-width="8" stroke-linecap="round" stroke-linejoin="round"/>
<path d="M81.47 630.99L6 584.767V487.575L81.47 529.993L161 486" stroke="#CD6026" stroke-width="8" stroke-linecap="round" stroke-linejoin="round"/>
</svg>
