<svg width="687" height="960" viewBox="0 0 687 960" fill="none" xmlns="http://www.w3.org/2000/svg">
<path d="M448 49.5L525.264 2L602.598 47.5144" stroke="#CD6026" stroke-width="3" stroke-linecap="round" stroke-linejoin="round"/>
<path d="M603 48.5V147.302L523.471 193L523.886 92.7279" fill="#CD6026"/>
<path d="M603 48.5V147.302L523.471 193L523.886 92.7279" stroke="#CD6026" stroke-width="3" stroke-linecap="round" stroke-linejoin="round"/>
<path d="M523.47 192.99L448 146.767V49.5753L523.47 91.9925L603 48" stroke="#CD6026" stroke-width="3" stroke-linecap="round" stroke-linejoin="round"/>
<path d="M2 688.5L79.2638 641L156.598 686.514" stroke="#CD6026" stroke-width="3" stroke-linecap="round" stroke-linejoin="round"/>
<path d="M157 687.5V786.302L77.4712 832L77.886 731.728" fill="#CD6026"/>
<path d="M157 687.5V786.302L77.4712 832L77.886 731.728" stroke="#CD6026" stroke-width="3" stroke-linecap="round" stroke-linejoin="round"/>
<path d="M77.47 831.99L2 785.767V688.575L77.47 730.993L157 687" stroke="#CD6026" stroke-width="3" stroke-linecap="round" stroke-linejoin="round"/>
<path d="M530 814.5L607.264 767L684.598 812.514" stroke="#CD6026" stroke-width="3" stroke-linecap="round" stroke-linejoin="round"/>
<path d="M685 813.5V912.302L605.471 958L605.886 857.728" fill="#CD6026"/>
<path d="M685 813.5V912.302L605.471 958L605.886 857.728" stroke="#CD6026" stroke-width="3" stroke-linecap="round" stroke-linejoin="round"/>
<path d="M605.47 957.99L530 911.767V814.575L605.47 856.993L685 813" stroke="#CD6026" stroke-width="3" stroke-linecap="round" stroke-linejoin="round"/>
</svg>
