<svg width="636" height="199" viewBox="0 0 636 199" fill="none" xmlns="http://www.w3.org/2000/svg">
<path d="M4 51.5L81.2638 4L158.598 49.5144" stroke="#CD6026" stroke-width="8" stroke-linecap="round" stroke-linejoin="round"/>
<path d="M159 50.5V149.302L79.4712 195L79.886 94.7279" fill="#CD6026"/>
<path d="M159 50.5V149.302L79.4712 195L79.886 94.7279" stroke="#CD6026" stroke-width="8" stroke-linecap="round" stroke-linejoin="round"/>
<path d="M79.47 194.99L4 148.767V51.5753L79.47 93.9925L159 50" stroke="#CD6026" stroke-width="8" stroke-linecap="round" stroke-linejoin="round"/>
<path d="M210.584 74H203.544V28.24H222.616C232.728 28.24 238.168 32.976 238.168 41.424C238.168 47.248 234.648 51.472 229.592 52.624V52.752C240.216 54.736 236.312 72.784 238.808 73.552V74H231.256C229.208 72.08 233.56 56.08 222.36 56.08H210.584V74ZM210.584 50H221.08C227.544 50 231.064 47.184 231.064 41.936C231.064 37.008 228.248 34.32 221.208 34.32H210.584V50ZM271.865 56.976C271.865 57.872 271.865 58.832 271.801 59.344H246.713C246.841 64.784 250.041 69.84 256.505 69.84C262.265 69.84 264.505 66.128 265.081 63.952H271.481C269.753 70.224 264.953 74.96 256.377 74.96C246.009 74.96 240.249 67.6 240.249 57.616C240.249 47.376 246.393 40.336 256.377 40.336C266.297 40.336 271.865 46.864 271.865 56.976ZM246.713 54.416H265.337C265.337 49.296 261.753 45.456 256.185 45.456C250.937 45.456 247.097 49.04 246.713 54.416ZM284.267 74.896C277.739 74.896 273.579 71.12 273.579 65.552C273.579 58.256 279.083 56.08 287.211 54.544C292.331 53.584 295.467 52.944 295.467 49.744C295.467 47.376 294.059 45.392 289.259 45.392C283.563 45.392 281.835 47.184 281.515 51.536H275.115C275.435 45.264 279.531 40.336 289.515 40.336C296.235 40.336 301.611 43.152 301.611 51.6V66.576C301.611 68.944 301.931 70.16 303.147 70.16C303.339 70.16 303.531 70.16 303.915 70.096V73.936C302.827 74.192 301.739 74.32 300.715 74.32C297.579 74.32 295.915 73.104 295.531 69.392H295.403C293.291 72.784 289.579 74.896 284.267 74.896ZM285.675 69.84C291.307 69.84 295.467 66.96 295.467 61.264V56.592C294.443 57.552 291.627 58.256 288.299 58.96C282.539 60.112 280.107 61.712 280.107 65.104C280.107 68.176 281.771 69.84 285.675 69.84ZM330.178 45.328V28.24H336.45V74H330.178V70.16H330.05C328.258 72.464 325.122 74.896 320.002 74.896C311.682 74.896 305.346 68.432 305.346 57.68C305.346 46.928 311.682 40.4 320.002 40.4C325.122 40.4 328.258 42.768 330.05 45.328H330.178ZM321.026 69.712C326.658 69.712 330.114 65.04 330.114 57.68C330.114 50.256 326.658 45.648 321.026 45.648C314.882 45.648 311.874 51.28 311.874 57.68C311.874 64.08 314.882 69.712 321.026 69.712ZM348.31 35.536H341.206V28.752H348.31V35.536ZM347.862 74H341.59V41.36H347.862V74ZM370.134 40.4C376.15 40.4 381.014 43.856 381.014 51.344V74H374.742V53.072C374.742 48.72 372.822 45.776 368.086 45.776C362.71 45.776 359.254 49.04 359.254 53.968V74H352.982V41.36H359.254V45.456H359.382C361.11 42.96 364.502 40.4 370.134 40.4ZM415.827 56.976C415.827 57.872 415.827 58.832 415.763 59.344H390.675C390.803 64.784 394.003 69.84 400.467 69.84C406.227 69.84 408.467 66.128 409.043 63.952H415.443C413.715 70.224 408.915 74.96 400.339 74.96C389.971 74.96 384.211 67.6 384.211 57.616C384.211 47.376 390.355 40.336 400.339 40.336C410.259 40.336 415.827 46.864 415.827 56.976ZM390.675 54.416H409.299C409.299 49.296 405.715 45.456 400.147 45.456C394.899 45.456 391.059 49.04 390.675 54.416ZM432.069 74.896C422.149 74.896 417.221 69.776 417.029 63.12H423.365C423.621 66.896 425.925 69.84 432.005 69.84C437.509 69.84 438.981 67.408 438.981 65.04C438.981 60.944 434.629 60.496 430.405 59.6C424.709 58.256 418.181 56.592 418.181 49.808C418.181 44.176 422.725 40.4 430.597 40.4C439.557 40.4 443.845 45.2 444.293 50.832H437.957C437.509 48.336 436.165 45.456 430.725 45.456C426.501 45.456 424.709 47.12 424.709 49.552C424.709 52.944 428.357 53.264 432.965 54.288C438.981 55.696 445.509 57.424 445.509 64.72C445.509 71.056 440.645 74.896 432.069 74.896ZM461.399 74.896C451.479 74.896 446.551 69.776 446.359 63.12H452.695C452.951 66.896 455.255 69.84 461.335 69.84C466.839 69.84 468.311 67.408 468.311 65.04C468.311 60.944 463.959 60.496 459.735 59.6C454.039 58.256 447.511 56.592 447.511 49.808C447.511 44.176 452.055 40.4 459.927 40.4C468.887 40.4 473.175 45.2 473.623 50.832H467.287C466.839 48.336 465.495 45.456 460.055 45.456C455.831 45.456 454.039 47.12 454.039 49.552C454.039 52.944 457.687 53.264 462.295 54.288C468.311 55.696 474.839 57.424 474.839 64.72C474.839 71.056 469.975 74.896 461.399 74.896ZM502.184 74.896C492.264 74.896 487.336 69.776 487.144 63.12H493.48C493.736 66.896 496.04 69.84 502.12 69.84C507.624 69.84 509.096 67.408 509.096 65.04C509.096 60.944 504.744 60.496 500.52 59.6C494.824 58.256 488.296 56.592 488.296 49.808C488.296 44.176 492.84 40.4 500.712 40.4C509.672 40.4 513.96 45.2 514.408 50.832H508.072C507.624 48.336 506.28 45.456 500.84 45.456C496.616 45.456 494.824 47.12 494.824 49.552C494.824 52.944 498.472 53.264 503.08 54.288C509.096 55.696 515.624 57.424 515.624 64.72C515.624 71.056 510.76 74.896 502.184 74.896ZM532.986 74.96C523.258 74.96 516.922 67.92 516.922 57.68C516.922 47.44 523.258 40.4 532.922 40.4C541.306 40.4 546.874 45.84 547.642 53.2H541.178C540.858 49.808 538.938 45.584 532.986 45.584C526.01 45.584 523.45 51.536 523.45 57.68C523.45 63.824 526.01 69.712 532.986 69.712C539.002 69.712 540.858 65.616 541.178 61.904H547.642C547.194 69.392 541.37 74.96 532.986 74.96ZM565.322 74.96C555.146 74.96 549.002 67.92 549.002 57.68C549.002 47.504 555.146 40.336 565.386 40.336C575.498 40.336 581.642 47.44 581.642 57.616C581.642 67.856 575.498 74.96 565.322 74.96ZM565.386 69.776C572.042 69.776 575.114 64.464 575.114 57.68C575.114 50.832 572.042 45.584 565.386 45.584C558.602 45.584 555.53 50.832 555.53 57.68C555.53 64.464 558.602 69.776 565.386 69.776ZM600.228 40.592C601.38 40.592 602.276 40.656 603.236 40.784V46.8C602.468 46.672 601.892 46.608 601.124 46.608C595.428 46.608 591.332 50.896 591.332 57.104V74H585.06V41.36H591.332V47.568H591.46C593.188 43.472 595.812 40.592 600.228 40.592ZM633.967 56.976C633.967 57.872 633.967 58.832 633.903 59.344H608.815C608.943 64.784 612.143 69.84 618.607 69.84C624.367 69.84 626.607 66.128 627.183 63.952H633.583C631.855 70.224 627.055 74.96 618.479 74.96C608.111 74.96 602.351 67.6 602.351 57.616C602.351 47.376 608.495 40.336 618.479 40.336C628.399 40.336 633.967 46.864 633.967 56.976ZM608.815 54.416H627.439C627.439 49.296 623.855 45.456 618.287 45.456C613.039 45.456 609.199 49.04 608.815 54.416Z" fill="#333333"/>
<path d="M204.792 140H201.272V117.12H210.808C215.128 117.12 218.296 119.136 218.296 123.936C218.296 128.736 215.128 130.72 210.808 130.72H204.792V140ZM204.792 127.68H210.648C213.304 127.68 214.648 126.496 214.648 123.936C214.648 121.344 213.304 120.16 210.648 120.16H204.792V127.68ZM227.134 123.296C227.71 123.296 228.158 123.328 228.638 123.392V126.4C228.254 126.336 227.966 126.304 227.582 126.304C224.734 126.304 222.686 128.448 222.686 131.552V140H219.55V123.68H222.686V126.784H222.75C223.614 124.736 224.926 123.296 227.134 123.296ZM236.324 140.48C231.236 140.48 228.163 136.96 228.163 131.84C228.163 126.752 231.236 123.168 236.356 123.168C241.412 123.168 244.484 126.72 244.484 131.808C244.484 136.928 241.412 140.48 236.324 140.48ZM236.356 137.888C239.684 137.888 241.22 135.232 241.22 131.84C241.22 128.416 239.684 125.792 236.356 125.792C232.964 125.792 231.428 128.416 231.428 131.84C231.428 135.232 232.964 137.888 236.356 137.888ZM253.469 140H249.949L244.125 123.68H247.485L251.773 136.768H251.805L256.029 123.68H259.293L253.469 140ZM263.686 120.768H260.134V117.376H263.686V120.768ZM263.462 140H260.326V123.68H263.462V140ZM277.606 125.664V117.12H280.742V140H277.606V138.08H277.542C276.646 139.232 275.078 140.448 272.518 140.448C268.358 140.448 265.19 137.216 265.19 131.84C265.19 126.464 268.358 123.2 272.518 123.2C275.078 123.2 276.646 124.384 277.542 125.664H277.606ZM273.03 137.856C275.846 137.856 277.574 135.52 277.574 131.84C277.574 128.128 275.846 125.824 273.03 125.824C269.958 125.824 268.454 128.64 268.454 131.84C268.454 135.04 269.958 137.856 273.03 137.856ZM298.288 131.488C298.288 131.936 298.288 132.416 298.256 132.672H285.712C285.776 135.392 287.376 137.92 290.608 137.92C293.488 137.92 294.608 136.064 294.896 134.976H298.096C297.232 138.112 294.832 140.48 290.544 140.48C285.36 140.48 282.48 136.8 282.48 131.808C282.48 126.688 285.552 123.168 290.544 123.168C295.504 123.168 298.288 126.432 298.288 131.488ZM285.712 130.208H295.024C295.024 127.648 293.232 125.728 290.448 125.728C287.824 125.728 285.904 127.52 285.712 130.208ZM306.409 140.448C301.449 140.448 298.985 137.888 298.889 134.56H302.057C302.185 136.448 303.337 137.92 306.377 137.92C309.129 137.92 309.865 136.704 309.865 135.52C309.865 133.472 307.689 133.248 305.577 132.8C302.729 132.128 299.465 131.296 299.465 127.904C299.465 125.088 301.737 123.2 305.673 123.2C310.153 123.2 312.297 125.6 312.521 128.416H309.353C309.129 127.168 308.457 125.728 305.737 125.728C303.625 125.728 302.729 126.56 302.729 127.776C302.729 129.472 304.553 129.632 306.857 130.144C309.865 130.848 313.129 131.712 313.129 135.36C313.129 138.528 310.697 140.448 306.409 140.448ZM327.538 140.48C322.674 140.48 319.506 136.96 319.506 131.84C319.506 126.72 322.674 123.2 327.506 123.2C331.698 123.2 334.482 125.92 334.866 129.6H331.634C331.474 127.904 330.514 125.792 327.538 125.792C324.05 125.792 322.77 128.768 322.77 131.84C322.77 134.912 324.05 137.856 327.538 137.856C330.546 137.856 331.474 135.808 331.634 133.952H334.866C334.642 137.696 331.73 140.48 327.538 140.48ZM343.706 140.48C338.618 140.48 335.546 136.96 335.546 131.84C335.546 126.752 338.618 123.168 343.738 123.168C348.794 123.168 351.866 126.72 351.866 131.808C351.866 136.928 348.794 140.48 343.706 140.48ZM343.738 137.888C347.066 137.888 348.602 135.232 348.602 131.84C348.602 128.416 347.066 125.792 343.738 125.792C340.346 125.792 338.81 128.416 338.81 131.84C338.81 135.232 340.346 137.888 343.738 137.888ZM371.335 123.2C374.631 123.2 376.295 125.184 376.295 128.672V140H373.159V129.536C373.159 127.36 372.711 125.888 370.311 125.888C367.975 125.888 366.503 127.52 366.503 129.984V140H363.367V129.536C363.367 127.36 362.919 125.888 360.519 125.888C358.183 125.888 356.711 127.52 356.711 129.984V140H353.575V123.68H356.711V125.728H356.775C357.639 124.48 359.143 123.2 361.607 123.2C363.879 123.2 365.287 124.224 365.927 126.048H365.991C367.175 124.48 368.839 123.2 371.335 123.2ZM386.995 123.2C391.155 123.2 394.323 126.464 394.323 131.84C394.323 137.216 391.155 140.448 386.995 140.448C384.435 140.448 382.867 139.296 381.971 137.984H381.907V145.664H378.771V123.68H381.907V125.6H381.971C382.867 124.448 384.435 123.2 386.995 123.2ZM386.483 137.856C389.555 137.856 391.027 135.04 391.027 131.84C391.027 128.64 389.555 125.824 386.483 125.824C383.667 125.824 381.939 128.128 381.939 131.84C381.939 135.52 383.667 137.856 386.483 137.856ZM399.197 140H396.061V117.12H399.197V140ZM405.117 120.768H401.565V117.376H405.117V120.768ZM404.893 140H401.757V123.68H404.893V140ZM411.966 140.448C408.702 140.448 406.622 138.56 406.622 135.776C406.622 132.128 409.374 131.04 413.438 130.272C415.998 129.792 417.566 129.472 417.566 127.872C417.566 126.688 416.862 125.696 414.462 125.696C411.614 125.696 410.75 126.592 410.59 128.768H407.39C407.55 125.632 409.598 123.168 414.59 123.168C417.95 123.168 420.638 124.576 420.638 128.8V136.288C420.638 137.472 420.798 138.08 421.406 138.08C421.502 138.08 421.598 138.08 421.79 138.048V139.968C421.246 140.096 420.702 140.16 420.19 140.16C418.622 140.16 417.79 139.552 417.598 137.696H417.534C416.478 139.392 414.622 140.448 411.966 140.448ZM412.67 137.92C415.486 137.92 417.566 136.48 417.566 133.632V131.296C417.054 131.776 415.646 132.128 413.982 132.48C411.102 133.056 409.886 133.856 409.886 135.552C409.886 137.088 410.718 137.92 412.67 137.92ZM432.07 123.2C435.078 123.2 437.51 124.928 437.51 128.672V140H434.374V129.536C434.374 127.36 433.414 125.888 431.046 125.888C428.358 125.888 426.63 127.52 426.63 129.984V140H423.494V123.68H426.63V125.728H426.694C427.558 124.48 429.254 123.2 432.07 123.2ZM447.108 140.48C442.244 140.48 439.076 136.96 439.076 131.84C439.076 126.72 442.244 123.2 447.076 123.2C451.268 123.2 454.052 125.92 454.436 129.6H451.204C451.044 127.904 450.084 125.792 447.108 125.792C443.62 125.792 442.34 128.768 442.34 131.84C442.34 134.912 443.62 137.856 447.108 137.856C450.116 137.856 451.044 135.808 451.204 133.952H454.436C454.212 137.696 451.3 140.48 447.108 140.48ZM470.956 131.488C470.956 131.936 470.956 132.416 470.924 132.672H458.38C458.444 135.392 460.044 137.92 463.276 137.92C466.156 137.92 467.276 136.064 467.564 134.976H470.764C469.9 138.112 467.5 140.48 463.212 140.48C458.028 140.48 455.148 136.8 455.148 131.808C455.148 126.688 458.22 123.168 463.212 123.168C468.172 123.168 470.956 126.432 470.956 131.488ZM458.38 130.208H467.692C467.692 127.648 465.9 125.728 463.116 125.728C460.492 125.728 458.572 127.52 458.38 130.208ZM484.804 140.448C479.844 140.448 477.38 137.888 477.284 134.56H480.452C480.58 136.448 481.732 137.92 484.772 137.92C487.524 137.92 488.26 136.704 488.26 135.52C488.26 133.472 486.084 133.248 483.972 132.8C481.124 132.128 477.86 131.296 477.86 127.904C477.86 125.088 480.132 123.2 484.068 123.2C488.548 123.2 490.692 125.6 490.916 128.416H487.748C487.524 127.168 486.852 125.728 484.132 125.728C482.02 125.728 481.124 126.56 481.124 127.776C481.124 129.472 482.948 129.632 485.252 130.144C488.26 130.848 491.524 131.712 491.524 135.36C491.524 138.528 489.092 140.448 484.804 140.448ZM500.205 140.48C495.341 140.48 492.173 136.96 492.173 131.84C492.173 126.72 495.341 123.2 500.173 123.2C504.365 123.2 507.149 125.92 507.533 129.6H504.301C504.141 127.904 503.181 125.792 500.205 125.792C496.717 125.792 495.437 128.768 495.437 131.84C495.437 134.912 496.717 137.856 500.205 137.856C503.213 137.856 504.141 135.808 504.301 133.952H507.533C507.309 137.696 504.397 140.48 500.205 140.48ZM516.374 140.48C511.286 140.48 508.214 136.96 508.214 131.84C508.214 126.752 511.286 123.168 516.406 123.168C521.462 123.168 524.534 126.72 524.534 131.808C524.534 136.928 521.462 140.48 516.374 140.48ZM516.406 137.888C519.734 137.888 521.27 135.232 521.27 131.84C521.27 128.416 519.734 125.792 516.406 125.792C513.014 125.792 511.478 128.416 511.478 131.84C511.478 135.232 513.014 137.888 516.406 137.888ZM533.827 123.296C534.403 123.296 534.851 123.328 535.331 123.392V126.4C534.947 126.336 534.659 126.304 534.275 126.304C531.427 126.304 529.379 128.448 529.379 131.552V140H526.243V123.68H529.379V126.784H529.443C530.307 124.736 531.619 123.296 533.827 123.296ZM550.696 131.488C550.696 131.936 550.696 132.416 550.664 132.672H538.12C538.184 135.392 539.784 137.92 543.016 137.92C545.896 137.92 547.016 136.064 547.304 134.976H550.504C549.64 138.112 547.24 140.48 542.952 140.48C537.768 140.48 534.888 136.8 534.888 131.808C534.888 126.688 537.96 123.168 542.952 123.168C547.912 123.168 550.696 126.432 550.696 131.488ZM538.12 130.208H547.432C547.432 127.648 545.64 125.728 542.856 125.728C540.232 125.728 538.312 127.52 538.12 130.208ZM564.335 140H561.103L556.047 123.68H559.439L562.895 136.32H562.959L566.351 123.68H569.519L572.911 136.32H572.975L576.463 123.68H579.727L574.671 140H571.439L567.919 127.424H567.855L564.335 140ZM584.169 120.768H580.617V117.376H584.169V120.768ZM583.945 140H580.809V123.68H583.945V140ZM592.521 137.6C593.065 137.6 593.321 137.568 593.865 137.472V140C593.065 140.16 592.553 140.192 591.881 140.192C589.193 140.192 587.561 139.168 587.561 135.392V126.272H585.193V123.68H587.561V118.432H590.697V123.68H593.833V126.272H590.697V135.488C590.697 137.216 591.177 137.6 592.521 137.6ZM604.059 123.2C607.067 123.2 609.499 124.928 609.499 128.672V140H606.363V129.536C606.363 127.36 605.403 125.888 603.035 125.888C600.347 125.888 598.619 127.52 598.619 129.984V140H595.483V117.12H598.619V125.728H598.683C599.547 124.48 601.243 123.2 604.059 123.2ZM206.776 157.52C205.464 157.52 205.08 157.904 205.08 159.632V161.68H208.12V164.272H205.08V178H201.912V164.272H199.672V161.68H201.912V159.696C201.912 155.92 203.48 154.896 206.136 154.896C206.744 154.896 207.224 154.96 208.12 155.088V157.616C207.48 157.552 207.224 157.52 206.776 157.52ZM223.776 169.488C223.776 169.936 223.776 170.416 223.744 170.672H211.2C211.264 173.392 212.864 175.92 216.096 175.92C218.976 175.92 220.096 174.064 220.384 172.976H223.584C222.72 176.112 220.32 178.48 216.032 178.48C210.848 178.48 207.968 174.8 207.968 169.808C207.968 164.688 211.04 161.168 216.032 161.168C220.992 161.168 223.776 164.432 223.776 169.488ZM211.2 168.208H220.512C220.512 165.648 218.72 163.728 215.936 163.728C213.312 163.728 211.392 165.52 211.2 168.208ZM240.441 169.488C240.441 169.936 240.441 170.416 240.409 170.672H227.865C227.929 173.392 229.529 175.92 232.761 175.92C235.641 175.92 236.761 174.064 237.049 172.976H240.249C239.385 176.112 236.985 178.48 232.697 178.48C227.513 178.48 224.633 174.8 224.633 169.808C224.633 164.688 227.705 161.168 232.697 161.168C237.657 161.168 240.441 164.432 240.441 169.488ZM227.865 168.208H237.177C237.177 165.648 235.385 163.728 232.601 163.728C229.977 163.728 228.057 165.52 227.865 168.208ZM253.714 163.664V155.12H256.85V178H253.714V176.08H253.65C252.754 177.232 251.186 178.448 248.626 178.448C244.466 178.448 241.298 175.216 241.298 169.84C241.298 164.464 244.466 161.2 248.626 161.2C251.186 161.2 252.754 162.384 253.65 163.664H253.714ZM249.138 175.856C251.954 175.856 253.682 173.52 253.682 169.84C253.682 166.128 251.954 163.824 249.138 163.824C246.066 163.824 244.562 166.64 244.562 169.84C244.562 173.04 246.066 175.856 249.138 175.856ZM267.644 161.2C271.804 161.2 274.972 164.464 274.972 169.84C274.972 175.216 271.804 178.448 267.644 178.448C265.084 178.448 263.516 177.296 262.62 175.984H262.556V178H259.42V155.12H262.556V163.6H262.62C263.516 162.448 265.084 161.2 267.644 161.2ZM267.132 175.856C270.204 175.856 271.676 173.04 271.676 169.84C271.676 166.64 270.204 163.824 267.132 163.824C264.316 163.824 262.588 166.128 262.588 169.84C262.588 173.52 264.316 175.856 267.132 175.856ZM281.222 178.448C277.958 178.448 275.878 176.56 275.878 173.776C275.878 170.128 278.63 169.04 282.694 168.272C285.254 167.792 286.822 167.472 286.822 165.872C286.822 164.688 286.118 163.696 283.718 163.696C280.87 163.696 280.006 164.592 279.846 166.768H276.646C276.806 163.632 278.854 161.168 283.846 161.168C287.206 161.168 289.894 162.576 289.894 166.8V174.288C289.894 175.472 290.054 176.08 290.662 176.08C290.758 176.08 290.854 176.08 291.046 176.048V177.968C290.502 178.096 289.958 178.16 289.446 178.16C287.878 178.16 287.046 177.552 286.854 175.696H286.79C285.734 177.392 283.878 178.448 281.222 178.448ZM281.926 175.92C284.742 175.92 286.822 174.48 286.822 171.632V169.296C286.31 169.776 284.902 170.128 283.238 170.48C280.358 171.056 279.142 171.856 279.142 173.552C279.142 175.088 279.974 175.92 281.926 175.92ZM299.762 178.48C294.898 178.48 291.73 174.96 291.73 169.84C291.73 164.72 294.898 161.2 299.73 161.2C303.922 161.2 306.706 163.92 307.09 167.6H303.858C303.698 165.904 302.738 163.792 299.762 163.792C296.274 163.792 294.994 166.768 294.994 169.84C294.994 172.912 296.274 175.856 299.762 175.856C302.77 175.856 303.698 173.808 303.858 171.952H307.09C306.866 175.696 303.954 178.48 299.762 178.48ZM323.194 178H319.482L314.138 169.648L311.77 171.92V178H308.634V155.12H311.77V168.592L318.906 161.68H322.522L316.25 167.664L323.194 178ZM334.761 175.6C335.305 175.6 335.561 175.568 336.105 175.472V178C335.305 178.16 334.793 178.192 334.121 178.192C331.433 178.192 329.801 177.168 329.801 173.392V164.272H327.433V161.68H329.801V156.432H332.937V161.68H336.073V164.272H332.937V173.488C332.937 175.216 333.417 175.6 334.761 175.6ZM344.675 178.48C339.587 178.48 336.515 174.96 336.515 169.84C336.515 164.752 339.587 161.168 344.707 161.168C349.763 161.168 352.835 164.72 352.835 169.808C352.835 174.928 349.763 178.48 344.675 178.48ZM344.707 175.888C348.035 175.888 349.571 173.232 349.571 169.84C349.571 166.416 348.035 163.792 344.707 163.792C341.315 163.792 339.779 166.416 339.779 169.84C339.779 173.232 341.315 175.888 344.707 175.888ZM363.631 158.768H360.079V155.376H363.631V158.768ZM363.407 178H360.271V161.68H363.407V178ZM383.728 161.2C387.024 161.2 388.688 163.184 388.688 166.672V178H385.552V167.536C385.552 165.36 385.104 163.888 382.704 163.888C380.368 163.888 378.896 165.52 378.896 167.984V178H375.76V167.536C375.76 165.36 375.312 163.888 372.912 163.888C370.576 163.888 369.104 165.52 369.104 167.984V178H365.968V161.68H369.104V163.728H369.168C370.032 162.48 371.536 161.2 374 161.2C376.272 161.2 377.68 162.224 378.32 164.048H378.384C379.568 162.48 381.232 161.2 383.728 161.2ZM399.388 161.2C403.548 161.2 406.716 164.464 406.716 169.84C406.716 175.216 403.548 178.448 399.388 178.448C396.828 178.448 395.26 177.296 394.364 175.984H394.3V183.664H391.164V161.68H394.3V163.6H394.364C395.26 162.448 396.828 161.2 399.388 161.2ZM398.876 175.856C401.948 175.856 403.42 173.04 403.42 169.84C403.42 166.64 401.948 163.824 398.876 163.824C396.06 163.824 394.332 166.128 394.332 169.84C394.332 173.52 396.06 175.856 398.876 175.856ZM416.038 161.296C416.614 161.296 417.062 161.328 417.542 161.392V164.4C417.158 164.336 416.87 164.304 416.486 164.304C413.638 164.304 411.59 166.448 411.59 169.552V178H408.454V161.68H411.59V164.784H411.654C412.518 162.736 413.83 161.296 416.038 161.296ZM425.227 178.48C420.139 178.48 417.067 174.96 417.067 169.84C417.067 164.752 420.139 161.168 425.259 161.168C430.315 161.168 433.387 164.72 433.387 169.808C433.387 174.928 430.315 178.48 425.227 178.48ZM425.259 175.888C428.587 175.888 430.123 173.232 430.123 169.84C430.123 166.416 428.587 163.792 425.259 163.792C421.867 163.792 420.331 166.416 420.331 169.84C420.331 173.232 421.867 175.888 425.259 175.888ZM442.373 178H438.853L433.029 161.68H436.389L440.677 174.768H440.709L444.933 161.68H448.197L442.373 178ZM463.675 169.488C463.675 169.936 463.675 170.416 463.643 170.672H451.099C451.163 173.392 452.763 175.92 455.995 175.92C458.875 175.92 459.995 174.064 460.283 172.976H463.483C462.619 176.112 460.219 178.48 455.931 178.48C450.747 178.48 447.867 174.8 447.867 169.808C447.867 164.688 450.939 161.168 455.931 161.168C460.891 161.168 463.675 164.432 463.675 169.488ZM451.099 168.208H460.411C460.411 165.648 458.619 163.728 455.835 163.728C453.211 163.728 451.291 165.52 451.099 168.208ZM474.451 158.768H470.899V155.376H474.451V158.768ZM474.227 178H471.091V161.68H474.227V178ZM485.363 161.2C488.371 161.2 490.803 162.928 490.803 166.672V178H487.667V167.536C487.667 165.36 486.707 163.888 484.339 163.888C481.651 163.888 479.923 165.52 479.923 167.984V178H476.787V161.68H479.923V163.728H479.987C480.851 162.48 482.547 161.2 485.363 161.2ZM499.666 178.448C494.706 178.448 492.242 175.888 492.146 172.56H495.314C495.442 174.448 496.594 175.92 499.634 175.92C502.386 175.92 503.122 174.704 503.122 173.52C503.122 171.472 500.946 171.248 498.834 170.8C495.986 170.128 492.722 169.296 492.722 165.904C492.722 163.088 494.994 161.2 498.93 161.2C503.41 161.2 505.554 163.6 505.778 166.416H502.61C502.386 165.168 501.714 163.728 498.994 163.728C496.882 163.728 495.986 164.56 495.986 165.776C495.986 167.472 497.81 167.632 500.114 168.144C503.122 168.848 506.386 169.712 506.386 173.36C506.386 176.528 503.954 178.448 499.666 178.448ZM513.727 175.6C514.271 175.6 514.527 175.568 515.071 175.472V178C514.271 178.16 513.759 178.192 513.087 178.192C510.399 178.192 508.767 177.168 508.767 173.392V164.272H506.399V161.68H508.767V156.432H511.903V161.68H515.039V164.272H511.903V173.488C511.903 175.216 512.383 175.6 513.727 175.6ZM521.201 178.448C517.937 178.448 515.857 176.56 515.857 173.776C515.857 170.128 518.609 169.04 522.673 168.272C525.233 167.792 526.801 167.472 526.801 165.872C526.801 164.688 526.097 163.696 523.697 163.696C520.849 163.696 519.985 164.592 519.825 166.768H516.625C516.785 163.632 518.833 161.168 523.825 161.168C527.185 161.168 529.873 162.576 529.873 166.8V174.288C529.873 175.472 530.033 176.08 530.641 176.08C530.737 176.08 530.833 176.08 531.025 176.048V177.968C530.481 178.096 529.937 178.16 529.425 178.16C527.857 178.16 527.025 177.552 526.833 175.696H526.769C525.713 177.392 523.857 178.448 521.201 178.448ZM521.905 175.92C524.721 175.92 526.801 174.48 526.801 171.632V169.296C526.289 169.776 524.881 170.128 523.217 170.48C520.337 171.056 519.121 171.856 519.121 173.552C519.121 175.088 519.953 175.92 521.905 175.92ZM541.305 161.2C544.313 161.2 546.745 162.928 546.745 166.672V178H543.609V167.536C543.609 165.36 542.649 163.888 540.281 163.888C537.593 163.888 535.865 165.52 535.865 167.984V178H532.729V161.68H535.865V163.728H535.929C536.793 162.48 538.489 161.2 541.305 161.2ZM555.035 175.6C555.579 175.6 555.835 175.568 556.379 175.472V178C555.579 178.16 555.067 178.192 554.395 178.192C551.707 178.192 550.075 177.168 550.075 173.392V164.272H547.707V161.68H550.075V156.432H553.211V161.68H556.347V164.272H553.211V173.488C553.211 175.216 553.691 175.6 555.035 175.6ZM561.132 178H557.996V155.12H561.132V178ZM565.804 183.728C565.1 183.728 564.62 183.664 563.788 183.504V180.944C564.332 181.008 564.62 181.04 565.132 181.04C566.38 181.04 567.852 180.4 568.492 177.84L561.9 161.68H565.324L570.092 174.16H570.156L574.636 161.68H577.932L571.468 178.384C569.9 182.416 568.332 183.728 565.804 183.728Z" fill="#574F46"/>
</svg>
