<svg width="681" height="339" viewBox="0 0 681 339" fill="none" xmlns="http://www.w3.org/2000/svg">
<g filter="url(#filter0_d_320_2)">
<rect x="10.5" y="6.23743" width="660" height="318" rx="9.5" fill="white" stroke="#C1C1C1"/>
<circle cx="50" cy="38.9298" r="5" fill="#D9D9D9"/>
<circle cx="67.6924" cy="38.9298" r="5" fill="#D9D9D9"/>
<circle cx="85.3848" cy="38.9298" r="5" fill="#D9D9D9"/>
<path d="M48.0538 135.921C46.6138 133.953 45.7978 131.425 45.7978 128.849C45.7978 126.273 46.6138 123.761 48.0538 121.777L48.7738 122.321C47.7498 124.353 47.1098 126.177 47.1098 128.849C47.1098 131.505 47.7498 133.345 48.7738 135.361L48.0538 135.921ZM49.8785 127.409C49.8785 124.257 52.0065 121.889 55.1745 121.889C58.3265 121.889 60.4705 124.257 60.4705 127.409C60.4705 130.561 58.3265 132.929 55.1745 132.929C52.0065 132.929 49.8785 130.561 49.8785 127.409ZM59.0945 127.409C59.0945 124.913 57.5585 123.073 55.1745 123.073C52.7745 123.073 51.2545 124.913 51.2545 127.409C51.2545 129.889 52.7745 131.745 55.1745 131.745C57.5585 131.745 59.0945 129.889 59.0945 127.409ZM62.4969 132.737V125.009H63.6969V126.257C64.3209 125.441 65.2169 124.849 66.2729 124.849V126.081C66.1289 126.049 65.9849 126.033 65.7929 126.033C65.0569 126.033 64.0489 126.641 63.6969 127.265V132.737H62.4969ZM73.3781 132.737V131.585C72.8021 132.369 71.8581 132.929 70.7701 132.929C68.7541 132.929 67.3301 131.393 67.3301 128.881C67.3301 126.417 68.7381 124.817 70.7701 124.817C71.8101 124.817 72.7541 125.329 73.3781 126.177V122.065H74.5781V132.737H73.3781ZM73.3781 130.641V127.137C72.9461 126.465 72.0181 125.889 71.0581 125.889C69.5061 125.889 68.5781 127.169 68.5781 128.881C68.5781 130.593 69.5061 131.857 71.0581 131.857C72.0181 131.857 72.9461 131.313 73.3781 130.641ZM76.7413 132.017C76.7413 131.537 77.1413 131.137 77.6213 131.137C78.1013 131.137 78.5013 131.537 78.5013 132.017C78.5013 132.497 78.1013 132.897 77.6213 132.897C77.1413 132.897 76.7413 132.497 76.7413 132.017ZM84.4578 132.737V131.681C88.2977 128.657 90.3778 126.881 90.3778 125.041C90.3778 123.681 89.2578 123.089 88.1538 123.089C86.8738 123.089 85.8818 123.633 85.2578 124.433L84.4418 123.585C85.2578 122.513 86.6498 121.905 88.1538 121.905C89.9298 121.905 91.7378 122.913 91.7378 125.041C91.7378 127.217 89.5298 129.201 86.5538 131.553H91.7858V132.737H84.4578ZM93.816 127.409C93.816 124.801 94.968 121.905 97.896 121.905C100.808 121.905 101.976 124.801 101.976 127.409C101.976 130.001 100.808 132.929 97.896 132.929C94.968 132.929 93.816 130.001 93.816 127.409ZM100.616 127.409C100.616 125.281 99.928 123.089 97.896 123.089C95.864 123.089 95.176 125.281 95.176 127.409C95.176 129.537 95.864 131.745 97.896 131.745C99.928 131.745 100.616 129.537 100.616 127.409ZM103.661 132.737V131.681C107.501 128.657 109.581 126.881 109.581 125.041C109.581 123.681 108.461 123.089 107.357 123.089C106.077 123.089 105.085 123.633 104.461 124.433L103.645 123.585C104.461 122.513 105.853 121.905 107.357 121.905C109.133 121.905 110.941 122.913 110.941 125.041C110.941 127.217 108.733 129.201 105.757 131.553H110.989V132.737H103.661ZM113.067 132.737V131.681C116.907 128.657 118.987 126.881 118.987 125.041C118.987 123.681 117.867 123.089 116.763 123.089C115.483 123.089 114.491 123.633 113.867 124.433L113.051 123.585C113.867 122.513 115.259 121.905 116.763 121.905C118.539 121.905 120.347 122.913 120.347 125.041C120.347 127.217 118.139 129.201 115.163 131.553H120.395V132.737H113.067ZM122.089 129.393V128.337H125.929V129.393H122.089ZM127.222 127.409C127.222 124.801 128.374 121.905 131.302 121.905C134.214 121.905 135.382 124.801 135.382 127.409C135.382 130.001 134.214 132.929 131.302 132.929C128.374 132.929 127.222 130.001 127.222 127.409ZM134.022 127.409C134.022 125.281 133.334 123.089 131.302 123.089C129.27 123.089 128.582 125.281 128.582 127.409C128.582 129.537 129.27 131.745 131.302 131.745C133.334 131.745 134.022 129.537 134.022 127.409ZM137.019 127.409C137.019 124.801 138.171 121.905 141.099 121.905C144.011 121.905 145.179 124.801 145.179 127.409C145.179 130.001 144.011 132.929 141.099 132.929C138.171 132.929 137.019 130.001 137.019 127.409ZM143.819 127.409C143.819 125.281 143.131 123.089 141.099 123.089C139.067 123.089 138.379 125.281 138.379 127.409C138.379 129.537 139.067 131.745 141.099 131.745C143.131 131.745 143.819 129.537 143.819 127.409ZM147.056 131.217L147.872 130.337C148.576 131.233 149.504 131.745 150.816 131.745C152.272 131.745 153.28 130.753 153.28 129.457C153.28 128.049 152.272 127.153 150.832 127.153C149.888 127.153 149.088 127.457 148.368 128.161L147.392 127.825V122.065H153.92V123.249H148.72V126.961C149.232 126.449 150.144 126.001 151.216 126.001C152.992 126.001 154.608 127.217 154.608 129.409C154.608 131.585 152.96 132.929 150.816 132.929C149.008 132.929 147.856 132.273 147.056 131.217ZM155.902 131.169L156.686 130.337C157.31 131.169 158.398 131.745 159.661 131.745C161.214 131.745 162.158 130.977 162.158 129.745C162.158 128.417 161.07 127.857 159.502 127.857C159.054 127.857 158.558 127.857 158.398 127.873V126.657C158.574 126.673 159.07 126.673 159.502 126.673C160.846 126.673 161.982 126.145 161.982 124.913C161.982 123.729 160.894 123.089 159.598 123.089C158.43 123.089 157.566 123.537 156.782 124.385L156.046 123.553C156.814 122.625 158.046 121.905 159.694 121.905C161.742 121.905 163.31 122.945 163.31 124.753C163.31 126.289 162.014 127.057 161.006 127.233C161.982 127.313 163.47 128.145 163.47 129.857C163.47 131.633 162.046 132.929 159.694 132.929C157.886 132.929 156.558 132.129 155.902 131.169ZM173.685 129.745C174.565 130.081 175.157 130.641 175.157 131.681C175.157 133.169 173.909 134.033 172.117 134.033C170.549 134.033 169.685 133.441 169.013 132.785L169.621 132.001C170.101 132.577 170.981 133.153 172.117 133.153C173.221 133.153 173.989 132.641 173.989 131.761C173.989 130.865 173.013 130.609 171.941 130.337C170.645 130.001 169.205 129.649 169.205 128.097C169.205 126.961 170.085 126.305 171.045 126.049C169.925 125.697 169.205 125.137 169.205 124.081C169.205 122.897 170.261 121.905 172.085 121.905C173.525 121.905 174.421 122.449 174.933 123.041L174.389 123.761C173.845 123.105 172.949 122.801 172.117 122.801C171.093 122.801 170.373 123.297 170.373 124.081C170.373 124.881 171.285 125.089 172.309 125.329C173.637 125.633 175.157 126.001 175.157 127.697C175.157 128.593 174.661 129.313 173.685 129.745ZM172.165 126.385C170.773 126.737 170.373 127.281 170.373 127.969C170.373 128.913 171.493 129.137 172.645 129.425C173.493 129.057 173.973 128.609 173.973 127.857C173.973 126.929 173.045 126.609 172.165 126.385ZM182.926 132.737V123.825L181.214 125.633L180.414 124.817L183.086 122.065H184.254V132.737H182.926ZM191.084 132.737V130.033H186.012V128.929L190.588 122.065H192.412V128.865H193.916V130.033H192.412V132.737H191.084ZM191.084 123.297L187.34 128.865H191.084V123.297ZM195.926 134.769L195.334 134.273C195.846 133.937 196.31 133.313 196.374 132.785C196.342 132.801 196.23 132.817 196.15 132.817C195.702 132.817 195.382 132.481 195.382 132.001C195.382 131.537 195.75 131.137 196.23 131.137C196.758 131.137 197.238 131.585 197.238 132.353C197.238 133.329 196.662 134.241 195.926 134.769ZM203.098 132.737V131.681C206.938 128.657 209.018 126.881 209.018 125.041C209.018 123.681 207.898 123.089 206.794 123.089C205.514 123.089 204.522 123.633 203.898 124.433L203.082 123.585C203.898 122.513 205.29 121.905 206.794 121.905C208.57 121.905 210.378 122.913 210.378 125.041C210.378 127.217 208.17 129.201 205.194 131.553H210.426V132.737H203.098ZM212.457 127.409C212.457 124.801 213.609 121.905 216.537 121.905C219.449 121.905 220.617 124.801 220.617 127.409C220.617 130.001 219.449 132.929 216.537 132.929C213.609 132.929 212.457 130.001 212.457 127.409ZM219.257 127.409C219.257 125.281 218.569 123.089 216.537 123.089C214.505 123.089 213.817 125.281 213.817 127.409C213.817 129.537 214.505 131.745 216.537 131.745C218.569 131.745 219.257 129.537 219.257 127.409ZM222.302 132.737V131.681C226.141 128.657 228.222 126.881 228.222 125.041C228.222 123.681 227.102 123.089 225.998 123.089C224.718 123.089 223.726 123.633 223.102 124.433L222.286 123.585C223.102 122.513 224.494 121.905 225.998 121.905C227.774 121.905 229.582 122.913 229.582 125.041C229.582 127.217 227.374 129.201 224.398 131.553H229.63V132.737H222.302ZM231.708 132.737V131.681C235.548 128.657 237.628 126.881 237.628 125.041C237.628 123.681 236.508 123.089 235.404 123.089C234.124 123.089 233.132 123.633 232.508 124.433L231.692 123.585C232.508 122.513 233.9 121.905 235.404 121.905C237.18 121.905 238.988 122.913 238.988 125.041C238.988 127.217 236.78 129.201 233.804 131.553H239.036V132.737H231.708ZM241.21 132.017C241.21 131.537 241.61 131.137 242.09 131.137C242.57 131.137 242.97 131.537 242.97 132.017C242.97 132.497 242.57 132.897 242.09 132.897C241.61 132.897 241.21 132.497 241.21 132.017ZM245.89 128.849C245.89 126.177 245.25 124.353 244.21 122.321L244.93 121.777C246.386 123.761 247.202 126.273 247.202 128.849C247.202 131.425 246.386 133.953 244.93 135.921L244.21 135.361C245.25 133.345 245.89 131.505 245.89 128.849Z" fill="#777676"/>
<path d="M49.0625 135.249H164.344V136.113H49.0625V135.249Z" fill="#777676"/>
<a href="https://library.municode.com/ca/los_angeles_county/ordinances/code_of_ordinances?nodeId=1186266">
<rect fill="black" fill-opacity="0" x="4.0625" y="10.9824" width="115.287" height="16"/>
</a>
<path d="M50.832 191.737V177.505H45.768V175.729H57.912V177.505H52.824V191.737H50.832ZM68.3355 191.737V184.105C68.3355 182.065 67.2795 181.465 65.7195 181.465C64.3275 181.465 62.9835 182.329 62.2875 183.265V191.737H60.4875V175.729H62.2875V181.825C63.1035 180.865 64.6875 179.857 66.4395 179.857C68.8635 179.857 70.1355 181.033 70.1355 183.553V191.737H68.3355ZM80.9777 191.737V190.417C80.0177 191.473 78.6977 192.025 77.1377 192.025C75.1697 192.025 73.0817 190.705 73.0817 188.185C73.0817 185.593 75.1697 184.369 77.1377 184.369C78.7217 184.369 80.0417 184.873 80.9777 185.953V183.865C80.9777 182.305 79.7297 181.417 78.0497 181.417C76.6577 181.417 75.5297 181.921 74.4977 183.025L73.6577 181.777C74.9057 180.481 76.3937 179.857 78.2897 179.857C80.7377 179.857 82.7777 180.961 82.7777 183.769V191.737H80.9777ZM80.9777 189.289V187.105C80.2817 186.145 79.0577 185.665 77.7857 185.665C76.1057 185.665 74.9297 186.721 74.9297 188.209C74.9297 189.673 76.1057 190.729 77.7857 190.729C79.0577 190.729 80.2817 190.249 80.9777 189.289ZM89.3139 192.025C87.6099 192.025 86.7459 191.041 86.7459 189.313V181.729H84.8259V180.145H86.7459V176.977H88.5459V180.145H90.8979V181.729H88.5459V188.929C88.5459 189.793 88.9299 190.417 89.7219 190.417C90.2259 190.417 90.7059 190.201 90.9459 189.937L91.4739 191.281C91.0179 191.713 90.3699 192.025 89.3139 192.025ZM101.428 196.153H99.6281V180.145H101.428V181.873C102.268 180.697 103.708 179.857 105.34 179.857C108.388 179.857 110.5 182.161 110.5 185.929C110.5 189.673 108.388 192.025 105.34 192.025C103.756 192.025 102.364 191.281 101.428 189.985V196.153ZM108.604 185.929C108.604 183.361 107.212 181.465 104.884 181.465C103.468 181.465 102.052 182.305 101.428 183.313V188.545C102.052 189.553 103.468 190.417 104.884 190.417C107.212 190.417 108.604 188.497 108.604 185.929ZM118.473 192.025C114.945 192.025 112.737 189.289 112.737 185.929C112.737 182.569 114.945 179.857 118.473 179.857C122.001 179.857 124.209 182.569 124.209 185.929C124.209 189.289 122.001 192.025 118.473 192.025ZM118.473 190.417C120.945 190.417 122.313 188.305 122.313 185.929C122.313 183.577 120.945 181.465 118.473 181.465C116.001 181.465 114.609 183.577 114.609 185.929C114.609 188.305 116.001 190.417 118.473 190.417ZM127.144 191.737V180.145H128.944V182.017C129.88 180.793 131.224 179.905 132.808 179.905V181.753C132.592 181.705 132.376 181.681 132.088 181.681C130.984 181.681 129.472 182.593 128.944 183.529V191.737H127.144ZM137.994 192.025C136.29 192.025 135.426 191.041 135.426 189.313V181.729H133.506V180.145H135.426V176.977H137.226V180.145H139.578V181.729H137.226V188.929C137.226 189.793 137.61 190.417 138.402 190.417C138.906 190.417 139.386 190.201 139.626 189.937L140.154 191.281C139.698 191.713 139.05 192.025 137.994 192.025ZM143.008 178.201C142.36 178.201 141.808 177.649 141.808 176.977C141.808 176.305 142.36 175.777 143.008 175.777C143.68 175.777 144.232 176.305 144.232 176.977C144.232 177.649 143.68 178.201 143.008 178.201ZM142.12 191.737V180.145H143.92V191.737H142.12ZM152.575 192.025C149.047 192.025 146.839 189.289 146.839 185.929C146.839 182.569 149.047 179.857 152.575 179.857C156.103 179.857 158.311 182.569 158.311 185.929C158.311 189.289 156.103 192.025 152.575 192.025ZM152.575 190.417C155.047 190.417 156.415 188.305 156.415 185.929C156.415 183.577 155.047 181.465 152.575 181.465C150.103 181.465 148.711 183.577 148.711 185.929C148.711 188.305 150.103 190.417 152.575 190.417ZM169.069 191.737V184.153C169.069 182.113 168.037 181.465 166.477 181.465C165.061 181.465 163.717 182.329 163.045 183.265V191.737H161.245V180.145H163.045V181.825C163.861 180.865 165.445 179.857 167.173 179.857C169.597 179.857 170.869 181.081 170.869 183.601V191.737H169.069ZM185.716 192.025C182.188 192.025 179.98 189.289 179.98 185.929C179.98 182.569 182.188 179.857 185.716 179.857C189.244 179.857 191.452 182.569 191.452 185.929C191.452 189.289 189.244 192.025 185.716 192.025ZM185.716 190.417C188.188 190.417 189.556 188.305 189.556 185.929C189.556 183.577 188.188 181.465 185.716 181.465C183.244 181.465 181.852 183.577 181.852 185.929C181.852 188.305 183.244 190.417 185.716 190.417ZM194.89 191.737V181.729H192.97V180.145H194.89V179.257C194.89 176.857 196.234 175.489 198.25 175.489C198.922 175.489 199.546 175.609 200.002 175.897L199.546 177.241C199.258 177.073 198.922 176.977 198.514 176.977C197.338 176.977 196.69 177.793 196.69 179.257V180.145H199.042V181.729H196.69V191.737H194.89ZM210.298 192.025C208.594 192.025 207.73 191.041 207.73 189.313V181.729H205.81V180.145H207.73V176.977H209.53V180.145H211.882V181.729H209.53V188.929C209.53 189.793 209.914 190.417 210.706 190.417C211.21 190.417 211.69 190.201 211.93 189.937L212.458 191.281C212.002 191.713 211.354 192.025 210.298 192.025ZM222.273 191.737V184.105C222.273 182.065 221.217 181.465 219.657 181.465C218.265 181.465 216.921 182.329 216.225 183.265V191.737H214.425V175.729H216.225V181.825C217.041 180.865 218.625 179.857 220.377 179.857C222.801 179.857 224.073 181.033 224.073 183.553V191.737H222.273ZM226.995 185.929C226.995 182.569 229.395 179.857 232.707 179.857C236.211 179.857 238.275 182.593 238.275 186.073V186.529H228.891C229.035 188.713 230.571 190.537 233.067 190.537C234.387 190.537 235.731 190.009 236.643 189.073L237.507 190.249C236.355 191.401 234.795 192.025 232.899 192.025C229.467 192.025 226.995 189.553 226.995 185.929ZM232.683 181.345C230.211 181.345 228.987 183.433 228.891 185.209H236.499C236.475 183.481 235.323 181.345 232.683 181.345ZM247.378 191.737V175.729H249.178V181.897C250.114 180.625 251.506 179.857 253.09 179.857C256.114 179.857 258.25 182.257 258.25 185.953C258.25 189.721 256.114 192.025 253.09 192.025C251.458 192.025 250.042 191.185 249.178 190.009V191.737H247.378ZM249.178 188.593C249.802 189.601 251.218 190.417 252.634 190.417C254.986 190.417 256.378 188.521 256.378 185.953C256.378 183.385 254.986 181.465 252.634 181.465C251.218 181.465 249.802 182.329 249.178 183.337V188.593ZM269.007 191.737V190.105C268.119 191.113 266.607 192.025 264.879 192.025C262.455 192.025 261.183 190.849 261.183 188.329V180.145H262.983V187.777C262.983 189.817 264.015 190.417 265.575 190.417C266.991 190.417 268.335 189.601 269.007 188.665V180.145H270.807V191.737H269.007ZM275.29 178.201C274.642 178.201 274.09 177.649 274.09 176.977C274.09 176.305 274.642 175.777 275.29 175.777C275.962 175.777 276.514 176.305 276.514 176.977C276.514 177.649 275.962 178.201 275.29 178.201ZM274.402 191.737V180.145H276.202V191.737H274.402ZM279.792 191.737V175.729H281.592V191.737H279.792ZM293.583 191.737V190.009C292.719 191.185 291.303 192.025 289.671 192.025C286.647 192.025 284.511 189.721 284.511 185.953C284.511 182.257 286.623 179.857 289.671 179.857C291.231 179.857 292.647 180.625 293.583 181.897V175.729H295.383V191.737H293.583ZM293.583 188.593V183.337C292.935 182.329 291.543 181.465 290.103 181.465C287.775 181.465 286.383 183.385 286.383 185.953C286.383 188.521 287.775 190.417 290.103 190.417C291.543 190.417 292.935 189.601 293.583 188.593ZM299.876 178.201C299.228 178.201 298.676 177.649 298.676 176.977C298.676 176.305 299.228 175.777 299.876 175.777C300.548 175.777 301.1 176.305 301.1 176.977C301.1 177.649 300.548 178.201 299.876 178.201ZM298.988 191.737V180.145H300.788V191.737H298.988ZM312.202 191.737V184.153C312.202 182.113 311.17 181.465 309.61 181.465C308.194 181.465 306.85 182.329 306.178 183.265V191.737H304.378V180.145H306.178V181.825C306.994 180.865 308.578 179.857 310.306 179.857C312.73 179.857 314.002 181.081 314.002 183.601V191.737H312.202ZM317.573 194.713L318.485 193.369C319.445 194.521 320.597 194.953 322.253 194.953C324.173 194.953 325.973 194.017 325.973 191.473V189.817C325.133 190.993 323.717 191.881 322.085 191.881C319.061 191.881 316.925 189.625 316.925 185.881C316.925 182.161 319.037 179.857 322.085 179.857C323.645 179.857 325.037 180.625 325.973 181.897V180.145H327.773V191.401C327.773 195.241 325.085 196.441 322.253 196.441C320.285 196.441 318.941 196.057 317.573 194.713ZM325.973 188.401V183.337C325.349 182.329 323.957 181.465 322.517 181.465C320.189 181.465 318.797 183.313 318.797 185.881C318.797 188.425 320.189 190.297 322.517 190.297C323.957 190.297 325.349 189.409 325.973 188.401ZM336.558 190.201L337.494 188.905C338.262 189.793 339.726 190.561 341.31 190.561C343.086 190.561 344.046 189.769 344.046 188.641C344.046 187.369 342.63 186.961 341.07 186.577C339.102 186.121 336.87 185.593 336.87 183.193C336.87 181.393 338.43 179.857 341.19 179.857C343.158 179.857 344.55 180.601 345.486 181.537L344.646 182.785C343.95 181.945 342.678 181.321 341.19 181.321C339.606 181.321 338.622 182.041 338.622 183.073C338.622 184.201 339.942 184.561 341.454 184.921C343.47 185.377 345.798 185.953 345.798 188.521C345.798 190.465 344.238 192.025 341.238 192.025C339.342 192.025 337.734 191.449 336.558 190.201ZM348.05 185.929C348.05 182.569 350.45 179.857 353.762 179.857C357.266 179.857 359.33 182.593 359.33 186.073V186.529H349.946C350.09 188.713 351.626 190.537 354.122 190.537C355.442 190.537 356.786 190.009 357.698 189.073L358.562 190.249C357.41 191.401 355.85 192.025 353.954 192.025C350.522 192.025 348.05 189.553 348.05 185.929ZM353.738 181.345C351.266 181.345 350.042 183.433 349.946 185.209H357.554C357.53 183.481 356.378 181.345 353.738 181.345ZM372.277 191.737L369.253 182.425L366.229 191.737H364.429L360.733 180.145H362.605L365.437 189.385L368.485 180.145H370.021L373.069 189.385L375.901 180.145H377.773L374.077 191.737H372.277ZM379.198 185.929C379.198 182.569 381.598 179.857 384.91 179.857C388.414 179.857 390.478 182.593 390.478 186.073V186.529H381.094C381.238 188.713 382.774 190.537 385.27 190.537C386.59 190.537 387.934 190.009 388.846 189.073L389.71 190.249C388.558 191.401 386.998 192.025 385.102 192.025C381.67 192.025 379.198 189.553 379.198 185.929ZM384.886 181.345C382.414 181.345 381.19 183.433 381.094 185.209H388.702C388.678 183.481 387.526 181.345 384.886 181.345ZM393.394 191.737V180.145H395.194V182.017C396.13 180.793 397.474 179.905 399.058 179.905V181.753C398.842 181.705 398.626 181.681 398.338 181.681C397.234 181.681 395.722 182.593 395.194 183.529V191.737H393.394ZM406.831 185.929C406.831 182.569 409.231 179.857 412.543 179.857C416.047 179.857 418.111 182.593 418.111 186.073V186.529H408.727C408.871 188.713 410.407 190.537 412.903 190.537C414.223 190.537 415.567 190.009 416.479 189.073L417.343 190.249C416.191 191.401 414.631 192.025 412.735 192.025C409.303 192.025 406.831 189.553 406.831 185.929ZM412.519 181.345C410.047 181.345 408.823 183.433 408.727 185.209H416.335C416.311 183.481 415.159 181.345 412.519 181.345ZM427.765 191.737L424.285 186.985L420.805 191.737H418.741L423.181 185.785L418.981 180.145H421.069L424.285 184.561L427.501 180.145H429.589L425.389 185.785L429.853 191.737H427.765ZM434.853 192.025C433.149 192.025 432.285 191.041 432.285 189.313V181.729H430.365V180.145H432.285V176.977H434.085V180.145H436.437V181.729H434.085V188.929C434.085 189.793 434.469 190.417 435.261 190.417C435.765 190.417 436.245 190.201 436.485 189.937L437.013 191.281C436.557 191.713 435.909 192.025 434.853 192.025ZM438.308 185.929C438.308 182.569 440.708 179.857 444.02 179.857C447.524 179.857 449.588 182.593 449.588 186.073V186.529H440.204C440.348 188.713 441.884 190.537 444.38 190.537C445.7 190.537 447.044 190.009 447.956 189.073L448.82 190.249C447.668 191.401 446.108 192.025 444.212 192.025C440.78 192.025 438.308 189.553 438.308 185.929ZM443.996 181.345C441.524 181.345 440.3 183.433 440.204 185.209H447.812C447.788 183.481 446.636 181.345 443.996 181.345ZM460.327 191.737V184.153C460.327 182.113 459.295 181.465 457.735 181.465C456.319 181.465 454.975 182.329 454.303 183.265V191.737H452.503V180.145H454.303V181.825C455.119 180.865 456.703 179.857 458.431 179.857C460.855 179.857 462.127 181.081 462.127 183.601V191.737H460.327ZM474.122 191.737V190.009C473.258 191.185 471.842 192.025 470.21 192.025C467.186 192.025 465.05 189.721 465.05 185.953C465.05 182.257 467.162 179.857 470.21 179.857C471.77 179.857 473.186 180.625 474.122 181.897V175.729H475.922V191.737H474.122ZM474.122 188.593V183.337C473.474 182.329 472.082 181.465 470.642 181.465C468.314 181.465 466.922 183.385 466.922 185.953C466.922 188.521 468.314 190.417 470.642 190.417C472.082 190.417 473.474 189.601 474.122 188.593ZM480.415 178.201C479.767 178.201 479.215 177.649 479.215 176.977C479.215 176.305 479.767 175.777 480.415 175.777C481.087 175.777 481.639 176.305 481.639 176.977C481.639 177.649 481.087 178.201 480.415 178.201ZM479.527 191.737V180.145H481.327V191.737H479.527ZM492.741 191.737V184.153C492.741 182.113 491.709 181.465 490.149 181.465C488.733 181.465 487.389 182.329 486.717 183.265V191.737H484.917V180.145H486.717V181.825C487.533 180.865 489.117 179.857 490.845 179.857C493.269 179.857 494.541 181.081 494.541 183.601V191.737H492.741ZM498.112 194.713L499.024 193.369C499.984 194.521 501.136 194.953 502.792 194.953C504.712 194.953 506.512 194.017 506.512 191.473V189.817C505.672 190.993 504.256 191.881 502.624 191.881C499.6 191.881 497.464 189.625 497.464 185.881C497.464 182.161 499.576 179.857 502.624 179.857C504.184 179.857 505.576 180.625 506.512 181.897V180.145H508.312V191.401C508.312 195.241 505.624 196.441 502.792 196.441C500.824 196.441 499.48 196.057 498.112 194.713ZM506.512 188.401V183.337C505.888 182.329 504.496 181.465 503.056 181.465C500.728 181.465 499.336 183.313 499.336 185.881C499.336 188.425 500.728 190.297 503.056 190.297C504.496 190.297 505.888 189.409 506.512 188.401ZM518.609 191.737V181.729H516.689V180.145H518.609V179.257C518.609 176.857 519.953 175.489 521.969 175.489C522.641 175.489 523.265 175.609 523.721 175.897L523.265 177.241C522.977 177.073 522.641 176.977 522.233 176.977C521.057 176.977 520.409 177.793 520.409 179.257V180.145H522.761V181.729H520.409V191.737H518.609ZM524.902 191.737V180.145H526.702V182.017C527.638 180.793 528.982 179.905 530.566 179.905V181.753C530.35 181.705 530.134 181.681 529.846 181.681C528.742 181.681 527.23 182.593 526.702 183.529V191.737H524.902ZM537.887 192.025C534.359 192.025 532.151 189.289 532.151 185.929C532.151 182.569 534.359 179.857 537.887 179.857C541.415 179.857 543.623 182.569 543.623 185.929C543.623 189.289 541.415 192.025 537.887 192.025ZM537.887 190.417C540.359 190.417 541.727 188.305 541.727 185.929C541.727 183.577 540.359 181.465 537.887 181.465C535.415 181.465 534.023 183.577 534.023 185.929C534.023 188.305 535.415 190.417 537.887 190.417ZM560.55 191.737V183.865C560.55 182.401 559.902 181.465 558.414 181.465C557.214 181.465 555.942 182.329 555.342 183.241V191.737H553.542V183.865C553.542 182.401 552.918 181.465 551.406 181.465C550.23 181.465 548.982 182.329 548.358 183.265V191.737H546.558V180.145H548.358V181.825C548.838 181.081 550.398 179.857 552.102 179.857C553.878 179.857 554.886 180.817 555.222 182.017C555.87 180.961 557.43 179.857 559.11 179.857C561.222 179.857 562.35 181.033 562.35 183.361V191.737H560.55ZM575.056 192.025C573.352 192.025 572.488 191.041 572.488 189.313V181.729H570.568V180.145H572.488V176.977H574.288V180.145H576.64V181.729H574.288V188.929C574.288 189.793 574.672 190.417 575.464 190.417C575.968 190.417 576.448 190.201 576.688 189.937L577.216 191.281C576.76 191.713 576.112 192.025 575.056 192.025ZM587.031 191.737V184.105C587.031 182.065 585.975 181.465 584.415 181.465C583.023 181.465 581.679 182.329 580.983 183.265V191.737H579.183V175.729H580.983V181.825C581.799 180.865 583.383 179.857 585.135 179.857C587.559 179.857 588.831 181.033 588.831 183.553V191.737H587.031ZM591.753 185.929C591.753 182.569 594.153 179.857 597.465 179.857C600.969 179.857 603.033 182.593 603.033 186.073V186.529H593.649C593.793 188.713 595.329 190.537 597.825 190.537C599.145 190.537 600.489 190.009 601.401 189.073L602.265 190.249C601.113 191.401 599.553 192.025 597.657 192.025C594.225 192.025 591.753 189.553 591.753 185.929ZM597.441 181.345C594.969 181.345 593.745 183.433 593.649 185.209H601.257C601.233 183.481 600.081 181.345 597.441 181.345ZM48.6 234.153H46.8V218.145H48.6V219.873C49.44 218.697 50.88 217.857 52.512 217.857C55.56 217.857 57.672 220.161 57.672 223.929C57.672 227.673 55.56 230.025 52.512 230.025C50.928 230.025 49.536 229.281 48.6 227.985V234.153ZM55.776 223.929C55.776 221.361 54.384 219.465 52.056 219.465C50.64 219.465 49.224 220.305 48.6 221.313V226.545C49.224 227.553 50.64 228.417 52.056 228.417C54.384 228.417 55.776 226.497 55.776 223.929ZM68.4053 229.737V228.105C67.5173 229.113 66.0053 230.025 64.2773 230.025C61.8533 230.025 60.5813 228.849 60.5813 226.329V218.145H62.3813V225.777C62.3813 227.817 63.4133 228.417 64.9733 228.417C66.3893 228.417 67.7333 227.601 68.4053 226.665V218.145H70.2053V229.737H68.4053ZM73.8 229.737V213.729H75.6V219.897C76.536 218.625 77.928 217.857 79.512 217.857C82.536 217.857 84.672 220.257 84.672 223.953C84.672 227.721 82.536 230.025 79.512 230.025C77.88 230.025 76.464 229.185 75.6 228.009V229.737H73.8ZM75.6 226.593C76.224 227.601 77.64 228.417 79.056 228.417C81.408 228.417 82.8 226.521 82.8 223.953C82.8 221.385 81.408 219.465 79.056 219.465C77.64 219.465 76.224 220.329 75.6 221.337V226.593ZM87.6047 229.737V213.729H89.4047V229.737H87.6047ZM93.8833 216.201C93.2353 216.201 92.6833 215.649 92.6833 214.977C92.6833 214.305 93.2353 213.777 93.8833 213.777C94.5553 213.777 95.1073 214.305 95.1073 214.977C95.1073 215.649 94.5553 216.201 93.8833 216.201ZM92.9953 229.737V218.145H94.7953V229.737H92.9953ZM97.7139 223.929C97.7139 220.497 100.042 217.857 103.498 217.857C105.61 217.857 106.858 218.721 107.746 219.873L106.546 220.977C105.778 219.921 104.794 219.465 103.594 219.465C101.122 219.465 99.5859 221.361 99.5859 223.929C99.5859 226.497 101.122 228.417 103.594 228.417C104.794 228.417 105.778 227.937 106.546 226.905L107.746 228.009C106.858 229.161 105.61 230.025 103.498 230.025C100.042 230.025 97.7139 227.385 97.7139 223.929ZM115.448 228.201L116.384 226.905C117.152 227.793 118.616 228.561 120.2 228.561C121.976 228.561 122.936 227.769 122.936 226.641C122.936 225.369 121.52 224.961 119.96 224.577C117.992 224.121 115.76 223.593 115.76 221.193C115.76 219.393 117.32 217.857 120.08 217.857C122.048 217.857 123.44 218.601 124.376 219.537L123.536 220.785C122.84 219.945 121.568 219.321 120.08 219.321C118.496 219.321 117.512 220.041 117.512 221.073C117.512 222.201 118.832 222.561 120.344 222.921C122.36 223.377 124.688 223.953 124.688 226.521C124.688 228.465 123.128 230.025 120.128 230.025C118.232 230.025 116.624 229.449 115.448 228.201ZM126.941 223.929C126.941 220.569 129.34 217.857 132.653 217.857C136.157 217.857 138.221 220.593 138.221 224.073V224.529H128.837C128.98 226.713 130.517 228.537 133.013 228.537C134.333 228.537 135.677 228.009 136.589 227.073L137.453 228.249C136.301 229.401 134.741 230.025 132.845 230.025C129.413 230.025 126.941 227.553 126.941 223.929ZM132.629 219.345C130.157 219.345 128.933 221.433 128.837 223.209H136.445C136.421 221.481 135.269 219.345 132.629 219.345ZM151.168 229.737L148.144 220.425L145.12 229.737H143.32L139.624 218.145H141.496L144.328 227.385L147.376 218.145H148.912L151.96 227.385L154.792 218.145H156.664L152.968 229.737H151.168ZM158.089 223.929C158.089 220.569 160.489 217.857 163.801 217.857C167.305 217.857 169.369 220.593 169.369 224.073V224.529H159.985C160.129 226.713 161.665 228.537 164.161 228.537C165.481 228.537 166.825 228.009 167.737 227.073L168.601 228.249C167.449 229.401 165.889 230.025 163.993 230.025C160.561 230.025 158.089 227.553 158.089 223.929ZM163.777 219.345C161.305 219.345 160.081 221.433 159.985 223.209H167.593C167.569 221.481 166.417 219.345 163.777 219.345ZM172.284 229.737V218.145H174.084V220.017C175.02 218.793 176.364 217.905 177.948 217.905V219.753C177.732 219.705 177.516 219.681 177.228 219.681C176.124 219.681 174.612 220.593 174.084 221.529V229.737H172.284ZM189.322 230.025C187.618 230.025 186.754 229.041 186.754 227.313V219.729H184.834V218.145H186.754V214.977H188.554V218.145H190.906V219.729H188.554V226.929C188.554 227.793 188.938 228.417 189.73 228.417C190.234 228.417 190.714 228.201 190.954 227.937L191.482 229.281C191.026 229.713 190.378 230.025 189.322 230.025ZM198.512 230.025C194.984 230.025 192.776 227.289 192.776 223.929C192.776 220.569 194.984 217.857 198.512 217.857C202.04 217.857 204.248 220.569 204.248 223.929C204.248 227.289 202.04 230.025 198.512 230.025ZM198.512 228.417C200.984 228.417 202.352 226.305 202.352 223.929C202.352 221.577 200.984 219.465 198.512 219.465C196.04 219.465 194.648 221.577 194.648 223.929C194.648 226.305 196.04 228.417 198.512 228.417ZM216.298 230.025C214.594 230.025 213.73 229.041 213.73 227.313V219.729H211.81V218.145H213.73V214.977H215.53V218.145H217.882V219.729H215.53V226.929C215.53 227.793 215.914 228.417 216.706 228.417C217.21 228.417 217.69 228.201 217.93 227.937L218.458 229.281C218.002 229.713 217.354 230.025 216.298 230.025ZM228.273 229.737V222.105C228.273 220.065 227.217 219.465 225.657 219.465C224.265 219.465 222.921 220.329 222.225 221.265V229.737H220.425V213.729H222.225V219.825C223.041 218.865 224.625 217.857 226.377 217.857C228.801 217.857 230.073 219.033 230.073 221.553V229.737H228.273ZM232.995 223.929C232.995 220.569 235.395 217.857 238.707 217.857C242.211 217.857 244.275 220.593 244.275 224.073V224.529H234.891C235.035 226.713 236.571 228.537 239.067 228.537C240.387 228.537 241.731 228.009 242.643 227.073L243.507 228.249C242.355 229.401 240.795 230.025 238.899 230.025C235.467 230.025 232.995 227.553 232.995 223.929ZM238.683 219.345C236.211 219.345 234.987 221.433 234.891 223.209H242.499C242.475 221.481 241.323 219.345 238.683 219.345ZM255.178 234.153H253.378V218.145H255.178V219.873C256.018 218.697 257.458 217.857 259.09 217.857C262.138 217.857 264.25 220.161 264.25 223.929C264.25 227.673 262.138 230.025 259.09 230.025C257.506 230.025 256.114 229.281 255.178 227.985V234.153ZM262.354 223.929C262.354 221.361 260.962 219.465 258.634 219.465C257.218 219.465 255.802 220.305 255.178 221.313V226.545C255.802 227.553 257.218 228.417 258.634 228.417C260.962 228.417 262.354 226.497 262.354 223.929ZM267.159 229.737V218.145H268.959V220.017C269.895 218.793 271.239 217.905 272.823 217.905V219.753C272.607 219.705 272.391 219.681 272.103 219.681C270.999 219.681 269.487 220.593 268.959 221.529V229.737H267.159ZM280.145 230.025C276.617 230.025 274.409 227.289 274.409 223.929C274.409 220.569 276.617 217.857 280.145 217.857C283.673 217.857 285.881 220.569 285.881 223.929C285.881 227.289 283.673 230.025 280.145 230.025ZM280.145 228.417C282.617 228.417 283.985 226.305 283.985 223.929C283.985 221.577 282.617 219.465 280.145 219.465C277.673 219.465 276.281 221.577 276.281 223.929C276.281 226.305 277.673 228.417 280.145 228.417ZM290.616 234.153H288.816V218.145H290.616V219.873C291.456 218.697 292.896 217.857 294.528 217.857C297.576 217.857 299.688 220.161 299.688 223.929C299.688 227.673 297.576 230.025 294.528 230.025C292.944 230.025 291.552 229.281 290.616 227.985V234.153ZM297.792 223.929C297.792 221.361 296.4 219.465 294.072 219.465C292.656 219.465 291.24 220.305 290.616 221.313V226.545C291.24 227.553 292.656 228.417 294.072 228.417C296.4 228.417 297.792 226.497 297.792 223.929ZM301.925 223.929C301.925 220.569 304.325 217.857 307.637 217.857C311.141 217.857 313.205 220.593 313.205 224.073V224.529H303.821C303.965 226.713 305.501 228.537 307.997 228.537C309.317 228.537 310.661 228.009 311.573 227.073L312.437 228.249C311.285 229.401 309.725 230.025 307.829 230.025C304.397 230.025 301.925 227.553 301.925 223.929ZM307.613 219.345C305.141 219.345 303.917 221.433 303.821 223.209H311.429C311.405 221.481 310.253 219.345 307.613 219.345ZM316.12 229.737V218.145H317.92V220.017C318.856 218.793 320.2 217.905 321.784 217.905V219.753C321.568 219.705 321.352 219.681 321.064 219.681C319.96 219.681 318.448 220.593 317.92 221.529V229.737H316.12ZM326.97 230.025C325.266 230.025 324.402 229.041 324.402 227.313V219.729H322.482V218.145H324.402V214.977H326.202V218.145H328.554V219.729H326.202V226.929C326.202 227.793 326.586 228.417 327.378 228.417C327.882 228.417 328.362 228.201 328.602 227.937L329.13 229.281C328.674 229.713 328.026 230.025 326.97 230.025ZM330.737 232.641C331.001 232.761 331.433 232.833 331.721 232.833C332.513 232.833 333.041 232.569 333.449 231.609L334.217 229.857L329.369 218.145H331.313L335.177 227.649L339.017 218.145H340.985L335.177 232.089C334.481 233.769 333.305 234.417 331.769 234.441C331.385 234.441 330.785 234.369 330.449 234.273L330.737 232.641ZM349.05 229.737V213.729H350.85V229.737H349.05ZM355.329 216.201C354.681 216.201 354.129 215.649 354.129 214.977C354.129 214.305 354.681 213.777 355.329 213.777C356.001 213.777 356.553 214.305 356.553 214.977C356.553 215.649 356.001 216.201 355.329 216.201ZM354.441 229.737V218.145H356.241V229.737H354.441ZM367.655 229.737V222.153C367.655 220.113 366.623 219.465 365.063 219.465C363.647 219.465 362.303 220.329 361.631 221.265V229.737H359.831V218.145H361.631V219.825C362.447 218.865 364.031 217.857 365.759 217.857C368.183 217.857 369.455 219.081 369.455 221.601V229.737H367.655ZM372.378 223.929C372.378 220.569 374.778 217.857 378.09 217.857C381.594 217.857 383.658 220.593 383.658 224.073V224.529H374.274C374.418 226.713 375.954 228.537 378.45 228.537C379.77 228.537 381.114 228.009 382.026 227.073L382.89 228.249C381.738 229.401 380.178 230.025 378.282 230.025C374.85 230.025 372.378 227.553 372.378 223.929ZM378.066 219.345C375.594 219.345 374.37 221.433 374.274 223.209H381.882C381.858 221.481 380.706 219.345 378.066 219.345ZM391.753 228.201L392.689 226.905C393.457 227.793 394.921 228.561 396.505 228.561C398.281 228.561 399.241 227.769 399.241 226.641C399.241 225.369 397.825 224.961 396.265 224.577C394.297 224.121 392.065 223.593 392.065 221.193C392.065 219.393 393.625 217.857 396.385 217.857C398.353 217.857 399.745 218.601 400.681 219.537L399.841 220.785C399.145 219.945 397.873 219.321 396.385 219.321C394.801 219.321 393.817 220.041 393.817 221.073C393.817 222.201 395.137 222.561 396.649 222.921C398.665 223.377 400.993 223.953 400.993 226.521C400.993 228.465 399.433 230.025 396.433 230.025C394.537 230.025 392.929 229.449 391.753 228.201ZM411.765 229.737V222.105C411.765 220.065 410.709 219.465 409.149 219.465C407.757 219.465 406.413 220.329 405.717 221.265V229.737H403.917V213.729H405.717V219.825C406.533 218.865 408.117 217.857 409.869 217.857C412.293 217.857 413.565 219.033 413.565 221.553V229.737H411.765ZM424.407 229.737V228.417C423.447 229.473 422.127 230.025 420.567 230.025C418.599 230.025 416.511 228.705 416.511 226.185C416.511 223.593 418.599 222.369 420.567 222.369C422.151 222.369 423.471 222.873 424.407 223.953V221.865C424.407 220.305 423.159 219.417 421.479 219.417C420.087 219.417 418.959 219.921 417.927 221.025L417.087 219.777C418.335 218.481 419.823 217.857 421.719 217.857C424.167 217.857 426.207 218.961 426.207 221.769V229.737H424.407ZM424.407 227.289V225.105C423.711 224.145 422.487 223.665 421.215 223.665C419.535 223.665 418.359 224.721 418.359 226.209C418.359 227.673 419.535 228.729 421.215 228.729C422.487 228.729 423.711 228.249 424.407 227.289ZM429.816 229.737V213.729H431.616V229.737H429.816ZM435.206 229.737V213.729H437.006V229.737H435.206ZM446.784 229.737V213.729H448.584V219.897C449.52 218.625 450.912 217.857 452.496 217.857C455.52 217.857 457.656 220.257 457.656 223.953C457.656 227.721 455.52 230.025 452.496 230.025C450.864 230.025 449.448 229.185 448.584 228.009V229.737H446.784ZM448.584 226.593C449.208 227.601 450.624 228.417 452.04 228.417C454.392 228.417 455.784 226.521 455.784 223.953C455.784 221.385 454.392 219.465 452.04 219.465C450.624 219.465 449.208 220.329 448.584 221.337V226.593ZM459.917 223.929C459.917 220.569 462.317 217.857 465.629 217.857C469.133 217.857 471.197 220.593 471.197 224.073V224.529H461.813C461.957 226.713 463.493 228.537 465.989 228.537C467.309 228.537 468.653 228.009 469.565 227.073L470.429 228.249C469.277 229.401 467.717 230.025 465.821 230.025C462.389 230.025 459.917 227.553 459.917 223.929ZM465.605 219.345C463.133 219.345 461.909 221.433 461.813 223.209H469.421C469.397 221.481 468.245 219.345 465.605 219.345ZM488.124 229.737V222.153C488.124 220.113 487.092 219.465 485.532 219.465C484.116 219.465 482.772 220.329 482.1 221.265V229.737H480.3V218.145H482.1V219.825C482.916 218.865 484.5 217.857 486.228 217.857C488.652 217.857 489.924 219.081 489.924 221.601V229.737H488.124ZM498.583 230.025C495.055 230.025 492.847 227.289 492.847 223.929C492.847 220.569 495.055 217.857 498.583 217.857C502.111 217.857 504.319 220.569 504.319 223.929C504.319 227.289 502.111 230.025 498.583 230.025ZM498.583 228.417C501.055 228.417 502.423 226.305 502.423 223.929C502.423 221.577 501.055 219.465 498.583 219.465C496.111 219.465 494.719 221.577 494.719 223.929C494.719 226.305 496.111 228.417 498.583 228.417ZM510.181 230.025C508.477 230.025 507.613 229.041 507.613 227.313V219.729H505.693V218.145H507.613V214.977H509.413V218.145H511.765V219.729H509.413V226.929C509.413 227.793 509.797 228.417 510.589 228.417C511.093 228.417 511.573 228.201 511.813 227.937L512.341 229.281C511.885 229.713 511.237 230.025 510.181 230.025ZM520.495 229.737V213.729H522.295V229.737H520.495ZM525.214 223.929C525.214 220.569 527.614 217.857 530.926 217.857C534.43 217.857 536.494 220.593 536.494 224.073V224.529H527.11C527.254 226.713 528.79 228.537 531.286 228.537C532.606 228.537 533.95 228.009 534.862 227.073L535.726 228.249C534.574 229.401 533.014 230.025 531.118 230.025C527.686 230.025 525.214 227.553 525.214 223.929ZM530.902 219.345C528.43 219.345 527.206 221.433 527.11 223.209H534.718C534.694 221.481 533.542 219.345 530.902 219.345ZM538.401 228.201L539.337 226.905C540.105 227.793 541.569 228.561 543.153 228.561C544.929 228.561 545.889 227.769 545.889 226.641C545.889 225.369 544.473 224.961 542.913 224.577C540.945 224.121 538.713 223.593 538.713 221.193C538.713 219.393 540.273 217.857 543.033 217.857C545.001 217.857 546.393 218.601 547.329 219.537L546.489 220.785C545.793 219.945 544.521 219.321 543.033 219.321C541.449 219.321 540.465 220.041 540.465 221.073C540.465 222.201 541.785 222.561 543.297 222.921C545.313 223.377 547.641 223.953 547.641 226.521C547.641 228.465 546.081 230.025 543.081 230.025C541.185 230.025 539.577 229.449 538.401 228.201ZM549.558 228.201L550.494 226.905C551.262 227.793 552.726 228.561 554.31 228.561C556.086 228.561 557.046 227.769 557.046 226.641C557.046 225.369 555.63 224.961 554.07 224.577C552.102 224.121 549.87 223.593 549.87 221.193C549.87 219.393 551.43 217.857 554.19 217.857C556.158 217.857 557.55 218.601 558.486 219.537L557.646 220.785C556.95 219.945 555.678 219.321 554.19 219.321C552.606 219.321 551.622 220.041 551.622 221.073C551.622 222.201 552.942 222.561 554.454 222.921C556.47 223.377 558.798 223.953 558.798 226.521C558.798 228.465 557.238 230.025 554.238 230.025C552.342 230.025 550.734 229.449 549.558 228.201ZM570.837 230.025C569.133 230.025 568.269 229.041 568.269 227.313V219.729H566.349V218.145H568.269V214.977H570.069V218.145H572.421V219.729H570.069V226.929C570.069 227.793 570.453 228.417 571.245 228.417C571.749 228.417 572.229 228.201 572.469 227.937L572.997 229.281C572.541 229.713 571.893 230.025 570.837 230.025ZM582.812 229.737V222.105C582.812 220.065 581.756 219.465 580.196 219.465C578.804 219.465 577.46 220.329 576.764 221.265V229.737H574.964V213.729H576.764V219.825C577.58 218.865 579.164 217.857 580.916 217.857C583.34 217.857 584.612 219.033 584.612 221.553V229.737H582.812ZM595.454 229.737V228.417C594.494 229.473 593.174 230.025 591.614 230.025C589.646 230.025 587.558 228.705 587.558 226.185C587.558 223.593 589.646 222.369 591.614 222.369C593.198 222.369 594.518 222.873 595.454 223.953V221.865C595.454 220.305 594.206 219.417 592.526 219.417C591.134 219.417 590.006 219.921 588.974 221.025L588.134 219.777C589.382 218.481 590.87 217.857 592.766 217.857C595.214 217.857 597.254 218.961 597.254 221.769V229.737H595.454ZM595.454 227.289V225.105C594.758 224.145 593.534 223.665 592.262 223.665C590.582 223.665 589.406 224.721 589.406 226.209C589.406 227.673 590.582 228.729 592.262 228.729C593.534 228.729 594.758 228.249 595.454 227.289ZM608.687 229.737V222.153C608.687 220.113 607.655 219.465 606.095 219.465C604.679 219.465 603.335 220.329 602.663 221.265V229.737H600.863V218.145H602.663V219.825C603.479 218.865 605.062 217.857 606.791 217.857C609.215 217.857 610.487 219.081 610.487 221.601V229.737H608.687ZM53.376 267.737V263.681H45.768V262.025L52.632 251.729H55.368V261.929H57.624V263.681H55.368V267.737H53.376ZM53.376 253.577L47.76 261.929H53.376V253.577ZM67.2583 254.201C66.6103 254.201 66.0583 253.649 66.0583 252.977C66.0583 252.305 66.6103 251.777 67.2583 251.777C67.9303 251.777 68.4823 252.305 68.4823 252.977C68.4823 253.649 67.9303 254.201 67.2583 254.201ZM66.3703 267.737V256.145H68.1703V267.737H66.3703ZM79.5849 267.737V260.153C79.5849 258.113 78.5529 257.465 76.9929 257.465C75.5769 257.465 74.2329 258.329 73.5609 259.265V267.737H71.7609V256.145H73.5609V257.825C74.3769 256.865 75.9609 255.857 77.6889 255.857C80.1129 255.857 81.3849 257.081 81.3849 259.601V267.737H79.5849ZM84.3077 261.929C84.3077 258.497 86.6357 255.857 90.0917 255.857C92.2037 255.857 93.4517 256.721 94.3397 257.873L93.1397 258.977C92.3717 257.921 91.3877 257.465 90.1877 257.465C87.7157 257.465 86.1797 259.361 86.1797 261.929C86.1797 264.497 87.7157 266.417 90.1877 266.417C91.3877 266.417 92.3717 265.937 93.1397 264.905L94.3397 266.009C93.4517 267.161 92.2037 268.025 90.0917 268.025C86.6357 268.025 84.3077 265.385 84.3077 261.929ZM104.711 267.737V260.105C104.711 258.065 103.655 257.465 102.095 257.465C100.703 257.465 99.3585 258.329 98.6625 259.265V267.737H96.8625V251.729H98.6625V257.825C99.4785 256.865 101.062 255.857 102.815 255.857C105.239 255.857 106.511 257.033 106.511 259.553V267.737H104.711ZM109.433 261.929C109.433 258.569 111.833 255.857 115.145 255.857C118.649 255.857 120.713 258.593 120.713 262.073V262.529H111.329C111.473 264.713 113.009 266.537 115.505 266.537C116.825 266.537 118.169 266.009 119.081 265.073L119.945 266.249C118.793 267.401 117.233 268.025 115.337 268.025C111.905 268.025 109.433 265.553 109.433 261.929ZM115.121 257.345C112.649 257.345 111.425 259.433 111.329 261.209H118.937C118.913 259.481 117.761 257.345 115.121 257.345ZM122.62 266.201L123.556 264.905C124.324 265.793 125.788 266.561 127.372 266.561C129.148 266.561 130.108 265.769 130.108 264.641C130.108 263.369 128.692 262.961 127.132 262.577C125.164 262.121 122.932 261.593 122.932 259.193C122.932 257.393 124.492 255.857 127.252 255.857C129.22 255.857 130.612 256.601 131.548 257.537L130.708 258.785C130.012 257.945 128.74 257.321 127.252 257.321C125.668 257.321 124.684 258.041 124.684 259.073C124.684 260.201 126.004 260.561 127.516 260.921C129.532 261.377 131.86 261.953 131.86 264.521C131.86 266.465 130.3 268.025 127.3 268.025C125.404 268.025 123.796 267.449 122.62 266.201ZM143.612 272.513C141.452 269.561 140.228 265.769 140.228 261.905C140.228 258.041 141.452 254.273 143.612 251.297L144.692 252.113C143.156 255.161 142.196 257.897 142.196 261.905C142.196 265.889 143.156 268.649 144.692 271.673L143.612 272.513ZM149.397 267.737V254.369L146.829 257.081L145.629 255.857L149.637 251.729H151.389V267.737H149.397ZM154.482 259.745C154.482 255.833 156.21 251.489 160.602 251.489C164.97 251.489 166.722 255.833 166.722 259.745C166.722 263.633 164.97 268.025 160.602 268.025C156.21 268.025 154.482 263.633 154.482 259.745ZM164.682 259.745C164.682 256.553 163.65 253.265 160.602 253.265C157.554 253.265 156.522 256.553 156.522 259.745C156.522 262.937 157.554 266.249 160.602 266.249C163.65 266.249 164.682 262.937 164.682 259.745ZM169.177 259.745C169.177 255.833 170.905 251.489 175.297 251.489C179.665 251.489 181.417 255.833 181.417 259.745C181.417 263.633 179.665 268.025 175.297 268.025C170.905 268.025 169.177 263.633 169.177 259.745ZM179.377 259.745C179.377 256.553 178.345 253.265 175.297 253.265C172.249 253.265 171.217 256.553 171.217 259.745C171.217 262.937 172.249 266.249 175.297 266.249C178.345 266.249 179.377 262.937 179.377 259.745ZM204.628 267.737V259.865C204.628 258.401 203.98 257.465 202.492 257.465C201.292 257.465 200.02 258.329 199.42 259.241V267.737H197.62V259.865C197.62 258.401 196.996 257.465 195.484 257.465C194.308 257.465 193.06 258.329 192.436 259.265V267.737H190.636V256.145H192.436V257.825C192.916 257.081 194.476 255.857 196.18 255.857C197.956 255.857 198.964 256.817 199.3 258.017C199.948 256.961 201.508 255.857 203.188 255.857C205.3 255.857 206.428 257.033 206.428 259.361V267.737H204.628ZM224.011 267.737V259.865C224.011 258.401 223.363 257.465 221.875 257.465C220.675 257.465 219.403 258.329 218.803 259.241V267.737H217.003V259.865C217.003 258.401 216.379 257.465 214.867 257.465C213.691 257.465 212.443 258.329 211.819 259.265V267.737H210.019V256.145H211.819V257.825C212.299 257.081 213.859 255.857 215.563 255.857C217.339 255.857 218.347 256.817 218.683 258.017C219.331 256.961 220.891 255.857 222.571 255.857C224.683 255.857 225.811 257.033 225.811 259.361V267.737H224.011ZM230.53 261.905C230.53 257.897 229.57 255.161 228.01 252.113L229.09 251.297C231.274 254.273 232.498 258.041 232.498 261.905C232.498 265.769 231.274 269.561 229.09 272.513L228.01 271.673C229.57 268.649 230.53 265.889 230.53 261.905ZM242.43 254.201C241.782 254.201 241.23 253.649 241.23 252.977C241.23 252.305 241.782 251.777 242.43 251.777C243.102 251.777 243.654 252.305 243.654 252.977C243.654 253.649 243.102 254.201 242.43 254.201ZM241.542 267.737V256.145H243.342V267.737H241.542ZM254.757 267.737V260.153C254.757 258.113 253.725 257.465 252.165 257.465C250.749 257.465 249.405 258.329 248.733 259.265V267.737H246.933V256.145H248.733V257.825C249.549 256.865 251.133 255.857 252.861 255.857C255.285 255.857 256.557 257.081 256.557 259.601V267.737H254.757ZM267.227 254.201C266.579 254.201 266.027 253.649 266.027 252.977C266.027 252.305 266.579 251.777 267.227 251.777C267.899 251.777 268.451 252.305 268.451 252.977C268.451 253.649 267.899 254.201 267.227 254.201ZM266.339 267.737V256.145H268.139V267.737H266.339ZM279.554 267.737V260.153C279.554 258.113 278.522 257.465 276.962 257.465C275.546 257.465 274.202 258.329 273.53 259.265V267.737H271.73V256.145H273.53V257.825C274.346 256.865 275.93 255.857 277.658 255.857C280.082 255.857 281.354 257.081 281.354 259.601V267.737H279.554ZM287.876 268.025C286.172 268.025 285.308 267.041 285.308 265.313V257.729H283.388V256.145H285.308V252.977H287.108V256.145H289.46V257.729H287.108V264.929C287.108 265.793 287.492 266.417 288.284 266.417C288.788 266.417 289.268 266.201 289.508 265.937L290.036 267.281C289.58 267.713 288.932 268.025 287.876 268.025ZM291.331 261.929C291.331 258.569 293.731 255.857 297.043 255.857C300.547 255.857 302.611 258.593 302.611 262.073V262.529H293.227C293.371 264.713 294.907 266.537 297.403 266.537C298.723 266.537 300.067 266.009 300.979 265.073L301.843 266.249C300.691 267.401 299.131 268.025 297.235 268.025C293.803 268.025 291.331 265.553 291.331 261.929ZM297.019 257.345C294.547 257.345 293.323 259.433 293.227 261.209H300.835C300.811 259.481 299.659 257.345 297.019 257.345ZM305.527 267.737V256.145H307.327V258.017C308.263 256.793 309.607 255.905 311.191 255.905V257.753C310.975 257.705 310.759 257.681 310.471 257.681C309.367 257.681 307.855 258.593 307.327 259.529V267.737H305.527ZM321.272 267.737V260.153C321.272 258.113 320.24 257.465 318.68 257.465C317.264 257.465 315.92 258.329 315.248 259.265V267.737H313.448V256.145H315.248V257.825C316.064 256.865 317.648 255.857 319.376 255.857C321.8 255.857 323.072 257.081 323.072 259.601V267.737H321.272ZM333.915 267.737V266.417C332.955 267.473 331.635 268.025 330.075 268.025C328.107 268.025 326.019 266.705 326.019 264.185C326.019 261.593 328.107 260.369 330.075 260.369C331.659 260.369 332.979 260.873 333.915 261.953V259.865C333.915 258.305 332.667 257.417 330.987 257.417C329.595 257.417 328.467 257.921 327.435 259.025L326.595 257.777C327.843 256.481 329.331 255.857 331.227 255.857C333.675 255.857 335.715 256.961 335.715 259.769V267.737H333.915ZM333.915 265.289V263.105C333.219 262.145 331.995 261.665 330.723 261.665C329.043 261.665 327.867 262.721 327.867 264.209C327.867 265.673 329.043 266.729 330.723 266.729C331.995 266.729 333.219 266.249 333.915 265.289ZM339.323 267.737V251.729H341.123V267.737H339.323ZM359.302 267.737V266.009C358.438 267.185 357.022 268.025 355.39 268.025C352.366 268.025 350.23 265.721 350.23 261.953C350.23 258.257 352.342 255.857 355.39 255.857C356.95 255.857 358.366 256.625 359.302 257.897V251.729H361.102V267.737H359.302ZM359.302 264.593V259.337C358.654 258.329 357.262 257.465 355.822 257.465C353.494 257.465 352.102 259.385 352.102 261.953C352.102 264.521 353.494 266.417 355.822 266.417C357.262 266.417 358.654 265.601 359.302 264.593ZM365.594 254.201C364.946 254.201 364.394 253.649 364.394 252.977C364.394 252.305 364.946 251.777 365.594 251.777C366.266 251.777 366.818 252.305 366.818 252.977C366.818 253.649 366.266 254.201 365.594 254.201ZM364.706 267.737V256.145H366.506V267.737H364.706ZM377.345 267.737V266.417C376.385 267.473 375.065 268.025 373.505 268.025C371.537 268.025 369.449 266.705 369.449 264.185C369.449 261.593 371.537 260.369 373.505 260.369C375.089 260.369 376.409 260.873 377.345 261.953V259.865C377.345 258.305 376.097 257.417 374.417 257.417C373.025 257.417 371.897 257.921 370.865 259.025L370.025 257.777C371.273 256.481 372.761 255.857 374.657 255.857C377.105 255.857 379.145 256.961 379.145 259.769V267.737H377.345ZM377.345 265.289V263.105C376.649 262.145 375.425 261.665 374.153 261.665C372.473 261.665 371.297 262.721 371.297 264.209C371.297 265.673 372.473 266.729 374.153 266.729C375.425 266.729 376.649 266.249 377.345 265.289ZM396.745 267.737V259.865C396.745 258.401 396.097 257.465 394.609 257.465C393.409 257.465 392.137 258.329 391.537 259.241V267.737H389.737V259.865C389.737 258.401 389.113 257.465 387.601 257.465C386.425 257.465 385.177 258.329 384.553 259.265V267.737H382.753V256.145H384.553V257.825C385.033 257.081 386.593 255.857 388.297 255.857C390.073 255.857 391.081 256.817 391.417 258.017C392.065 256.961 393.625 255.857 395.305 255.857C397.417 255.857 398.545 257.033 398.545 259.361V267.737H396.745ZM401.464 261.929C401.464 258.569 403.864 255.857 407.176 255.857C410.68 255.857 412.744 258.593 412.744 262.073V262.529H403.36C403.504 264.713 405.04 266.537 407.536 266.537C408.856 266.537 410.2 266.009 411.112 265.073L411.976 266.249C410.824 267.401 409.264 268.025 407.368 268.025C403.936 268.025 401.464 265.553 401.464 261.929ZM407.152 257.345C404.68 257.345 403.456 259.433 403.36 261.209H410.968C410.944 259.481 409.792 257.345 407.152 257.345ZM418.587 268.025C416.883 268.025 416.019 267.041 416.019 265.313V257.729H414.099V256.145H416.019V252.977H417.819V256.145H420.171V257.729H417.819V264.929C417.819 265.793 418.203 266.417 418.995 266.417C419.499 266.417 419.979 266.201 420.219 265.937L420.747 267.281C420.291 267.713 419.643 268.025 418.587 268.025ZM422.042 261.929C422.042 258.569 424.442 255.857 427.754 255.857C431.258 255.857 433.322 258.593 433.322 262.073V262.529H423.938C424.082 264.713 425.618 266.537 428.114 266.537C429.434 266.537 430.778 266.009 431.69 265.073L432.554 266.249C431.402 267.401 429.842 268.025 427.946 268.025C424.514 268.025 422.042 265.553 422.042 261.929ZM427.73 257.345C425.258 257.345 424.034 259.433 423.938 261.209H431.546C431.522 259.481 430.37 257.345 427.73 257.345ZM436.238 267.737V256.145H438.038V258.017C438.974 256.793 440.318 255.905 441.902 255.905V257.753C441.686 257.705 441.47 257.681 441.182 257.681C440.078 257.681 438.566 258.593 438.038 259.529V267.737H436.238Z" fill="black"/>
<path d="M44.6009 99.7374V75.7254H55.1489C60.1889 75.7254 62.9969 79.1814 62.9969 83.2494C62.9969 87.3174 60.1529 90.7734 55.1489 90.7734H48.8129V99.7374H44.6009ZM58.6769 83.2494C58.6769 80.9454 56.9489 79.4334 54.5729 79.4334H48.8129V87.0654H54.5729C56.9489 87.0654 58.6769 85.5534 58.6769 83.2494ZM66.3953 99.7374V75.7254H70.1753V99.7374H66.3953ZM86.8149 99.7374V97.4334C85.5549 98.8374 83.3949 100.169 80.6589 100.169C76.9149 100.169 75.0789 98.2254 75.0789 94.6614V82.3494H78.8589V93.2934C78.8589 95.9934 80.2269 96.8214 82.3509 96.8214C84.2589 96.8214 85.9149 95.7414 86.8149 94.5534V82.3494H90.5949V99.7374H86.8149ZM116.817 99.7374V88.3974C116.817 86.5254 115.989 85.2654 113.973 85.2654C112.281 85.2654 110.697 86.4534 109.941 87.5694V99.7374H106.161V88.3974C106.161 86.5254 105.333 85.2654 103.281 85.2654C101.625 85.2654 100.077 86.4534 99.2846 87.6054V99.7374H95.5046V82.3494H99.2846V84.7254C100.005 83.6454 102.309 81.9174 104.937 81.9174C107.529 81.9174 109.113 83.2134 109.689 85.1214C110.697 83.5374 113.001 81.9174 115.593 81.9174C118.797 81.9174 120.597 83.6454 120.597 87.1734V99.7374H116.817ZM125.493 99.7374V75.7254H129.273V84.7614C130.641 82.9254 132.657 81.9174 134.853 81.9174C139.317 81.9174 142.557 85.4454 142.557 91.0614C142.557 96.7854 139.281 100.169 134.853 100.169C132.585 100.169 130.605 99.0894 129.273 97.3614V99.7374H125.493ZM129.273 94.5174C130.101 95.8134 131.973 96.8214 133.737 96.8214C136.761 96.8214 138.669 94.4454 138.669 91.0614C138.669 87.6774 136.761 85.2654 133.737 85.2654C131.973 85.2654 130.101 86.3454 129.273 87.6414V94.5174ZM148.283 79.4694C147.023 79.4694 145.943 78.4254 145.943 77.1294C145.943 75.8334 147.023 74.7894 148.283 74.7894C149.579 74.7894 150.623 75.8334 150.623 77.1294C150.623 78.4254 149.579 79.4694 148.283 79.4694ZM146.411 99.7374V82.3494H150.191V99.7374H146.411ZM166.83 99.7374V88.8654C166.83 86.1654 165.462 85.2654 163.338 85.2654C161.394 85.2654 159.738 86.4174 158.874 87.6054V99.7374H155.094V82.3494H158.874V84.7254C160.026 83.3574 162.258 81.9174 164.994 81.9174C168.738 81.9174 170.61 83.9334 170.61 87.4974V99.7374H166.83ZM175.304 104.201L177.068 101.465C178.472 103.085 180.272 103.697 182.576 103.697C185.06 103.697 187.724 102.545 187.724 98.9814V96.8934C186.392 98.6214 184.412 99.7734 182.144 99.7734C177.716 99.7734 174.44 96.5694 174.44 90.8454C174.44 85.2294 177.68 81.9174 182.144 81.9174C184.34 81.9174 186.32 82.9254 187.724 84.7614V82.3494H191.504V98.8374C191.504 105.101 186.86 106.793 182.576 106.793C179.624 106.793 177.428 106.145 175.304 104.201ZM187.724 94.0854V87.6054C186.896 86.3094 185.024 85.2654 183.26 85.2654C180.272 85.2654 178.364 87.4974 178.364 90.8454C178.364 94.1934 180.272 96.4254 183.26 96.4254C185.024 96.4254 186.896 95.3814 187.724 94.0854Z" fill="black"/>
<rect x="262.5" y="106.734" width="178.238" height="38.4108" rx="8.41076" fill="#FFEAEA"/>
<path d="M283.414 134.236C287.996 134.236 291.711 130.521 291.711 125.939C291.711 121.356 287.996 117.641 283.414 117.641C278.831 117.641 275.116 121.356 275.116 125.939C275.116 130.521 278.831 134.236 283.414 134.236Z" stroke="#BC0F0F" stroke-width="1.65952" stroke-linecap="round" stroke-linejoin="round"/>
<path d="M283.414 122.62V125.939" stroke="#BC0F0F" stroke-width="1.65952" stroke-linecap="round" stroke-linejoin="round"/>
<path d="M283.414 129.258H283.422" stroke="#BC0F0F" stroke-width="1.65952" stroke-linecap="round" stroke-linejoin="round"/>
<path d="M308.982 130.939L303.078 122.747V130.939H301.478V120.267H303.126L308.934 128.267V120.267H310.534V130.939H308.982ZM316.292 131.131C313.892 131.131 312.388 129.307 312.388 127.067C312.388 124.843 313.892 123.019 316.292 123.019C318.708 123.019 320.196 124.843 320.196 127.067C320.196 129.307 318.708 131.131 316.292 131.131ZM316.292 129.851C317.844 129.851 318.692 128.539 318.692 127.067C318.692 125.611 317.844 124.299 316.292 124.299C314.756 124.299 313.892 125.611 313.892 127.067C313.892 128.539 314.756 129.851 316.292 129.851ZM324.152 131.131C322.936 131.131 322.312 130.443 322.312 129.227V124.475H321.032V123.211H322.312V121.099H323.752V123.211H325.32V124.475H323.752V128.907C323.752 129.451 324.008 129.851 324.504 129.851C324.84 129.851 325.144 129.707 325.288 129.547L325.656 130.635C325.352 130.923 324.904 131.131 324.152 131.131ZM331.744 121.915C331.248 121.915 330.816 121.515 330.816 121.003C330.816 120.491 331.248 120.075 331.744 120.075C332.256 120.075 332.672 120.491 332.672 121.003C332.672 121.515 332.256 121.915 331.744 121.915ZM331.04 130.939V123.211H332.48V130.939H331.04ZM339.99 130.939V125.995C339.99 124.715 339.334 124.299 338.342 124.299C337.446 124.299 336.63 124.843 336.214 125.419V130.939H334.774V123.211H336.214V124.299C336.726 123.675 337.75 123.019 338.95 123.019C340.582 123.019 341.43 123.883 341.43 125.515V130.939H339.99ZM347.357 127.067C347.357 124.747 348.957 123.019 351.293 123.019C352.749 123.019 353.629 123.627 354.189 124.379L353.229 125.259C352.765 124.603 352.141 124.299 351.357 124.299C349.837 124.299 348.861 125.467 348.861 127.067C348.861 128.667 349.837 129.851 351.357 129.851C352.141 129.851 352.765 129.531 353.229 128.891L354.189 129.771C353.629 130.523 352.749 131.131 351.293 131.131C348.957 131.131 347.357 129.387 347.357 127.067ZM359.198 131.131C356.798 131.131 355.294 129.307 355.294 127.067C355.294 124.843 356.798 123.019 359.198 123.019C361.614 123.019 363.102 124.843 363.102 127.067C363.102 129.307 361.614 131.131 359.198 131.131ZM359.198 129.851C360.75 129.851 361.598 128.539 361.598 127.067C361.598 125.611 360.75 124.299 359.198 124.299C357.662 124.299 356.798 125.611 356.798 127.067C356.798 128.539 357.662 129.851 359.198 129.851ZM374.322 130.939V125.787C374.322 124.891 373.922 124.299 372.978 124.299C372.194 124.299 371.426 124.843 371.058 125.403V130.939H369.618V125.787C369.618 124.891 369.234 124.299 368.258 124.299C367.506 124.299 366.754 124.859 366.37 125.419V130.939H364.93V123.211H366.37V124.299C366.69 123.819 367.714 123.019 368.866 123.019C370.034 123.019 370.722 123.627 370.962 124.459C371.41 123.739 372.434 123.019 373.57 123.019C374.994 123.019 375.762 123.803 375.762 125.355V130.939H374.322ZM379.495 133.883H378.055V123.211H379.495V124.315C380.055 123.547 380.983 123.019 382.023 123.019C384.039 123.019 385.463 124.539 385.463 127.067C385.463 129.595 384.039 131.131 382.023 131.131C381.015 131.131 380.119 130.667 379.495 129.819V133.883ZM383.959 127.067C383.959 125.467 383.079 124.299 381.639 124.299C380.759 124.299 379.879 124.811 379.495 125.435V128.715C379.879 129.323 380.759 129.851 381.639 129.851C383.079 129.851 383.959 128.683 383.959 127.067ZM387.29 130.939V120.267H388.73V130.939H387.29ZM391.728 121.915C391.232 121.915 390.8 121.515 390.8 121.003C390.8 120.491 391.232 120.075 391.728 120.075C392.24 120.075 392.656 120.491 392.656 121.003C392.656 121.515 392.24 121.915 391.728 121.915ZM391.024 130.939V123.211H392.464V130.939H391.024ZM399.527 130.939V130.091C398.919 130.763 398.039 131.131 396.999 131.131C395.719 131.131 394.311 130.267 394.311 128.571C394.311 126.811 395.703 126.043 396.999 126.043C398.039 126.043 398.935 126.379 399.527 127.067V125.787C399.527 124.827 398.743 124.251 397.639 124.251C396.759 124.251 396.007 124.587 395.319 125.275L394.695 124.283C395.559 123.435 396.615 123.019 397.863 123.019C399.543 123.019 400.967 123.755 400.967 125.723V130.939H399.527ZM399.527 129.243V127.931C399.095 127.355 398.343 127.051 397.543 127.051C396.503 127.051 395.767 127.675 395.767 128.587C395.767 129.499 396.503 130.123 397.543 130.123C398.343 130.123 399.095 129.819 399.527 129.243ZM408.49 130.939V125.995C408.49 124.715 407.834 124.299 406.842 124.299C405.946 124.299 405.13 124.843 404.714 125.419V130.939H403.274V123.211H404.714V124.299C405.226 123.675 406.25 123.019 407.45 123.019C409.082 123.019 409.93 123.883 409.93 125.515V130.939H408.49ZM411.732 127.067C411.732 124.747 413.332 123.019 415.668 123.019C417.124 123.019 418.004 123.627 418.564 124.379L417.604 125.259C417.14 124.603 416.516 124.299 415.732 124.299C414.212 124.299 413.236 125.467 413.236 127.067C413.236 128.667 414.212 129.851 415.732 129.851C416.516 129.851 417.14 129.531 417.604 128.891L418.564 129.771C418.004 130.523 417.124 131.131 415.668 131.131C413.332 131.131 411.732 129.387 411.732 127.067ZM419.669 127.067C419.669 124.827 421.285 123.019 423.541 123.019C425.861 123.019 427.301 124.827 427.301 127.195V127.547H421.189C421.301 128.859 422.261 129.947 423.813 129.947C424.629 129.947 425.525 129.627 426.101 129.035L426.773 129.979C426.005 130.731 424.917 131.131 423.669 131.131C421.365 131.131 419.669 129.499 419.669 127.067ZM423.541 124.203C421.989 124.203 421.253 125.451 421.173 126.507H425.893C425.861 125.483 425.173 124.203 423.541 124.203Z" fill="#BC0F0F"/>
</g>
<defs>
<filter id="filter0_d_320_2" x="0.4" y="0.137426" width="680.2" height="338.2" filterUnits="userSpaceOnUse" color-interpolation-filters="sRGB">
<feFlood flood-opacity="0" result="BackgroundImageFix"/>
<feColorMatrix in="SourceAlpha" type="matrix" values="0 0 0 0 0 0 0 0 0 0 0 0 0 0 0 0 0 0 127 0" result="hardAlpha"/>
<feOffset dy="4"/>
<feGaussianBlur stdDeviation="4.8"/>
<feComposite in2="hardAlpha" operator="out"/>
<feColorMatrix type="matrix" values="0 0 0 0 0 0 0 0 0 0 0 0 0 0 0 0 0 0 0.1 0"/>
<feBlend mode="normal" in2="BackgroundImageFix" result="effect1_dropShadow_320_2"/>
<feBlend mode="normal" in="SourceGraphic" in2="effect1_dropShadow_320_2" result="shape"/>
</filter>
</defs>
</svg>
