<svg width="727" height="199" viewBox="0 0 727 199" fill="none" xmlns="http://www.w3.org/2000/svg">
<path d="M4 51.5L81.2638 4L158.598 49.5144" stroke="#CD6026" stroke-width="8" stroke-linecap="round" stroke-linejoin="round"/>
<path d="M159 50.5V149.302L79.4712 195L79.886 94.7279" fill="#CD6026"/>
<path d="M159 50.5V149.302L79.4712 195L79.886 94.7279" stroke="#CD6026" stroke-width="8" stroke-linecap="round" stroke-linejoin="round"/>
<path d="M79.47 194.99L4 148.767V51.5753L79.47 93.9925L159 50" stroke="#CD6026" stroke-width="8" stroke-linecap="round" stroke-linejoin="round"/>
<path d="M222.68 74.896C209.688 74.896 201.304 64.912 201.304 51.152C201.304 37.328 209.752 27.344 222.744 27.344C234.2 27.344 241.304 34.64 242.392 43.792H235.032C234.2 39.312 231.384 33.424 222.616 33.424C212.504 33.424 208.664 42 208.664 51.088C208.664 60.24 212.504 68.816 222.616 68.816C231.448 68.816 234.584 62.928 235.032 57.36H242.392C241.368 67.536 234.2 74.896 222.68 74.896ZM260.255 74.96C250.079 74.96 243.935 67.92 243.935 57.68C243.935 47.504 250.079 40.336 260.319 40.336C270.431 40.336 276.575 47.44 276.575 57.616C276.575 67.856 270.431 74.96 260.255 74.96ZM260.319 69.776C266.975 69.776 270.047 64.464 270.047 57.68C270.047 50.832 266.975 45.584 260.319 45.584C253.535 45.584 250.463 50.832 250.463 57.68C250.463 64.464 253.535 69.776 260.319 69.776ZM286.265 74H279.993V28.24H286.265V74ZM297.657 74H291.385V28.24H297.657V74ZM311.802 74.896C305.273 74.896 301.113 71.12 301.113 65.552C301.113 58.256 306.617 56.08 314.746 54.544C319.866 53.584 323.002 52.944 323.002 49.744C323.002 47.376 321.594 45.392 316.794 45.392C311.097 45.392 309.37 47.184 309.05 51.536H302.649C302.969 45.264 307.066 40.336 317.05 40.336C323.77 40.336 329.146 43.152 329.146 51.6V66.576C329.146 68.944 329.466 70.16 330.682 70.16C330.874 70.16 331.066 70.16 331.45 70.096V73.936C330.362 74.192 329.274 74.32 328.25 74.32C325.114 74.32 323.45 73.104 323.066 69.392H322.938C320.826 72.784 317.114 74.896 311.802 74.896ZM313.21 69.84C318.842 69.84 323.002 66.96 323.002 61.264V56.592C321.978 57.552 319.162 58.256 315.833 58.96C310.074 60.112 307.642 61.712 307.642 65.104C307.642 68.176 309.306 69.84 313.21 69.84ZM351.305 40.4C359.625 40.4 365.961 46.928 365.961 57.68C365.961 68.432 359.625 74.896 351.305 74.896C346.185 74.896 343.049 72.592 341.257 69.968H341.129V74H334.857V28.24H341.129V45.2H341.257C343.049 42.896 346.185 40.4 351.305 40.4ZM350.281 69.712C356.425 69.712 359.369 64.08 359.369 57.68C359.369 51.28 356.425 45.648 350.281 45.648C344.649 45.648 341.193 50.256 341.193 57.68C341.193 65.04 344.649 69.712 350.281 69.712ZM384.029 74.96C373.853 74.96 367.709 67.92 367.709 57.68C367.709 47.504 373.853 40.336 384.093 40.336C394.205 40.336 400.349 47.44 400.349 57.616C400.349 67.856 394.205 74.96 384.029 74.96ZM384.093 69.776C390.749 69.776 393.821 64.464 393.821 57.68C393.821 50.832 390.749 45.584 384.093 45.584C377.309 45.584 374.237 50.832 374.237 57.68C374.237 64.464 377.309 69.776 384.093 69.776ZM418.935 40.592C420.087 40.592 420.983 40.656 421.943 40.784V46.8C421.175 46.672 420.599 46.608 419.831 46.608C414.135 46.608 410.039 50.896 410.039 57.104V74H403.767V41.36H410.039V47.568H410.167C411.895 43.472 414.519 40.592 418.935 40.592ZM431.997 74.896C425.468 74.896 421.308 71.12 421.308 65.552C421.308 58.256 426.812 56.08 434.941 54.544C440.061 53.584 443.197 52.944 443.197 49.744C443.197 47.376 441.788 45.392 436.989 45.392C431.292 45.392 429.564 47.184 429.245 51.536H422.844C423.164 45.264 427.26 40.336 437.245 40.336C443.965 40.336 449.34 43.152 449.34 51.6V66.576C449.34 68.944 449.661 70.16 450.877 70.16C451.069 70.16 451.26 70.16 451.645 70.096V73.936C450.557 74.192 449.469 74.32 448.444 74.32C445.309 74.32 443.645 73.104 443.26 69.392H443.132C441.021 72.784 437.309 74.896 431.997 74.896ZM433.405 69.84C439.037 69.84 443.197 66.96 443.197 61.264V56.592C442.173 57.552 439.357 58.256 436.028 58.96C430.269 60.112 427.837 61.712 427.837 65.104C427.837 68.176 429.5 69.84 433.405 69.84ZM466.46 69.2C467.548 69.2 468.06 69.136 469.148 68.944V74C467.548 74.32 466.524 74.384 465.18 74.384C459.804 74.384 456.54 72.336 456.54 64.784V46.544H451.804V41.36H456.54V30.864H462.812V41.36H469.084V46.544H462.812V64.976C462.812 68.432 463.772 69.2 466.46 69.2ZM479.102 35.536H471.998V28.752H479.102V35.536ZM478.654 74H472.382V41.36H478.654V74ZM498.367 74.96C488.191 74.96 482.047 67.92 482.047 57.68C482.047 47.504 488.191 40.336 498.431 40.336C508.543 40.336 514.687 47.44 514.687 57.616C514.687 67.856 508.543 74.96 498.367 74.96ZM498.431 69.776C505.087 69.776 508.159 64.464 508.159 57.68C508.159 50.832 505.087 45.584 498.431 45.584C491.647 45.584 488.575 50.832 488.575 57.68C488.575 64.464 491.647 69.776 498.431 69.776ZM535.257 40.4C541.273 40.4 546.137 43.856 546.137 51.344V74H539.865V53.072C539.865 48.72 537.945 45.776 533.209 45.776C527.833 45.776 524.377 49.04 524.377 53.968V74H518.105V41.36H524.377V45.456H524.505C526.233 42.96 529.625 40.4 535.257 40.4Z" fill="#333333"/>
<path d="M209.88 140.448C204.088 140.448 200.024 137.44 199.768 132.288H203.416C203.672 135.36 205.496 137.44 209.784 137.44C213.464 137.44 214.584 135.84 214.584 133.76C214.584 130.848 212.344 130.432 208.184 129.376C204.6 128.416 200.664 127.264 200.664 122.912C200.664 118.944 203.736 116.672 208.664 116.672C213.88 116.672 217.272 119.328 217.624 123.936H213.976C213.592 121.184 212.024 119.68 208.696 119.68C205.816 119.68 204.344 120.736 204.344 122.72C204.344 125.28 206.744 125.824 209.688 126.56C214.104 127.68 218.264 128.736 218.264 133.568C218.264 137.504 215.608 140.448 209.88 140.448ZM228.532 123.2C231.54 123.2 233.972 124.928 233.972 128.672V140H230.836V129.536C230.836 127.36 229.876 125.888 227.508 125.888C224.82 125.888 223.092 127.52 223.092 129.984V140H219.956V117.12H223.092V125.728H223.156C224.02 124.48 225.716 123.2 228.532 123.2ZM240.915 140.448C237.651 140.448 235.571 138.56 235.571 135.776C235.571 132.128 238.323 131.04 242.387 130.272C244.947 129.792 246.515 129.472 246.515 127.872C246.515 126.688 245.811 125.696 243.411 125.696C240.563 125.696 239.699 126.592 239.539 128.768H236.339C236.499 125.632 238.547 123.168 243.539 123.168C246.899 123.168 249.587 124.576 249.587 128.8V136.288C249.587 137.472 249.747 138.08 250.355 138.08C250.451 138.08 250.547 138.08 250.739 138.048V139.968C250.195 140.096 249.651 140.16 249.139 140.16C247.571 140.16 246.739 139.552 246.547 137.696H246.483C245.427 139.392 243.571 140.448 240.915 140.448ZM241.619 137.92C244.435 137.92 246.515 136.48 246.515 133.632V131.296C246.003 131.776 244.595 132.128 242.931 132.48C240.051 133.056 238.835 133.856 238.835 135.552C238.835 137.088 239.667 137.92 241.619 137.92ZM260.026 123.296C260.602 123.296 261.05 123.328 261.53 123.392V126.4C261.146 126.336 260.858 126.304 260.474 126.304C257.626 126.304 255.578 128.448 255.578 131.552V140H252.442V123.68H255.578V126.784H255.642C256.506 124.736 257.818 123.296 260.026 123.296ZM276.896 131.488C276.896 131.936 276.896 132.416 276.864 132.672H264.32C264.384 135.392 265.984 137.92 269.216 137.92C272.096 137.92 273.216 136.064 273.504 134.976H276.704C275.84 138.112 273.44 140.48 269.152 140.48C263.968 140.48 261.088 136.8 261.088 131.808C261.088 126.688 264.16 123.168 269.152 123.168C274.112 123.168 276.896 126.432 276.896 131.488ZM264.32 130.208H273.632C273.632 127.648 271.84 125.728 269.056 125.728C266.432 125.728 264.512 127.52 264.32 130.208ZM292.536 123.2C296.696 123.2 299.864 126.464 299.864 131.84C299.864 137.216 296.696 140.448 292.536 140.448C289.976 140.448 288.408 139.296 287.512 137.984H287.448V145.664H284.312V123.68H287.448V125.6H287.512C288.408 124.448 289.976 123.2 292.536 123.2ZM292.024 137.856C295.096 137.856 296.568 135.04 296.568 131.84C296.568 128.64 295.096 125.824 292.024 125.824C289.208 125.824 287.48 128.128 287.48 131.84C287.48 135.52 289.208 137.856 292.024 137.856ZM304.738 140H301.602V117.12H304.738V140ZM311.811 140.448C308.547 140.448 306.467 138.56 306.467 135.776C306.467 132.128 309.219 131.04 313.283 130.272C315.843 129.792 317.411 129.472 317.411 127.872C317.411 126.688 316.707 125.696 314.307 125.696C311.459 125.696 310.595 126.592 310.435 128.768H307.235C307.395 125.632 309.443 123.168 314.435 123.168C317.795 123.168 320.483 124.576 320.483 128.8V136.288C320.483 137.472 320.643 138.08 321.251 138.08C321.347 138.08 321.443 138.08 321.635 138.048V139.968C321.091 140.096 320.547 140.16 320.035 140.16C318.467 140.16 317.635 139.552 317.443 137.696H317.379C316.323 139.392 314.467 140.448 311.811 140.448ZM312.515 137.92C315.331 137.92 317.411 136.48 317.411 133.632V131.296C316.899 131.776 315.491 132.128 313.827 132.48C310.947 133.056 309.731 133.856 309.731 135.552C309.731 137.088 310.563 137.92 312.515 137.92ZM331.915 123.2C334.923 123.2 337.355 124.928 337.355 128.672V140H334.219V129.536C334.219 127.36 333.259 125.888 330.891 125.888C328.203 125.888 326.475 127.52 326.475 129.984V140H323.339V123.68H326.475V125.728H326.539C327.403 124.48 329.099 123.2 331.915 123.2ZM346.217 140.448C341.257 140.448 338.793 137.888 338.697 134.56H341.865C341.993 136.448 343.145 137.92 346.185 137.92C348.937 137.92 349.673 136.704 349.673 135.52C349.673 133.472 347.497 133.248 345.385 132.8C342.537 132.128 339.273 131.296 339.273 127.904C339.273 125.088 341.545 123.2 345.481 123.2C349.961 123.2 352.105 125.6 352.329 128.416H349.161C348.937 127.168 348.265 125.728 345.545 125.728C343.433 125.728 342.537 126.56 342.537 127.776C342.537 129.472 344.361 129.632 346.665 130.144C349.673 130.848 352.937 131.712 352.937 135.36C352.937 138.528 350.505 140.448 346.217 140.448ZM366.4 140H363.168L358.112 123.68H361.504L364.96 136.32H365.024L368.416 123.68H371.584L374.976 136.32H375.04L378.528 123.68H381.792L376.736 140H373.504L369.984 127.424H369.92L366.4 140ZM386.234 120.768H382.682V117.376H386.234V120.768ZM386.01 140H382.874V123.68H386.01V140ZM394.586 137.6C395.13 137.6 395.386 137.568 395.93 137.472V140C395.13 140.16 394.618 140.192 393.946 140.192C391.258 140.192 389.626 139.168 389.626 135.392V126.272H387.258V123.68H389.626V118.432H392.762V123.68H395.898V126.272H392.762V135.488C392.762 137.216 393.242 137.6 394.586 137.6ZM406.124 123.2C409.132 123.2 411.564 124.928 411.564 128.672V140H408.428V129.536C408.428 127.36 407.468 125.888 405.1 125.888C402.412 125.888 400.684 127.52 400.684 129.984V140H397.548V117.12H400.684V125.728H400.748C401.612 124.48 403.308 123.2 406.124 123.2ZM425.737 137.6C426.281 137.6 426.537 137.568 427.081 137.472V140C426.281 140.16 425.769 140.192 425.097 140.192C422.409 140.192 420.777 139.168 420.777 135.392V126.272H418.409V123.68H420.777V118.432H423.913V123.68H427.049V126.272H423.913V135.488C423.913 137.216 424.393 137.6 425.737 137.6ZM443.331 131.488C443.331 131.936 443.331 132.416 443.299 132.672H430.755C430.819 135.392 432.419 137.92 435.651 137.92C438.531 137.92 439.651 136.064 439.939 134.976H443.139C442.275 138.112 439.875 140.48 435.587 140.48C430.403 140.48 427.523 136.8 427.523 131.808C427.523 126.688 430.595 123.168 435.587 123.168C440.547 123.168 443.331 126.432 443.331 131.488ZM430.755 130.208H440.067C440.067 127.648 438.275 125.728 435.491 125.728C432.867 125.728 430.947 127.52 430.755 130.208ZM449.532 140.448C446.268 140.448 444.188 138.56 444.188 135.776C444.188 132.128 446.94 131.04 451.004 130.272C453.564 129.792 455.132 129.472 455.132 127.872C455.132 126.688 454.428 125.696 452.028 125.696C449.18 125.696 448.316 126.592 448.156 128.768H444.956C445.116 125.632 447.164 123.168 452.156 123.168C455.516 123.168 458.204 124.576 458.204 128.8V136.288C458.204 137.472 458.364 138.08 458.972 138.08C459.068 138.08 459.164 138.08 459.356 138.048V139.968C458.812 140.096 458.268 140.16 457.756 140.16C456.188 140.16 455.356 139.552 455.164 137.696H455.1C454.044 139.392 452.188 140.448 449.532 140.448ZM450.236 137.92C453.052 137.92 455.132 136.48 455.132 133.632V131.296C454.62 131.776 453.212 132.128 451.548 132.48C448.668 133.056 447.452 133.856 447.452 135.552C447.452 137.088 448.284 137.92 450.236 137.92ZM478.82 123.2C482.116 123.2 483.78 125.184 483.78 128.672V140H480.644V129.536C480.644 127.36 480.196 125.888 477.796 125.888C475.46 125.888 473.988 127.52 473.988 129.984V140H470.852V129.536C470.852 127.36 470.404 125.888 468.004 125.888C465.668 125.888 464.196 127.52 464.196 129.984V140H461.06V123.68H464.196V125.728H464.26C465.124 124.48 466.628 123.2 469.092 123.2C471.364 123.2 472.772 124.224 473.412 126.048H473.476C474.66 124.48 476.324 123.2 478.82 123.2ZM492.688 140.448C487.728 140.448 485.264 137.888 485.168 134.56H488.336C488.464 136.448 489.616 137.92 492.656 137.92C495.408 137.92 496.144 136.704 496.144 135.52C496.144 133.472 493.968 133.248 491.856 132.8C489.008 132.128 485.744 131.296 485.744 127.904C485.744 125.088 488.016 123.2 491.952 123.2C496.432 123.2 498.576 125.6 498.8 128.416H495.632C495.408 127.168 494.736 125.728 492.016 125.728C489.904 125.728 489.008 126.56 489.008 127.776C489.008 129.472 490.832 129.632 493.136 130.144C496.144 130.848 499.408 131.712 499.408 135.36C499.408 138.528 496.976 140.448 492.688 140.448ZM511.161 140.448C507.897 140.448 505.817 138.56 505.817 135.776C505.817 132.128 508.569 131.04 512.633 130.272C515.193 129.792 516.761 129.472 516.761 127.872C516.761 126.688 516.057 125.696 513.657 125.696C510.809 125.696 509.945 126.592 509.785 128.768H506.585C506.745 125.632 508.793 123.168 513.785 123.168C517.145 123.168 519.833 124.576 519.833 128.8V136.288C519.833 137.472 519.993 138.08 520.601 138.08C520.697 138.08 520.793 138.08 520.985 138.048V139.968C520.441 140.096 519.897 140.16 519.385 140.16C517.817 140.16 516.985 139.552 516.793 137.696H516.729C515.673 139.392 513.817 140.448 511.161 140.448ZM511.865 137.92C514.681 137.92 516.761 136.48 516.761 133.632V131.296C516.249 131.776 514.841 132.128 513.177 132.48C510.297 133.056 509.081 133.856 509.081 135.552C509.081 137.088 509.913 137.92 511.865 137.92ZM531.265 123.2C534.273 123.2 536.705 124.928 536.705 128.672V140H533.569V129.536C533.569 127.36 532.609 125.888 530.241 125.888C527.553 125.888 525.825 127.52 525.825 129.984V140H522.689V123.68H525.825V125.728H525.889C526.753 124.48 528.449 123.2 531.265 123.2ZM550.719 125.664V117.12H553.855V140H550.719V138.08H550.655C549.759 139.232 548.191 140.448 545.631 140.448C541.471 140.448 538.303 137.216 538.303 131.84C538.303 126.464 541.471 123.2 545.631 123.2C548.191 123.2 549.759 124.384 550.655 125.664H550.719ZM546.143 137.856C548.959 137.856 550.687 135.52 550.687 131.84C550.687 128.128 548.959 125.824 546.143 125.824C543.071 125.824 541.567 128.64 541.567 131.84C541.567 135.04 543.071 137.856 546.143 137.856ZM569.736 123.296C570.312 123.296 570.76 123.328 571.24 123.392V126.4C570.856 126.336 570.568 126.304 570.184 126.304C567.336 126.304 565.288 128.448 565.288 131.552V140H562.152V123.68H565.288V126.784H565.352C566.216 124.736 567.528 123.296 569.736 123.296ZM586.606 131.488C586.606 131.936 586.606 132.416 586.574 132.672H574.03C574.094 135.392 575.694 137.92 578.926 137.92C581.806 137.92 582.926 136.064 583.214 134.976H586.414C585.55 138.112 583.15 140.48 578.862 140.48C573.678 140.48 570.798 136.8 570.798 131.808C570.798 126.688 573.87 123.168 578.862 123.168C583.822 123.168 586.606 126.432 586.606 131.488ZM574.03 130.208H583.342C583.342 127.648 581.55 125.728 578.766 125.728C576.142 125.728 574.222 127.52 574.03 130.208ZM595.463 140.48C590.599 140.48 587.431 136.96 587.431 131.84C587.431 126.72 590.599 123.2 595.431 123.2C599.623 123.2 602.407 125.92 602.791 129.6H599.559C599.399 127.904 598.439 125.792 595.463 125.792C591.975 125.792 590.695 128.768 590.695 131.84C590.695 134.912 591.975 137.856 595.463 137.856C598.471 137.856 599.399 135.808 599.559 133.952H602.791C602.567 137.696 599.655 140.48 595.463 140.48ZM619.311 131.488C619.311 131.936 619.311 132.416 619.279 132.672H606.735C606.799 135.392 608.399 137.92 611.631 137.92C614.511 137.92 615.631 136.064 615.919 134.976H619.119C618.255 138.112 615.855 140.48 611.567 140.48C606.383 140.48 603.503 136.8 603.503 131.808C603.503 126.688 606.575 123.168 611.567 123.168C616.527 123.168 619.311 126.432 619.311 131.488ZM606.735 130.208H616.047C616.047 127.648 614.255 125.728 611.471 125.728C608.847 125.728 606.927 127.52 606.735 130.208ZM624.36 120.768H620.808V117.376H624.36V120.768ZM624.136 140H621V123.68H624.136V140ZM634.504 140H630.984L625.16 123.68H628.52L632.808 136.768H632.84L637.064 123.68H640.328L634.504 140ZM655.806 131.488C655.806 131.936 655.806 132.416 655.774 132.672H643.23C643.294 135.392 644.894 137.92 648.126 137.92C651.006 137.92 652.126 136.064 652.414 134.976H655.614C654.75 138.112 652.35 140.48 648.062 140.48C642.878 140.48 639.998 136.8 639.998 131.808C639.998 126.688 643.07 123.168 648.062 123.168C653.022 123.168 655.806 126.432 655.806 131.488ZM643.23 130.208H652.542C652.542 127.648 650.75 125.728 647.966 125.728C645.342 125.728 643.422 127.52 643.23 130.208ZM207.928 178.48C203.064 178.48 199.896 174.96 199.896 169.84C199.896 164.72 203.064 161.2 207.896 161.2C212.088 161.2 214.872 163.92 215.256 167.6H212.024C211.864 165.904 210.904 163.792 207.928 163.792C204.44 163.792 203.16 166.768 203.16 169.84C203.16 172.912 204.44 175.856 207.928 175.856C210.936 175.856 211.864 173.808 212.024 171.952H215.256C215.032 175.696 212.12 178.48 207.928 178.48ZM224.096 178.48C219.008 178.48 215.936 174.96 215.936 169.84C215.936 164.752 219.008 161.168 224.128 161.168C229.184 161.168 232.256 164.72 232.256 169.808C232.256 174.928 229.184 178.48 224.096 178.48ZM224.128 175.888C227.456 175.888 228.992 173.232 228.992 169.84C228.992 166.416 227.456 163.792 224.128 163.792C220.736 163.792 219.2 166.416 219.2 169.84C219.2 173.232 220.736 175.888 224.128 175.888ZM251.725 161.2C255.021 161.2 256.685 163.184 256.685 166.672V178H253.549V167.536C253.549 165.36 253.101 163.888 250.701 163.888C248.365 163.888 246.893 165.52 246.893 167.984V178H243.757V167.536C243.757 165.36 243.309 163.888 240.909 163.888C238.573 163.888 237.101 165.52 237.101 167.984V178H233.965V161.68H237.101V163.728H237.165C238.029 162.48 239.533 161.2 241.997 161.2C244.269 161.2 245.677 162.224 246.317 164.048H246.381C247.565 162.48 249.229 161.2 251.725 161.2ZM276.921 161.2C280.217 161.2 281.881 163.184 281.881 166.672V178H278.745V167.536C278.745 165.36 278.297 163.888 275.897 163.888C273.561 163.888 272.089 165.52 272.089 167.984V178H268.953V167.536C268.953 165.36 268.505 163.888 266.105 163.888C263.769 163.888 262.297 165.52 262.297 167.984V178H259.161V161.68H262.297V163.728H262.361C263.225 162.48 264.729 161.2 267.193 161.2C269.465 161.2 270.873 162.224 271.513 164.048H271.577C272.761 162.48 274.425 161.2 276.921 161.2ZM299.334 169.488C299.334 169.936 299.334 170.416 299.302 170.672H286.758C286.822 173.392 288.422 175.92 291.654 175.92C294.534 175.92 295.654 174.064 295.942 172.976H299.142C298.278 176.112 295.878 178.48 291.59 178.48C286.406 178.48 283.526 174.8 283.526 169.808C283.526 164.688 286.598 161.168 291.59 161.168C296.55 161.168 299.334 164.432 299.334 169.488ZM286.758 168.208H296.07C296.07 165.648 294.278 163.728 291.494 163.728C288.87 163.728 286.95 165.52 286.758 168.208ZM309.598 161.2C312.606 161.2 315.038 162.928 315.038 166.672V178H311.902V167.536C311.902 165.36 310.942 163.888 308.574 163.888C305.886 163.888 304.158 165.52 304.158 167.984V178H301.022V161.68H304.158V163.728H304.222C305.086 162.48 306.782 161.2 309.598 161.2ZM323.328 175.6C323.872 175.6 324.128 175.568 324.672 175.472V178C323.872 178.16 323.36 178.192 322.688 178.192C320 178.192 318.368 177.168 318.368 173.392V164.272H316V161.68H318.368V156.432H321.504V161.68H324.64V164.272H321.504V173.488C321.504 175.216 321.984 175.6 323.328 175.6ZM332.722 178.448C327.762 178.448 325.298 175.888 325.202 172.56H328.37C328.498 174.448 329.65 175.92 332.69 175.92C335.442 175.92 336.178 174.704 336.178 173.52C336.178 171.472 334.002 171.248 331.89 170.8C329.042 170.128 325.778 169.296 325.778 165.904C325.778 163.088 328.05 161.2 331.986 161.2C336.466 161.2 338.61 163.6 338.834 166.416H335.666C335.442 165.168 334.77 163.728 332.05 163.728C329.938 163.728 329.042 164.56 329.042 165.776C329.042 167.472 330.866 167.632 333.17 168.144C336.178 168.848 339.442 169.712 339.442 173.36C339.442 176.528 337.01 178.448 332.722 178.448Z" fill="#574F46"/>
</svg>
