<svg width="737" height="199" viewBox="0 0 737 199" fill="none" xmlns="http://www.w3.org/2000/svg">
<path d="M4 51.5L81.2638 4L158.598 49.5144" stroke="#CD6026" stroke-width="8" stroke-linecap="round" stroke-linejoin="round"/>
<path d="M159 50.5V149.302L79.4712 195L79.886 94.7279" fill="#CD6026"/>
<path d="M159 50.5V149.302L79.4712 195L79.886 94.7279" stroke="#CD6026" stroke-width="8" stroke-linecap="round" stroke-linejoin="round"/>
<path d="M79.47 194.99L4 148.767V51.5753L79.47 93.9925L159 50" stroke="#CD6026" stroke-width="8" stroke-linecap="round" stroke-linejoin="round"/>
<path d="M222.68 74.896C209.688 74.896 201.304 64.912 201.304 51.152C201.304 37.328 209.752 27.344 222.744 27.344C234.2 27.344 241.304 34.64 242.392 43.792H235.032C234.2 39.312 231.384 33.424 222.616 33.424C212.504 33.424 208.664 42 208.664 51.088C208.664 60.24 212.504 68.816 222.616 68.816C231.448 68.816 234.584 62.928 235.032 57.36H242.392C241.368 67.536 234.2 74.896 222.68 74.896ZM260.255 74.96C250.079 74.96 243.935 67.92 243.935 57.68C243.935 47.504 250.079 40.336 260.319 40.336C270.431 40.336 276.575 47.44 276.575 57.616C276.575 67.856 270.431 74.96 260.255 74.96ZM260.319 69.776C266.975 69.776 270.047 64.464 270.047 57.68C270.047 50.832 266.975 45.584 260.319 45.584C253.535 45.584 250.463 50.832 250.463 57.68C250.463 64.464 253.535 69.776 260.319 69.776ZM315.513 40.4C322.105 40.4 325.433 44.368 325.433 51.344V74H319.161V53.072C319.161 48.72 318.265 45.776 313.465 45.776C308.793 45.776 305.849 49.04 305.849 53.968V74H299.577V53.072C299.577 48.72 298.681 45.776 293.881 45.776C289.209 45.776 286.265 49.04 286.265 53.968V74H279.993V41.36H286.265V45.456H286.393C288.121 42.96 291.129 40.4 296.057 40.4C300.601 40.4 303.417 42.448 304.697 46.096H304.825C307.193 42.96 310.521 40.4 315.513 40.4ZM346.833 40.4C355.153 40.4 361.489 46.928 361.489 57.68C361.489 68.432 355.153 74.896 346.833 74.896C341.713 74.896 338.577 72.592 336.785 69.968H336.657V85.328H330.385V41.36H336.657V45.2H336.785C338.577 42.896 341.713 40.4 346.833 40.4ZM345.809 69.712C351.953 69.712 354.897 64.08 354.897 57.68C354.897 51.28 351.953 45.648 345.809 45.648C340.177 45.648 336.721 50.256 336.721 57.68C336.721 65.04 340.177 69.712 345.809 69.712ZM371.237 74H364.965V28.24H371.237V74ZM383.077 35.536H375.973V28.752H383.077V35.536ZM382.629 74H376.357V41.36H382.629V74ZM396.774 74.896C390.246 74.896 386.086 71.12 386.086 65.552C386.086 58.256 391.59 56.08 399.718 54.544C404.838 53.584 407.974 52.944 407.974 49.744C407.974 47.376 406.566 45.392 401.766 45.392C396.07 45.392 394.342 47.184 394.022 51.536H387.622C387.942 45.264 392.038 40.336 402.022 40.336C408.742 40.336 414.118 43.152 414.118 51.6V66.576C414.118 68.944 414.438 70.16 415.654 70.16C415.846 70.16 416.038 70.16 416.422 70.096V73.936C415.334 74.192 414.246 74.32 413.222 74.32C410.086 74.32 408.422 73.104 408.038 69.392H407.91C405.798 72.784 402.086 74.896 396.774 74.896ZM398.182 69.84C403.814 69.84 407.974 66.96 407.974 61.264V56.592C406.95 57.552 404.134 58.256 400.806 58.96C395.046 60.112 392.614 61.712 392.614 65.104C392.614 68.176 394.278 69.84 398.182 69.84ZM436.982 40.4C442.998 40.4 447.862 43.856 447.862 51.344V74H441.59V53.072C441.59 48.72 439.67 45.776 434.934 45.776C429.558 45.776 426.102 49.04 426.102 53.968V74H419.83V41.36H426.102V45.456H426.23C427.958 42.96 431.35 40.4 436.982 40.4ZM467.059 74.96C457.33 74.96 450.994 67.92 450.994 57.68C450.994 47.44 457.33 40.4 466.995 40.4C475.378 40.4 480.947 45.84 481.715 53.2H475.25C474.931 49.808 473.01 45.584 467.059 45.584C460.082 45.584 457.523 51.536 457.523 57.68C457.523 63.824 460.082 69.712 467.059 69.712C473.075 69.712 474.931 65.616 475.25 61.904H481.715C481.267 69.392 475.443 74.96 467.059 74.96ZM514.755 56.976C514.755 57.872 514.755 58.832 514.691 59.344H489.603C489.731 64.784 492.931 69.84 499.395 69.84C505.155 69.84 507.395 66.128 507.971 63.952H514.371C512.643 70.224 507.843 74.96 499.267 74.96C488.899 74.96 483.139 67.6 483.139 57.616C483.139 47.376 489.283 40.336 499.267 40.336C509.187 40.336 514.755 46.864 514.755 56.976ZM489.603 54.416H508.227C508.227 49.296 504.643 45.456 499.075 45.456C493.827 45.456 489.987 49.04 489.603 54.416ZM543.924 74.96C534.196 74.96 527.86 67.92 527.86 57.68C527.86 47.44 534.196 40.4 543.86 40.4C552.244 40.4 557.812 45.84 558.58 53.2H552.116C551.796 49.808 549.876 45.584 543.924 45.584C536.948 45.584 534.388 51.536 534.388 57.68C534.388 63.824 536.948 69.712 543.924 69.712C549.94 69.712 551.796 65.616 552.116 61.904H558.58C558.132 69.392 552.308 74.96 543.924 74.96ZM576.259 74.96C566.083 74.96 559.939 67.92 559.939 57.68C559.939 47.504 566.083 40.336 576.323 40.336C586.435 40.336 592.579 47.44 592.579 57.616C592.579 67.856 586.435 74.96 576.259 74.96ZM576.323 69.776C582.979 69.776 586.051 64.464 586.051 57.68C586.051 50.832 582.979 45.584 576.323 45.584C569.539 45.584 566.467 50.832 566.467 57.68C566.467 64.464 569.539 69.776 576.323 69.776ZM612.446 40.4C620.766 40.4 627.102 46.928 627.102 57.68C627.102 68.432 620.766 74.896 612.446 74.896C607.326 74.896 604.19 72.592 602.398 69.968H602.27V85.328H595.998V41.36H602.27V45.2H602.398C604.19 42.896 607.326 40.4 612.446 40.4ZM611.422 69.712C617.566 69.712 620.51 64.08 620.51 57.68C620.51 51.28 617.566 45.648 611.422 45.648C605.79 45.648 602.334 50.256 602.334 57.68C602.334 65.04 605.79 69.712 611.422 69.712ZM637.297 35.536H630.193V28.752H637.297V35.536ZM636.849 74H630.577V41.36H636.849V74ZM648.242 74H641.97V28.24H648.242V74ZM667.955 74.96C657.778 74.96 651.634 67.92 651.634 57.68C651.634 47.504 657.778 40.336 668.018 40.336C678.131 40.336 684.275 47.44 684.275 57.616C684.275 67.856 678.131 74.96 667.955 74.96ZM668.018 69.776C674.674 69.776 677.747 64.464 677.747 57.68C677.747 50.832 674.674 45.584 668.018 45.584C661.234 45.584 658.162 50.832 658.162 57.68C658.162 64.464 661.234 69.776 668.018 69.776ZM699.1 69.2C700.188 69.2 700.7 69.136 701.788 68.944V74C700.188 74.32 699.164 74.384 697.82 74.384C692.444 74.384 689.18 72.336 689.18 64.784V46.544H684.444V41.36H689.18V30.864H695.452V41.36H701.724V46.544H695.452V64.976C695.452 68.432 696.412 69.2 699.1 69.2Z" fill="#333333"/>
<path d="M202.84 140H199.128L207.64 117.12H211.448L220.024 140H216.184L214.296 134.496H204.728L202.84 140ZM209.496 120.384L205.784 131.52H213.304L209.56 120.384H209.496ZM229.501 123.2C232.509 123.2 234.941 124.928 234.941 128.672V140H231.805V129.536C231.805 127.36 230.845 125.888 228.477 125.888C225.789 125.888 224.061 127.52 224.061 129.984V140H220.925V123.68H224.061V125.728H224.125C224.989 124.48 226.685 123.2 229.501 123.2ZM241.883 140.448C238.619 140.448 236.539 138.56 236.539 135.776C236.539 132.128 239.291 131.04 243.355 130.272C245.915 129.792 247.483 129.472 247.483 127.872C247.483 126.688 246.779 125.696 244.379 125.696C241.531 125.696 240.667 126.592 240.507 128.768H237.307C237.467 125.632 239.515 123.168 244.507 123.168C247.867 123.168 250.555 124.576 250.555 128.8V136.288C250.555 137.472 250.715 138.08 251.323 138.08C251.419 138.08 251.515 138.08 251.707 138.048V139.968C251.163 140.096 250.619 140.16 250.107 140.16C248.539 140.16 247.707 139.552 247.515 137.696H247.451C246.395 139.392 244.539 140.448 241.883 140.448ZM242.587 137.92C245.403 137.92 247.483 136.48 247.483 133.632V131.296C246.971 131.776 245.563 132.128 243.899 132.48C241.019 133.056 239.803 133.856 239.803 135.552C239.803 137.088 240.635 137.92 242.587 137.92ZM256.547 140H253.411V117.12H256.547V140ZM261.22 145.728C260.516 145.728 260.036 145.664 259.203 145.504V142.944C259.747 143.008 260.036 143.04 260.547 143.04C261.796 143.04 263.267 142.4 263.908 139.84L257.315 123.68H260.74L265.508 136.16H265.571L270.052 123.68H273.347L266.884 140.384C265.316 144.416 263.747 145.728 261.22 145.728ZM286.531 140H272.995V137.664L281.923 126.336V126.272H273.571V123.68H286.179V125.696L277.027 137.344V137.408H286.531V140ZM302.601 131.488C302.601 131.936 302.601 132.416 302.569 132.672H290.025C290.089 135.392 291.689 137.92 294.921 137.92C297.801 137.92 298.921 136.064 299.209 134.976H302.409C301.545 138.112 299.145 140.48 294.857 140.48C289.673 140.48 286.793 136.8 286.793 131.808C286.793 126.688 289.865 123.168 294.857 123.168C299.817 123.168 302.601 126.432 302.601 131.488ZM290.025 130.208H299.337C299.337 127.648 297.545 125.728 294.761 125.728C292.137 125.728 290.217 127.52 290.025 130.208ZM310.722 140.448C305.762 140.448 303.298 137.888 303.202 134.56H306.37C306.498 136.448 307.65 137.92 310.69 137.92C313.442 137.92 314.178 136.704 314.178 135.52C314.178 133.472 312.002 133.248 309.89 132.8C307.042 132.128 303.778 131.296 303.778 127.904C303.778 125.088 306.05 123.2 309.986 123.2C314.466 123.2 316.61 125.6 316.834 128.416H313.666C313.442 127.168 312.77 125.728 310.05 125.728C307.938 125.728 307.042 126.56 307.042 127.776C307.042 129.472 308.866 129.632 311.17 130.144C314.178 130.848 317.442 131.712 317.442 135.36C317.442 138.528 315.01 140.448 310.722 140.448ZM326.045 145.728C325.341 145.728 324.861 145.664 324.029 145.504V142.944C324.573 143.008 324.861 143.04 325.373 143.04C326.621 143.04 328.093 142.4 328.733 139.84L322.141 123.68H325.565L330.333 136.16H330.397L334.877 123.68H338.173L331.709 140.384C330.141 144.416 328.573 145.728 326.045 145.728ZM345.831 140.48C340.743 140.48 337.671 136.96 337.671 131.84C337.671 126.752 340.743 123.168 345.863 123.168C350.919 123.168 353.991 126.72 353.991 131.808C353.991 136.928 350.919 140.48 345.831 140.48ZM345.863 137.888C349.191 137.888 350.727 135.232 350.727 131.84C350.727 128.416 349.191 125.792 345.863 125.792C342.471 125.792 340.935 128.416 340.935 131.84C340.935 135.232 342.471 137.888 345.863 137.888ZM366.452 133.696V123.68H369.588V140H366.452V137.952H366.388C365.524 139.2 363.828 140.448 361.012 140.448C358.004 140.448 355.572 138.72 355.572 134.976V123.68H358.708V134.112C358.708 136.32 359.668 137.792 362.036 137.792C364.724 137.792 366.452 136.16 366.452 133.696ZM379.73 123.296C380.306 123.296 380.754 123.328 381.234 123.392V126.4C380.85 126.336 380.562 126.304 380.178 126.304C377.33 126.304 375.282 128.448 375.282 131.552V140H372.146V123.68H375.282V126.784H375.346C376.21 124.736 377.522 123.296 379.73 123.296ZM395.544 123.2C399.704 123.2 402.872 126.464 402.872 131.84C402.872 137.216 399.704 140.448 395.544 140.448C392.984 140.448 391.416 139.296 390.52 137.984H390.456V145.664H387.32V123.68H390.456V125.6H390.52C391.416 124.448 392.984 123.2 395.544 123.2ZM395.032 137.856C398.104 137.856 399.576 135.04 399.576 131.84C399.576 128.64 398.104 125.824 395.032 125.824C392.216 125.824 390.488 128.128 390.488 131.84C390.488 135.52 392.216 137.856 395.032 137.856ZM407.746 140H404.61V117.12H407.746V140ZM414.818 140.448C411.554 140.448 409.474 138.56 409.474 135.776C409.474 132.128 412.226 131.04 416.29 130.272C418.85 129.792 420.418 129.472 420.418 127.872C420.418 126.688 419.714 125.696 417.314 125.696C414.466 125.696 413.602 126.592 413.442 128.768H410.242C410.402 125.632 412.45 123.168 417.442 123.168C420.802 123.168 423.49 124.576 423.49 128.8V136.288C423.49 137.472 423.65 138.08 424.258 138.08C424.354 138.08 424.45 138.08 424.642 138.048V139.968C424.098 140.096 423.554 140.16 423.042 140.16C421.474 140.16 420.642 139.552 420.45 137.696H420.386C419.33 139.392 417.474 140.448 414.818 140.448ZM415.522 137.92C418.338 137.92 420.418 136.48 420.418 133.632V131.296C419.906 131.776 418.498 132.128 416.834 132.48C413.954 133.056 412.738 133.856 412.738 135.552C412.738 137.088 413.57 137.92 415.522 137.92ZM434.922 123.2C437.93 123.2 440.362 124.928 440.362 128.672V140H437.226V129.536C437.226 127.36 436.266 125.888 433.898 125.888C431.21 125.888 429.482 127.52 429.482 129.984V140H426.346V123.68H429.482V125.728H429.546C430.41 124.48 432.106 123.2 434.922 123.2ZM453.032 140.448C449.768 140.448 447.688 138.56 447.688 135.776C447.688 132.128 450.44 131.04 454.504 130.272C457.064 129.792 458.632 129.472 458.632 127.872C458.632 126.688 457.928 125.696 455.528 125.696C452.68 125.696 451.816 126.592 451.656 128.768H448.456C448.616 125.632 450.664 123.168 455.656 123.168C459.016 123.168 461.704 124.576 461.704 128.8V136.288C461.704 137.472 461.864 138.08 462.472 138.08C462.568 138.08 462.664 138.08 462.856 138.048V139.968C462.312 140.096 461.768 140.16 461.256 140.16C459.688 140.16 458.856 139.552 458.664 137.696H458.6C457.544 139.392 455.688 140.448 453.032 140.448ZM453.736 137.92C456.552 137.92 458.632 136.48 458.632 133.632V131.296C458.12 131.776 456.712 132.128 455.048 132.48C452.168 133.056 450.952 133.856 450.952 135.552C450.952 137.088 451.784 137.92 453.736 137.92ZM473.136 123.2C476.144 123.2 478.576 124.928 478.576 128.672V140H475.44V129.536C475.44 127.36 474.48 125.888 472.112 125.888C469.424 125.888 467.696 127.52 467.696 129.984V140H464.56V123.68H467.696V125.728H467.76C468.624 124.48 470.32 123.2 473.136 123.2ZM492.59 125.664V117.12H495.726V140H492.59V138.08H492.526C491.63 139.232 490.062 140.448 487.502 140.448C483.342 140.448 480.174 137.216 480.174 131.84C480.174 126.464 483.342 123.2 487.502 123.2C490.062 123.2 491.63 124.384 492.526 125.664H492.59ZM488.014 137.856C490.83 137.856 492.558 135.52 492.558 131.84C492.558 128.128 490.83 125.824 488.014 125.824C484.942 125.824 483.438 128.64 483.438 131.84C483.438 135.04 484.942 137.856 488.014 137.856ZM505.176 123.68V121.696C505.176 117.92 506.744 116.896 509.4 116.896C510.008 116.896 510.488 116.96 511.384 117.088V119.616C510.744 119.552 510.488 119.52 510.04 119.52C508.728 119.52 508.344 119.904 508.344 121.632V123.68H511.384V126.272H508.344V140H505.176V126.272H502.936V123.68H505.176ZM513.496 140V117.12H516.632V140H513.496ZM523.701 140.448C520.437 140.448 518.357 138.56 518.357 135.776C518.357 132.128 521.109 131.04 525.173 130.272C527.733 129.792 529.301 129.472 529.301 127.872C529.301 126.688 528.597 125.696 526.197 125.696C523.349 125.696 522.485 126.592 522.325 128.768H519.125C519.285 125.632 521.333 123.168 526.325 123.168C529.685 123.168 532.373 124.576 532.373 128.8V136.288C532.373 137.472 532.533 138.08 533.141 138.08C533.237 138.08 533.333 138.08 533.525 138.048V139.968C532.981 140.096 532.437 140.16 531.925 140.16C530.357 140.16 529.525 139.552 529.333 137.696H529.269C528.213 139.392 526.357 140.448 523.701 140.448ZM524.405 137.92C527.221 137.92 529.301 136.48 529.301 133.632V131.296C528.789 131.776 527.381 132.128 525.717 132.48C522.837 133.056 521.621 133.856 521.621 135.552C521.621 137.088 522.453 137.92 524.405 137.92ZM546.561 125.6V123.68H549.697V138.72C549.697 143.648 546.721 145.856 542.049 145.856C537.377 145.856 535.041 143.616 534.721 140.672H537.985C538.305 142.144 539.393 143.296 542.049 143.296C545.025 143.296 546.561 141.984 546.561 138.912V136.704H546.497C545.601 138.016 544.097 139.168 541.473 139.168C537.409 139.168 534.273 136.416 534.273 131.2C534.273 125.952 537.409 123.2 541.473 123.2C544.097 123.2 545.601 124.448 546.497 125.6H546.561ZM542.049 136.576C544.865 136.576 546.529 134.752 546.529 131.2C546.529 127.616 544.865 125.824 542.049 125.824C538.977 125.824 537.537 128.128 537.537 131.2C537.537 134.272 538.977 136.576 542.049 136.576ZM558.67 140.448C553.71 140.448 551.246 137.888 551.15 134.56H554.318C554.446 136.448 555.598 137.92 558.638 137.92C561.39 137.92 562.126 136.704 562.126 135.52C562.126 133.472 559.95 133.248 557.838 132.8C554.99 132.128 551.726 131.296 551.726 127.904C551.726 125.088 553.998 123.2 557.934 123.2C562.414 123.2 564.558 125.6 564.782 128.416H561.614C561.39 127.168 560.718 125.728 557.998 125.728C555.886 125.728 554.99 126.56 554.99 127.776C554.99 129.472 556.814 129.632 559.118 130.144C562.126 130.848 565.39 131.712 565.39 135.36C565.39 138.528 562.958 140.448 558.67 140.448ZM579.798 140.48C574.934 140.48 571.766 136.96 571.766 131.84C571.766 126.72 574.934 123.2 579.766 123.2C583.958 123.2 586.742 125.92 587.126 129.6H583.894C583.734 127.904 582.774 125.792 579.798 125.792C576.31 125.792 575.03 128.768 575.03 131.84C575.03 134.912 576.31 137.856 579.798 137.856C582.806 137.856 583.734 135.808 583.894 133.952H587.126C586.902 137.696 583.99 140.48 579.798 140.48ZM595.966 140.48C590.878 140.48 587.806 136.96 587.806 131.84C587.806 126.752 590.878 123.168 595.998 123.168C601.054 123.168 604.126 126.72 604.126 131.808C604.126 136.928 601.054 140.48 595.966 140.48ZM595.998 137.888C599.326 137.888 600.862 135.232 600.862 131.84C600.862 128.416 599.326 125.792 595.998 125.792C592.606 125.792 591.07 128.416 591.07 131.84C591.07 135.232 592.606 137.888 595.998 137.888ZM623.595 123.2C626.891 123.2 628.555 125.184 628.555 128.672V140H625.419V129.536C625.419 127.36 624.971 125.888 622.571 125.888C620.235 125.888 618.763 127.52 618.763 129.984V140H615.627V129.536C615.627 127.36 615.179 125.888 612.779 125.888C610.443 125.888 608.971 127.52 608.971 129.984V140H605.835V123.68H608.971V125.728H609.035C609.899 124.48 611.403 123.2 613.867 123.2C616.139 123.2 617.547 124.224 618.187 126.048H618.251C619.435 124.48 621.099 123.2 623.595 123.2ZM639.255 123.2C643.415 123.2 646.583 126.464 646.583 131.84C646.583 137.216 643.415 140.448 639.255 140.448C636.695 140.448 635.127 139.296 634.231 137.984H634.167V145.664H631.031V123.68H634.167V125.6H634.231C635.127 124.448 636.695 123.2 639.255 123.2ZM638.743 137.856C641.815 137.856 643.287 135.04 643.287 131.84C643.287 128.64 641.815 125.824 638.743 125.824C635.927 125.824 634.199 128.128 634.199 131.84C634.199 135.52 635.927 137.856 638.743 137.856ZM651.457 140H648.321V117.12H651.457V140ZM657.378 120.768H653.826V117.376H657.378V120.768ZM657.154 140H654.018V123.68H657.154V140ZM664.226 140.448C660.962 140.448 658.882 138.56 658.882 135.776C658.882 132.128 661.634 131.04 665.698 130.272C668.258 129.792 669.826 129.472 669.826 127.872C669.826 126.688 669.122 125.696 666.722 125.696C663.874 125.696 663.01 126.592 662.85 128.768H659.65C659.81 125.632 661.858 123.168 666.85 123.168C670.21 123.168 672.898 124.576 672.898 128.8V136.288C672.898 137.472 673.058 138.08 673.666 138.08C673.762 138.08 673.858 138.08 674.05 138.048V139.968C673.506 140.096 672.962 140.16 672.45 140.16C670.882 140.16 670.05 139.552 669.858 137.696H669.794C668.738 139.392 666.882 140.448 664.226 140.448ZM664.93 137.92C667.746 137.92 669.826 136.48 669.826 133.632V131.296C669.314 131.776 667.906 132.128 666.242 132.48C663.362 133.056 662.146 133.856 662.146 135.552C662.146 137.088 662.978 137.92 664.93 137.92ZM684.33 123.2C687.338 123.2 689.77 124.928 689.77 128.672V140H686.634V129.536C686.634 127.36 685.674 125.888 683.306 125.888C680.618 125.888 678.89 127.52 678.89 129.984V140H675.754V123.68H678.89V125.728H678.954C679.818 124.48 681.514 123.2 684.33 123.2ZM699.368 140.48C694.504 140.48 691.336 136.96 691.336 131.84C691.336 126.72 694.504 123.2 699.336 123.2C703.528 123.2 706.312 125.92 706.696 129.6H703.464C703.304 127.904 702.344 125.792 699.368 125.792C695.88 125.792 694.6 128.768 694.6 131.84C694.6 134.912 695.88 137.856 699.368 137.856C702.376 137.856 703.304 135.808 703.464 133.952H706.696C706.472 137.696 703.56 140.48 699.368 140.48ZM723.216 131.488C723.216 131.936 723.216 132.416 723.184 132.672H710.64C710.704 135.392 712.304 137.92 715.536 137.92C718.416 137.92 719.536 136.064 719.824 134.976H723.024C722.16 138.112 719.76 140.48 715.472 140.48C710.288 140.48 707.408 136.8 707.408 131.808C707.408 126.688 710.48 123.168 715.472 123.168C720.432 123.168 723.216 126.432 723.216 131.488ZM710.64 130.208H719.952C719.952 127.648 718.16 125.728 715.376 125.728C712.752 125.728 710.832 127.52 710.64 130.208ZM215.736 169.488C215.736 169.936 215.736 170.416 215.704 170.672H203.16C203.224 173.392 204.824 175.92 208.056 175.92C210.936 175.92 212.056 174.064 212.344 172.976H215.544C214.68 176.112 212.28 178.48 207.992 178.48C202.808 178.48 199.928 174.8 199.928 169.808C199.928 164.688 203 161.168 207.992 161.168C212.952 161.168 215.736 164.432 215.736 169.488ZM203.16 168.208H212.472C212.472 165.648 210.68 163.728 207.896 163.728C205.272 163.728 203.352 165.52 203.16 168.208ZM225.009 161.296C225.585 161.296 226.033 161.328 226.513 161.392V164.4C226.129 164.336 225.841 164.304 225.457 164.304C222.609 164.304 220.561 166.448 220.561 169.552V178H217.425V161.68H220.561V164.784H220.625C221.489 162.736 222.801 161.296 225.009 161.296ZM235.174 161.296C235.75 161.296 236.198 161.328 236.678 161.392V164.4C236.294 164.336 236.006 164.304 235.622 164.304C232.774 164.304 230.726 166.448 230.726 169.552V178H227.59V161.68H230.726V164.784H230.79C231.654 162.736 232.966 161.296 235.174 161.296ZM244.363 178.48C239.275 178.48 236.203 174.96 236.203 169.84C236.203 164.752 239.275 161.168 244.395 161.168C249.451 161.168 252.524 164.72 252.524 169.808C252.524 174.928 249.451 178.48 244.363 178.48ZM244.395 175.888C247.723 175.888 249.259 173.232 249.259 169.84C249.259 166.416 247.723 163.792 244.395 163.792C241.003 163.792 239.467 166.416 239.467 169.84C239.467 173.232 241.003 175.888 244.395 175.888ZM261.817 161.296C262.392 161.296 262.84 161.328 263.321 161.392V164.4C262.937 164.336 262.649 164.304 262.265 164.304C259.417 164.304 257.369 166.448 257.369 169.552V178H254.232V161.68H257.369V164.784H257.432C258.297 162.736 259.609 161.296 261.817 161.296ZM270.486 178.448C265.526 178.448 263.062 175.888 262.966 172.56H266.134C266.262 174.448 267.414 175.92 270.454 175.92C273.206 175.92 273.942 174.704 273.942 173.52C273.942 171.472 271.766 171.248 269.654 170.8C266.806 170.128 263.542 169.296 263.542 165.904C263.542 163.088 265.814 161.2 269.75 161.2C274.23 161.2 276.374 163.6 276.598 166.416H273.43C273.206 165.168 272.534 163.728 269.814 163.728C267.702 163.728 266.806 164.56 266.806 165.776C266.806 167.472 268.63 167.632 270.934 168.144C273.942 168.848 277.206 169.712 277.206 173.36C277.206 176.528 274.774 178.448 270.486 178.448ZM292.67 161.2C296.83 161.2 299.998 164.464 299.998 169.84C299.998 175.216 296.83 178.448 292.67 178.448C290.11 178.448 288.542 177.296 287.646 175.984H287.582V183.664H284.446V161.68H287.582V163.6H287.646C288.542 162.448 290.11 161.2 292.67 161.2ZM292.158 175.856C295.23 175.856 296.702 173.04 296.702 169.84C296.702 166.64 295.23 163.824 292.158 163.824C289.342 163.824 287.614 166.128 287.614 169.84C287.614 173.52 289.342 175.856 292.158 175.856ZM309.32 161.296C309.896 161.296 310.344 161.328 310.824 161.392V164.4C310.44 164.336 310.152 164.304 309.768 164.304C306.92 164.304 304.872 166.448 304.872 169.552V178H301.736V161.68H304.872V164.784H304.936C305.8 162.736 307.112 161.296 309.32 161.296ZM315.261 158.768H311.709V155.376H315.261V158.768ZM315.037 178H311.901V161.68H315.037V178ZM324.894 178.48C319.806 178.48 316.734 174.96 316.734 169.84C316.734 164.752 319.806 161.168 324.926 161.168C329.982 161.168 333.054 164.72 333.054 169.808C333.054 174.928 329.982 178.48 324.894 178.48ZM324.926 175.888C328.254 175.888 329.79 173.232 329.79 169.84C329.79 166.416 328.254 163.792 324.926 163.792C321.534 163.792 319.998 166.416 319.998 169.84C319.998 173.232 321.534 175.888 324.926 175.888ZM342.347 161.296C342.923 161.296 343.371 161.328 343.851 161.392V164.4C343.467 164.336 343.179 164.304 342.795 164.304C339.947 164.304 337.899 166.448 337.899 169.552V178H334.763V161.68H337.899V164.784H337.963C338.827 162.736 340.139 161.296 342.347 161.296ZM355.952 175.6C356.496 175.6 356.752 175.568 357.296 175.472V178C356.496 178.16 355.984 178.192 355.312 178.192C352.624 178.192 350.992 177.168 350.992 173.392V164.272H348.624V161.68H350.992V156.432H354.128V161.68H357.264V164.272H354.128V173.488C354.128 175.216 354.608 175.6 355.952 175.6ZM365.866 178.48C360.778 178.48 357.706 174.96 357.706 169.84C357.706 164.752 360.778 161.168 365.898 161.168C370.954 161.168 374.026 164.72 374.026 169.808C374.026 174.928 370.954 178.48 365.866 178.48ZM365.898 175.888C369.226 175.888 370.762 173.232 370.762 169.84C370.762 166.416 369.226 163.792 365.898 163.792C362.506 163.792 360.97 166.416 360.97 169.84C360.97 173.232 362.506 175.888 365.898 175.888ZM387.894 178.448C382.934 178.448 380.47 175.888 380.374 172.56H383.542C383.67 174.448 384.822 175.92 387.863 175.92C390.615 175.92 391.351 174.704 391.351 173.52C391.351 171.472 389.174 171.248 387.062 170.8C384.214 170.128 380.95 169.296 380.95 165.904C380.95 163.088 383.222 161.2 387.158 161.2C391.639 161.2 393.783 163.6 394.007 166.416H390.839C390.615 165.168 389.943 163.728 387.222 163.728C385.11 163.728 384.214 164.56 384.214 165.776C384.214 167.472 386.038 167.632 388.342 168.144C391.351 168.848 394.615 169.712 394.615 173.36C394.615 176.528 392.182 178.448 387.894 178.448ZM406.88 171.696V161.68H410.016V178H406.88V175.952H406.816C405.952 177.2 404.256 178.448 401.44 178.448C398.432 178.448 396 176.72 396 172.976V161.68H399.136V172.112C399.136 174.32 400.096 175.792 402.464 175.792C405.152 175.792 406.88 174.16 406.88 171.696ZM420.798 161.2C424.958 161.2 428.126 164.464 428.126 169.84C428.126 175.216 424.958 178.448 420.798 178.448C418.238 178.448 416.67 177.296 415.774 175.984H415.71V178H412.574V155.12H415.71V163.6H415.774C416.67 162.448 418.238 161.2 420.798 161.2ZM420.286 175.856C423.358 175.856 424.83 173.04 424.83 169.84C424.83 166.64 423.358 163.824 420.286 163.824C417.47 163.824 415.742 166.128 415.742 169.84C415.742 173.52 417.47 175.856 420.286 175.856ZM447.624 161.2C450.92 161.2 452.584 163.184 452.584 166.672V178H449.448V167.536C449.448 165.36 449 163.888 446.6 163.888C444.264 163.888 442.792 165.52 442.792 167.984V178H439.656V167.536C439.656 165.36 439.208 163.888 436.808 163.888C434.472 163.888 433 165.52 433 167.984V178H429.864V161.68H433V163.728H433.064C433.928 162.48 435.432 161.2 437.896 161.2C440.168 161.2 441.576 162.224 442.216 164.048H442.28C443.464 162.48 445.128 161.2 447.624 161.2ZM458.42 158.768H454.868V155.376H458.42V158.768ZM458.196 178H455.06V161.68H458.196V178ZM467.188 178.448C462.228 178.448 459.764 175.888 459.668 172.56H462.836C462.964 174.448 464.116 175.92 467.156 175.92C469.908 175.92 470.644 174.704 470.644 173.52C470.644 171.472 468.468 171.248 466.356 170.8C463.508 170.128 460.244 169.296 460.244 165.904C460.244 163.088 462.516 161.2 466.452 161.2C470.932 161.2 473.076 163.6 473.3 166.416H470.132C469.908 165.168 469.236 163.728 466.516 163.728C464.404 163.728 463.508 164.56 463.508 165.776C463.508 167.472 465.332 167.632 467.636 168.144C470.644 168.848 473.908 169.712 473.908 173.36C473.908 176.528 471.476 178.448 467.188 178.448ZM481.853 178.448C476.893 178.448 474.429 175.888 474.333 172.56H477.501C477.629 174.448 478.781 175.92 481.821 175.92C484.573 175.92 485.309 174.704 485.309 173.52C485.309 171.472 483.133 171.248 481.021 170.8C478.173 170.128 474.909 169.296 474.909 165.904C474.909 163.088 477.181 161.2 481.117 161.2C485.597 161.2 487.741 163.6 487.965 166.416H484.797C484.573 165.168 483.901 163.728 481.181 163.728C479.069 163.728 478.173 164.56 478.173 165.776C478.173 167.472 479.997 167.632 482.301 168.144C485.309 168.848 488.573 169.712 488.573 173.36C488.573 176.528 486.141 178.448 481.853 178.448ZM493.446 158.768H489.894V155.376H493.446V158.768ZM493.222 178H490.086V161.68H493.222V178ZM503.078 178.48C497.99 178.48 494.918 174.96 494.918 169.84C494.918 164.752 497.99 161.168 503.11 161.168C508.166 161.168 511.238 164.72 511.238 169.808C511.238 174.928 508.166 178.48 503.078 178.48ZM503.11 175.888C506.438 175.888 507.974 173.232 507.974 169.84C507.974 166.416 506.438 163.792 503.11 163.792C499.718 163.792 498.182 166.416 498.182 169.84C498.182 173.232 499.718 175.888 503.11 175.888ZM521.524 161.2C524.532 161.2 526.964 162.928 526.964 166.672V178H523.828V167.536C523.828 165.36 522.868 163.888 520.5 163.888C517.812 163.888 516.084 165.52 516.084 167.984V178H512.948V161.68H516.084V163.728H516.148C517.012 162.48 518.708 161.2 521.524 161.2Z" fill="#574F46"/>
</svg>
