<svg width="450" height="233" viewBox="0 0 450 233" fill="none" xmlns="http://www.w3.org/2000/svg">
<g filter="url(#filter0_d_214_206)">
<rect x="10" y="5.90625" width="430" height="213" rx="10" fill="white" shape-rendering="crispEdges"/>
<rect x="10.5" y="6.40625" width="429" height="212" rx="9.5" stroke="#C1C1C1" shape-rendering="crispEdges"/>
<path d="M38.664 59.9062V35.8942H54.792V39.0622H42.264V46.0822H54.54V49.2502H42.264V59.9062H38.664ZM58.2359 51.1942C58.2359 46.1542 61.8719 42.0862 66.9479 42.0862C72.1679 42.0862 75.4079 46.1542 75.4079 51.4822V52.2742H61.6559C61.9079 55.2262 64.0679 57.6742 67.5599 57.6742C69.3959 57.6742 71.4119 56.9542 72.7079 55.6222L74.2199 57.7462C72.4919 59.4382 70.0439 60.3383 67.2359 60.3383C62.0519 60.3383 58.2359 56.6662 58.2359 51.1942ZM66.9479 44.7502C63.4559 44.7502 61.7999 47.5582 61.6199 49.9342H72.2399C72.1679 47.6302 70.6199 44.7502 66.9479 44.7502ZM79.1004 51.1942C79.1004 46.1542 82.7364 42.0862 87.8124 42.0862C93.0324 42.0862 96.2724 46.1542 96.2724 51.4822V52.2742H82.5204C82.7724 55.2262 84.9324 57.6742 88.4244 57.6742C90.2604 57.6742 92.2764 56.9542 93.5724 55.6222L95.0844 57.7462C93.3564 59.4382 90.9084 60.3383 88.1004 60.3383C82.9164 60.3383 79.1004 56.6662 79.1004 51.1942ZM87.8124 44.7502C84.3204 44.7502 82.6644 47.5582 82.4844 49.9342H93.1044C93.0324 47.6302 91.4844 44.7502 87.8124 44.7502ZM113.429 59.9062V57.4222C112.133 59.1502 110.045 60.3383 107.741 60.3383C103.205 60.3383 99.965 56.9182 99.965 51.2302C99.965 45.6502 103.205 42.0862 107.741 42.0862C109.973 42.0862 112.025 43.1662 113.429 45.0382V35.8942H116.669V59.9062H113.429ZM113.429 54.9382V47.5222C112.529 46.1182 110.585 44.9662 108.605 44.9662C105.365 44.9662 103.349 47.5942 103.349 51.2302C103.349 54.8302 105.365 57.4582 108.605 57.4582C110.585 57.4582 112.529 56.3422 113.429 54.9382ZM122.577 59.9062V35.8942H125.817V45.0382C127.185 43.1662 129.237 42.0862 131.505 42.0862C136.041 42.0862 139.245 45.6502 139.245 51.2302C139.245 56.9182 136.005 60.3383 131.505 60.3383C129.165 60.3383 127.113 59.1502 125.817 57.4222V59.9062H122.577ZM125.817 54.9382C126.681 56.3422 128.661 57.4582 130.641 57.4582C133.881 57.4582 135.897 54.8662 135.897 51.2302C135.897 47.5942 133.881 44.9662 130.641 44.9662C128.661 44.9662 126.681 46.1542 125.817 47.5582V54.9382ZM154.838 59.9062V57.9982C153.47 59.5102 151.49 60.3383 149.15 60.3383C146.27 60.3383 143.102 58.3942 143.102 54.5782C143.102 50.6182 146.234 48.8902 149.15 48.8902C151.49 48.8902 153.506 49.6462 154.838 51.1942V48.3142C154.838 46.1542 153.074 44.8582 150.59 44.8582C148.61 44.8582 146.918 45.6142 145.37 47.1622L143.966 44.9302C145.91 43.0222 148.286 42.0862 151.094 42.0862C154.874 42.0862 158.078 43.7422 158.078 48.1702V59.9062H154.838ZM154.838 56.0902V53.1382C153.866 51.8422 152.174 51.1582 150.374 51.1582C148.034 51.1582 146.378 52.5622 146.378 54.6143C146.378 56.6662 148.034 58.0702 150.374 58.0702C152.174 58.0702 153.866 57.3862 154.838 56.0902ZM162.91 51.1942C162.91 45.9742 166.51 42.0862 171.766 42.0862C175.042 42.0862 177.022 43.4542 178.282 45.1462L176.122 47.1262C175.078 45.6502 173.674 44.9662 171.91 44.9662C168.49 44.9662 166.294 47.5942 166.294 51.1942C166.294 54.7942 168.49 57.4582 171.91 57.4582C173.674 57.4582 175.078 56.7382 176.122 55.2982L178.282 57.2782C177.022 58.9702 175.042 60.3383 171.766 60.3383C166.51 60.3383 162.91 56.4142 162.91 51.1942ZM194.233 59.9062L188.437 52.4182L185.809 55.0822V59.9062H182.569V35.8942H185.809V51.3382L194.197 42.5182H198.265L190.777 50.4023L198.337 59.9062H194.233ZM39.384 95.9062V81.3622H36.504V78.5182H39.384V77.3662C39.384 73.6222 41.58 71.5342 44.676 71.5342C45.792 71.5342 46.764 71.7502 47.52 72.1822L46.764 74.5942C46.332 74.3422 45.792 74.1982 45.216 74.1982C43.596 74.1982 42.624 75.2782 42.624 77.3662V78.5182H46.152V81.3622H42.624V95.9062H39.384ZM49.9643 95.9062V78.5182H53.2043V81.1822C54.5363 79.4542 56.5883 78.1222 58.8923 78.1222V81.3982C58.5683 81.3262 58.2083 81.2902 57.7763 81.2902C56.1563 81.2902 53.9603 82.5142 53.2043 83.8102V95.9062H49.9643ZM70.5524 96.3383C65.1524 96.3383 61.7684 92.2342 61.7684 87.1942C61.7684 82.1902 65.1524 78.0862 70.5524 78.0862C75.9884 78.0862 79.3364 82.1902 79.3364 87.1942C79.3364 92.2342 75.9884 96.3383 70.5524 96.3383ZM70.5524 93.4582C74.0444 93.4582 75.9524 90.5062 75.9524 87.1942C75.9524 83.9182 74.0444 80.9662 70.5524 80.9662C67.0964 80.9662 65.1524 83.9182 65.1524 87.1942C65.1524 90.5062 67.0964 93.4582 70.5524 93.4582ZM105.302 95.9062V84.3142C105.302 82.2982 104.402 80.9662 102.278 80.9662C100.514 80.9662 98.786 82.1902 97.958 83.4502V95.9062H94.718V84.3142C94.718 82.2982 93.854 80.9662 91.658 80.9662C89.966 80.9662 88.274 82.2262 87.41 83.4862V95.9062H84.17V78.5182H87.41V80.9662C88.13 79.8862 90.434 78.0862 93.026 78.0862C95.654 78.0862 97.202 79.4542 97.742 81.3262C98.75 79.7062 101.054 78.0862 103.61 78.0862C106.814 78.0862 108.542 79.8502 108.542 83.3422V95.9062H105.302ZM132.126 96.3383C126.726 96.3383 123.342 92.2342 123.342 87.1942C123.342 82.1902 126.726 78.0862 132.126 78.0862C137.562 78.0862 140.91 82.1902 140.91 87.1942C140.91 92.2342 137.562 96.3383 132.126 96.3383ZM132.126 93.4582C135.618 93.4582 137.526 90.5062 137.526 87.1942C137.526 83.9182 135.618 80.9662 132.126 80.9662C128.67 80.9662 126.726 83.9182 126.726 87.1942C126.726 90.5062 128.67 93.4582 132.126 93.4582ZM168.64 75.6022C167.524 75.6022 166.552 74.7022 166.552 73.5502C166.552 72.3982 167.524 71.4622 168.64 71.4622C169.792 71.4622 170.728 72.3982 170.728 73.5502C170.728 74.7022 169.792 75.6022 168.64 75.6022ZM146.536 95.9062V81.3622H143.656V78.5182H146.536V77.3662C146.536 73.6222 148.732 71.5342 151.828 71.5342C152.944 71.5342 153.916 71.7502 154.672 72.1822L153.916 74.5942C153.484 74.3422 152.944 74.1982 152.368 74.1982C150.748 74.1982 149.776 75.2782 149.776 77.3662V78.5182H153.304V81.3622H149.776V95.9062H146.536ZM157.192 95.9062V81.3622H154.312V78.5182H157.192V77.3662C157.192 73.6222 159.388 71.5342 162.484 71.5342C163.6 71.5342 164.572 71.7502 165.328 72.1822L164.572 74.5942C164.176 74.3422 163.672 74.1982 163.024 74.1982C161.404 74.1982 160.432 75.2782 160.432 77.3662V78.5182H163.96V81.3622H160.432V95.9062H157.192ZM167.056 95.9062V78.5182H170.296V95.9062H167.056ZM175.091 87.1942C175.091 81.9742 178.691 78.0862 183.947 78.0862C187.223 78.0862 189.203 79.4542 190.463 81.1462L188.303 83.1262C187.259 81.6502 185.855 80.9662 184.091 80.9662C180.671 80.9662 178.475 83.5942 178.475 87.1942C178.475 90.7942 180.671 93.4582 184.091 93.4582C185.855 93.4582 187.259 92.7382 188.303 91.2982L190.463 93.2782C189.203 94.9702 187.223 96.3383 183.947 96.3383C178.691 96.3383 175.091 92.4142 175.091 87.1942ZM196.334 75.6022C195.218 75.6022 194.246 74.7022 194.246 73.5502C194.246 72.3982 195.218 71.4622 196.334 71.4622C197.486 71.4622 198.422 72.3982 198.422 73.5502C198.422 74.7022 197.486 75.6022 196.334 75.6022ZM194.75 95.9062V78.5182H197.99V95.9062H194.75ZM214.601 95.9062V93.9982C213.233 95.5102 211.253 96.3383 208.913 96.3383C206.033 96.3383 202.865 94.3942 202.865 90.5782C202.865 86.6182 205.997 84.8902 208.913 84.8902C211.253 84.8902 213.269 85.6462 214.601 87.1942V84.3142C214.601 82.1542 212.837 80.8582 210.353 80.8582C208.373 80.8582 206.681 81.6142 205.133 83.1622L203.729 80.9302C205.673 79.0222 208.049 78.0862 210.857 78.0862C214.637 78.0862 217.841 79.7422 217.841 84.1702V95.9062H214.601ZM214.601 92.0902V89.1382C213.629 87.8422 211.937 87.1582 210.137 87.1582C207.797 87.1582 206.141 88.5622 206.141 90.6143C206.141 92.6662 207.797 94.0702 210.137 94.0702C211.937 94.0702 213.629 93.3862 214.601 92.0902ZM223.753 95.9062V71.8942H226.993V95.9062H223.753ZM231.363 93.6382L232.911 91.2622C234.099 92.5582 236.403 93.7462 238.743 93.7462C241.191 93.7462 242.487 92.7382 242.487 91.2622C242.487 89.5342 240.507 88.9582 238.275 88.4542C235.323 87.7702 231.867 86.9782 231.867 83.2342C231.867 80.4622 234.243 78.0862 238.491 78.0862C241.479 78.0862 243.639 79.1662 245.115 80.5702L243.675 82.8382C242.667 81.6142 240.723 80.7142 238.527 80.7142C236.331 80.7142 234.963 81.5782 234.963 82.9822C234.963 84.4942 236.835 84.9982 238.995 85.5022C242.019 86.1862 245.619 87.0142 245.619 91.0102C245.619 93.9982 243.171 96.3383 238.599 96.3383C235.683 96.3383 233.127 95.4382 231.363 93.6382Z" fill="black"/>
<path d="M397 46.6562C397 47.8497 396.526 48.9943 395.682 49.8382C394.838 50.6821 393.693 51.1562 392.5 51.1562H379L370 60.1562V35.4062C370 34.2128 370.474 33.0682 371.318 32.2243C372.162 31.3804 373.307 30.9062 374.5 30.9062H392.5C393.693 30.9062 394.838 31.3804 395.682 32.2243C396.526 33.0682 397 34.2128 397 35.4062V46.6562Z" stroke="#CD6026" stroke-width="5" stroke-linecap="round" stroke-linejoin="round"/>
<path d="M406 46.656H410.5C411.694 46.656 412.838 47.1301 413.682 47.974C414.526 48.8179 415 49.9625 415 51.156V75.906L406 66.906H392.5C391.307 66.906 390.162 66.4319 389.318 65.588C388.474 64.7441 388 63.5995 388 62.406V60.156" stroke="#CD6026" stroke-width="5" stroke-linecap="round" stroke-linejoin="round"/>
<path d="M37.224 139.914C37.224 135.186 40.416 131.634 45.168 131.634C49.896 131.634 53.112 135.186 53.112 139.914C53.112 144.642 49.896 148.194 45.168 148.194C40.416 148.194 37.224 144.642 37.224 139.914ZM51.048 139.914C51.048 136.17 48.744 133.41 45.168 133.41C41.568 133.41 39.288 136.17 39.288 139.914C39.288 143.634 41.568 146.418 45.168 146.418C48.744 146.418 51.048 143.634 51.048 139.914ZM56.6556 147.906V137.898H54.7356V136.314H56.6556V135.426C56.6556 133.026 57.9996 131.658 60.0156 131.658C60.6876 131.658 61.3116 131.778 61.7676 132.066L61.3116 133.41C61.0236 133.242 60.6876 133.146 60.2796 133.146C59.1036 133.146 58.4556 133.962 58.4556 135.426V136.314H60.8076V137.898H58.4556V147.906H56.6556ZM63.4476 147.906V137.898H61.5276V136.314H63.4476V135.426C63.4476 133.026 64.7916 131.658 66.8076 131.658C67.4796 131.658 68.1036 131.778 68.5596 132.066L68.1036 133.434C67.8396 133.266 67.5276 133.146 67.0716 133.146C65.8956 133.146 65.2476 133.962 65.2476 135.426V136.314H67.5996V137.898H65.2476V147.906H63.4476ZM70.6236 134.37C69.9756 134.37 69.4236 133.818 69.4236 133.146C69.4236 132.474 69.9756 131.946 70.6236 131.946C71.2956 131.946 71.8476 132.474 71.8476 133.146C71.8476 133.818 71.2956 134.37 70.6236 134.37ZM69.7356 147.906V136.314H71.5356V147.906H69.7356ZM74.4639 142.098C74.4639 138.666 76.7919 136.026 80.2479 136.026C82.3599 136.026 83.6079 136.89 84.4959 138.042L83.2959 139.146C82.5279 138.09 81.5439 137.634 80.3439 137.634C77.8719 137.634 76.3359 139.53 76.3359 142.098C76.3359 144.666 77.8719 146.586 80.3439 146.586C81.5439 146.586 82.5279 146.106 83.2959 145.074L84.4959 146.178C83.6079 147.33 82.3599 148.194 80.2479 148.194C76.7919 148.194 74.4639 145.554 74.4639 142.098ZM87.9068 134.37C87.2588 134.37 86.7068 133.818 86.7068 133.146C86.7068 132.474 87.2588 131.946 87.9068 131.946C88.5788 131.946 89.1308 132.474 89.1308 133.146C89.1308 133.818 88.5788 134.37 87.9068 134.37ZM87.0188 147.906V136.314H88.8188V147.906H87.0188ZM99.6574 147.906V146.586C98.6974 147.642 97.3774 148.194 95.8174 148.194C93.8494 148.194 91.7614 146.874 91.7614 144.354C91.7614 141.762 93.8494 140.538 95.8174 140.538C97.4014 140.538 98.7214 141.042 99.6574 142.122V140.034C99.6574 138.474 98.4094 137.586 96.7294 137.586C95.3374 137.586 94.2094 138.09 93.1774 139.194L92.3374 137.946C93.5854 136.65 95.0734 136.026 96.9694 136.026C99.4174 136.026 101.457 137.13 101.457 139.938V147.906H99.6574ZM99.6574 145.458V143.274C98.9614 142.314 97.7374 141.834 96.4654 141.834C94.7854 141.834 93.6094 142.89 93.6094 144.378C93.6094 145.842 94.7854 146.898 96.4654 146.898C97.7374 146.898 98.9614 146.418 99.6574 145.458ZM105.066 147.906V131.898H106.866V147.906H105.066ZM109.448 146.37L110.384 145.074C111.152 145.962 112.616 146.73 114.2 146.73C115.976 146.73 116.936 145.938 116.936 144.81C116.936 143.538 115.52 143.13 113.96 142.746C111.992 142.29 109.76 141.762 109.76 139.362C109.76 137.562 111.32 136.026 114.08 136.026C116.048 136.026 117.44 136.77 118.376 137.706L117.536 138.954C116.84 138.114 115.568 137.49 114.08 137.49C112.496 137.49 111.512 138.21 111.512 139.242C111.512 140.37 112.832 140.73 114.344 141.09C116.36 141.546 118.688 142.122 118.688 144.69C118.688 146.634 117.128 148.194 114.128 148.194C112.232 148.194 110.624 147.618 109.448 146.37ZM127.128 142.098C127.128 138.666 129.456 136.026 132.912 136.026C135.024 136.026 136.272 136.89 137.16 138.042L135.96 139.146C135.192 138.09 134.208 137.634 133.008 137.634C130.536 137.634 129 139.53 129 142.098C129 144.666 130.536 146.586 133.008 146.586C134.208 146.586 135.192 146.106 135.96 145.074L137.16 146.178C136.272 147.33 135.024 148.194 132.912 148.194C129.456 148.194 127.128 145.554 127.128 142.098ZM146.931 147.906V146.586C145.971 147.642 144.651 148.194 143.091 148.194C141.123 148.194 139.035 146.874 139.035 144.354C139.035 141.762 141.123 140.538 143.091 140.538C144.675 140.538 145.995 141.042 146.931 142.122V140.034C146.931 138.474 145.683 137.586 144.003 137.586C142.611 137.586 141.483 138.09 140.451 139.194L139.611 137.946C140.859 136.65 142.347 136.026 144.243 136.026C146.691 136.026 148.731 137.13 148.731 139.938V147.906H146.931ZM146.931 145.458V143.274C146.235 142.314 145.011 141.834 143.739 141.834C142.059 141.834 140.883 142.89 140.883 144.378C140.883 145.842 142.059 146.898 143.739 146.898C145.011 146.898 146.235 146.418 146.931 145.458ZM160.163 147.906V140.322C160.163 138.282 159.131 137.634 157.571 137.634C156.155 137.634 154.811 138.498 154.139 139.434V147.906H152.339V136.314H154.139V137.994C154.955 137.034 156.539 136.026 158.267 136.026C160.691 136.026 161.963 137.25 161.963 139.77V147.906H160.163ZM171.745 147.906V131.898H173.545V147.906H171.745ZM176.464 142.098C176.464 138.738 178.864 136.026 182.176 136.026C185.68 136.026 187.744 138.762 187.744 142.242V142.698H178.36C178.504 144.882 180.04 146.706 182.536 146.706C183.856 146.706 185.2 146.178 186.112 145.242L186.976 146.418C185.824 147.57 184.264 148.194 182.368 148.194C178.936 148.194 176.464 145.722 176.464 142.098ZM182.152 137.514C179.68 137.514 178.456 139.602 178.36 141.378H185.968C185.944 139.65 184.792 137.514 182.152 137.514ZM197.907 147.906V146.586C196.947 147.642 195.627 148.194 194.067 148.194C192.099 148.194 190.011 146.874 190.011 144.354C190.011 141.762 192.099 140.538 194.067 140.538C195.651 140.538 196.971 141.042 197.907 142.122V140.034C197.907 138.474 196.659 137.586 194.979 137.586C193.587 137.586 192.459 138.09 191.427 139.194L190.587 137.946C191.835 136.65 193.323 136.026 195.219 136.026C197.667 136.026 199.707 137.13 199.707 139.938V147.906H197.907ZM197.907 145.458V143.274C197.211 142.314 195.987 141.834 194.715 141.834C193.035 141.834 191.859 142.89 191.859 144.378C191.859 145.842 193.035 146.898 194.715 146.898C195.987 146.898 197.211 146.418 197.907 145.458ZM206.412 147.906L201.588 136.314H203.532L207.396 145.818L211.236 136.314H213.204L208.38 147.906H206.412ZM214.409 142.098C214.409 138.738 216.809 136.026 220.121 136.026C223.625 136.026 225.689 138.762 225.689 142.242V142.698H216.305C216.449 144.882 217.985 146.706 220.481 146.706C221.801 146.706 223.145 146.178 224.057 145.242L224.921 146.418C223.769 147.57 222.209 148.194 220.313 148.194C216.881 148.194 214.409 145.722 214.409 142.098ZM220.097 137.514C217.625 137.514 216.401 139.602 216.305 141.378H223.913C223.889 139.65 222.737 137.514 220.097 137.514ZM243.192 147.906V146.178C242.328 147.354 240.912 148.194 239.28 148.194C236.256 148.194 234.12 145.89 234.12 142.122C234.12 138.426 236.232 136.026 239.28 136.026C240.84 136.026 242.256 136.794 243.192 138.066V131.898H244.992V147.906H243.192ZM243.192 144.762V139.506C242.544 138.498 241.152 137.634 239.712 137.634C237.384 137.634 235.992 139.554 235.992 142.122C235.992 144.69 237.384 146.586 239.712 146.586C241.152 146.586 242.544 145.77 243.192 144.762ZM249.485 134.37C248.837 134.37 248.285 133.818 248.285 133.146C248.285 132.474 248.837 131.946 249.485 131.946C250.157 131.946 250.709 132.474 250.709 133.146C250.709 133.818 250.157 134.37 249.485 134.37ZM248.597 147.906V136.314H250.397V147.906H248.597ZM253.988 147.906V136.314H255.788V138.186C256.724 136.962 258.068 136.074 259.652 136.074V137.922C259.436 137.874 259.22 137.85 258.932 137.85C257.828 137.85 256.316 138.762 255.788 139.698V147.906H253.988ZM261.237 142.098C261.237 138.738 263.637 136.026 266.949 136.026C270.453 136.026 272.517 138.762 272.517 142.242V142.698H263.133C263.277 144.882 264.813 146.706 267.309 146.706C268.629 146.706 269.973 146.178 270.885 145.242L271.749 146.418C270.597 147.57 269.037 148.194 267.141 148.194C263.709 148.194 261.237 145.722 261.237 142.098ZM266.925 137.514C264.453 137.514 263.229 139.602 263.133 141.378H270.741C270.717 139.65 269.565 137.514 266.925 137.514ZM274.761 142.098C274.761 138.666 277.089 136.026 280.545 136.026C282.657 136.026 283.905 136.89 284.793 138.042L283.593 139.146C282.825 138.09 281.841 137.634 280.641 137.634C278.169 137.634 276.633 139.53 276.633 142.098C276.633 144.666 278.169 146.586 280.641 146.586C281.841 146.586 282.825 146.106 283.593 145.074L284.793 146.178C283.905 147.33 282.657 148.194 280.545 148.194C277.089 148.194 274.761 145.554 274.761 142.098ZM290.244 148.194C288.54 148.194 287.676 147.21 287.676 145.482V137.898H285.756V136.314H287.676V133.146H289.476V136.314H291.828V137.898H289.476V145.098C289.476 145.962 289.86 146.586 290.652 146.586C291.156 146.586 291.636 146.37 291.876 146.106L292.404 147.45C291.948 147.882 291.3 148.194 290.244 148.194ZM37.128 177.098C37.128 173.666 39.456 171.026 42.912 171.026C45.024 171.026 46.272 171.89 47.16 173.042L45.96 174.146C45.192 173.09 44.208 172.634 43.008 172.634C40.536 172.634 39 174.53 39 177.098C39 179.666 40.536 181.586 43.008 181.586C44.208 181.586 45.192 181.106 45.96 180.074L47.16 181.178C46.272 182.33 45.024 183.194 42.912 183.194C39.456 183.194 37.128 180.554 37.128 177.098ZM54.7468 183.194C51.2188 183.194 49.0108 180.458 49.0108 177.098C49.0108 173.738 51.2188 171.026 54.7468 171.026C58.2748 171.026 60.4828 173.738 60.4828 177.098C60.4828 180.458 58.2748 183.194 54.7468 183.194ZM54.7468 181.586C57.2188 181.586 58.5868 179.474 58.5868 177.098C58.5868 174.746 57.2188 172.634 54.7468 172.634C52.2748 172.634 50.8828 174.746 50.8828 177.098C50.8828 179.474 52.2748 181.586 54.7468 181.586ZM77.4092 182.906V175.034C77.4092 173.57 76.7612 172.634 75.2732 172.634C74.0732 172.634 72.8012 173.498 72.2012 174.41V182.906H70.4012V175.034C70.4012 173.57 69.7772 172.634 68.2652 172.634C67.0892 172.634 65.8412 173.498 65.2172 174.434V182.906H63.4172V171.314H65.2172V172.994C65.6972 172.25 67.2572 171.026 68.9612 171.026C70.7372 171.026 71.7452 171.986 72.0812 173.186C72.7292 172.13 74.2892 171.026 75.9692 171.026C78.0812 171.026 79.2092 172.202 79.2092 174.53V182.906H77.4092ZM96.792 182.906V175.034C96.792 173.57 96.144 172.634 94.656 172.634C93.456 172.634 92.184 173.498 91.584 174.41V182.906H89.784V175.034C89.784 173.57 89.16 172.634 87.648 172.634C86.472 172.634 85.224 173.498 84.6 174.434V182.906H82.8V171.314H84.6V172.994C85.08 172.25 86.64 171.026 88.344 171.026C90.12 171.026 91.128 171.986 91.464 173.186C92.112 172.13 93.672 171.026 95.352 171.026C97.464 171.026 98.592 172.202 98.592 174.53V182.906H96.792ZM101.511 177.098C101.511 173.738 103.911 171.026 107.223 171.026C110.727 171.026 112.791 173.762 112.791 177.242V177.698H103.407C103.551 179.882 105.087 181.706 107.583 181.706C108.903 181.706 110.247 181.178 111.159 180.242L112.023 181.418C110.871 182.57 109.311 183.194 107.415 183.194C103.983 183.194 101.511 180.722 101.511 177.098ZM107.199 172.514C104.727 172.514 103.503 174.602 103.407 176.378H111.015C110.991 174.65 109.839 172.514 107.199 172.514ZM123.53 182.906V175.322C123.53 173.282 122.498 172.634 120.938 172.634C119.522 172.634 118.178 173.498 117.506 174.434V182.906H115.706V171.314H117.506V172.994C118.322 172.034 119.906 171.026 121.634 171.026C124.058 171.026 125.33 172.25 125.33 174.77V182.906H123.53ZM131.853 183.194C130.149 183.194 129.285 182.21 129.285 180.482V172.898H127.365V171.314H129.285V168.146H131.085V171.314H133.437V172.898H131.085V180.098C131.085 180.962 131.469 181.586 132.261 181.586C132.765 181.586 133.245 181.37 133.485 181.106L134.013 182.45C133.557 182.882 132.909 183.194 131.853 183.194ZM134.972 181.37L135.908 180.074C136.676 180.962 138.14 181.73 139.724 181.73C141.5 181.73 142.46 180.938 142.46 179.81C142.46 178.538 141.044 178.13 139.484 177.746C137.516 177.29 135.284 176.762 135.284 174.362C135.284 172.562 136.844 171.026 139.604 171.026C141.572 171.026 142.964 171.77 143.9 172.706L143.06 173.954C142.364 173.114 141.092 172.49 139.604 172.49C138.02 172.49 137.036 173.21 137.036 174.242C137.036 175.37 138.356 175.73 139.868 176.09C141.884 176.546 144.212 177.122 144.212 179.69C144.212 181.634 142.652 183.194 139.652 183.194C137.756 183.194 136.148 182.618 134.972 181.37ZM163.355 182.906L160.331 173.594L157.307 182.906H155.507L151.811 171.314H153.683L156.515 180.554L159.563 171.314H161.099L164.147 180.554L166.979 171.314H168.851L165.155 182.906H163.355ZM171.836 169.37C171.188 169.37 170.636 168.818 170.636 168.146C170.636 167.474 171.188 166.946 171.836 166.946C172.508 166.946 173.06 167.474 173.06 168.146C173.06 168.818 172.508 169.37 171.836 169.37ZM170.948 182.906V171.314H172.748V182.906H170.948ZM179.267 183.194C177.563 183.194 176.699 182.21 176.699 180.482V172.898H174.779V171.314H176.699V168.146H178.499V171.314H180.851V172.898H178.499V180.098C178.499 180.962 178.883 181.586 179.675 181.586C180.179 181.586 180.659 181.37 180.899 181.106L181.427 182.45C180.971 182.882 180.323 183.194 179.267 183.194ZM191.242 182.906V175.274C191.242 173.234 190.186 172.634 188.626 172.634C187.234 172.634 185.89 173.498 185.194 174.434V182.906H183.394V166.898H185.194V172.994C186.01 172.034 187.594 171.026 189.346 171.026C191.77 171.026 193.042 172.202 193.042 174.722V182.906H191.242ZM197.524 169.37C196.876 169.37 196.324 168.818 196.324 168.146C196.324 167.474 196.876 166.946 197.524 166.946C198.196 166.946 198.748 167.474 198.748 168.146C198.748 168.818 198.196 169.37 197.524 169.37ZM196.636 182.906V171.314H198.436V182.906H196.636ZM209.851 182.906V175.322C209.851 173.282 208.819 172.634 207.259 172.634C205.843 172.634 204.499 173.498 203.827 174.434V182.906H202.027V171.314H203.827V172.994C204.643 172.034 206.227 171.026 207.955 171.026C210.379 171.026 211.651 172.25 211.651 174.77V182.906H209.851ZM221.073 185.81C221.337 185.93 221.769 186.002 222.057 186.002C222.849 186.002 223.377 185.738 223.785 184.778L224.553 183.026L219.705 171.314H221.649L225.513 180.818L229.353 171.314H231.321L225.513 185.258C224.817 186.938 223.641 187.586 222.105 187.61C221.721 187.61 221.121 187.538 220.785 187.442L221.073 185.81ZM238.262 183.194C234.734 183.194 232.526 180.458 232.526 177.098C232.526 173.738 234.734 171.026 238.262 171.026C241.79 171.026 243.998 173.738 243.998 177.098C243.998 180.458 241.79 183.194 238.262 183.194ZM238.262 181.586C240.734 181.586 242.102 179.474 242.102 177.098C242.102 174.746 240.734 172.634 238.262 172.634C235.79 172.634 234.398 174.746 234.398 177.098C234.398 179.474 235.79 181.586 238.262 181.586ZM254.757 182.906V181.274C253.869 182.282 252.357 183.194 250.629 183.194C248.205 183.194 246.933 182.018 246.933 179.498V171.314H248.733V178.946C248.733 180.986 249.765 181.586 251.325 181.586C252.741 181.586 254.085 180.77 254.757 179.834V171.314H256.557V182.906H254.757ZM260.152 182.906V171.314H261.952V173.186C262.888 171.962 264.232 171.074 265.816 171.074V172.922C265.6 172.874 265.384 172.85 265.096 172.85C263.992 172.85 262.48 173.762 261.952 174.698V182.906H260.152ZM284.293 182.906L281.269 173.594L278.245 182.906H276.445L272.749 171.314H274.621L277.453 180.554L280.501 171.314H282.037L285.085 180.554L287.917 171.314H289.789L286.093 182.906H284.293ZM296.95 183.194C293.422 183.194 291.214 180.458 291.214 177.098C291.214 173.738 293.422 171.026 296.95 171.026C300.478 171.026 302.686 173.738 302.686 177.098C302.686 180.458 300.478 183.194 296.95 183.194ZM296.95 181.586C299.422 181.586 300.79 179.474 300.79 177.098C300.79 174.746 299.422 172.634 296.95 172.634C294.478 172.634 293.086 174.746 293.086 177.098C293.086 179.474 294.478 181.586 296.95 181.586ZM305.62 182.906V171.314H307.42V173.186C308.356 171.962 309.7 171.074 311.284 171.074V172.922C311.068 172.874 310.852 172.85 310.564 172.85C309.46 172.85 307.948 173.762 307.42 174.698V182.906H305.62ZM321.438 182.906L317.262 177.698L315.342 179.594V182.906H313.542V166.898H315.342V177.482L321.438 171.314H323.718L318.582 176.57L323.742 182.906H321.438ZM327.67 187.322H325.87V171.314H327.67V173.042C328.51 171.866 329.95 171.026 331.582 171.026C334.63 171.026 336.742 173.33 336.742 177.098C336.742 180.842 334.63 183.194 331.582 183.194C329.998 183.194 328.606 182.45 327.67 181.154V187.322ZM334.846 177.098C334.846 174.53 333.454 172.634 331.126 172.634C329.71 172.634 328.294 173.474 327.67 174.482V179.714C328.294 180.722 329.71 181.586 331.126 181.586C333.454 181.586 334.846 179.666 334.846 177.098ZM339.652 182.906V166.898H341.452V182.906H339.652ZM352.29 182.906V181.586C351.33 182.642 350.01 183.194 348.45 183.194C346.482 183.194 344.394 181.874 344.394 179.354C344.394 176.762 346.482 175.538 348.45 175.538C350.034 175.538 351.354 176.042 352.29 177.122V175.034C352.29 173.474 351.042 172.586 349.362 172.586C347.97 172.586 346.842 173.09 345.81 174.194L344.97 172.946C346.218 171.65 347.706 171.026 349.602 171.026C352.05 171.026 354.09 172.13 354.09 174.938V182.906H352.29ZM352.29 180.458V178.274C351.594 177.314 350.37 176.834 349.098 176.834C347.418 176.834 346.242 177.89 346.242 179.378C346.242 180.842 347.418 181.898 349.098 181.898C350.37 181.898 351.594 181.418 352.29 180.458ZM357.026 177.098C357.026 173.666 359.354 171.026 362.81 171.026C364.922 171.026 366.17 171.89 367.058 173.042L365.858 174.146C365.09 173.09 364.106 172.634 362.906 172.634C360.434 172.634 358.898 174.53 358.898 177.098C358.898 179.666 360.434 181.586 362.906 181.586C364.106 181.586 365.09 181.106 365.858 180.074L367.058 181.178C366.17 182.33 364.922 183.194 362.81 183.194C359.354 183.194 357.026 180.554 357.026 177.098ZM368.909 177.098C368.909 173.738 371.309 171.026 374.621 171.026C378.125 171.026 380.189 173.762 380.189 177.242V177.698H370.805C370.949 179.882 372.485 181.706 374.981 181.706C376.301 181.706 377.645 181.178 378.557 180.242L379.421 181.418C378.269 182.57 376.709 183.194 374.813 183.194C371.381 183.194 368.909 180.722 368.909 177.098ZM374.597 172.514C372.125 172.514 370.901 174.602 370.805 176.378H378.413C378.389 174.65 377.237 172.514 374.597 172.514ZM382.581 181.826C382.581 181.106 383.181 180.506 383.901 180.506C384.621 180.506 385.221 181.106 385.221 181.826C385.221 182.546 384.621 183.146 383.901 183.146C383.181 183.146 382.581 182.546 382.581 181.826Z" fill="black"/>
</g>
<defs>
<filter id="filter0_d_214_206" x="0.4" y="0.30625" width="449.2" height="232.2" filterUnits="userSpaceOnUse" color-interpolation-filters="sRGB">
<feFlood flood-opacity="0" result="BackgroundImageFix"/>
<feColorMatrix in="SourceAlpha" type="matrix" values="0 0 0 0 0 0 0 0 0 0 0 0 0 0 0 0 0 0 127 0" result="hardAlpha"/>
<feOffset dy="4"/>
<feGaussianBlur stdDeviation="4.8"/>
<feComposite in2="hardAlpha" operator="out"/>
<feColorMatrix type="matrix" values="0 0 0 0 0 0 0 0 0 0 0 0 0 0 0 0 0 0 0.1 0"/>
<feBlend mode="normal" in2="BackgroundImageFix" result="effect1_dropShadow_214_206"/>
<feBlend mode="normal" in="SourceGraphic" in2="effect1_dropShadow_214_206" result="shape"/>
</filter>
</defs>
</svg>
