<svg width="450" height="233" viewBox="0 0 450 233" fill="none" xmlns="http://www.w3.org/2000/svg">
<g filter="url(#filter0_d_216_4)">
<rect x="10" y="6" width="430" height="213" rx="10" fill="white" shape-rendering="crispEdges"/>
<rect x="10.5" y="6.5" width="429" height="212" rx="9.5" stroke="#C1C1C1" shape-rendering="crispEdges"/>
<path d="M38.664 60V35.988H54.792V39.156H42.264V46.176H54.54V49.344H42.264V60H38.664ZM58.2359 51.288C58.2359 46.248 61.8719 42.18 66.9479 42.18C72.1679 42.18 75.4079 46.248 75.4079 51.576V52.368H61.6559C61.9079 55.32 64.0679 57.768 67.5599 57.768C69.3959 57.768 71.4119 57.048 72.7079 55.716L74.2199 57.84C72.4919 59.532 70.0439 60.432 67.2359 60.432C62.0519 60.432 58.2359 56.76 58.2359 51.288ZM66.9479 44.844C63.4559 44.844 61.7999 47.652 61.6199 50.028H72.2399C72.1679 47.724 70.6199 44.844 66.9479 44.844ZM79.1004 51.288C79.1004 46.248 82.7364 42.18 87.8124 42.18C93.0324 42.18 96.2724 46.248 96.2724 51.576V52.368H82.5204C82.7724 55.32 84.9324 57.768 88.4244 57.768C90.2604 57.768 92.2764 57.048 93.5724 55.716L95.0844 57.84C93.3564 59.532 90.9084 60.432 88.1004 60.432C82.9164 60.432 79.1004 56.76 79.1004 51.288ZM87.8124 44.844C84.3204 44.844 82.6644 47.652 82.4844 50.028H93.1044C93.0324 47.724 91.4844 44.844 87.8124 44.844ZM113.429 60V57.516C112.133 59.244 110.045 60.432 107.741 60.432C103.205 60.432 99.965 57.012 99.965 51.324C99.965 45.744 103.205 42.18 107.741 42.18C109.973 42.18 112.025 43.26 113.429 45.132V35.988H116.669V60H113.429ZM113.429 55.032V47.616C112.529 46.212 110.585 45.06 108.605 45.06C105.365 45.06 103.349 47.688 103.349 51.324C103.349 54.924 105.365 57.552 108.605 57.552C110.585 57.552 112.529 56.436 113.429 55.032ZM122.577 60V35.988H125.817V45.132C127.185 43.26 129.237 42.18 131.505 42.18C136.041 42.18 139.245 45.744 139.245 51.324C139.245 57.012 136.005 60.432 131.505 60.432C129.165 60.432 127.113 59.244 125.817 57.516V60H122.577ZM125.817 55.032C126.681 56.436 128.661 57.552 130.641 57.552C133.881 57.552 135.897 54.96 135.897 51.324C135.897 47.688 133.881 45.06 130.641 45.06C128.661 45.06 126.681 46.248 125.817 47.652V55.032ZM154.838 60V58.092C153.47 59.604 151.49 60.432 149.15 60.432C146.27 60.432 143.102 58.488 143.102 54.672C143.102 50.712 146.234 48.984 149.15 48.984C151.49 48.984 153.506 49.74 154.838 51.288V48.408C154.838 46.248 153.074 44.952 150.59 44.952C148.61 44.952 146.918 45.708 145.37 47.256L143.966 45.024C145.91 43.116 148.286 42.18 151.094 42.18C154.874 42.18 158.078 43.836 158.078 48.264V60H154.838ZM154.838 56.184V53.232C153.866 51.936 152.174 51.252 150.374 51.252C148.034 51.252 146.378 52.656 146.378 54.708C146.378 56.76 148.034 58.164 150.374 58.164C152.174 58.164 153.866 57.48 154.838 56.184ZM162.91 51.288C162.91 46.068 166.51 42.18 171.766 42.18C175.042 42.18 177.022 43.548 178.282 45.24L176.122 47.22C175.078 45.744 173.674 45.06 171.91 45.06C168.49 45.06 166.294 47.688 166.294 51.288C166.294 54.888 168.49 57.552 171.91 57.552C173.674 57.552 175.078 56.832 176.122 55.392L178.282 57.372C177.022 59.064 175.042 60.432 171.766 60.432C166.51 60.432 162.91 56.508 162.91 51.288ZM194.233 60L188.437 52.512L185.809 55.176V60H182.569V35.988H185.809V51.432L194.197 42.612H198.265L190.777 50.496L198.337 60H194.233ZM39.384 96V81.456H36.504V78.612H39.384V77.46C39.384 73.716 41.58 71.628 44.676 71.628C45.792 71.628 46.764 71.844 47.52 72.276L46.764 74.688C46.332 74.436 45.792 74.292 45.216 74.292C43.596 74.292 42.624 75.372 42.624 77.46V78.612H46.152V81.456H42.624V96H39.384ZM49.9643 96V78.612H53.2043V81.276C54.5363 79.548 56.5883 78.216 58.8923 78.216V81.492C58.5683 81.42 58.2083 81.384 57.7763 81.384C56.1563 81.384 53.9603 82.608 53.2043 83.904V96H49.9643ZM70.5524 96.432C65.1524 96.432 61.7684 92.328 61.7684 87.288C61.7684 82.284 65.1524 78.18 70.5524 78.18C75.9884 78.18 79.3364 82.284 79.3364 87.288C79.3364 92.328 75.9884 96.432 70.5524 96.432ZM70.5524 93.552C74.0444 93.552 75.9524 90.6 75.9524 87.288C75.9524 84.012 74.0444 81.06 70.5524 81.06C67.0964 81.06 65.1524 84.012 65.1524 87.288C65.1524 90.6 67.0964 93.552 70.5524 93.552ZM105.302 96V84.408C105.302 82.392 104.402 81.06 102.278 81.06C100.514 81.06 98.786 82.284 97.958 83.544V96H94.718V84.408C94.718 82.392 93.854 81.06 91.658 81.06C89.966 81.06 88.274 82.32 87.41 83.58V96H84.17V78.612H87.41V81.06C88.13 79.98 90.434 78.18 93.026 78.18C95.654 78.18 97.202 79.548 97.742 81.42C98.75 79.8 101.054 78.18 103.61 78.18C106.814 78.18 108.542 79.944 108.542 83.436V96H105.302ZM132.126 96.432C126.726 96.432 123.342 92.328 123.342 87.288C123.342 82.284 126.726 78.18 132.126 78.18C137.562 78.18 140.91 82.284 140.91 87.288C140.91 92.328 137.562 96.432 132.126 96.432ZM132.126 93.552C135.618 93.552 137.526 90.6 137.526 87.288C137.526 84.012 135.618 81.06 132.126 81.06C128.67 81.06 126.726 84.012 126.726 87.288C126.726 90.6 128.67 93.552 132.126 93.552ZM168.64 75.696C167.524 75.696 166.552 74.796 166.552 73.644C166.552 72.492 167.524 71.556 168.64 71.556C169.792 71.556 170.728 72.492 170.728 73.644C170.728 74.796 169.792 75.696 168.64 75.696ZM146.536 96V81.456H143.656V78.612H146.536V77.46C146.536 73.716 148.732 71.628 151.828 71.628C152.944 71.628 153.916 71.844 154.672 72.276L153.916 74.688C153.484 74.436 152.944 74.292 152.368 74.292C150.748 74.292 149.776 75.372 149.776 77.46V78.612H153.304V81.456H149.776V96H146.536ZM157.192 96V81.456H154.312V78.612H157.192V77.46C157.192 73.716 159.388 71.628 162.484 71.628C163.6 71.628 164.572 71.844 165.328 72.276L164.572 74.688C164.176 74.436 163.672 74.292 163.024 74.292C161.404 74.292 160.432 75.372 160.432 77.46V78.612H163.96V81.456H160.432V96H157.192ZM167.056 96V78.612H170.296V96H167.056ZM175.091 87.288C175.091 82.068 178.691 78.18 183.947 78.18C187.223 78.18 189.203 79.548 190.463 81.24L188.303 83.22C187.259 81.744 185.855 81.06 184.091 81.06C180.671 81.06 178.475 83.688 178.475 87.288C178.475 90.888 180.671 93.552 184.091 93.552C185.855 93.552 187.259 92.832 188.303 91.392L190.463 93.372C189.203 95.064 187.223 96.432 183.947 96.432C178.691 96.432 175.091 92.508 175.091 87.288ZM196.334 75.696C195.218 75.696 194.246 74.796 194.246 73.644C194.246 72.492 195.218 71.556 196.334 71.556C197.486 71.556 198.422 72.492 198.422 73.644C198.422 74.796 197.486 75.696 196.334 75.696ZM194.75 96V78.612H197.99V96H194.75ZM214.601 96V94.092C213.233 95.604 211.253 96.432 208.913 96.432C206.033 96.432 202.865 94.488 202.865 90.672C202.865 86.712 205.997 84.984 208.913 84.984C211.253 84.984 213.269 85.74 214.601 87.288V84.408C214.601 82.248 212.837 80.952 210.353 80.952C208.373 80.952 206.681 81.708 205.133 83.256L203.729 81.024C205.673 79.116 208.049 78.18 210.857 78.18C214.637 78.18 217.841 79.836 217.841 84.264V96H214.601ZM214.601 92.184V89.232C213.629 87.936 211.937 87.252 210.137 87.252C207.797 87.252 206.141 88.656 206.141 90.708C206.141 92.76 207.797 94.164 210.137 94.164C211.937 94.164 213.629 93.48 214.601 92.184ZM223.753 96V71.988H226.993V96H223.753ZM231.363 93.732L232.911 91.356C234.099 92.652 236.403 93.84 238.743 93.84C241.191 93.84 242.487 92.832 242.487 91.356C242.487 89.628 240.507 89.052 238.275 88.548C235.323 87.864 231.867 87.072 231.867 83.328C231.867 80.556 234.243 78.18 238.491 78.18C241.479 78.18 243.639 79.26 245.115 80.664L243.675 82.932C242.667 81.708 240.723 80.808 238.527 80.808C236.331 80.808 234.963 81.672 234.963 83.076C234.963 84.588 236.835 85.092 238.995 85.596C242.019 86.28 245.619 87.108 245.619 91.104C245.619 94.092 243.171 96.432 238.599 96.432C235.683 96.432 233.127 95.532 231.363 93.732Z" fill="black"/>
<path d="M397 46.75C397 47.9435 396.526 49.0881 395.682 49.932C394.838 50.7759 393.693 51.25 392.5 51.25H379L370 60.25V35.5C370 34.3065 370.474 33.1619 371.318 32.318C372.162 31.4741 373.307 31 374.5 31H392.5C393.693 31 394.838 31.4741 395.682 32.318C396.526 33.1619 397 34.3065 397 35.5V46.75Z" stroke="#0F2251" stroke-width="5" stroke-linecap="round" stroke-linejoin="round"/>
<path d="M406 46.7499H410.5C411.693 46.7499 412.838 47.224 413.682 48.0679C414.526 48.9118 415 50.0564 415 51.2499V75.9999L406 66.9999H392.5C391.307 66.9999 390.162 66.5258 389.318 65.6819C388.474 64.8379 388 63.6934 388 62.4999V60.2499" stroke="#0F2251" stroke-width="5" stroke-linecap="round" stroke-linejoin="round"/>
<path d="M37.224 140.008C37.224 135.28 40.416 131.728 45.168 131.728C49.896 131.728 53.112 135.28 53.112 140.008C53.112 144.736 49.896 148.288 45.168 148.288C40.416 148.288 37.224 144.736 37.224 140.008ZM51.048 140.008C51.048 136.264 48.744 133.504 45.168 133.504C41.568 133.504 39.288 136.264 39.288 140.008C39.288 143.728 41.568 146.512 45.168 146.512C48.744 146.512 51.048 143.728 51.048 140.008ZM56.6556 148V137.992H54.7356V136.408H56.6556V135.52C56.6556 133.12 57.9996 131.752 60.0156 131.752C60.6876 131.752 61.3116 131.872 61.7676 132.16L61.3116 133.504C61.0236 133.336 60.6876 133.24 60.2796 133.24C59.1036 133.24 58.4556 134.056 58.4556 135.52V136.408H60.8076V137.992H58.4556V148H56.6556ZM63.4476 148V137.992H61.5276V136.408H63.4476V135.52C63.4476 133.12 64.7916 131.752 66.8076 131.752C67.4796 131.752 68.1036 131.872 68.5596 132.16L68.1036 133.528C67.8396 133.36 67.5276 133.24 67.0716 133.24C65.8956 133.24 65.2476 134.056 65.2476 135.52V136.408H67.5996V137.992H65.2476V148H63.4476ZM70.6236 134.464C69.9756 134.464 69.4236 133.912 69.4236 133.24C69.4236 132.568 69.9756 132.04 70.6236 132.04C71.2956 132.04 71.8476 132.568 71.8476 133.24C71.8476 133.912 71.2956 134.464 70.6236 134.464ZM69.7356 148V136.408H71.5356V148H69.7356ZM74.4639 142.192C74.4639 138.76 76.7919 136.12 80.2479 136.12C82.3599 136.12 83.6079 136.984 84.4959 138.136L83.2959 139.24C82.5279 138.184 81.5439 137.728 80.3439 137.728C77.8719 137.728 76.3359 139.624 76.3359 142.192C76.3359 144.76 77.8719 146.68 80.3439 146.68C81.5439 146.68 82.5279 146.2 83.2959 145.168L84.4959 146.272C83.6079 147.424 82.3599 148.288 80.2479 148.288C76.7919 148.288 74.4639 145.648 74.4639 142.192ZM87.9068 134.464C87.2588 134.464 86.7068 133.912 86.7068 133.24C86.7068 132.568 87.2588 132.04 87.9068 132.04C88.5788 132.04 89.1308 132.568 89.1308 133.24C89.1308 133.912 88.5788 134.464 87.9068 134.464ZM87.0188 148V136.408H88.8188V148H87.0188ZM99.6574 148V146.68C98.6974 147.736 97.3774 148.288 95.8174 148.288C93.8494 148.288 91.7614 146.968 91.7614 144.448C91.7614 141.856 93.8494 140.632 95.8174 140.632C97.4014 140.632 98.7214 141.136 99.6574 142.216V140.128C99.6574 138.568 98.4094 137.68 96.7294 137.68C95.3374 137.68 94.2094 138.184 93.1774 139.288L92.3374 138.04C93.5854 136.744 95.0734 136.12 96.9694 136.12C99.4174 136.12 101.457 137.224 101.457 140.032V148H99.6574ZM99.6574 145.552V143.368C98.9614 142.408 97.7374 141.928 96.4654 141.928C94.7854 141.928 93.6094 142.984 93.6094 144.472C93.6094 145.936 94.7854 146.992 96.4654 146.992C97.7374 146.992 98.9614 146.512 99.6574 145.552ZM105.066 148V131.992H106.866V148H105.066ZM109.448 146.464L110.384 145.168C111.152 146.056 112.616 146.824 114.2 146.824C115.976 146.824 116.936 146.032 116.936 144.904C116.936 143.632 115.52 143.224 113.96 142.84C111.992 142.384 109.76 141.856 109.76 139.456C109.76 137.656 111.32 136.12 114.08 136.12C116.048 136.12 117.44 136.864 118.376 137.8L117.536 139.048C116.84 138.208 115.568 137.584 114.08 137.584C112.496 137.584 111.512 138.304 111.512 139.336C111.512 140.464 112.832 140.824 114.344 141.184C116.36 141.64 118.688 142.216 118.688 144.784C118.688 146.728 117.128 148.288 114.128 148.288C112.232 148.288 110.624 147.712 109.448 146.464ZM127.128 142.192C127.128 138.76 129.456 136.12 132.912 136.12C135.024 136.12 136.272 136.984 137.16 138.136L135.96 139.24C135.192 138.184 134.208 137.728 133.008 137.728C130.536 137.728 129 139.624 129 142.192C129 144.76 130.536 146.68 133.008 146.68C134.208 146.68 135.192 146.2 135.96 145.168L137.16 146.272C136.272 147.424 135.024 148.288 132.912 148.288C129.456 148.288 127.128 145.648 127.128 142.192ZM146.931 148V146.68C145.971 147.736 144.651 148.288 143.091 148.288C141.123 148.288 139.035 146.968 139.035 144.448C139.035 141.856 141.123 140.632 143.091 140.632C144.675 140.632 145.995 141.136 146.931 142.216V140.128C146.931 138.568 145.683 137.68 144.003 137.68C142.611 137.68 141.483 138.184 140.451 139.288L139.611 138.04C140.859 136.744 142.347 136.12 144.243 136.12C146.691 136.12 148.731 137.224 148.731 140.032V148H146.931ZM146.931 145.552V143.368C146.235 142.408 145.011 141.928 143.739 141.928C142.059 141.928 140.883 142.984 140.883 144.472C140.883 145.936 142.059 146.992 143.739 146.992C145.011 146.992 146.235 146.512 146.931 145.552ZM160.163 148V140.416C160.163 138.376 159.131 137.728 157.571 137.728C156.155 137.728 154.811 138.592 154.139 139.528V148H152.339V136.408H154.139V138.088C154.955 137.128 156.539 136.12 158.267 136.12C160.691 136.12 161.963 137.344 161.963 139.864V148H160.163ZM171.745 148V131.992H173.545V148H171.745ZM176.464 142.192C176.464 138.832 178.864 136.12 182.176 136.12C185.68 136.12 187.744 138.856 187.744 142.336V142.792H178.36C178.504 144.976 180.04 146.8 182.536 146.8C183.856 146.8 185.2 146.272 186.112 145.336L186.976 146.512C185.824 147.664 184.264 148.288 182.368 148.288C178.936 148.288 176.464 145.816 176.464 142.192ZM182.152 137.608C179.68 137.608 178.456 139.696 178.36 141.472H185.968C185.944 139.744 184.792 137.608 182.152 137.608ZM197.907 148V146.68C196.947 147.736 195.627 148.288 194.067 148.288C192.099 148.288 190.011 146.968 190.011 144.448C190.011 141.856 192.099 140.632 194.067 140.632C195.651 140.632 196.971 141.136 197.907 142.216V140.128C197.907 138.568 196.659 137.68 194.979 137.68C193.587 137.68 192.459 138.184 191.427 139.288L190.587 138.04C191.835 136.744 193.323 136.12 195.219 136.12C197.667 136.12 199.707 137.224 199.707 140.032V148H197.907ZM197.907 145.552V143.368C197.211 142.408 195.987 141.928 194.715 141.928C193.035 141.928 191.859 142.984 191.859 144.472C191.859 145.936 193.035 146.992 194.715 146.992C195.987 146.992 197.211 146.512 197.907 145.552ZM206.412 148L201.588 136.408H203.532L207.396 145.912L211.236 136.408H213.204L208.38 148H206.412ZM214.409 142.192C214.409 138.832 216.809 136.12 220.121 136.12C223.625 136.12 225.689 138.856 225.689 142.336V142.792H216.305C216.449 144.976 217.985 146.8 220.481 146.8C221.801 146.8 223.145 146.272 224.057 145.336L224.921 146.512C223.769 147.664 222.209 148.288 220.313 148.288C216.881 148.288 214.409 145.816 214.409 142.192ZM220.097 137.608C217.625 137.608 216.401 139.696 216.305 141.472H223.913C223.889 139.744 222.737 137.608 220.097 137.608ZM243.192 148V146.272C242.328 147.448 240.912 148.288 239.28 148.288C236.256 148.288 234.12 145.984 234.12 142.216C234.12 138.52 236.232 136.12 239.28 136.12C240.84 136.12 242.256 136.888 243.192 138.16V131.992H244.992V148H243.192ZM243.192 144.856V139.6C242.544 138.592 241.152 137.728 239.712 137.728C237.384 137.728 235.992 139.648 235.992 142.216C235.992 144.784 237.384 146.68 239.712 146.68C241.152 146.68 242.544 145.864 243.192 144.856ZM249.485 134.464C248.837 134.464 248.285 133.912 248.285 133.24C248.285 132.568 248.837 132.04 249.485 132.04C250.157 132.04 250.709 132.568 250.709 133.24C250.709 133.912 250.157 134.464 249.485 134.464ZM248.597 148V136.408H250.397V148H248.597ZM253.988 148V136.408H255.788V138.28C256.724 137.056 258.068 136.168 259.652 136.168V138.016C259.436 137.968 259.22 137.944 258.932 137.944C257.828 137.944 256.316 138.856 255.788 139.792V148H253.988ZM261.237 142.192C261.237 138.832 263.637 136.12 266.949 136.12C270.453 136.12 272.517 138.856 272.517 142.336V142.792H263.133C263.277 144.976 264.813 146.8 267.309 146.8C268.629 146.8 269.973 146.272 270.885 145.336L271.749 146.512C270.597 147.664 269.037 148.288 267.141 148.288C263.709 148.288 261.237 145.816 261.237 142.192ZM266.925 137.608C264.453 137.608 263.229 139.696 263.133 141.472H270.741C270.717 139.744 269.565 137.608 266.925 137.608ZM274.761 142.192C274.761 138.76 277.089 136.12 280.545 136.12C282.657 136.12 283.905 136.984 284.793 138.136L283.593 139.24C282.825 138.184 281.841 137.728 280.641 137.728C278.169 137.728 276.633 139.624 276.633 142.192C276.633 144.76 278.169 146.68 280.641 146.68C281.841 146.68 282.825 146.2 283.593 145.168L284.793 146.272C283.905 147.424 282.657 148.288 280.545 148.288C277.089 148.288 274.761 145.648 274.761 142.192ZM290.244 148.288C288.54 148.288 287.676 147.304 287.676 145.576V137.992H285.756V136.408H287.676V133.24H289.476V136.408H291.828V137.992H289.476V145.192C289.476 146.056 289.86 146.68 290.652 146.68C291.156 146.68 291.636 146.464 291.876 146.2L292.404 147.544C291.948 147.976 291.3 148.288 290.244 148.288ZM37.128 177.192C37.128 173.76 39.456 171.12 42.912 171.12C45.024 171.12 46.272 171.984 47.16 173.136L45.96 174.24C45.192 173.184 44.208 172.728 43.008 172.728C40.536 172.728 39 174.624 39 177.192C39 179.76 40.536 181.68 43.008 181.68C44.208 181.68 45.192 181.2 45.96 180.168L47.16 181.272C46.272 182.424 45.024 183.288 42.912 183.288C39.456 183.288 37.128 180.648 37.128 177.192ZM54.7468 183.288C51.2188 183.288 49.0108 180.552 49.0108 177.192C49.0108 173.832 51.2188 171.12 54.7468 171.12C58.2748 171.12 60.4828 173.832 60.4828 177.192C60.4828 180.552 58.2748 183.288 54.7468 183.288ZM54.7468 181.68C57.2188 181.68 58.5868 179.568 58.5868 177.192C58.5868 174.84 57.2188 172.728 54.7468 172.728C52.2748 172.728 50.8828 174.84 50.8828 177.192C50.8828 179.568 52.2748 181.68 54.7468 181.68ZM77.4092 183V175.128C77.4092 173.664 76.7612 172.728 75.2732 172.728C74.0732 172.728 72.8012 173.592 72.2012 174.504V183H70.4012V175.128C70.4012 173.664 69.7772 172.728 68.2652 172.728C67.0892 172.728 65.8412 173.592 65.2172 174.528V183H63.4172V171.408H65.2172V173.088C65.6972 172.344 67.2572 171.12 68.9612 171.12C70.7372 171.12 71.7452 172.08 72.0812 173.28C72.7292 172.224 74.2892 171.12 75.9692 171.12C78.0812 171.12 79.2092 172.296 79.2092 174.624V183H77.4092ZM96.792 183V175.128C96.792 173.664 96.144 172.728 94.656 172.728C93.456 172.728 92.184 173.592 91.584 174.504V183H89.784V175.128C89.784 173.664 89.16 172.728 87.648 172.728C86.472 172.728 85.224 173.592 84.6 174.528V183H82.8V171.408H84.6V173.088C85.08 172.344 86.64 171.12 88.344 171.12C90.12 171.12 91.128 172.08 91.464 173.28C92.112 172.224 93.672 171.12 95.352 171.12C97.464 171.12 98.592 172.296 98.592 174.624V183H96.792ZM101.511 177.192C101.511 173.832 103.911 171.12 107.223 171.12C110.727 171.12 112.791 173.856 112.791 177.336V177.792H103.407C103.551 179.976 105.087 181.8 107.583 181.8C108.903 181.8 110.247 181.272 111.159 180.336L112.023 181.512C110.871 182.664 109.311 183.288 107.415 183.288C103.983 183.288 101.511 180.816 101.511 177.192ZM107.199 172.608C104.727 172.608 103.503 174.696 103.407 176.472H111.015C110.991 174.744 109.839 172.608 107.199 172.608ZM123.53 183V175.416C123.53 173.376 122.498 172.728 120.938 172.728C119.522 172.728 118.178 173.592 117.506 174.528V183H115.706V171.408H117.506V173.088C118.322 172.128 119.906 171.12 121.634 171.12C124.058 171.12 125.33 172.344 125.33 174.864V183H123.53ZM131.853 183.288C130.149 183.288 129.285 182.304 129.285 180.576V172.992H127.365V171.408H129.285V168.24H131.085V171.408H133.437V172.992H131.085V180.192C131.085 181.056 131.469 181.68 132.261 181.68C132.765 181.68 133.245 181.464 133.485 181.2L134.013 182.544C133.557 182.976 132.909 183.288 131.853 183.288ZM134.972 181.464L135.908 180.168C136.676 181.056 138.14 181.824 139.724 181.824C141.5 181.824 142.46 181.032 142.46 179.904C142.46 178.632 141.044 178.224 139.484 177.84C137.516 177.384 135.284 176.856 135.284 174.456C135.284 172.656 136.844 171.12 139.604 171.12C141.572 171.12 142.964 171.864 143.9 172.8L143.06 174.048C142.364 173.208 141.092 172.584 139.604 172.584C138.02 172.584 137.036 173.304 137.036 174.336C137.036 175.464 138.356 175.824 139.868 176.184C141.884 176.64 144.212 177.216 144.212 179.784C144.212 181.728 142.652 183.288 139.652 183.288C137.756 183.288 136.148 182.712 134.972 181.464ZM163.355 183L160.331 173.688L157.307 183H155.507L151.811 171.408H153.683L156.515 180.648L159.563 171.408H161.099L164.147 180.648L166.979 171.408H168.851L165.155 183H163.355ZM171.836 169.464C171.188 169.464 170.636 168.912 170.636 168.24C170.636 167.568 171.188 167.04 171.836 167.04C172.508 167.04 173.06 167.568 173.06 168.24C173.06 168.912 172.508 169.464 171.836 169.464ZM170.948 183V171.408H172.748V183H170.948ZM179.267 183.288C177.563 183.288 176.699 182.304 176.699 180.576V172.992H174.779V171.408H176.699V168.24H178.499V171.408H180.851V172.992H178.499V180.192C178.499 181.056 178.883 181.68 179.675 181.68C180.179 181.68 180.659 181.464 180.899 181.2L181.427 182.544C180.971 182.976 180.323 183.288 179.267 183.288ZM191.242 183V175.368C191.242 173.328 190.186 172.728 188.626 172.728C187.234 172.728 185.89 173.592 185.194 174.528V183H183.394V166.992H185.194V173.088C186.01 172.128 187.594 171.12 189.346 171.12C191.77 171.12 193.042 172.296 193.042 174.816V183H191.242ZM197.524 169.464C196.876 169.464 196.324 168.912 196.324 168.24C196.324 167.568 196.876 167.04 197.524 167.04C198.196 167.04 198.748 167.568 198.748 168.24C198.748 168.912 198.196 169.464 197.524 169.464ZM196.636 183V171.408H198.436V183H196.636ZM209.851 183V175.416C209.851 173.376 208.819 172.728 207.259 172.728C205.843 172.728 204.499 173.592 203.827 174.528V183H202.027V171.408H203.827V173.088C204.643 172.128 206.227 171.12 207.955 171.12C210.379 171.12 211.651 172.344 211.651 174.864V183H209.851ZM221.073 185.904C221.337 186.024 221.769 186.096 222.057 186.096C222.849 186.096 223.377 185.832 223.785 184.872L224.553 183.12L219.705 171.408H221.649L225.513 180.912L229.353 171.408H231.321L225.513 185.352C224.817 187.032 223.641 187.68 222.105 187.704C221.721 187.704 221.121 187.632 220.785 187.536L221.073 185.904ZM238.262 183.288C234.734 183.288 232.526 180.552 232.526 177.192C232.526 173.832 234.734 171.12 238.262 171.12C241.79 171.12 243.998 173.832 243.998 177.192C243.998 180.552 241.79 183.288 238.262 183.288ZM238.262 181.68C240.734 181.68 242.102 179.568 242.102 177.192C242.102 174.84 240.734 172.728 238.262 172.728C235.79 172.728 234.398 174.84 234.398 177.192C234.398 179.568 235.79 181.68 238.262 181.68ZM254.757 183V181.368C253.869 182.376 252.357 183.288 250.629 183.288C248.205 183.288 246.933 182.112 246.933 179.592V171.408H248.733V179.04C248.733 181.08 249.765 181.68 251.325 181.68C252.741 181.68 254.085 180.864 254.757 179.928V171.408H256.557V183H254.757ZM260.152 183V171.408H261.952V173.28C262.888 172.056 264.232 171.168 265.816 171.168V173.016C265.6 172.968 265.384 172.944 265.096 172.944C263.992 172.944 262.48 173.856 261.952 174.792V183H260.152ZM284.293 183L281.269 173.688L278.245 183H276.445L272.749 171.408H274.621L277.453 180.648L280.501 171.408H282.037L285.085 180.648L287.917 171.408H289.789L286.093 183H284.293ZM296.95 183.288C293.422 183.288 291.214 180.552 291.214 177.192C291.214 173.832 293.422 171.12 296.95 171.12C300.478 171.12 302.686 173.832 302.686 177.192C302.686 180.552 300.478 183.288 296.95 183.288ZM296.95 181.68C299.422 181.68 300.79 179.568 300.79 177.192C300.79 174.84 299.422 172.728 296.95 172.728C294.478 172.728 293.086 174.84 293.086 177.192C293.086 179.568 294.478 181.68 296.95 181.68ZM305.62 183V171.408H307.42V173.28C308.356 172.056 309.7 171.168 311.284 171.168V173.016C311.068 172.968 310.852 172.944 310.564 172.944C309.46 172.944 307.948 173.856 307.42 174.792V183H305.62ZM321.438 183L317.262 177.792L315.342 179.688V183H313.542V166.992H315.342V177.576L321.438 171.408H323.718L318.582 176.664L323.742 183H321.438ZM327.67 187.416H325.87V171.408H327.67V173.136C328.51 171.96 329.95 171.12 331.582 171.12C334.63 171.12 336.742 173.424 336.742 177.192C336.742 180.936 334.63 183.288 331.582 183.288C329.998 183.288 328.606 182.544 327.67 181.248V187.416ZM334.846 177.192C334.846 174.624 333.454 172.728 331.126 172.728C329.71 172.728 328.294 173.568 327.67 174.576V179.808C328.294 180.816 329.71 181.68 331.126 181.68C333.454 181.68 334.846 179.76 334.846 177.192ZM339.652 183V166.992H341.452V183H339.652ZM352.29 183V181.68C351.33 182.736 350.01 183.288 348.45 183.288C346.482 183.288 344.394 181.968 344.394 179.448C344.394 176.856 346.482 175.632 348.45 175.632C350.034 175.632 351.354 176.136 352.29 177.216V175.128C352.29 173.568 351.042 172.68 349.362 172.68C347.97 172.68 346.842 173.184 345.81 174.288L344.97 173.04C346.218 171.744 347.706 171.12 349.602 171.12C352.05 171.12 354.09 172.224 354.09 175.032V183H352.29ZM352.29 180.552V178.368C351.594 177.408 350.37 176.928 349.098 176.928C347.418 176.928 346.242 177.984 346.242 179.472C346.242 180.936 347.418 181.992 349.098 181.992C350.37 181.992 351.594 181.512 352.29 180.552ZM357.026 177.192C357.026 173.76 359.354 171.12 362.81 171.12C364.922 171.12 366.17 171.984 367.058 173.136L365.858 174.24C365.09 173.184 364.106 172.728 362.906 172.728C360.434 172.728 358.898 174.624 358.898 177.192C358.898 179.76 360.434 181.68 362.906 181.68C364.106 181.68 365.09 181.2 365.858 180.168L367.058 181.272C366.17 182.424 364.922 183.288 362.81 183.288C359.354 183.288 357.026 180.648 357.026 177.192ZM368.909 177.192C368.909 173.832 371.309 171.12 374.621 171.12C378.125 171.12 380.189 173.856 380.189 177.336V177.792H370.805C370.949 179.976 372.485 181.8 374.981 181.8C376.301 181.8 377.645 181.272 378.557 180.336L379.421 181.512C378.269 182.664 376.709 183.288 374.813 183.288C371.381 183.288 368.909 180.816 368.909 177.192ZM374.597 172.608C372.125 172.608 370.901 174.696 370.805 176.472H378.413C378.389 174.744 377.237 172.608 374.597 172.608ZM382.581 181.92C382.581 181.2 383.181 180.6 383.901 180.6C384.621 180.6 385.221 181.2 385.221 181.92C385.221 182.64 384.621 183.24 383.901 183.24C383.181 183.24 382.581 182.64 382.581 181.92Z" fill="black"/>
</g>
<defs>
<filter id="filter0_d_216_4" x="0.4" y="0.4" width="449.2" height="232.2" filterUnits="userSpaceOnUse" color-interpolation-filters="sRGB">
<feFlood flood-opacity="0" result="BackgroundImageFix"/>
<feColorMatrix in="SourceAlpha" type="matrix" values="0 0 0 0 0 0 0 0 0 0 0 0 0 0 0 0 0 0 127 0" result="hardAlpha"/>
<feOffset dy="4"/>
<feGaussianBlur stdDeviation="4.8"/>
<feComposite in2="hardAlpha" operator="out"/>
<feColorMatrix type="matrix" values="0 0 0 0 0 0 0 0 0 0 0 0 0 0 0 0 0 0 0.1 0"/>
<feBlend mode="normal" in2="BackgroundImageFix" result="effect1_dropShadow_216_4"/>
<feBlend mode="normal" in="SourceGraphic" in2="effect1_dropShadow_216_4" result="shape"/>
</filter>
</defs>
</svg>
