<svg width="450" height="232" viewBox="0 0 450 232" fill="none" xmlns="http://www.w3.org/2000/svg">
<g filter="url(#filter0_d_216_3)">
<rect x="10" y="6" width="430" height="212" rx="10" fill="white" shape-rendering="crispEdges"/>
<rect x="10.5" y="6.5" width="429" height="211" rx="9.5" stroke="#C1C1C1" shape-rendering="crispEdges"/>
<path d="M49.968 59.432C43.128 59.432 37.656 54.392 37.656 47.012C37.656 39.632 43.128 34.592 49.968 34.592C54.684 34.592 57.636 36.86 59.508 39.668L56.448 41.288C55.188 39.272 52.812 37.796 49.968 37.796C45.108 37.796 41.364 41.612 41.364 47.012C41.364 52.376 45.108 56.228 49.968 56.228C52.812 56.228 55.188 54.752 56.448 52.736L59.508 54.356C57.6 57.164 54.684 59.432 49.968 59.432ZM71.4496 59.432C66.0496 59.432 62.6656 55.328 62.6656 50.288C62.6656 45.284 66.0496 41.18 71.4496 41.18C76.8856 41.18 80.2336 45.284 80.2336 50.288C80.2336 55.328 76.8856 59.432 71.4496 59.432ZM71.4496 56.552C74.9416 56.552 76.8496 53.6 76.8496 50.288C76.8496 47.012 74.9416 44.06 71.4496 44.06C67.9936 44.06 66.0496 47.012 66.0496 50.288C66.0496 53.6 67.9936 56.552 71.4496 56.552ZM106.199 59V47.408C106.199 45.392 105.299 44.06 103.175 44.06C101.411 44.06 99.6832 45.284 98.8552 46.544V59H95.6152V47.408C95.6152 45.392 94.7512 44.06 92.5552 44.06C90.8632 44.06 89.1712 45.32 88.3072 46.58V59H85.0672V41.612H88.3072V44.06C89.0272 42.98 91.3312 41.18 93.9232 41.18C96.5512 41.18 98.0992 42.548 98.6392 44.42C99.6472 42.8 101.951 41.18 104.507 41.18C107.711 41.18 109.439 42.944 109.439 46.436V59H106.199ZM118.558 65.624H115.318V41.612H118.558V44.096C119.818 42.368 121.906 41.18 124.246 41.18C128.782 41.18 131.986 44.6 131.986 50.288C131.986 55.976 128.782 59.432 124.246 59.432C121.978 59.432 119.962 58.388 118.558 56.48V65.624ZM128.602 50.288C128.602 46.688 126.622 44.06 123.382 44.06C121.402 44.06 119.422 45.212 118.558 46.616V53.996C119.422 55.364 121.402 56.552 123.382 56.552C126.622 56.552 128.602 53.924 128.602 50.288ZM136.816 59V34.988H140.056V59H136.816ZM147.522 38.696C146.406 38.696 145.434 37.796 145.434 36.644C145.434 35.492 146.406 34.556 147.522 34.556C148.674 34.556 149.61 35.492 149.61 36.644C149.61 37.796 148.674 38.696 147.522 38.696ZM145.938 59V41.612H149.178V59H145.938ZM165.788 59V57.092C164.42 58.604 162.44 59.432 160.1 59.432C157.22 59.432 154.052 57.488 154.052 53.672C154.052 49.712 157.184 47.984 160.1 47.984C162.44 47.984 164.456 48.74 165.788 50.288V47.408C165.788 45.248 164.024 43.952 161.54 43.952C159.56 43.952 157.868 44.708 156.32 46.256L154.916 44.024C156.86 42.116 159.236 41.18 162.044 41.18C165.824 41.18 169.028 42.836 169.028 47.264V59H165.788ZM165.788 55.184V52.232C164.816 50.936 163.124 50.252 161.324 50.252C158.984 50.252 157.328 51.656 157.328 53.708C157.328 55.76 158.984 57.164 161.324 57.164C163.124 57.164 164.816 56.48 165.788 55.184ZM186.677 59V47.876C186.677 44.996 185.201 44.06 182.969 44.06C180.953 44.06 179.117 45.284 178.181 46.58V59H174.941V41.612H178.181V44.06C179.333 42.656 181.637 41.18 184.337 41.18C188.009 41.18 189.917 43.124 189.917 46.796V59H186.677ZM194.69 50.288C194.69 45.068 198.29 41.18 203.546 41.18C206.822 41.18 208.802 42.548 210.062 44.24L207.902 46.22C206.858 44.744 205.454 44.06 203.69 44.06C200.27 44.06 198.074 46.688 198.074 50.288C198.074 53.888 200.27 56.552 203.69 56.552C205.454 56.552 206.858 55.832 207.902 54.392L210.062 56.372C208.802 58.064 206.822 59.432 203.546 59.432C198.29 59.432 194.69 55.508 194.69 50.288ZM213.269 50.288C213.269 45.248 216.905 41.18 221.981 41.18C227.201 41.18 230.441 45.248 230.441 50.576V51.368H216.689C216.941 54.32 219.101 56.768 222.593 56.768C224.429 56.768 226.445 56.048 227.741 54.716L229.253 56.84C227.525 58.532 225.077 59.432 222.269 59.432C217.085 59.432 213.269 55.76 213.269 50.288ZM221.981 43.844C218.489 43.844 216.833 46.652 216.653 49.028H227.273C227.201 46.724 225.653 43.844 221.981 43.844ZM38.448 99.464L39.996 97.088C41.436 98.744 43.2 99.392 45.576 99.392C48.276 99.392 50.976 98.096 50.976 94.424V92.156C49.644 93.884 47.592 95.144 45.252 95.144C40.752 95.144 37.512 91.832 37.512 86.144C37.512 80.564 40.752 77.18 45.252 77.18C47.52 77.18 49.572 78.26 50.976 80.132V77.612H54.216V94.316C54.216 100.292 49.86 102.056 45.576 102.056C42.66 102.056 40.536 101.444 38.448 99.464ZM50.976 89.672V82.616C50.076 81.212 48.096 80.06 46.152 80.06C42.912 80.06 40.896 82.58 40.896 86.144C40.896 89.744 42.912 92.264 46.152 92.264C48.096 92.264 50.076 91.076 50.976 89.672ZM60.0893 95V77.612H63.3293V80.276C64.6613 78.548 66.7133 77.216 69.0173 77.216V80.492C68.6933 80.42 68.3333 80.384 67.9013 80.384C66.2813 80.384 64.0853 81.608 63.3293 82.904V95H60.0893ZM83.7014 95V93.092C82.3334 94.604 80.3534 95.432 78.0134 95.432C75.1334 95.432 71.9654 93.488 71.9654 89.672C71.9654 85.712 75.0974 83.984 78.0134 83.984C80.3534 83.984 82.3694 84.74 83.7014 86.288V83.408C83.7014 81.248 81.9374 79.952 79.4534 79.952C77.4734 79.952 75.7814 80.708 74.2334 82.256L72.8294 80.024C74.7734 78.116 77.1494 77.18 79.9574 77.18C83.7374 77.18 86.9414 78.836 86.9414 83.264V95H83.7014ZM83.7014 91.184V88.232C82.7294 86.936 81.0374 86.252 79.2374 86.252C76.8974 86.252 75.2414 87.656 75.2414 89.708C75.2414 91.76 76.8974 93.164 79.2374 93.164C81.0374 93.164 82.7294 92.48 83.7014 91.184ZM105.238 95V92.516C103.942 94.244 101.854 95.432 99.5496 95.432C95.0136 95.432 91.7736 92.012 91.7736 86.324C91.7736 80.744 95.0136 77.18 99.5496 77.18C101.782 77.18 103.834 78.26 105.238 80.132V70.988H108.478V95H105.238ZM105.238 90.032V82.616C104.338 81.212 102.394 80.06 100.414 80.06C97.1736 80.06 95.1576 82.688 95.1576 86.324C95.1576 89.924 97.1736 92.552 100.414 92.552C102.394 92.552 104.338 91.436 105.238 90.032ZM115.97 74.696C114.854 74.696 113.882 73.796 113.882 72.644C113.882 71.492 114.854 70.556 115.97 70.556C117.122 70.556 118.058 71.492 118.058 72.644C118.058 73.796 117.122 74.696 115.97 74.696ZM114.386 95V77.612H117.626V95H114.386ZM135.244 95V83.876C135.244 80.996 133.768 80.06 131.536 80.06C129.52 80.06 127.684 81.284 126.748 82.58V95H123.508V77.612H126.748V80.06C127.9 78.656 130.204 77.18 132.904 77.18C136.576 77.18 138.484 79.124 138.484 82.796V95H135.244ZM144.194 99.464L145.742 97.088C147.182 98.744 148.946 99.392 151.322 99.392C154.022 99.392 156.722 98.096 156.722 94.424V92.156C155.39 93.884 153.338 95.144 150.998 95.144C146.498 95.144 143.258 91.832 143.258 86.144C143.258 80.564 146.498 77.18 150.998 77.18C153.266 77.18 155.318 78.26 156.722 80.132V77.612H159.962V94.316C159.962 100.292 155.606 102.056 151.322 102.056C148.406 102.056 146.282 101.444 144.194 99.464ZM156.722 89.672V82.616C155.822 81.212 153.842 80.06 151.898 80.06C148.658 80.06 146.642 82.58 146.642 86.144C146.642 89.744 148.658 92.264 151.898 92.264C153.842 92.264 155.822 91.076 156.722 89.672Z" fill="black"/>
<path d="M413.659 44.3152C414.062 44.1376 414.403 43.8459 414.642 43.4761C414.88 43.1064 415.004 42.6748 415 42.2349C414.995 41.795 414.862 41.3662 414.616 41.0014C414.37 40.6366 414.023 40.352 413.616 40.1828L394.346 31.4055C393.761 31.1383 393.124 31 392.48 31C391.836 31 391.2 31.1383 390.614 31.4055L371.346 40.1738C370.946 40.3491 370.606 40.6373 370.366 41.003C370.127 41.3688 370 41.7963 370 42.2333C370 42.6702 370.127 43.0977 370.366 43.4635C370.606 43.8292 370.946 44.1174 371.346 44.2927L390.614 53.079C391.2 53.3462 391.836 53.4845 392.48 53.4845C393.124 53.4845 393.761 53.3462 394.346 53.079L413.659 44.3152Z" stroke="#0F2251" stroke-width="5" stroke-linecap="round" stroke-linejoin="round"/>
<path d="M414.963 42.2426V55.7323" stroke="#0F2251" stroke-width="5" stroke-linecap="round" stroke-linejoin="round"/>
<path d="M378.991 47.8634V55.7324C378.991 57.5213 380.412 59.2369 382.942 60.5018C385.472 61.7667 388.903 62.4773 392.48 62.4773C396.058 62.4773 399.489 61.7667 402.019 60.5018C404.549 59.2369 405.97 57.5213 405.97 55.7324V47.8634" stroke="#0F2251" stroke-width="5" stroke-linecap="round" stroke-linejoin="round"/>
<path d="M47.136 147L43.056 140.64H39.864V147H37.872V130.992H44.304C47.232 130.992 49.32 132.864 49.32 135.816C49.32 138.696 47.352 140.28 45.168 140.472L49.488 147H47.136ZM47.256 135.816C47.256 134.016 45.96 132.768 44.064 132.768H39.864V138.888H44.064C45.96 138.888 47.256 137.616 47.256 135.816ZM51.003 141.192C51.003 137.832 53.403 135.12 56.715 135.12C60.219 135.12 62.283 137.856 62.283 141.336V141.792H52.899C53.043 143.976 54.579 145.8 57.075 145.8C58.395 145.8 59.739 145.272 60.651 144.336L61.515 145.512C60.363 146.664 58.803 147.288 56.907 147.288C53.475 147.288 51.003 144.816 51.003 141.192ZM56.691 136.608C54.219 136.608 52.995 138.696 52.899 140.472H60.507C60.483 138.744 59.331 136.608 56.691 136.608ZM72.4464 147V145.68C71.4864 146.736 70.1664 147.288 68.6064 147.288C66.6384 147.288 64.5504 145.968 64.5504 143.448C64.5504 140.856 66.6384 139.632 68.6064 139.632C70.1904 139.632 71.5104 140.136 72.4464 141.216V139.128C72.4464 137.568 71.1984 136.68 69.5184 136.68C68.1264 136.68 66.9984 137.184 65.9664 138.288L65.1264 137.04C66.3744 135.744 67.8624 135.12 69.7584 135.12C72.2064 135.12 74.2464 136.224 74.2464 139.032V147H72.4464ZM72.4464 144.552V142.368C71.7504 141.408 70.5264 140.928 69.2544 140.928C67.5744 140.928 66.3984 141.984 66.3984 143.472C66.3984 144.936 67.5744 145.992 69.2544 145.992C70.5264 145.992 71.7504 145.512 72.4464 144.552ZM77.8547 147V130.992H79.6547V147H77.8547ZM82.1653 141.984V140.4H87.9253V141.984H82.1653ZM93.3686 147.288C91.6646 147.288 90.8006 146.304 90.8006 144.576V136.992H88.8806V135.408H90.8006V132.24H92.6006V135.408H94.9526V136.992H92.6006V144.192C92.6006 145.056 92.9846 145.68 93.7766 145.68C94.2806 145.68 94.7606 145.464 95.0006 145.2L95.5286 146.544C95.0726 146.976 94.4246 147.288 93.3686 147.288ZM98.3833 133.464C97.7353 133.464 97.1833 132.912 97.1833 132.24C97.1833 131.568 97.7353 131.04 98.3833 131.04C99.0553 131.04 99.6073 131.568 99.6073 132.24C99.6073 132.912 99.0553 133.464 98.3833 133.464ZM97.4953 147V135.408H99.2953V147H97.4953ZM116.878 147V139.128C116.878 137.664 116.23 136.728 114.742 136.728C113.542 136.728 112.27 137.592 111.67 138.504V147H109.87V139.128C109.87 137.664 109.246 136.728 107.734 136.728C106.558 136.728 105.31 137.592 104.686 138.528V147H102.886V135.408H104.686V137.088C105.166 136.344 106.726 135.12 108.43 135.12C110.206 135.12 111.214 136.08 111.55 137.28C112.198 136.224 113.758 135.12 115.438 135.12C117.55 135.12 118.678 136.296 118.678 138.624V147H116.878ZM121.597 141.192C121.597 137.832 123.997 135.12 127.309 135.12C130.813 135.12 132.877 137.856 132.877 141.336V141.792H123.493C123.637 143.976 125.173 145.8 127.669 145.8C128.989 145.8 130.333 145.272 131.245 144.336L132.109 145.512C130.957 146.664 129.397 147.288 127.501 147.288C124.069 147.288 121.597 144.816 121.597 141.192ZM127.285 136.608C124.813 136.608 123.589 138.696 123.493 140.472H131.101C131.077 138.744 129.925 136.608 127.285 136.608ZM140.972 145.464L141.908 144.168C142.676 145.056 144.14 145.824 145.724 145.824C147.5 145.824 148.46 145.032 148.46 143.904C148.46 142.632 147.044 142.224 145.484 141.84C143.516 141.384 141.284 140.856 141.284 138.456C141.284 136.656 142.844 135.12 145.604 135.12C147.572 135.12 148.964 135.864 149.9 136.8L149.06 138.048C148.364 137.208 147.092 136.584 145.604 136.584C144.02 136.584 143.036 137.304 143.036 138.336C143.036 139.464 144.356 139.824 145.868 140.184C147.884 140.64 150.212 141.216 150.212 143.784C150.212 145.728 148.652 147.288 145.652 147.288C143.756 147.288 142.148 146.712 140.972 145.464ZM160.96 147V145.368C160.072 146.376 158.56 147.288 156.832 147.288C154.408 147.288 153.136 146.112 153.136 143.592V135.408H154.936V143.04C154.936 145.08 155.968 145.68 157.528 145.68C158.944 145.68 160.288 144.864 160.96 143.928V135.408H162.76V147H160.96ZM166.331 149.976L167.243 148.632C168.203 149.784 169.355 150.216 171.011 150.216C172.931 150.216 174.731 149.28 174.731 146.736V145.08C173.891 146.256 172.475 147.144 170.843 147.144C167.819 147.144 165.683 144.888 165.683 141.144C165.683 137.424 167.795 135.12 170.843 135.12C172.403 135.12 173.795 135.888 174.731 137.16V135.408H176.531V146.664C176.531 150.504 173.843 151.704 171.011 151.704C169.043 151.704 167.699 151.32 166.331 149.976ZM174.731 143.664V138.6C174.107 137.592 172.715 136.728 171.275 136.728C168.947 136.728 167.555 138.576 167.555 141.144C167.555 143.688 168.947 145.56 171.275 145.56C172.715 145.56 174.107 144.672 174.731 143.664ZM180.112 149.976L181.024 148.632C181.984 149.784 183.136 150.216 184.792 150.216C186.712 150.216 188.512 149.28 188.512 146.736V145.08C187.672 146.256 186.256 147.144 184.624 147.144C181.6 147.144 179.464 144.888 179.464 141.144C179.464 137.424 181.576 135.12 184.624 135.12C186.184 135.12 187.576 135.888 188.512 137.16V135.408H190.312V146.664C190.312 150.504 187.624 151.704 184.792 151.704C182.824 151.704 181.48 151.32 180.112 149.976ZM188.512 143.664V138.6C187.888 137.592 186.496 136.728 185.056 136.728C182.728 136.728 181.336 138.576 181.336 141.144C181.336 143.688 182.728 145.56 185.056 145.56C186.496 145.56 187.888 144.672 188.512 143.664ZM193.245 141.192C193.245 137.832 195.645 135.12 198.957 135.12C202.461 135.12 204.525 137.856 204.525 141.336V141.792H195.141C195.285 143.976 196.821 145.8 199.317 145.8C200.637 145.8 201.981 145.272 202.893 144.336L203.757 145.512C202.605 146.664 201.045 147.288 199.149 147.288C195.717 147.288 193.245 144.816 193.245 141.192ZM198.933 136.608C196.461 136.608 195.237 138.696 195.141 140.472H202.749C202.725 138.744 201.573 136.608 198.933 136.608ZM206.433 145.464L207.369 144.168C208.137 145.056 209.601 145.824 211.185 145.824C212.961 145.824 213.921 145.032 213.921 143.904C213.921 142.632 212.505 142.224 210.945 141.84C208.977 141.384 206.745 140.856 206.745 138.456C206.745 136.656 208.305 135.12 211.065 135.12C213.033 135.12 214.425 135.864 215.361 136.8L214.521 138.048C213.825 137.208 212.553 136.584 211.065 136.584C209.481 136.584 208.497 137.304 208.497 138.336C208.497 139.464 209.817 139.824 211.329 140.184C213.345 140.64 215.673 141.216 215.673 143.784C215.673 145.728 214.113 147.288 211.113 147.288C209.217 147.288 207.609 146.712 206.433 145.464ZM221.525 147.288C219.821 147.288 218.957 146.304 218.957 144.576V136.992H217.037V135.408H218.957V132.24H220.757V135.408H223.109V136.992H220.757V144.192C220.757 145.056 221.141 145.68 221.933 145.68C222.437 145.68 222.917 145.464 223.157 145.2L223.685 146.544C223.229 146.976 222.581 147.288 221.525 147.288ZM226.54 133.464C225.892 133.464 225.34 132.912 225.34 132.24C225.34 131.568 225.892 131.04 226.54 131.04C227.212 131.04 227.764 131.568 227.764 132.24C227.764 132.912 227.212 133.464 226.54 133.464ZM225.652 147V135.408H227.452V147H225.652ZM236.106 147.288C232.578 147.288 230.37 144.552 230.37 141.192C230.37 137.832 232.578 135.12 236.106 135.12C239.634 135.12 241.842 137.832 241.842 141.192C241.842 144.552 239.634 147.288 236.106 147.288ZM236.106 145.68C238.578 145.68 239.946 143.568 239.946 141.192C239.946 138.84 238.578 136.728 236.106 136.728C233.634 136.728 232.242 138.84 232.242 141.192C232.242 143.568 233.634 145.68 236.106 145.68ZM252.601 147V139.416C252.601 137.376 251.569 136.728 250.009 136.728C248.593 136.728 247.249 137.592 246.577 138.528V147H244.777V135.408H246.577V137.088C247.393 136.128 248.977 135.12 250.705 135.12C253.129 135.12 254.401 136.344 254.401 138.864V147H252.601ZM256.987 145.464L257.923 144.168C258.691 145.056 260.155 145.824 261.739 145.824C263.515 145.824 264.475 145.032 264.475 143.904C264.475 142.632 263.059 142.224 261.499 141.84C259.531 141.384 257.299 140.856 257.299 138.456C257.299 136.656 258.859 135.12 261.619 135.12C263.587 135.12 264.979 135.864 265.915 136.8L265.075 138.048C264.379 137.208 263.107 136.584 261.619 136.584C260.035 136.584 259.051 137.304 259.051 138.336C259.051 139.464 260.371 139.824 261.883 140.184C263.899 140.64 266.227 141.216 266.227 143.784C266.227 145.728 264.667 147.288 261.667 147.288C259.771 147.288 258.163 146.712 256.987 145.464ZM45.048 182V180.68C44.088 181.736 42.768 182.288 41.208 182.288C39.24 182.288 37.152 180.968 37.152 178.448C37.152 175.856 39.24 174.632 41.208 174.632C42.792 174.632 44.112 175.136 45.048 176.216V174.128C45.048 172.568 43.8 171.68 42.12 171.68C40.728 171.68 39.6 172.184 38.568 173.288L37.728 172.04C38.976 170.744 40.464 170.12 42.36 170.12C44.808 170.12 46.848 171.224 46.848 174.032V182H45.048ZM45.048 179.552V177.368C44.352 176.408 43.128 175.928 41.856 175.928C40.176 175.928 39 176.984 39 178.472C39 179.936 40.176 180.992 41.856 180.992C43.128 180.992 44.352 180.512 45.048 179.552ZM58.2803 182V174.416C58.2803 172.376 57.2483 171.728 55.6883 171.728C54.2723 171.728 52.9283 172.592 52.2563 173.528V182H50.4563V170.408H52.2563V172.088C53.0723 171.128 54.6562 170.12 56.3843 170.12C58.8083 170.12 60.0803 171.344 60.0803 173.864V182H58.2803ZM72.075 182V180.272C71.211 181.448 69.795 182.288 68.163 182.288C65.139 182.288 63.003 179.984 63.003 176.216C63.003 172.52 65.115 170.12 68.163 170.12C69.723 170.12 71.139 170.888 72.075 172.16V165.992H73.875V182H72.075ZM72.075 178.856V173.6C71.427 172.592 70.035 171.728 68.595 171.728C66.267 171.728 64.875 173.648 64.875 176.216C64.875 178.784 66.267 180.68 68.595 180.68C70.035 180.68 71.427 179.864 72.075 178.856ZM84.1712 182V171.992H82.2512V170.408H84.1712V169.52C84.1712 167.12 85.5152 165.752 87.5312 165.752C88.2032 165.752 88.8272 165.872 89.2832 166.16L88.8272 167.504C88.5392 167.336 88.2032 167.24 87.7952 167.24C86.6192 167.24 85.9712 168.056 85.9712 169.52V170.408H88.3232V171.992H85.9712V182H84.1712ZM89.7921 176.192C89.7921 172.832 92.1921 170.12 95.5041 170.12C99.0081 170.12 101.072 172.856 101.072 176.336V176.792H91.6881C91.8321 178.976 93.3681 180.8 95.8641 180.8C97.1841 180.8 98.5281 180.272 99.4401 179.336L100.304 180.512C99.1521 181.664 97.5921 182.288 95.6961 182.288C92.2641 182.288 89.7921 179.816 89.7921 176.192ZM95.4801 171.608C93.0081 171.608 91.7841 173.696 91.6881 175.472H99.2961C99.2721 173.744 98.1201 171.608 95.4801 171.608ZM103.316 176.192C103.316 172.832 105.715 170.12 109.028 170.12C112.532 170.12 114.596 172.856 114.596 176.336V176.792H105.212C105.355 178.976 106.892 180.8 109.388 180.8C110.708 180.8 112.052 180.272 112.964 179.336L113.828 180.512C112.676 181.664 111.116 182.288 109.22 182.288C105.788 182.288 103.316 179.816 103.316 176.192ZM109.004 171.608C106.532 171.608 105.308 173.696 105.212 175.472H112.82C112.796 173.744 111.644 171.608 109.004 171.608ZM125.911 182V180.272C125.047 181.448 123.631 182.288 121.999 182.288C118.975 182.288 116.839 179.984 116.839 176.216C116.839 172.52 118.951 170.12 121.999 170.12C123.559 170.12 124.975 170.888 125.911 172.16V165.992H127.711V182H125.911ZM125.911 178.856V173.6C125.263 172.592 123.871 171.728 122.431 171.728C120.103 171.728 118.711 173.648 118.711 176.216C118.711 178.784 120.103 180.68 122.431 180.68C123.871 180.68 125.263 179.864 125.911 178.856ZM131.316 182V165.992H133.116V172.16C134.052 170.888 135.444 170.12 137.028 170.12C140.052 170.12 142.188 172.52 142.188 176.216C142.188 179.984 140.052 182.288 137.028 182.288C135.396 182.288 133.98 181.448 133.116 180.272V182H131.316ZM133.116 178.856C133.74 179.864 135.156 180.68 136.572 180.68C138.924 180.68 140.316 178.784 140.316 176.216C140.316 173.648 138.924 171.728 136.572 171.728C135.156 171.728 133.74 172.592 133.116 173.6V178.856ZM152.368 182V180.68C151.408 181.736 150.088 182.288 148.528 182.288C146.56 182.288 144.472 180.968 144.472 178.448C144.472 175.856 146.56 174.632 148.528 174.632C150.112 174.632 151.432 175.136 152.368 176.216V174.128C152.368 172.568 151.12 171.68 149.44 171.68C148.048 171.68 146.92 172.184 145.888 173.288L145.048 172.04C146.296 170.744 147.784 170.12 149.68 170.12C152.128 170.12 154.168 171.224 154.168 174.032V182H152.368ZM152.368 179.552V177.368C151.672 176.408 150.448 175.928 149.176 175.928C147.496 175.928 146.32 176.984 146.32 178.472C146.32 179.936 147.496 180.992 149.176 180.992C150.448 180.992 151.672 180.512 152.368 179.552ZM157.105 176.192C157.105 172.76 159.433 170.12 162.889 170.12C165.001 170.12 166.249 170.984 167.137 172.136L165.937 173.24C165.169 172.184 164.185 171.728 162.985 171.728C160.513 171.728 158.977 173.624 158.977 176.192C158.977 178.76 160.513 180.68 162.985 180.68C164.185 180.68 165.169 180.2 165.937 179.168L167.137 180.272C166.249 181.424 165.001 182.288 162.889 182.288C159.433 182.288 157.105 179.648 157.105 176.192ZM177.555 182L173.379 176.792L171.459 178.688V182H169.659V165.992H171.459V176.576L177.555 170.408H179.835L174.699 175.664L179.859 182H177.555ZM181.628 180.92C181.628 180.2 182.228 179.6 182.948 179.6C183.668 179.6 184.268 180.2 184.268 180.92C184.268 181.64 183.668 182.24 182.948 182.24C182.228 182.24 181.628 181.64 181.628 180.92Z" fill="black"/>
</g>
<defs>
<filter id="filter0_d_216_3" x="0.4" y="0.4" width="449.2" height="231.2" filterUnits="userSpaceOnUse" color-interpolation-filters="sRGB">
<feFlood flood-opacity="0" result="BackgroundImageFix"/>
<feColorMatrix in="SourceAlpha" type="matrix" values="0 0 0 0 0 0 0 0 0 0 0 0 0 0 0 0 0 0 127 0" result="hardAlpha"/>
<feOffset dy="4"/>
<feGaussianBlur stdDeviation="4.8"/>
<feComposite in2="hardAlpha" operator="out"/>
<feColorMatrix type="matrix" values="0 0 0 0 0 0 0 0 0 0 0 0 0 0 0 0 0 0 0.1 0"/>
<feBlend mode="normal" in2="BackgroundImageFix" result="effect1_dropShadow_216_3"/>
<feBlend mode="normal" in="SourceGraphic" in2="effect1_dropShadow_216_3" result="shape"/>
</filter>
</defs>
</svg>
