<svg width="450" height="232" viewBox="0 0 450 232" fill="none" xmlns="http://www.w3.org/2000/svg">
<g filter="url(#filter0_d_214_198)">
<rect x="10" y="5.90625" width="430" height="212" rx="10" fill="white" shape-rendering="crispEdges"/>
<rect x="10.5" y="6.40625" width="429" height="211" rx="9.5" stroke="#C1C1C1" shape-rendering="crispEdges"/>
<path d="M49.968 59.3383C43.128 59.3383 37.656 54.2982 37.656 46.9182C37.656 39.5382 43.128 34.4982 49.968 34.4982C54.684 34.4982 57.636 36.7662 59.508 39.5742L56.448 41.1942C55.188 39.1782 52.812 37.7022 49.968 37.7022C45.108 37.7022 41.364 41.5182 41.364 46.9182C41.364 52.2822 45.108 56.1342 49.968 56.1342C52.812 56.1342 55.188 54.6582 56.448 52.6422L59.508 54.2622C57.6 57.0702 54.684 59.3383 49.968 59.3383ZM71.4496 59.3383C66.0496 59.3383 62.6656 55.2342 62.6656 50.1942C62.6656 45.1902 66.0496 41.0862 71.4496 41.0862C76.8856 41.0862 80.2336 45.1902 80.2336 50.1942C80.2336 55.2342 76.8856 59.3383 71.4496 59.3383ZM71.4496 56.4582C74.9416 56.4582 76.8496 53.5062 76.8496 50.1942C76.8496 46.9182 74.9416 43.9662 71.4496 43.9662C67.9936 43.9662 66.0496 46.9182 66.0496 50.1942C66.0496 53.5062 67.9936 56.4582 71.4496 56.4582ZM106.199 58.9062V47.3142C106.199 45.2982 105.299 43.9662 103.175 43.9662C101.411 43.9662 99.6832 45.1902 98.8552 46.4502V58.9062H95.6152V47.3142C95.6152 45.2982 94.7512 43.9662 92.5552 43.9662C90.8632 43.9662 89.1712 45.2262 88.3072 46.4862V58.9062H85.0672V41.5182H88.3072V43.9662C89.0272 42.8862 91.3312 41.0862 93.9232 41.0862C96.5512 41.0862 98.0992 42.4542 98.6392 44.3262C99.6472 42.7062 101.951 41.0862 104.507 41.0862C107.711 41.0862 109.439 42.8502 109.439 46.3422V58.9062H106.199ZM118.558 65.5303H115.318V41.5182H118.558V44.0022C119.818 42.2742 121.906 41.0862 124.246 41.0862C128.782 41.0862 131.986 44.5062 131.986 50.1942C131.986 55.8822 128.782 59.3383 124.246 59.3383C121.978 59.3383 119.962 58.2942 118.558 56.3862V65.5303ZM128.602 50.1942C128.602 46.5942 126.622 43.9662 123.382 43.9662C121.402 43.9662 119.422 45.1182 118.558 46.5222V53.9022C119.422 55.2702 121.402 56.4582 123.382 56.4582C126.622 56.4582 128.602 53.8302 128.602 50.1942ZM136.816 58.9062V34.8942H140.056V58.9062H136.816ZM147.522 38.6022C146.406 38.6022 145.434 37.7022 145.434 36.5502C145.434 35.3982 146.406 34.4622 147.522 34.4622C148.674 34.4622 149.61 35.3982 149.61 36.5502C149.61 37.7022 148.674 38.6022 147.522 38.6022ZM145.938 58.9062V41.5182H149.178V58.9062H145.938ZM165.788 58.9062V56.9982C164.42 58.5102 162.44 59.3383 160.1 59.3383C157.22 59.3383 154.052 57.3942 154.052 53.5782C154.052 49.6182 157.184 47.8902 160.1 47.8902C162.44 47.8902 164.456 48.6462 165.788 50.1942V47.3142C165.788 45.1542 164.024 43.8582 161.54 43.8582C159.56 43.8582 157.868 44.6142 156.32 46.1622L154.916 43.9302C156.86 42.0222 159.236 41.0862 162.044 41.0862C165.824 41.0862 169.028 42.7422 169.028 47.1702V58.9062H165.788ZM165.788 55.0902V52.1382C164.816 50.8422 163.124 50.1582 161.324 50.1582C158.984 50.1582 157.328 51.5622 157.328 53.6143C157.328 55.6662 158.984 57.0702 161.324 57.0702C163.124 57.0702 164.816 56.3862 165.788 55.0902ZM186.677 58.9062V47.7822C186.677 44.9022 185.201 43.9662 182.969 43.9662C180.953 43.9662 179.117 45.1902 178.181 46.4862V58.9062H174.941V41.5182H178.181V43.9662C179.333 42.5622 181.637 41.0862 184.337 41.0862C188.009 41.0862 189.917 43.0302 189.917 46.7022V58.9062H186.677ZM194.69 50.1942C194.69 44.9742 198.29 41.0862 203.546 41.0862C206.822 41.0862 208.802 42.4542 210.062 44.1462L207.902 46.1262C206.858 44.6502 205.454 43.9662 203.69 43.9662C200.27 43.9662 198.074 46.5942 198.074 50.1942C198.074 53.7942 200.27 56.4582 203.69 56.4582C205.454 56.4582 206.858 55.7382 207.902 54.2982L210.062 56.2782C208.802 57.9702 206.822 59.3383 203.546 59.3383C198.29 59.3383 194.69 55.4142 194.69 50.1942ZM213.269 50.1942C213.269 45.1542 216.905 41.0862 221.981 41.0862C227.201 41.0862 230.441 45.1542 230.441 50.4822V51.2742H216.689C216.941 54.2262 219.101 56.6742 222.593 56.6742C224.429 56.6742 226.445 55.9542 227.741 54.6222L229.253 56.7462C227.525 58.4382 225.077 59.3383 222.269 59.3383C217.085 59.3383 213.269 55.6662 213.269 50.1942ZM221.981 43.7502C218.489 43.7502 216.833 46.5582 216.653 48.9342H227.273C227.201 46.6302 225.653 43.7502 221.981 43.7502ZM38.448 99.3703L39.996 96.9943C41.436 98.6503 43.2 99.2983 45.576 99.2983C48.276 99.2983 50.976 98.0023 50.976 94.3302V92.0622C49.644 93.7902 47.592 95.0503 45.252 95.0503C40.752 95.0503 37.512 91.7382 37.512 86.0502C37.512 80.4702 40.752 77.0862 45.252 77.0862C47.52 77.0862 49.572 78.1662 50.976 80.0382V77.5182H54.216V94.2222C54.216 100.198 49.86 101.962 45.576 101.962C42.66 101.962 40.536 101.35 38.448 99.3703ZM50.976 89.5782V82.5222C50.076 81.1182 48.096 79.9662 46.152 79.9662C42.912 79.9662 40.896 82.4862 40.896 86.0502C40.896 89.6502 42.912 92.1702 46.152 92.1702C48.096 92.1702 50.076 90.9822 50.976 89.5782ZM60.0893 94.9062V77.5182H63.3293V80.1822C64.6613 78.4542 66.7133 77.1222 69.0173 77.1222V80.3982C68.6933 80.3262 68.3333 80.2902 67.9013 80.2902C66.2813 80.2902 64.0853 81.5142 63.3293 82.8102V94.9062H60.0893ZM83.7014 94.9062V92.9982C82.3334 94.5102 80.3534 95.3383 78.0134 95.3383C75.1334 95.3383 71.9654 93.3942 71.9654 89.5782C71.9654 85.6182 75.0974 83.8902 78.0134 83.8902C80.3534 83.8902 82.3694 84.6462 83.7014 86.1942V83.3142C83.7014 81.1542 81.9374 79.8582 79.4534 79.8582C77.4734 79.8582 75.7814 80.6142 74.2334 82.1622L72.8294 79.9302C74.7734 78.0222 77.1494 77.0862 79.9574 77.0862C83.7374 77.0862 86.9414 78.7422 86.9414 83.1702V94.9062H83.7014ZM83.7014 91.0902V88.1382C82.7294 86.8422 81.0374 86.1582 79.2374 86.1582C76.8974 86.1582 75.2414 87.5622 75.2414 89.6143C75.2414 91.6662 76.8974 93.0702 79.2374 93.0702C81.0374 93.0702 82.7294 92.3862 83.7014 91.0902ZM105.238 94.9062V92.4222C103.942 94.1502 101.854 95.3383 99.5496 95.3383C95.0136 95.3383 91.7736 91.9182 91.7736 86.2302C91.7736 80.6502 95.0136 77.0862 99.5496 77.0862C101.782 77.0862 103.834 78.1662 105.238 80.0382V70.8942H108.478V94.9062H105.238ZM105.238 89.9382V82.5222C104.338 81.1182 102.394 79.9662 100.414 79.9662C97.1736 79.9662 95.1576 82.5942 95.1576 86.2302C95.1576 89.8302 97.1736 92.4582 100.414 92.4582C102.394 92.4582 104.338 91.3422 105.238 89.9382ZM115.97 74.6022C114.854 74.6022 113.882 73.7022 113.882 72.5502C113.882 71.3982 114.854 70.4622 115.97 70.4622C117.122 70.4622 118.058 71.3982 118.058 72.5502C118.058 73.7022 117.122 74.6022 115.97 74.6022ZM114.386 94.9062V77.5182H117.626V94.9062H114.386ZM135.244 94.9062V83.7822C135.244 80.9022 133.768 79.9662 131.536 79.9662C129.52 79.9662 127.684 81.1902 126.748 82.4862V94.9062H123.508V77.5182H126.748V79.9662C127.9 78.5622 130.204 77.0862 132.904 77.0862C136.576 77.0862 138.484 79.0302 138.484 82.7022V94.9062H135.244ZM144.194 99.3703L145.742 96.9943C147.182 98.6503 148.946 99.2983 151.322 99.2983C154.022 99.2983 156.722 98.0023 156.722 94.3302V92.0622C155.39 93.7902 153.338 95.0503 150.998 95.0503C146.498 95.0503 143.258 91.7382 143.258 86.0502C143.258 80.4702 146.498 77.0862 150.998 77.0862C153.266 77.0862 155.318 78.1662 156.722 80.0382V77.5182H159.962V94.2222C159.962 100.198 155.606 101.962 151.322 101.962C148.406 101.962 146.282 101.35 144.194 99.3703ZM156.722 89.5782V82.5222C155.822 81.1182 153.842 79.9662 151.898 79.9662C148.658 79.9662 146.642 82.4862 146.642 86.0502C146.642 89.6502 148.658 92.1702 151.898 92.1702C153.842 92.1702 155.822 90.9822 156.722 89.5782Z" fill="black"/>
<path d="M413.659 44.2214C414.062 44.0439 414.403 43.7521 414.642 43.3824C414.88 43.0126 415.004 42.5811 415 42.1412C414.995 41.7013 414.862 41.2724 414.616 40.9076C414.37 40.5429 414.023 40.2583 413.616 40.0891L394.346 31.3117C393.761 31.0445 393.124 30.9062 392.48 30.9062C391.836 30.9062 391.2 31.0445 390.614 31.3117L371.346 40.0801C370.946 40.2554 370.606 40.5435 370.366 40.9093C370.127 41.275 370 41.7025 370 42.1395C370 42.5765 370.127 43.004 370.366 43.3697C370.606 43.7355 370.946 44.0236 371.346 44.199L390.614 52.9853C391.2 53.2525 391.836 53.3908 392.48 53.3908C393.124 53.3908 393.761 53.2525 394.346 52.9853L413.659 44.2214Z" stroke="#CD6026" stroke-width="5" stroke-linecap="round" stroke-linejoin="round"/>
<path d="M414.964 42.1488V55.6386" stroke="#CD6026" stroke-width="5" stroke-linecap="round" stroke-linejoin="round"/>
<path d="M378.991 47.7697V55.6387C378.991 57.4275 380.412 59.1431 382.942 60.408C385.472 61.6729 388.903 62.3835 392.481 62.3835C396.058 62.3835 399.49 61.6729 402.019 60.408C404.549 59.1431 405.97 57.4275 405.97 55.6387V47.7697" stroke="#CD6026" stroke-width="5" stroke-linecap="round" stroke-linejoin="round"/>
<path d="M47.136 146.906L43.056 140.546H39.864V146.906H37.872V130.898H44.304C47.232 130.898 49.32 132.77 49.32 135.722C49.32 138.602 47.352 140.186 45.168 140.378L49.488 146.906H47.136ZM47.256 135.722C47.256 133.922 45.96 132.674 44.064 132.674H39.864V138.794H44.064C45.96 138.794 47.256 137.522 47.256 135.722ZM51.003 141.098C51.003 137.738 53.403 135.026 56.715 135.026C60.219 135.026 62.283 137.762 62.283 141.242V141.698H52.899C53.043 143.882 54.579 145.706 57.075 145.706C58.395 145.706 59.739 145.178 60.651 144.242L61.515 145.418C60.363 146.57 58.803 147.194 56.907 147.194C53.475 147.194 51.003 144.722 51.003 141.098ZM56.691 136.514C54.219 136.514 52.995 138.602 52.899 140.378H60.507C60.483 138.65 59.331 136.514 56.691 136.514ZM72.4464 146.906V145.586C71.4864 146.642 70.1664 147.194 68.6064 147.194C66.6384 147.194 64.5504 145.874 64.5504 143.354C64.5504 140.762 66.6384 139.538 68.6064 139.538C70.1904 139.538 71.5104 140.042 72.4464 141.122V139.034C72.4464 137.474 71.1984 136.586 69.5184 136.586C68.1264 136.586 66.9984 137.09 65.9664 138.194L65.1264 136.946C66.3744 135.65 67.8624 135.026 69.7584 135.026C72.2064 135.026 74.2464 136.13 74.2464 138.938V146.906H72.4464ZM72.4464 144.458V142.274C71.7504 141.314 70.5264 140.834 69.2544 140.834C67.5744 140.834 66.3984 141.89 66.3984 143.378C66.3984 144.842 67.5744 145.898 69.2544 145.898C70.5264 145.898 71.7504 145.418 72.4464 144.458ZM77.8547 146.906V130.898H79.6547V146.906H77.8547ZM82.1653 141.89V140.306H87.9253V141.89H82.1653ZM93.3686 147.194C91.6646 147.194 90.8006 146.21 90.8006 144.482V136.898H88.8806V135.314H90.8006V132.146H92.6006V135.314H94.9526V136.898H92.6006V144.098C92.6006 144.962 92.9846 145.586 93.7766 145.586C94.2806 145.586 94.7606 145.37 95.0006 145.106L95.5286 146.45C95.0726 146.882 94.4246 147.194 93.3686 147.194ZM98.3833 133.37C97.7353 133.37 97.1833 132.818 97.1833 132.146C97.1833 131.474 97.7353 130.946 98.3833 130.946C99.0553 130.946 99.6073 131.474 99.6073 132.146C99.6073 132.818 99.0553 133.37 98.3833 133.37ZM97.4953 146.906V135.314H99.2953V146.906H97.4953ZM116.878 146.906V139.034C116.878 137.57 116.23 136.634 114.742 136.634C113.542 136.634 112.27 137.498 111.67 138.41V146.906H109.87V139.034C109.87 137.57 109.246 136.634 107.734 136.634C106.558 136.634 105.31 137.498 104.686 138.434V146.906H102.886V135.314H104.686V136.994C105.166 136.25 106.726 135.026 108.43 135.026C110.206 135.026 111.214 135.986 111.55 137.186C112.198 136.13 113.758 135.026 115.438 135.026C117.55 135.026 118.678 136.202 118.678 138.53V146.906H116.878ZM121.597 141.098C121.597 137.738 123.997 135.026 127.309 135.026C130.813 135.026 132.877 137.762 132.877 141.242V141.698H123.493C123.637 143.882 125.173 145.706 127.669 145.706C128.989 145.706 130.333 145.178 131.245 144.242L132.109 145.418C130.957 146.57 129.397 147.194 127.501 147.194C124.069 147.194 121.597 144.722 121.597 141.098ZM127.285 136.514C124.813 136.514 123.589 138.602 123.493 140.378H131.101C131.077 138.65 129.925 136.514 127.285 136.514ZM140.972 145.37L141.908 144.074C142.676 144.962 144.14 145.73 145.724 145.73C147.5 145.73 148.46 144.938 148.46 143.81C148.46 142.538 147.044 142.13 145.484 141.746C143.516 141.29 141.284 140.762 141.284 138.362C141.284 136.562 142.844 135.026 145.604 135.026C147.572 135.026 148.964 135.77 149.9 136.706L149.06 137.954C148.364 137.114 147.092 136.49 145.604 136.49C144.02 136.49 143.036 137.21 143.036 138.242C143.036 139.37 144.356 139.73 145.868 140.09C147.884 140.546 150.212 141.122 150.212 143.69C150.212 145.634 148.652 147.194 145.652 147.194C143.756 147.194 142.148 146.618 140.972 145.37ZM160.96 146.906V145.274C160.072 146.282 158.56 147.194 156.832 147.194C154.408 147.194 153.136 146.018 153.136 143.498V135.314H154.936V142.946C154.936 144.986 155.968 145.586 157.528 145.586C158.944 145.586 160.288 144.77 160.96 143.834V135.314H162.76V146.906H160.96ZM166.331 149.882L167.243 148.538C168.203 149.69 169.355 150.122 171.011 150.122C172.931 150.122 174.731 149.186 174.731 146.642V144.986C173.891 146.162 172.475 147.05 170.843 147.05C167.819 147.05 165.683 144.794 165.683 141.05C165.683 137.33 167.795 135.026 170.843 135.026C172.403 135.026 173.795 135.794 174.731 137.066V135.314H176.531V146.57C176.531 150.41 173.843 151.61 171.011 151.61C169.043 151.61 167.699 151.226 166.331 149.882ZM174.731 143.57V138.506C174.107 137.498 172.715 136.634 171.275 136.634C168.947 136.634 167.555 138.482 167.555 141.05C167.555 143.594 168.947 145.466 171.275 145.466C172.715 145.466 174.107 144.578 174.731 143.57ZM180.112 149.882L181.024 148.538C181.984 149.69 183.136 150.122 184.792 150.122C186.712 150.122 188.512 149.186 188.512 146.642V144.986C187.672 146.162 186.256 147.05 184.624 147.05C181.6 147.05 179.464 144.794 179.464 141.05C179.464 137.33 181.576 135.026 184.624 135.026C186.184 135.026 187.576 135.794 188.512 137.066V135.314H190.312V146.57C190.312 150.41 187.624 151.61 184.792 151.61C182.824 151.61 181.48 151.226 180.112 149.882ZM188.512 143.57V138.506C187.888 137.498 186.496 136.634 185.056 136.634C182.728 136.634 181.336 138.482 181.336 141.05C181.336 143.594 182.728 145.466 185.056 145.466C186.496 145.466 187.888 144.578 188.512 143.57ZM193.245 141.098C193.245 137.738 195.645 135.026 198.957 135.026C202.461 135.026 204.525 137.762 204.525 141.242V141.698H195.141C195.285 143.882 196.821 145.706 199.317 145.706C200.637 145.706 201.981 145.178 202.893 144.242L203.757 145.418C202.605 146.57 201.045 147.194 199.149 147.194C195.717 147.194 193.245 144.722 193.245 141.098ZM198.933 136.514C196.461 136.514 195.237 138.602 195.141 140.378H202.749C202.725 138.65 201.573 136.514 198.933 136.514ZM206.433 145.37L207.369 144.074C208.137 144.962 209.601 145.73 211.185 145.73C212.961 145.73 213.921 144.938 213.921 143.81C213.921 142.538 212.505 142.13 210.945 141.746C208.977 141.29 206.745 140.762 206.745 138.362C206.745 136.562 208.305 135.026 211.065 135.026C213.033 135.026 214.425 135.77 215.361 136.706L214.521 137.954C213.825 137.114 212.553 136.49 211.065 136.49C209.481 136.49 208.497 137.21 208.497 138.242C208.497 139.37 209.817 139.73 211.329 140.09C213.345 140.546 215.673 141.122 215.673 143.69C215.673 145.634 214.113 147.194 211.113 147.194C209.217 147.194 207.609 146.618 206.433 145.37ZM221.525 147.194C219.821 147.194 218.957 146.21 218.957 144.482V136.898H217.037V135.314H218.957V132.146H220.757V135.314H223.109V136.898H220.757V144.098C220.757 144.962 221.141 145.586 221.933 145.586C222.437 145.586 222.917 145.37 223.157 145.106L223.685 146.45C223.229 146.882 222.581 147.194 221.525 147.194ZM226.54 133.37C225.892 133.37 225.34 132.818 225.34 132.146C225.34 131.474 225.892 130.946 226.54 130.946C227.212 130.946 227.764 131.474 227.764 132.146C227.764 132.818 227.212 133.37 226.54 133.37ZM225.652 146.906V135.314H227.452V146.906H225.652ZM236.106 147.194C232.578 147.194 230.37 144.458 230.37 141.098C230.37 137.738 232.578 135.026 236.106 135.026C239.634 135.026 241.842 137.738 241.842 141.098C241.842 144.458 239.634 147.194 236.106 147.194ZM236.106 145.586C238.578 145.586 239.946 143.474 239.946 141.098C239.946 138.746 238.578 136.634 236.106 136.634C233.634 136.634 232.242 138.746 232.242 141.098C232.242 143.474 233.634 145.586 236.106 145.586ZM252.601 146.906V139.322C252.601 137.282 251.569 136.634 250.009 136.634C248.593 136.634 247.249 137.498 246.577 138.434V146.906H244.777V135.314H246.577V136.994C247.393 136.034 248.977 135.026 250.705 135.026C253.129 135.026 254.401 136.25 254.401 138.77V146.906H252.601ZM256.987 145.37L257.923 144.074C258.691 144.962 260.155 145.73 261.739 145.73C263.515 145.73 264.475 144.938 264.475 143.81C264.475 142.538 263.059 142.13 261.499 141.746C259.531 141.29 257.299 140.762 257.299 138.362C257.299 136.562 258.859 135.026 261.619 135.026C263.587 135.026 264.979 135.77 265.915 136.706L265.075 137.954C264.379 137.114 263.107 136.49 261.619 136.49C260.035 136.49 259.051 137.21 259.051 138.242C259.051 139.37 260.371 139.73 261.883 140.09C263.899 140.546 266.227 141.122 266.227 143.69C266.227 145.634 264.667 147.194 261.667 147.194C259.771 147.194 258.163 146.618 256.987 145.37ZM45.048 181.906V180.586C44.088 181.642 42.768 182.194 41.208 182.194C39.24 182.194 37.152 180.874 37.152 178.354C37.152 175.762 39.24 174.538 41.208 174.538C42.792 174.538 44.112 175.042 45.048 176.122V174.034C45.048 172.474 43.8 171.586 42.12 171.586C40.728 171.586 39.6 172.09 38.568 173.194L37.728 171.946C38.976 170.65 40.464 170.026 42.36 170.026C44.808 170.026 46.848 171.13 46.848 173.938V181.906H45.048ZM45.048 179.458V177.274C44.352 176.314 43.128 175.834 41.856 175.834C40.176 175.834 39 176.89 39 178.378C39 179.842 40.176 180.898 41.856 180.898C43.128 180.898 44.352 180.418 45.048 179.458ZM58.2803 181.906V174.322C58.2803 172.282 57.2483 171.634 55.6883 171.634C54.2723 171.634 52.9283 172.498 52.2563 173.434V181.906H50.4563V170.314H52.2563V171.994C53.0723 171.034 54.6562 170.026 56.3843 170.026C58.8083 170.026 60.0803 171.25 60.0803 173.77V181.906H58.2803ZM72.075 181.906V180.178C71.211 181.354 69.795 182.194 68.163 182.194C65.139 182.194 63.003 179.89 63.003 176.122C63.003 172.426 65.115 170.026 68.163 170.026C69.723 170.026 71.139 170.794 72.075 172.066V165.898H73.875V181.906H72.075ZM72.075 178.762V173.506C71.427 172.498 70.035 171.634 68.595 171.634C66.267 171.634 64.875 173.554 64.875 176.122C64.875 178.69 66.267 180.586 68.595 180.586C70.035 180.586 71.427 179.77 72.075 178.762ZM84.1712 181.906V171.898H82.2512V170.314H84.1712V169.426C84.1712 167.026 85.5152 165.658 87.5312 165.658C88.2032 165.658 88.8272 165.778 89.2832 166.066L88.8272 167.41C88.5392 167.242 88.2032 167.146 87.7952 167.146C86.6192 167.146 85.9712 167.962 85.9712 169.426V170.314H88.3232V171.898H85.9712V181.906H84.1712ZM89.7921 176.098C89.7921 172.738 92.1921 170.026 95.5041 170.026C99.0081 170.026 101.072 172.762 101.072 176.242V176.698H91.6881C91.8321 178.882 93.3681 180.706 95.8641 180.706C97.1841 180.706 98.5281 180.178 99.4401 179.242L100.304 180.418C99.1521 181.57 97.5921 182.194 95.6961 182.194C92.2641 182.194 89.7921 179.722 89.7921 176.098ZM95.4801 171.514C93.0081 171.514 91.7841 173.602 91.6881 175.378H99.2961C99.2721 173.65 98.1201 171.514 95.4801 171.514ZM103.316 176.098C103.316 172.738 105.715 170.026 109.028 170.026C112.532 170.026 114.596 172.762 114.596 176.242V176.698H105.212C105.355 178.882 106.892 180.706 109.388 180.706C110.708 180.706 112.052 180.178 112.964 179.242L113.828 180.418C112.676 181.57 111.116 182.194 109.22 182.194C105.788 182.194 103.316 179.722 103.316 176.098ZM109.004 171.514C106.532 171.514 105.308 173.602 105.212 175.378H112.82C112.796 173.65 111.644 171.514 109.004 171.514ZM125.911 181.906V180.178C125.047 181.354 123.631 182.194 121.999 182.194C118.975 182.194 116.839 179.89 116.839 176.122C116.839 172.426 118.951 170.026 121.999 170.026C123.559 170.026 124.975 170.794 125.911 172.066V165.898H127.711V181.906H125.911ZM125.911 178.762V173.506C125.263 172.498 123.871 171.634 122.431 171.634C120.103 171.634 118.711 173.554 118.711 176.122C118.711 178.69 120.103 180.586 122.431 180.586C123.871 180.586 125.263 179.77 125.911 178.762ZM131.316 181.906V165.898H133.116V172.066C134.052 170.794 135.444 170.026 137.028 170.026C140.052 170.026 142.188 172.426 142.188 176.122C142.188 179.89 140.052 182.194 137.028 182.194C135.396 182.194 133.98 181.354 133.116 180.178V181.906H131.316ZM133.116 178.762C133.74 179.77 135.156 180.586 136.572 180.586C138.924 180.586 140.316 178.69 140.316 176.122C140.316 173.554 138.924 171.634 136.572 171.634C135.156 171.634 133.74 172.498 133.116 173.506V178.762ZM152.368 181.906V180.586C151.408 181.642 150.088 182.194 148.528 182.194C146.56 182.194 144.472 180.874 144.472 178.354C144.472 175.762 146.56 174.538 148.528 174.538C150.112 174.538 151.432 175.042 152.368 176.122V174.034C152.368 172.474 151.12 171.586 149.44 171.586C148.048 171.586 146.92 172.09 145.888 173.194L145.048 171.946C146.296 170.65 147.784 170.026 149.68 170.026C152.128 170.026 154.168 171.13 154.168 173.938V181.906H152.368ZM152.368 179.458V177.274C151.672 176.314 150.448 175.834 149.176 175.834C147.496 175.834 146.32 176.89 146.32 178.378C146.32 179.842 147.496 180.898 149.176 180.898C150.448 180.898 151.672 180.418 152.368 179.458ZM157.105 176.098C157.105 172.666 159.433 170.026 162.889 170.026C165.001 170.026 166.249 170.89 167.137 172.042L165.937 173.146C165.169 172.09 164.185 171.634 162.985 171.634C160.513 171.634 158.977 173.53 158.977 176.098C158.977 178.666 160.513 180.586 162.985 180.586C164.185 180.586 165.169 180.106 165.937 179.074L167.137 180.178C166.249 181.33 165.001 182.194 162.889 182.194C159.433 182.194 157.105 179.554 157.105 176.098ZM177.555 181.906L173.379 176.698L171.459 178.594V181.906H169.659V165.898H171.459V176.482L177.555 170.314H179.835L174.699 175.57L179.859 181.906H177.555ZM181.628 180.826C181.628 180.106 182.228 179.506 182.948 179.506C183.668 179.506 184.268 180.106 184.268 180.826C184.268 181.546 183.668 182.146 182.948 182.146C182.228 182.146 181.628 181.546 181.628 180.826Z" fill="black"/>
</g>
<defs>
<filter id="filter0_d_214_198" x="0.4" y="0.30625" width="449.2" height="231.2" filterUnits="userSpaceOnUse" color-interpolation-filters="sRGB">
<feFlood flood-opacity="0" result="BackgroundImageFix"/>
<feColorMatrix in="SourceAlpha" type="matrix" values="0 0 0 0 0 0 0 0 0 0 0 0 0 0 0 0 0 0 127 0" result="hardAlpha"/>
<feOffset dy="4"/>
<feGaussianBlur stdDeviation="4.8"/>
<feComposite in2="hardAlpha" operator="out"/>
<feColorMatrix type="matrix" values="0 0 0 0 0 0 0 0 0 0 0 0 0 0 0 0 0 0 0.1 0"/>
<feBlend mode="normal" in2="BackgroundImageFix" result="effect1_dropShadow_214_198"/>
<feBlend mode="normal" in="SourceGraphic" in2="effect1_dropShadow_214_198" result="shape"/>
</filter>
</defs>
</svg>
