<svg width="18" height="19" viewBox="0 0 18 19" fill="none" xmlns="http://www.w3.org/2000/svg">
<path fill-rule="evenodd" clip-rule="evenodd" d="M16.7143 0.607422H1.2817C0.574553 0.607422 0 1.19001 0 1.90519V17.3096C0 18.0248 0.574553 18.6074 1.2817 18.6074H16.7143C17.4214 18.6074 18 18.0248 18 17.3096V1.90519C18 1.19001 17.4214 0.607422 16.7143 0.607422ZM5.44018 16.036H2.77232V7.44582H5.4442V16.036H5.44018ZM4.10625 6.2726C3.25045 6.2726 2.55937 5.57751 2.55937 4.72572C2.55937 3.87394 3.25045 3.17885 4.10625 3.17885C4.95803 3.17885 5.65312 3.87394 5.65312 4.72572C5.65312 5.58153 4.96205 6.2726 4.10625 6.2726ZM15.4406 16.036H12.7728V11.8574C12.7728 10.861 12.7527 9.5793 11.3866 9.5793C9.99645 9.5793 9.78345 10.6641 9.78345 11.7851V16.036H7.11563V7.44582H9.675V8.619H9.71115C10.0688 7.94403 10.9406 7.23287 12.2384 7.23287C14.9384 7.23287 15.4406 9.01275 15.4406 11.3271V16.036Z" fill="#0F2251"/>
</svg>
