<svg width="18" height="19" viewBox="0 0 18 19" fill="none" xmlns="http://www.w3.org/2000/svg">
<path fill-rule="evenodd" clip-rule="evenodd" d="M16.7143 0.592773H1.2817C0.574553 0.592773 0 1.17536 0 1.89054V17.295C0 18.0102 0.574553 18.5928 1.2817 18.5928H16.7143C17.4214 18.5928 18 18.0102 18 17.295V1.89054C18 1.17536 17.4214 0.592773 16.7143 0.592773ZM5.44018 16.0213H2.77232V7.43117H5.4442V16.0213H5.44018ZM4.10625 6.25795C3.25045 6.25795 2.55937 5.56287 2.55937 4.71108C2.55937 3.85929 3.25045 3.1642 4.10625 3.1642C4.95803 3.1642 5.65312 3.85929 5.65312 4.71108C5.65312 5.56688 4.96205 6.25795 4.10625 6.25795ZM15.4406 16.0213H12.7728V11.8428C12.7728 10.8463 12.7527 9.56465 11.3866 9.56465C9.99645 9.56465 9.78345 10.6494 9.78345 11.7705V16.0213H7.11563V7.43117H9.675V8.60435H9.71115C10.0688 7.92938 10.9406 7.21822 12.2384 7.21822C14.9384 7.21822 15.4406 8.9981 15.4406 11.3124V16.0213Z" fill="#CD6026"/>
</svg>
