<svg width="450" height="233" viewBox="0 0 450 233" fill="none" xmlns="http://www.w3.org/2000/svg">
<g filter="url(#filter0_d_214_190)">
<rect x="10" y="5.90625" width="430" height="213" rx="10" fill="white" shape-rendering="crispEdges"/>
<rect x="10.5" y="6.40625" width="429" height="212" rx="9.5" stroke="#C1C1C1" shape-rendering="crispEdges"/>
<path d="M38.664 59.9062V35.8942H48.78C53.712 35.8942 56.448 39.2782 56.448 43.2742C56.448 47.2702 53.676 50.6543 48.78 50.6543H42.264V59.9062H38.664ZM52.74 43.2742C52.74 40.7542 50.904 39.0622 48.312 39.0622H42.264V47.4862H48.312C50.904 47.4862 52.74 45.7942 52.74 43.2742ZM59.2203 51.1942C59.2203 46.1542 62.8563 42.0862 67.9323 42.0862C73.1523 42.0862 76.3923 46.1542 76.3923 51.4822V52.2742H62.6403C62.8923 55.2262 65.0523 57.6742 68.5443 57.6742C70.3803 57.6742 72.3963 56.9542 73.6923 55.6222L75.2043 57.7462C73.4763 59.4382 71.0283 60.3383 68.2203 60.3383C63.0363 60.3383 59.2203 56.6662 59.2203 51.1942ZM67.9323 44.7502C64.4403 44.7502 62.7843 47.5582 62.6043 49.9342H73.2243C73.1523 47.6302 71.6043 44.7502 67.9323 44.7502ZM81.1648 59.9062V42.5182H84.4048V45.1822C85.7368 43.4542 87.7888 42.1222 90.0928 42.1222V45.3982C89.7688 45.3262 89.4088 45.2902 88.9768 45.2902C87.3568 45.2902 85.1608 46.5142 84.4048 47.8102V59.9062H81.1648ZM115.181 59.9062V48.3142C115.181 46.2982 114.281 44.9662 112.157 44.9662C110.393 44.9662 108.665 46.1902 107.837 47.4502V59.9062H104.597V48.3142C104.597 46.2982 103.733 44.9662 101.537 44.9662C99.8449 44.9662 98.1529 46.2262 97.2889 47.4862V59.9062H94.0489V42.5182H97.2889V44.9662C98.0089 43.8862 100.313 42.0862 102.905 42.0862C105.533 42.0862 107.081 43.4542 107.621 45.3262C108.629 43.7062 110.933 42.0862 113.489 42.0862C116.693 42.0862 118.421 43.8502 118.421 47.3422V59.9062H115.181ZM125.884 39.6022C124.768 39.6022 123.796 38.7022 123.796 37.5502C123.796 36.3982 124.768 35.4622 125.884 35.4622C127.036 35.4622 127.972 36.3982 127.972 37.5502C127.972 38.7022 127.036 39.6022 125.884 39.6022ZM124.3 59.9062V42.5182H127.54V59.9062H124.3ZM138.21 60.3383C135.474 60.3383 134.07 58.7902 134.07 56.0542V45.3622H131.19V42.5182H134.07V37.7662H137.31V42.5182H140.838V45.3622H137.31V55.3342C137.31 56.5582 137.886 57.4582 139.002 57.4582C139.758 57.4582 140.442 57.1342 140.766 56.7742L141.594 59.2222C140.91 59.8702 139.902 60.3383 138.21 60.3383ZM155.148 59.9062V42.5182H158.388V45.1822C159.72 43.4542 161.772 42.1222 164.076 42.1222V45.3982C163.752 45.3262 163.392 45.2902 162.96 45.2902C161.34 45.2902 159.144 46.5142 158.388 47.8102V59.9062H155.148ZM169.616 39.6022C168.5 39.6022 167.528 38.7022 167.528 37.5502C167.528 36.3982 168.5 35.4622 169.616 35.4622C170.768 35.4622 171.704 36.3982 171.704 37.5502C171.704 38.7022 170.768 39.6022 169.616 39.6022ZM168.032 59.9062V42.5182H171.272V59.9062H168.032ZM175.642 57.6382L177.19 55.2622C178.378 56.5582 180.682 57.7462 183.022 57.7462C185.47 57.7462 186.766 56.7382 186.766 55.2622C186.766 53.5342 184.786 52.9582 182.554 52.4542C179.602 51.7702 176.146 50.9782 176.146 47.2342C176.146 44.4622 178.522 42.0862 182.77 42.0862C185.758 42.0862 187.918 43.1662 189.394 44.5702L187.954 46.8382C186.946 45.6142 185.002 44.7142 182.806 44.7142C180.61 44.7142 179.242 45.5782 179.242 46.9822C179.242 48.4942 181.114 48.9982 183.274 49.5022C186.298 50.1862 189.898 51.0142 189.898 55.0102C189.898 57.9982 187.45 60.3383 182.878 60.3383C179.962 60.3383 177.406 59.4382 175.642 57.6382ZM206.378 59.9062L200.582 52.4182L197.954 55.0822V59.9062H194.714V35.8942H197.954V51.3382L206.342 42.5182H210.41L202.922 50.4023L210.482 59.9062H206.378ZM50.976 95.9062V93.4222C49.68 95.1502 47.592 96.3383 45.288 96.3383C40.752 96.3383 37.512 92.9182 37.512 87.2302C37.512 81.6502 40.752 78.0862 45.288 78.0862C47.52 78.0862 49.572 79.1662 50.976 81.0382V71.8942H54.216V95.9062H50.976ZM50.976 90.9382V83.5222C50.076 82.1182 48.132 80.9662 46.152 80.9662C42.912 80.9662 40.896 83.5942 40.896 87.2302C40.896 90.8302 42.912 93.4582 46.152 93.4582C48.132 93.4582 50.076 92.3422 50.976 90.9382ZM59.0445 87.1942C59.0445 82.1542 62.6805 78.0862 67.7565 78.0862C72.9765 78.0862 76.2165 82.1542 76.2165 87.4822V88.2742H62.4645C62.7165 91.2262 64.8765 93.6742 68.3685 93.6742C70.2045 93.6742 72.2205 92.9542 73.5165 91.6222L75.0285 93.7462C73.3005 95.4382 70.8525 96.3383 68.0445 96.3383C62.8605 96.3383 59.0445 92.6662 59.0445 87.1942ZM67.7565 80.7502C64.2645 80.7502 62.6085 83.5582 62.4285 85.9342H73.0485C72.9765 83.6302 71.4285 80.7502 67.7565 80.7502ZM85.777 96.3383C83.041 96.3383 81.637 94.7902 81.637 92.0542V81.3622H78.757V78.5182H81.637V73.7662H84.877V78.5182H88.405V81.3622H84.877V91.3342C84.877 92.5582 85.453 93.4582 86.569 93.4582C87.325 93.4582 88.009 93.1342 88.333 92.7742L89.161 95.2222C88.477 95.8702 87.469 96.3383 85.777 96.3383ZM91.6329 87.1942C91.6329 82.1542 95.2689 78.0862 100.345 78.0862C105.565 78.0862 108.805 82.1542 108.805 87.4822V88.2742H95.0529C95.3049 91.2262 97.4649 93.6742 100.957 93.6742C102.793 93.6742 104.809 92.9542 106.105 91.6222L107.617 93.7462C105.889 95.4382 103.441 96.3383 100.633 96.3383C95.4489 96.3383 91.6329 92.6662 91.6329 87.1942ZM100.345 80.7502C96.8529 80.7502 95.1969 83.5582 95.0169 85.9342H105.637C105.565 83.6302 104.017 80.7502 100.345 80.7502ZM112.497 87.1942C112.497 81.9742 116.097 78.0862 121.353 78.0862C124.629 78.0862 126.609 79.4542 127.869 81.1462L125.709 83.1262C124.665 81.6502 123.261 80.9662 121.497 80.9662C118.077 80.9662 115.881 83.5942 115.881 87.1942C115.881 90.7942 118.077 93.4582 121.497 93.4582C123.261 93.4582 124.665 92.7382 125.709 91.2982L127.869 93.2782C126.609 94.9702 124.629 96.3383 121.353 96.3383C116.097 96.3383 112.497 92.4142 112.497 87.1942ZM136.945 96.3383C134.209 96.3383 132.805 94.7902 132.805 92.0542V81.3622H129.925V78.5182H132.805V73.7662H136.045V78.5182H139.573V81.3622H136.045V91.3342C136.045 92.5582 136.621 93.4582 137.737 93.4582C138.493 93.4582 139.177 93.1342 139.501 92.7742L140.329 95.2222C139.645 95.8702 138.637 96.3383 136.945 96.3383ZM145.465 75.6022C144.349 75.6022 143.377 74.7022 143.377 73.5502C143.377 72.3982 144.349 71.4622 145.465 71.4622C146.617 71.4622 147.553 72.3982 147.553 73.5502C147.553 74.7022 146.617 75.6022 145.465 75.6022ZM143.881 95.9062V78.5182H147.121V95.9062H143.881ZM160.707 96.3383C155.307 96.3383 151.923 92.2342 151.923 87.1942C151.923 82.1902 155.307 78.0862 160.707 78.0862C166.143 78.0862 169.491 82.1902 169.491 87.1942C169.491 92.2342 166.143 96.3383 160.707 96.3383ZM160.707 93.4582C164.199 93.4582 166.107 90.5062 166.107 87.1942C166.107 83.9182 164.199 80.9662 160.707 80.9662C157.251 80.9662 155.307 83.9182 155.307 87.1942C155.307 90.5062 157.251 93.4582 160.707 93.4582ZM186.061 95.9062V84.7822C186.061 81.9022 184.585 80.9662 182.353 80.9662C180.337 80.9662 178.501 82.1902 177.565 83.4862V95.9062H174.325V78.5182H177.565V80.9662C178.717 79.5622 181.021 78.0862 183.721 78.0862C187.393 78.0862 189.301 80.0302 189.301 83.7022V95.9062H186.061Z" fill="black"/>
<path d="M392.5 75.9062C404.926 75.9062 415 65.8327 415 53.4062C415 40.9798 404.926 30.9062 392.5 30.9062C380.074 30.9062 370 40.9798 370 53.4062C370 65.8327 380.074 75.9062 392.5 75.9062Z" stroke="#CD6026" stroke-width="5" stroke-linecap="round" stroke-linejoin="round"/>
<path d="M392.5 44.4062V53.4062" stroke="#CD6026" stroke-width="5" stroke-linecap="round" stroke-linejoin="round"/>
<path d="M392.5 62.4062H392.522" stroke="#CD6026" stroke-width="5" stroke-linecap="round" stroke-linejoin="round"/>
<path d="M37.872 147.906V131.898H48.36V133.674H39.864V138.834H48.192V140.61H39.864V146.13H48.36V147.906H37.872ZM51.4641 147.906V131.898H53.2641V147.906H51.4641ZM57.7427 134.37C57.0947 134.37 56.5427 133.818 56.5427 133.146C56.5427 132.474 57.0947 131.946 57.7427 131.946C58.4147 131.946 58.9667 132.474 58.9667 133.146C58.9667 133.818 58.4147 134.37 57.7427 134.37ZM56.8547 147.906V136.314H58.6547V147.906H56.8547ZM76.2373 147.906V140.034C76.2373 138.57 75.5893 137.634 74.1013 137.634C72.9013 137.634 71.6293 138.498 71.0293 139.41V147.906H69.2293V140.034C69.2293 138.57 68.6053 137.634 67.0933 137.634C65.9173 137.634 64.6693 138.498 64.0453 139.434V147.906H62.2453V136.314H64.0453V137.994C64.5253 137.25 66.0853 136.026 67.7893 136.026C69.5653 136.026 70.5733 136.986 70.9093 138.186C71.5573 137.13 73.1173 136.026 74.7973 136.026C76.9093 136.026 78.0373 137.202 78.0373 139.53V147.906H76.2373ZM82.5161 134.37C81.8681 134.37 81.3161 133.818 81.3161 133.146C81.3161 132.474 81.8681 131.946 82.5161 131.946C83.1881 131.946 83.7401 132.474 83.7401 133.146C83.7401 133.818 83.1881 134.37 82.5161 134.37ZM81.6281 147.906V136.314H83.4281V147.906H81.6281ZM94.8428 147.906V140.322C94.8428 138.282 93.8108 137.634 92.2508 137.634C90.8348 137.634 89.4908 138.498 88.8188 139.434V147.906H87.0188V136.314H88.8188V137.994C89.6348 137.034 91.2188 136.026 92.9468 136.026C95.3708 136.026 96.6428 137.25 96.6428 139.77V147.906H94.8428ZM107.486 147.906V146.586C106.526 147.642 105.206 148.194 103.646 148.194C101.678 148.194 99.5895 146.874 99.5895 144.354C99.5895 141.762 101.678 140.538 103.646 140.538C105.23 140.538 106.55 141.042 107.486 142.122V140.034C107.486 138.474 106.238 137.586 104.558 137.586C103.166 137.586 102.038 138.09 101.006 139.194L100.166 137.946C101.414 136.65 102.902 136.026 104.798 136.026C107.246 136.026 109.286 137.13 109.286 139.938V147.906H107.486ZM107.486 145.458V143.274C106.79 142.314 105.566 141.834 104.294 141.834C102.614 141.834 101.438 142.89 101.438 144.378C101.438 145.842 102.614 146.898 104.294 146.898C105.566 146.898 106.79 146.418 107.486 145.458ZM115.822 148.194C114.118 148.194 113.254 147.21 113.254 145.482V137.898H111.334V136.314H113.254V133.146H115.054V136.314H117.406V137.898H115.054V145.098C115.054 145.962 115.438 146.586 116.23 146.586C116.734 146.586 117.214 146.37 117.454 146.106L117.982 147.45C117.526 147.882 116.878 148.194 115.822 148.194ZM119.276 142.098C119.276 138.738 121.676 136.026 124.988 136.026C128.492 136.026 130.556 138.762 130.556 142.242V142.698H121.172C121.316 144.882 122.852 146.706 125.348 146.706C126.668 146.706 128.012 146.178 128.924 145.242L129.788 146.418C128.636 147.57 127.076 148.194 125.18 148.194C121.748 148.194 119.276 145.722 119.276 142.098ZM124.964 137.514C122.492 137.514 121.268 139.602 121.172 141.378H128.78C128.756 139.65 127.604 137.514 124.964 137.514ZM138.987 142.098C138.987 138.666 141.315 136.026 144.771 136.026C146.883 136.026 148.131 136.89 149.019 138.042L147.819 139.146C147.051 138.09 146.067 137.634 144.867 137.634C142.395 137.634 140.859 139.53 140.859 142.098C140.859 144.666 142.395 146.586 144.867 146.586C146.067 146.586 147.051 146.106 147.819 145.074L149.019 146.178C148.131 147.33 146.883 148.194 144.771 148.194C141.315 148.194 138.987 145.554 138.987 142.098ZM156.606 148.194C153.078 148.194 150.87 145.458 150.87 142.098C150.87 138.738 153.078 136.026 156.606 136.026C160.134 136.026 162.342 138.738 162.342 142.098C162.342 145.458 160.134 148.194 156.606 148.194ZM156.606 146.586C159.078 146.586 160.446 144.474 160.446 142.098C160.446 139.746 159.078 137.634 156.606 137.634C154.134 137.634 152.742 139.746 152.742 142.098C152.742 144.474 154.134 146.586 156.606 146.586ZM164.269 146.37L165.205 145.074C165.973 145.962 167.437 146.73 169.021 146.73C170.797 146.73 171.757 145.938 171.757 144.81C171.757 143.538 170.341 143.13 168.781 142.746C166.813 142.29 164.581 141.762 164.581 139.362C164.581 137.562 166.141 136.026 168.901 136.026C170.869 136.026 172.261 136.77 173.197 137.706L172.357 138.954C171.661 138.114 170.389 137.49 168.901 137.49C167.317 137.49 166.333 138.21 166.333 139.242C166.333 140.37 167.653 140.73 169.165 141.09C171.181 141.546 173.509 142.122 173.509 144.69C173.509 146.634 171.949 148.194 168.949 148.194C167.053 148.194 165.445 147.618 164.269 146.37ZM179.361 148.194C177.657 148.194 176.793 147.21 176.793 145.482V137.898H174.873V136.314H176.793V133.146H178.593V136.314H180.945V137.898H178.593V145.098C178.593 145.962 178.977 146.586 179.769 146.586C180.273 146.586 180.753 146.37 180.993 146.106L181.521 147.45C181.065 147.882 180.417 148.194 179.361 148.194ZM183.488 147.906V131.898H185.288V147.906H183.488ZM188.518 150.81C188.782 150.93 189.214 151.002 189.502 151.002C190.294 151.002 190.822 150.738 191.23 149.778L191.998 148.026L187.15 136.314H189.094L192.958 145.818L196.798 136.314H198.766L192.958 150.258C192.262 151.938 191.086 152.586 189.55 152.61C189.166 152.61 188.566 152.538 188.23 152.442L188.518 150.81ZM206.159 142.098C206.159 138.738 208.559 136.026 211.871 136.026C215.375 136.026 217.439 138.762 217.439 142.242V142.698H208.055C208.199 144.882 209.735 146.706 212.231 146.706C213.551 146.706 214.895 146.178 215.807 145.242L216.671 146.418C215.519 147.57 213.959 148.194 212.063 148.194C208.631 148.194 206.159 145.722 206.159 142.098ZM211.847 137.514C209.375 137.514 208.151 139.602 208.055 141.378H215.663C215.639 139.65 214.487 137.514 211.847 137.514ZM220.355 147.906V136.314H222.155V138.186C223.091 136.962 224.435 136.074 226.019 136.074V137.922C225.803 137.874 225.587 137.85 225.299 137.85C224.195 137.85 222.683 138.762 222.155 139.698V147.906H220.355ZM228.277 147.906V136.314H230.077V138.186C231.013 136.962 232.357 136.074 233.941 136.074V137.922C233.725 137.874 233.509 137.85 233.221 137.85C232.117 137.85 230.605 138.762 230.077 139.698V147.906H228.277ZM241.262 148.194C237.734 148.194 235.526 145.458 235.526 142.098C235.526 138.738 237.734 136.026 241.262 136.026C244.79 136.026 246.998 138.738 246.998 142.098C246.998 145.458 244.79 148.194 241.262 148.194ZM241.262 146.586C243.734 146.586 245.102 144.474 245.102 142.098C245.102 139.746 243.734 137.634 241.262 137.634C238.79 137.634 237.398 139.746 237.398 142.098C237.398 144.474 238.79 146.586 241.262 146.586ZM249.933 147.906V136.314H251.733V138.186C252.669 136.962 254.013 136.074 255.597 136.074V137.922C255.381 137.874 255.165 137.85 254.877 137.85C253.773 137.85 252.261 138.762 251.733 139.698V147.906H249.933ZM256.847 146.37L257.783 145.074C258.551 145.962 260.015 146.73 261.599 146.73C263.375 146.73 264.335 145.938 264.335 144.81C264.335 143.538 262.919 143.13 261.359 142.746C259.391 142.29 257.159 141.762 257.159 139.362C257.159 137.562 258.719 136.026 261.479 136.026C263.447 136.026 264.839 136.77 265.775 137.706L264.935 138.954C264.239 138.114 262.967 137.49 261.479 137.49C259.895 137.49 258.911 138.21 258.911 139.242C258.911 140.37 260.231 140.73 261.743 141.09C263.759 141.546 266.087 142.122 266.087 144.69C266.087 146.634 264.527 148.194 261.527 148.194C259.631 148.194 258.023 147.618 256.847 146.37ZM285.23 147.906L282.206 138.594L279.182 147.906H277.382L273.686 136.314H275.558L278.39 145.554L281.438 136.314H282.974L286.022 145.554L288.854 136.314H290.726L287.03 147.906H285.23ZM293.711 134.37C293.063 134.37 292.511 133.818 292.511 133.146C292.511 132.474 293.063 131.946 293.711 131.946C294.383 131.946 294.935 132.474 294.935 133.146C294.935 133.818 294.383 134.37 293.711 134.37ZM292.823 147.906V136.314H294.623V147.906H292.823ZM301.142 148.194C299.438 148.194 298.574 147.21 298.574 145.482V137.898H296.654V136.314H298.574V133.146H300.374V136.314H302.726V137.898H300.374V145.098C300.374 145.962 300.758 146.586 301.55 146.586C302.054 146.586 302.534 146.37 302.774 146.106L303.302 147.45C302.846 147.882 302.198 148.194 301.142 148.194ZM313.117 147.906V140.274C313.117 138.234 312.061 137.634 310.501 137.634C309.109 137.634 307.765 138.498 307.069 139.434V147.906H305.269V131.898H307.069V137.994C307.885 137.034 309.469 136.026 311.221 136.026C313.645 136.026 314.917 137.202 314.917 139.722V147.906H313.117ZM45.048 182.906V181.586C44.088 182.642 42.768 183.194 41.208 183.194C39.24 183.194 37.152 181.874 37.152 179.354C37.152 176.762 39.24 175.538 41.208 175.538C42.792 175.538 44.112 176.042 45.048 177.122V175.034C45.048 173.474 43.8 172.586 42.12 172.586C40.728 172.586 39.6 173.09 38.568 174.194L37.728 172.946C38.976 171.65 40.464 171.026 42.36 171.026C44.808 171.026 46.848 172.13 46.848 174.938V182.906H45.048ZM45.048 180.458V178.274C44.352 177.314 43.128 176.834 41.856 176.834C40.176 176.834 39 177.89 39 179.378C39 180.842 40.176 181.898 41.856 181.898C43.128 181.898 44.352 181.418 45.048 180.458ZM58.2803 182.906V181.274C57.3923 182.282 55.8803 183.194 54.1523 183.194C51.7283 183.194 50.4563 182.018 50.4563 179.498V171.314H52.2563V178.946C52.2563 180.986 53.2883 181.586 54.8483 181.586C56.2643 181.586 57.6083 180.77 58.2803 179.834V171.314H60.0803V182.906H58.2803ZM66.603 183.194C64.899 183.194 64.035 182.21 64.035 180.482V172.898H62.115V171.314H64.035V168.146H65.835V171.314H68.187V172.898H65.835V180.098C65.835 180.962 66.219 181.586 67.011 181.586C67.515 181.586 67.995 181.37 68.235 181.106L68.763 182.45C68.307 182.882 67.659 183.194 66.603 183.194ZM75.7937 183.194C72.2657 183.194 70.0577 180.458 70.0577 177.098C70.0577 173.738 72.2657 171.026 75.7937 171.026C79.3217 171.026 81.5297 173.738 81.5297 177.098C81.5297 180.458 79.3217 183.194 75.7937 183.194ZM75.7937 181.586C78.2657 181.586 79.6337 179.474 79.6337 177.098C79.6337 174.746 78.2657 172.634 75.7937 172.634C73.3217 172.634 71.9297 174.746 71.9297 177.098C71.9297 179.474 73.3217 181.586 75.7937 181.586ZM98.4561 182.906V175.034C98.4561 173.57 97.8081 172.634 96.3201 172.634C95.1201 172.634 93.8481 173.498 93.2481 174.41V182.906H91.4481V175.034C91.4481 173.57 90.8241 172.634 89.3121 172.634C88.1361 172.634 86.8881 173.498 86.2641 174.434V182.906H84.4641V171.314H86.2641V172.994C86.7441 172.25 88.3041 171.026 90.0081 171.026C91.7841 171.026 92.7921 171.986 93.1281 173.186C93.7761 172.13 95.3361 171.026 97.0161 171.026C99.1281 171.026 100.256 172.202 100.256 174.53V182.906H98.4561ZM111.095 182.906V181.586C110.135 182.642 108.815 183.194 107.255 183.194C105.287 183.194 103.199 181.874 103.199 179.354C103.199 176.762 105.287 175.538 107.255 175.538C108.839 175.538 110.159 176.042 111.095 177.122V175.034C111.095 173.474 109.847 172.586 108.167 172.586C106.775 172.586 105.647 173.09 104.615 174.194L103.775 172.946C105.023 171.65 106.511 171.026 108.407 171.026C110.855 171.026 112.895 172.13 112.895 174.938V182.906H111.095ZM111.095 180.458V178.274C110.399 177.314 109.175 176.834 107.903 176.834C106.223 176.834 105.047 177.89 105.047 179.378C105.047 180.842 106.223 181.898 107.903 181.898C109.175 181.898 110.399 181.418 111.095 180.458ZM119.431 183.194C117.727 183.194 116.863 182.21 116.863 180.482V172.898H114.943V171.314H116.863V168.146H118.663V171.314H121.015V172.898H118.663V180.098C118.663 180.962 119.047 181.586 119.839 181.586C120.343 181.586 120.823 181.37 121.063 181.106L121.591 182.45C121.135 182.882 120.487 183.194 119.431 183.194ZM122.886 177.098C122.886 173.738 125.286 171.026 128.598 171.026C132.102 171.026 134.166 173.762 134.166 177.242V177.698H124.782C124.926 179.882 126.462 181.706 128.958 181.706C130.278 181.706 131.622 181.178 132.534 180.242L133.398 181.418C132.246 182.57 130.686 183.194 128.79 183.194C125.358 183.194 122.886 180.722 122.886 177.098ZM128.574 172.514C126.102 172.514 124.878 174.602 124.782 176.378H132.39C132.366 174.65 131.214 172.514 128.574 172.514ZM145.481 182.906V181.178C144.617 182.354 143.201 183.194 141.569 183.194C138.545 183.194 136.409 180.89 136.409 177.122C136.409 173.426 138.521 171.026 141.569 171.026C143.129 171.026 144.545 171.794 145.481 173.066V166.898H147.281V182.906H145.481ZM145.481 179.762V174.506C144.833 173.498 143.441 172.634 142.001 172.634C139.673 172.634 138.281 174.554 138.281 177.122C138.281 179.69 139.673 181.586 142.001 181.586C143.441 181.586 144.833 180.77 145.481 179.762ZM158.873 187.322H157.073V171.314H158.873V173.042C159.713 171.866 161.153 171.026 162.785 171.026C165.833 171.026 167.945 173.33 167.945 177.098C167.945 180.842 165.833 183.194 162.785 183.194C161.201 183.194 159.809 182.45 158.873 181.154V187.322ZM166.049 177.098C166.049 174.53 164.657 172.634 162.329 172.634C160.913 172.634 159.497 173.474 158.873 174.482V179.714C159.497 180.722 160.913 181.586 162.329 181.586C164.657 181.586 166.049 179.666 166.049 177.098ZM170.183 177.098C170.183 173.738 172.583 171.026 175.895 171.026C179.399 171.026 181.463 173.762 181.463 177.242V177.698H172.079C172.223 179.882 173.759 181.706 176.255 181.706C177.575 181.706 178.919 181.178 179.831 180.242L180.695 181.418C179.543 182.57 177.983 183.194 176.087 183.194C172.655 183.194 170.183 180.722 170.183 177.098ZM175.871 172.514C173.399 172.514 172.175 174.602 172.079 176.378H179.687C179.663 174.65 178.511 172.514 175.871 172.514ZM184.378 182.906V171.314H186.178V173.186C187.114 171.962 188.458 171.074 190.042 171.074V172.922C189.826 172.874 189.61 172.85 189.322 172.85C188.218 172.85 186.706 173.762 186.178 174.698V182.906H184.378ZM206.292 182.906V175.034C206.292 173.57 205.644 172.634 204.156 172.634C202.956 172.634 201.684 173.498 201.084 174.41V182.906H199.284V175.034C199.284 173.57 198.66 172.634 197.148 172.634C195.972 172.634 194.724 173.498 194.1 174.434V182.906H192.3V171.314H194.1V172.994C194.58 172.25 196.14 171.026 197.844 171.026C199.62 171.026 200.628 171.986 200.964 173.186C201.612 172.13 203.172 171.026 204.852 171.026C206.964 171.026 208.092 172.202 208.092 174.53V182.906H206.292ZM212.571 169.37C211.923 169.37 211.371 168.818 211.371 168.146C211.371 167.474 211.923 166.946 212.571 166.946C213.243 166.946 213.795 167.474 213.795 168.146C213.795 168.818 213.243 169.37 212.571 169.37ZM211.683 182.906V171.314H213.483V182.906H211.683ZM220.001 183.194C218.297 183.194 217.433 182.21 217.433 180.482V172.898H215.513V171.314H217.433V168.146H219.233V171.314H221.585V172.898H219.233V180.098C219.233 180.962 219.617 181.586 220.409 181.586C220.913 181.586 221.393 181.37 221.633 181.106L222.161 182.45C221.705 182.882 221.057 183.194 220.001 183.194ZM229.644 177.098C229.644 173.666 231.972 171.026 235.428 171.026C237.54 171.026 238.788 171.89 239.676 173.042L238.476 174.146C237.708 173.09 236.724 172.634 235.524 172.634C233.052 172.634 231.516 174.53 231.516 177.098C231.516 179.666 233.052 181.586 235.524 181.586C236.724 181.586 237.708 181.106 238.476 180.074L239.676 181.178C238.788 182.33 237.54 183.194 235.428 183.194C231.972 183.194 229.644 180.554 229.644 177.098ZM250.046 182.906V175.274C250.046 173.234 248.99 172.634 247.43 172.634C246.038 172.634 244.694 173.498 243.998 174.434V182.906H242.198V166.898H243.998V172.994C244.814 172.034 246.398 171.026 248.15 171.026C250.574 171.026 251.846 172.202 251.846 174.722V182.906H250.046ZM254.769 177.098C254.769 173.738 257.169 171.026 260.481 171.026C263.985 171.026 266.049 173.762 266.049 177.242V177.698H256.665C256.809 179.882 258.345 181.706 260.841 181.706C262.161 181.706 263.505 181.178 264.417 180.242L265.281 181.418C264.129 182.57 262.569 183.194 260.673 183.194C257.241 183.194 254.769 180.722 254.769 177.098ZM260.457 172.514C257.985 172.514 256.761 174.602 256.665 176.378H264.273C264.249 174.65 263.097 172.514 260.457 172.514ZM268.292 177.098C268.292 173.666 270.62 171.026 274.076 171.026C276.188 171.026 277.436 171.89 278.324 173.042L277.124 174.146C276.356 173.09 275.372 172.634 274.172 172.634C271.7 172.634 270.164 174.53 270.164 177.098C270.164 179.666 271.7 181.586 274.172 181.586C275.372 181.586 276.356 181.106 277.124 180.074L278.324 181.178C277.436 182.33 276.188 183.194 274.076 183.194C270.62 183.194 268.292 180.554 268.292 177.098ZM288.743 182.906L284.567 177.698L282.647 179.594V182.906H280.847V166.898H282.647V177.482L288.743 171.314H291.023L285.887 176.57L291.047 182.906H288.743ZM292.026 181.37L292.962 180.074C293.73 180.962 295.194 181.73 296.778 181.73C298.554 181.73 299.514 180.938 299.514 179.81C299.514 178.538 298.098 178.13 296.538 177.746C294.57 177.29 292.338 176.762 292.338 174.362C292.338 172.562 293.898 171.026 296.658 171.026C298.626 171.026 300.018 171.77 300.954 172.706L300.114 173.954C299.418 173.114 298.146 172.49 296.658 172.49C295.074 172.49 294.09 173.21 294.09 174.242C294.09 175.37 295.41 175.73 296.922 176.09C298.938 176.546 301.266 177.122 301.266 179.69C301.266 181.634 299.706 183.194 296.706 183.194C294.81 183.194 293.202 182.618 292.026 181.37ZM303.831 181.826C303.831 181.106 304.431 180.506 305.151 180.506C305.871 180.506 306.471 181.106 306.471 181.826C306.471 182.546 305.871 183.146 305.151 183.146C304.431 183.146 303.831 182.546 303.831 181.826Z" fill="black"/>
</g>
<defs>
<filter id="filter0_d_214_190" x="0.4" y="0.30625" width="449.2" height="232.2" filterUnits="userSpaceOnUse" color-interpolation-filters="sRGB">
<feFlood flood-opacity="0" result="BackgroundImageFix"/>
<feColorMatrix in="SourceAlpha" type="matrix" values="0 0 0 0 0 0 0 0 0 0 0 0 0 0 0 0 0 0 127 0" result="hardAlpha"/>
<feOffset dy="4"/>
<feGaussianBlur stdDeviation="4.8"/>
<feComposite in2="hardAlpha" operator="out"/>
<feColorMatrix type="matrix" values="0 0 0 0 0 0 0 0 0 0 0 0 0 0 0 0 0 0 0.1 0"/>
<feBlend mode="normal" in2="BackgroundImageFix" result="effect1_dropShadow_214_190"/>
<feBlend mode="normal" in="SourceGraphic" in2="effect1_dropShadow_214_190" result="shape"/>
</filter>
</defs>
</svg>
