<svg width="450" height="233" viewBox="0 0 450 233" fill="none" xmlns="http://www.w3.org/2000/svg">
<g filter="url(#filter0_d_216_2)">
<rect x="10" y="6" width="430" height="213" rx="10" fill="white" shape-rendering="crispEdges"/>
<rect x="10.5" y="6.5" width="429" height="212" rx="9.5" stroke="#C1C1C1" shape-rendering="crispEdges"/>
<path d="M38.664 60V35.988H48.78C53.712 35.988 56.448 39.372 56.448 43.368C56.448 47.364 53.676 50.748 48.78 50.748H42.264V60H38.664ZM52.74 43.368C52.74 40.848 50.904 39.156 48.312 39.156H42.264V47.58H48.312C50.904 47.58 52.74 45.888 52.74 43.368ZM59.2203 51.288C59.2203 46.248 62.8563 42.18 67.9323 42.18C73.1523 42.18 76.3923 46.248 76.3923 51.576V52.368H62.6403C62.8923 55.32 65.0523 57.768 68.5443 57.768C70.3803 57.768 72.3963 57.048 73.6923 55.716L75.2043 57.84C73.4763 59.532 71.0283 60.432 68.2203 60.432C63.0363 60.432 59.2203 56.76 59.2203 51.288ZM67.9323 44.844C64.4403 44.844 62.7843 47.652 62.6043 50.028H73.2243C73.1523 47.724 71.6043 44.844 67.9323 44.844ZM81.1648 60V42.612H84.4048V45.276C85.7368 43.548 87.7888 42.216 90.0928 42.216V45.492C89.7688 45.42 89.4088 45.384 88.9768 45.384C87.3568 45.384 85.1608 46.608 84.4048 47.904V60H81.1648ZM115.181 60V48.408C115.181 46.392 114.281 45.06 112.157 45.06C110.393 45.06 108.665 46.284 107.837 47.544V60H104.597V48.408C104.597 46.392 103.733 45.06 101.537 45.06C99.8449 45.06 98.1529 46.32 97.2889 47.58V60H94.0489V42.612H97.2889V45.06C98.0089 43.98 100.313 42.18 102.905 42.18C105.533 42.18 107.081 43.548 107.621 45.42C108.629 43.8 110.933 42.18 113.489 42.18C116.693 42.18 118.421 43.944 118.421 47.436V60H115.181ZM125.884 39.696C124.768 39.696 123.796 38.796 123.796 37.644C123.796 36.492 124.768 35.556 125.884 35.556C127.036 35.556 127.972 36.492 127.972 37.644C127.972 38.796 127.036 39.696 125.884 39.696ZM124.3 60V42.612H127.54V60H124.3ZM138.21 60.432C135.474 60.432 134.07 58.884 134.07 56.148V45.456H131.19V42.612H134.07V37.86H137.31V42.612H140.838V45.456H137.31V55.428C137.31 56.652 137.886 57.552 139.002 57.552C139.758 57.552 140.442 57.228 140.766 56.868L141.594 59.316C140.91 59.964 139.902 60.432 138.21 60.432ZM155.148 60V42.612H158.388V45.276C159.72 43.548 161.772 42.216 164.076 42.216V45.492C163.752 45.42 163.392 45.384 162.96 45.384C161.34 45.384 159.144 46.608 158.388 47.904V60H155.148ZM169.616 39.696C168.5 39.696 167.528 38.796 167.528 37.644C167.528 36.492 168.5 35.556 169.616 35.556C170.768 35.556 171.704 36.492 171.704 37.644C171.704 38.796 170.768 39.696 169.616 39.696ZM168.032 60V42.612H171.272V60H168.032ZM175.642 57.732L177.19 55.356C178.378 56.652 180.682 57.84 183.022 57.84C185.47 57.84 186.766 56.832 186.766 55.356C186.766 53.628 184.786 53.052 182.554 52.548C179.602 51.864 176.146 51.072 176.146 47.328C176.146 44.556 178.522 42.18 182.77 42.18C185.758 42.18 187.918 43.26 189.394 44.664L187.954 46.932C186.946 45.708 185.002 44.808 182.806 44.808C180.61 44.808 179.242 45.672 179.242 47.076C179.242 48.588 181.114 49.092 183.274 49.596C186.298 50.28 189.898 51.108 189.898 55.104C189.898 58.092 187.45 60.432 182.878 60.432C179.962 60.432 177.406 59.532 175.642 57.732ZM206.378 60L200.582 52.512L197.954 55.176V60H194.714V35.988H197.954V51.432L206.342 42.612H210.41L202.922 50.496L210.482 60H206.378ZM50.976 96V93.516C49.68 95.244 47.592 96.432 45.288 96.432C40.752 96.432 37.512 93.012 37.512 87.324C37.512 81.744 40.752 78.18 45.288 78.18C47.52 78.18 49.572 79.26 50.976 81.132V71.988H54.216V96H50.976ZM50.976 91.032V83.616C50.076 82.212 48.132 81.06 46.152 81.06C42.912 81.06 40.896 83.688 40.896 87.324C40.896 90.924 42.912 93.552 46.152 93.552C48.132 93.552 50.076 92.436 50.976 91.032ZM59.0445 87.288C59.0445 82.248 62.6805 78.18 67.7565 78.18C72.9765 78.18 76.2165 82.248 76.2165 87.576V88.368H62.4645C62.7165 91.32 64.8765 93.768 68.3685 93.768C70.2045 93.768 72.2205 93.048 73.5165 91.716L75.0285 93.84C73.3005 95.532 70.8525 96.432 68.0445 96.432C62.8605 96.432 59.0445 92.76 59.0445 87.288ZM67.7565 80.844C64.2645 80.844 62.6085 83.652 62.4285 86.028H73.0485C72.9765 83.724 71.4285 80.844 67.7565 80.844ZM85.777 96.432C83.041 96.432 81.637 94.884 81.637 92.148V81.456H78.757V78.612H81.637V73.86H84.877V78.612H88.405V81.456H84.877V91.428C84.877 92.652 85.453 93.552 86.569 93.552C87.325 93.552 88.009 93.228 88.333 92.868L89.161 95.316C88.477 95.964 87.469 96.432 85.777 96.432ZM91.6329 87.288C91.6329 82.248 95.2689 78.18 100.345 78.18C105.565 78.18 108.805 82.248 108.805 87.576V88.368H95.0529C95.3049 91.32 97.4649 93.768 100.957 93.768C102.793 93.768 104.809 93.048 106.105 91.716L107.617 93.84C105.889 95.532 103.441 96.432 100.633 96.432C95.4489 96.432 91.6329 92.76 91.6329 87.288ZM100.345 80.844C96.8529 80.844 95.1969 83.652 95.0169 86.028H105.637C105.565 83.724 104.017 80.844 100.345 80.844ZM112.497 87.288C112.497 82.068 116.097 78.18 121.353 78.18C124.629 78.18 126.609 79.548 127.869 81.24L125.709 83.22C124.665 81.744 123.261 81.06 121.497 81.06C118.077 81.06 115.881 83.688 115.881 87.288C115.881 90.888 118.077 93.552 121.497 93.552C123.261 93.552 124.665 92.832 125.709 91.392L127.869 93.372C126.609 95.064 124.629 96.432 121.353 96.432C116.097 96.432 112.497 92.508 112.497 87.288ZM136.945 96.432C134.209 96.432 132.805 94.884 132.805 92.148V81.456H129.925V78.612H132.805V73.86H136.045V78.612H139.573V81.456H136.045V91.428C136.045 92.652 136.621 93.552 137.737 93.552C138.493 93.552 139.177 93.228 139.501 92.868L140.329 95.316C139.645 95.964 138.637 96.432 136.945 96.432ZM145.465 75.696C144.349 75.696 143.377 74.796 143.377 73.644C143.377 72.492 144.349 71.556 145.465 71.556C146.617 71.556 147.553 72.492 147.553 73.644C147.553 74.796 146.617 75.696 145.465 75.696ZM143.881 96V78.612H147.121V96H143.881ZM160.707 96.432C155.307 96.432 151.923 92.328 151.923 87.288C151.923 82.284 155.307 78.18 160.707 78.18C166.143 78.18 169.491 82.284 169.491 87.288C169.491 92.328 166.143 96.432 160.707 96.432ZM160.707 93.552C164.199 93.552 166.107 90.6 166.107 87.288C166.107 84.012 164.199 81.06 160.707 81.06C157.251 81.06 155.307 84.012 155.307 87.288C155.307 90.6 157.251 93.552 160.707 93.552ZM186.061 96V84.876C186.061 81.996 184.585 81.06 182.353 81.06C180.337 81.06 178.501 82.284 177.565 83.58V96H174.325V78.612H177.565V81.06C178.717 79.656 181.021 78.18 183.721 78.18C187.393 78.18 189.301 80.124 189.301 83.796V96H186.061Z" fill="black"/>
<path d="M392.5 76C404.926 76 415 65.9264 415 53.5C415 41.0736 404.926 31 392.5 31C380.074 31 370 41.0736 370 53.5C370 65.9264 380.074 76 392.5 76Z" stroke="#0F2251" stroke-width="5" stroke-linecap="round" stroke-linejoin="round"/>
<path d="M392.5 44.4999V53.4999" stroke="#0F2251" stroke-width="5" stroke-linecap="round" stroke-linejoin="round"/>
<path d="M392.5 62.5001H392.522" stroke="#0F2251" stroke-width="5" stroke-linecap="round" stroke-linejoin="round"/>
<path d="M37.872 148V131.992H48.36V133.768H39.864V138.928H48.192V140.704H39.864V146.224H48.36V148H37.872ZM51.4641 148V131.992H53.2641V148H51.4641ZM57.7427 134.464C57.0947 134.464 56.5427 133.912 56.5427 133.24C56.5427 132.568 57.0947 132.04 57.7427 132.04C58.4147 132.04 58.9667 132.568 58.9667 133.24C58.9667 133.912 58.4147 134.464 57.7427 134.464ZM56.8547 148V136.408H58.6547V148H56.8547ZM76.2373 148V140.128C76.2373 138.664 75.5893 137.728 74.1013 137.728C72.9013 137.728 71.6293 138.592 71.0293 139.504V148H69.2293V140.128C69.2293 138.664 68.6053 137.728 67.0933 137.728C65.9173 137.728 64.6693 138.592 64.0453 139.528V148H62.2453V136.408H64.0453V138.088C64.5253 137.344 66.0853 136.12 67.7893 136.12C69.5653 136.12 70.5733 137.08 70.9093 138.28C71.5573 137.224 73.1173 136.12 74.7973 136.12C76.9093 136.12 78.0373 137.296 78.0373 139.624V148H76.2373ZM82.5161 134.464C81.8681 134.464 81.3161 133.912 81.3161 133.24C81.3161 132.568 81.8681 132.04 82.5161 132.04C83.1881 132.04 83.7401 132.568 83.7401 133.24C83.7401 133.912 83.1881 134.464 82.5161 134.464ZM81.6281 148V136.408H83.4281V148H81.6281ZM94.8428 148V140.416C94.8428 138.376 93.8108 137.728 92.2508 137.728C90.8348 137.728 89.4908 138.592 88.8188 139.528V148H87.0188V136.408H88.8188V138.088C89.6348 137.128 91.2188 136.12 92.9468 136.12C95.3708 136.12 96.6428 137.344 96.6428 139.864V148H94.8428ZM107.486 148V146.68C106.526 147.736 105.206 148.288 103.646 148.288C101.678 148.288 99.5895 146.968 99.5895 144.448C99.5895 141.856 101.678 140.632 103.646 140.632C105.23 140.632 106.55 141.136 107.486 142.216V140.128C107.486 138.568 106.238 137.68 104.558 137.68C103.166 137.68 102.038 138.184 101.006 139.288L100.166 138.04C101.414 136.744 102.902 136.12 104.798 136.12C107.246 136.12 109.286 137.224 109.286 140.032V148H107.486ZM107.486 145.552V143.368C106.79 142.408 105.566 141.928 104.294 141.928C102.614 141.928 101.438 142.984 101.438 144.472C101.438 145.936 102.614 146.992 104.294 146.992C105.566 146.992 106.79 146.512 107.486 145.552ZM115.822 148.288C114.118 148.288 113.254 147.304 113.254 145.576V137.992H111.334V136.408H113.254V133.24H115.054V136.408H117.406V137.992H115.054V145.192C115.054 146.056 115.438 146.68 116.23 146.68C116.734 146.68 117.214 146.464 117.454 146.2L117.982 147.544C117.526 147.976 116.878 148.288 115.822 148.288ZM119.276 142.192C119.276 138.832 121.676 136.12 124.988 136.12C128.492 136.12 130.556 138.856 130.556 142.336V142.792H121.172C121.316 144.976 122.852 146.8 125.348 146.8C126.668 146.8 128.012 146.272 128.924 145.336L129.788 146.512C128.636 147.664 127.076 148.288 125.18 148.288C121.748 148.288 119.276 145.816 119.276 142.192ZM124.964 137.608C122.492 137.608 121.268 139.696 121.172 141.472H128.78C128.756 139.744 127.604 137.608 124.964 137.608ZM138.987 142.192C138.987 138.76 141.315 136.12 144.771 136.12C146.883 136.12 148.131 136.984 149.019 138.136L147.819 139.24C147.051 138.184 146.067 137.728 144.867 137.728C142.395 137.728 140.859 139.624 140.859 142.192C140.859 144.76 142.395 146.68 144.867 146.68C146.067 146.68 147.051 146.2 147.819 145.168L149.019 146.272C148.131 147.424 146.883 148.288 144.771 148.288C141.315 148.288 138.987 145.648 138.987 142.192ZM156.606 148.288C153.078 148.288 150.87 145.552 150.87 142.192C150.87 138.832 153.078 136.12 156.606 136.12C160.134 136.12 162.342 138.832 162.342 142.192C162.342 145.552 160.134 148.288 156.606 148.288ZM156.606 146.68C159.078 146.68 160.446 144.568 160.446 142.192C160.446 139.84 159.078 137.728 156.606 137.728C154.134 137.728 152.742 139.84 152.742 142.192C152.742 144.568 154.134 146.68 156.606 146.68ZM164.269 146.464L165.205 145.168C165.973 146.056 167.437 146.824 169.021 146.824C170.797 146.824 171.757 146.032 171.757 144.904C171.757 143.632 170.341 143.224 168.781 142.84C166.813 142.384 164.581 141.856 164.581 139.456C164.581 137.656 166.141 136.12 168.901 136.12C170.869 136.12 172.261 136.864 173.197 137.8L172.357 139.048C171.661 138.208 170.389 137.584 168.901 137.584C167.317 137.584 166.333 138.304 166.333 139.336C166.333 140.464 167.653 140.824 169.165 141.184C171.181 141.64 173.509 142.216 173.509 144.784C173.509 146.728 171.949 148.288 168.949 148.288C167.053 148.288 165.445 147.712 164.269 146.464ZM179.361 148.288C177.657 148.288 176.793 147.304 176.793 145.576V137.992H174.873V136.408H176.793V133.24H178.593V136.408H180.945V137.992H178.593V145.192C178.593 146.056 178.977 146.68 179.769 146.68C180.273 146.68 180.753 146.464 180.993 146.2L181.521 147.544C181.065 147.976 180.417 148.288 179.361 148.288ZM183.488 148V131.992H185.288V148H183.488ZM188.518 150.904C188.782 151.024 189.214 151.096 189.502 151.096C190.294 151.096 190.822 150.832 191.23 149.872L191.998 148.12L187.15 136.408H189.094L192.958 145.912L196.798 136.408H198.766L192.958 150.352C192.262 152.032 191.086 152.68 189.55 152.704C189.166 152.704 188.566 152.632 188.23 152.536L188.518 150.904ZM206.159 142.192C206.159 138.832 208.559 136.12 211.871 136.12C215.375 136.12 217.439 138.856 217.439 142.336V142.792H208.055C208.199 144.976 209.735 146.8 212.231 146.8C213.551 146.8 214.895 146.272 215.807 145.336L216.671 146.512C215.519 147.664 213.959 148.288 212.063 148.288C208.631 148.288 206.159 145.816 206.159 142.192ZM211.847 137.608C209.375 137.608 208.151 139.696 208.055 141.472H215.663C215.639 139.744 214.487 137.608 211.847 137.608ZM220.355 148V136.408H222.155V138.28C223.091 137.056 224.435 136.168 226.019 136.168V138.016C225.803 137.968 225.587 137.944 225.299 137.944C224.195 137.944 222.683 138.856 222.155 139.792V148H220.355ZM228.277 148V136.408H230.077V138.28C231.013 137.056 232.357 136.168 233.941 136.168V138.016C233.725 137.968 233.509 137.944 233.221 137.944C232.117 137.944 230.605 138.856 230.077 139.792V148H228.277ZM241.262 148.288C237.734 148.288 235.526 145.552 235.526 142.192C235.526 138.832 237.734 136.12 241.262 136.12C244.79 136.12 246.998 138.832 246.998 142.192C246.998 145.552 244.79 148.288 241.262 148.288ZM241.262 146.68C243.734 146.68 245.102 144.568 245.102 142.192C245.102 139.84 243.734 137.728 241.262 137.728C238.79 137.728 237.398 139.84 237.398 142.192C237.398 144.568 238.79 146.68 241.262 146.68ZM249.933 148V136.408H251.733V138.28C252.669 137.056 254.013 136.168 255.597 136.168V138.016C255.381 137.968 255.165 137.944 254.877 137.944C253.773 137.944 252.261 138.856 251.733 139.792V148H249.933ZM256.847 146.464L257.783 145.168C258.551 146.056 260.015 146.824 261.599 146.824C263.375 146.824 264.335 146.032 264.335 144.904C264.335 143.632 262.919 143.224 261.359 142.84C259.391 142.384 257.159 141.856 257.159 139.456C257.159 137.656 258.719 136.12 261.479 136.12C263.447 136.12 264.839 136.864 265.775 137.8L264.935 139.048C264.239 138.208 262.967 137.584 261.479 137.584C259.895 137.584 258.911 138.304 258.911 139.336C258.911 140.464 260.231 140.824 261.743 141.184C263.759 141.64 266.087 142.216 266.087 144.784C266.087 146.728 264.527 148.288 261.527 148.288C259.631 148.288 258.023 147.712 256.847 146.464ZM285.23 148L282.206 138.688L279.182 148H277.382L273.686 136.408H275.558L278.39 145.648L281.438 136.408H282.974L286.022 145.648L288.854 136.408H290.726L287.03 148H285.23ZM293.711 134.464C293.063 134.464 292.511 133.912 292.511 133.24C292.511 132.568 293.063 132.04 293.711 132.04C294.383 132.04 294.935 132.568 294.935 133.24C294.935 133.912 294.383 134.464 293.711 134.464ZM292.823 148V136.408H294.623V148H292.823ZM301.142 148.288C299.438 148.288 298.574 147.304 298.574 145.576V137.992H296.654V136.408H298.574V133.24H300.374V136.408H302.726V137.992H300.374V145.192C300.374 146.056 300.758 146.68 301.55 146.68C302.054 146.68 302.534 146.464 302.774 146.2L303.302 147.544C302.846 147.976 302.198 148.288 301.142 148.288ZM313.117 148V140.368C313.117 138.328 312.061 137.728 310.501 137.728C309.109 137.728 307.765 138.592 307.069 139.528V148H305.269V131.992H307.069V138.088C307.885 137.128 309.469 136.12 311.221 136.12C313.645 136.12 314.917 137.296 314.917 139.816V148H313.117ZM45.048 183V181.68C44.088 182.736 42.768 183.288 41.208 183.288C39.24 183.288 37.152 181.968 37.152 179.448C37.152 176.856 39.24 175.632 41.208 175.632C42.792 175.632 44.112 176.136 45.048 177.216V175.128C45.048 173.568 43.8 172.68 42.12 172.68C40.728 172.68 39.6 173.184 38.568 174.288L37.728 173.04C38.976 171.744 40.464 171.12 42.36 171.12C44.808 171.12 46.848 172.224 46.848 175.032V183H45.048ZM45.048 180.552V178.368C44.352 177.408 43.128 176.928 41.856 176.928C40.176 176.928 39 177.984 39 179.472C39 180.936 40.176 181.992 41.856 181.992C43.128 181.992 44.352 181.512 45.048 180.552ZM58.2803 183V181.368C57.3923 182.376 55.8803 183.288 54.1523 183.288C51.7283 183.288 50.4563 182.112 50.4563 179.592V171.408H52.2563V179.04C52.2563 181.08 53.2883 181.68 54.8483 181.68C56.2643 181.68 57.6083 180.864 58.2803 179.928V171.408H60.0803V183H58.2803ZM66.603 183.288C64.899 183.288 64.035 182.304 64.035 180.576V172.992H62.115V171.408H64.035V168.24H65.835V171.408H68.187V172.992H65.835V180.192C65.835 181.056 66.219 181.68 67.011 181.68C67.515 181.68 67.995 181.464 68.235 181.2L68.763 182.544C68.307 182.976 67.659 183.288 66.603 183.288ZM75.7937 183.288C72.2657 183.288 70.0577 180.552 70.0577 177.192C70.0577 173.832 72.2657 171.12 75.7937 171.12C79.3217 171.12 81.5297 173.832 81.5297 177.192C81.5297 180.552 79.3217 183.288 75.7937 183.288ZM75.7937 181.68C78.2657 181.68 79.6337 179.568 79.6337 177.192C79.6337 174.84 78.2657 172.728 75.7937 172.728C73.3217 172.728 71.9297 174.84 71.9297 177.192C71.9297 179.568 73.3217 181.68 75.7937 181.68ZM98.4561 183V175.128C98.4561 173.664 97.8081 172.728 96.3201 172.728C95.1201 172.728 93.8481 173.592 93.2481 174.504V183H91.4481V175.128C91.4481 173.664 90.8241 172.728 89.3121 172.728C88.1361 172.728 86.8881 173.592 86.2641 174.528V183H84.4641V171.408H86.2641V173.088C86.7441 172.344 88.3041 171.12 90.0081 171.12C91.7841 171.12 92.7921 172.08 93.1281 173.28C93.7761 172.224 95.3361 171.12 97.0161 171.12C99.1281 171.12 100.256 172.296 100.256 174.624V183H98.4561ZM111.095 183V181.68C110.135 182.736 108.815 183.288 107.255 183.288C105.287 183.288 103.199 181.968 103.199 179.448C103.199 176.856 105.287 175.632 107.255 175.632C108.839 175.632 110.159 176.136 111.095 177.216V175.128C111.095 173.568 109.847 172.68 108.167 172.68C106.775 172.68 105.647 173.184 104.615 174.288L103.775 173.04C105.023 171.744 106.511 171.12 108.407 171.12C110.855 171.12 112.895 172.224 112.895 175.032V183H111.095ZM111.095 180.552V178.368C110.399 177.408 109.175 176.928 107.903 176.928C106.223 176.928 105.047 177.984 105.047 179.472C105.047 180.936 106.223 181.992 107.903 181.992C109.175 181.992 110.399 181.512 111.095 180.552ZM119.431 183.288C117.727 183.288 116.863 182.304 116.863 180.576V172.992H114.943V171.408H116.863V168.24H118.663V171.408H121.015V172.992H118.663V180.192C118.663 181.056 119.047 181.68 119.839 181.68C120.343 181.68 120.823 181.464 121.063 181.2L121.591 182.544C121.135 182.976 120.487 183.288 119.431 183.288ZM122.886 177.192C122.886 173.832 125.286 171.12 128.598 171.12C132.102 171.12 134.166 173.856 134.166 177.336V177.792H124.782C124.926 179.976 126.462 181.8 128.958 181.8C130.278 181.8 131.622 181.272 132.534 180.336L133.398 181.512C132.246 182.664 130.686 183.288 128.79 183.288C125.358 183.288 122.886 180.816 122.886 177.192ZM128.574 172.608C126.102 172.608 124.878 174.696 124.782 176.472H132.39C132.366 174.744 131.214 172.608 128.574 172.608ZM145.481 183V181.272C144.617 182.448 143.201 183.288 141.569 183.288C138.545 183.288 136.409 180.984 136.409 177.216C136.409 173.52 138.521 171.12 141.569 171.12C143.129 171.12 144.545 171.888 145.481 173.16V166.992H147.281V183H145.481ZM145.481 179.856V174.6C144.833 173.592 143.441 172.728 142.001 172.728C139.673 172.728 138.281 174.648 138.281 177.216C138.281 179.784 139.673 181.68 142.001 181.68C143.441 181.68 144.833 180.864 145.481 179.856ZM158.873 187.416H157.073V171.408H158.873V173.136C159.713 171.96 161.153 171.12 162.785 171.12C165.833 171.12 167.945 173.424 167.945 177.192C167.945 180.936 165.833 183.288 162.785 183.288C161.201 183.288 159.809 182.544 158.873 181.248V187.416ZM166.049 177.192C166.049 174.624 164.657 172.728 162.329 172.728C160.913 172.728 159.497 173.568 158.873 174.576V179.808C159.497 180.816 160.913 181.68 162.329 181.68C164.657 181.68 166.049 179.76 166.049 177.192ZM170.183 177.192C170.183 173.832 172.583 171.12 175.895 171.12C179.399 171.12 181.463 173.856 181.463 177.336V177.792H172.079C172.223 179.976 173.759 181.8 176.255 181.8C177.575 181.8 178.919 181.272 179.831 180.336L180.695 181.512C179.543 182.664 177.983 183.288 176.087 183.288C172.655 183.288 170.183 180.816 170.183 177.192ZM175.871 172.608C173.399 172.608 172.175 174.696 172.079 176.472H179.687C179.663 174.744 178.511 172.608 175.871 172.608ZM184.378 183V171.408H186.178V173.28C187.114 172.056 188.458 171.168 190.042 171.168V173.016C189.826 172.968 189.61 172.944 189.322 172.944C188.218 172.944 186.706 173.856 186.178 174.792V183H184.378ZM206.292 183V175.128C206.292 173.664 205.644 172.728 204.156 172.728C202.956 172.728 201.684 173.592 201.084 174.504V183H199.284V175.128C199.284 173.664 198.66 172.728 197.148 172.728C195.972 172.728 194.724 173.592 194.1 174.528V183H192.3V171.408H194.1V173.088C194.58 172.344 196.14 171.12 197.844 171.12C199.62 171.12 200.628 172.08 200.964 173.28C201.612 172.224 203.172 171.12 204.852 171.12C206.964 171.12 208.092 172.296 208.092 174.624V183H206.292ZM212.571 169.464C211.923 169.464 211.371 168.912 211.371 168.24C211.371 167.568 211.923 167.04 212.571 167.04C213.243 167.04 213.795 167.568 213.795 168.24C213.795 168.912 213.243 169.464 212.571 169.464ZM211.683 183V171.408H213.483V183H211.683ZM220.001 183.288C218.297 183.288 217.433 182.304 217.433 180.576V172.992H215.513V171.408H217.433V168.24H219.233V171.408H221.585V172.992H219.233V180.192C219.233 181.056 219.617 181.68 220.409 181.68C220.913 181.68 221.393 181.464 221.633 181.2L222.161 182.544C221.705 182.976 221.057 183.288 220.001 183.288ZM229.644 177.192C229.644 173.76 231.972 171.12 235.428 171.12C237.54 171.12 238.788 171.984 239.676 173.136L238.476 174.24C237.708 173.184 236.724 172.728 235.524 172.728C233.052 172.728 231.516 174.624 231.516 177.192C231.516 179.76 233.052 181.68 235.524 181.68C236.724 181.68 237.708 181.2 238.476 180.168L239.676 181.272C238.788 182.424 237.54 183.288 235.428 183.288C231.972 183.288 229.644 180.648 229.644 177.192ZM250.046 183V175.368C250.046 173.328 248.99 172.728 247.43 172.728C246.038 172.728 244.694 173.592 243.998 174.528V183H242.198V166.992H243.998V173.088C244.814 172.128 246.398 171.12 248.15 171.12C250.574 171.12 251.846 172.296 251.846 174.816V183H250.046ZM254.769 177.192C254.769 173.832 257.169 171.12 260.481 171.12C263.985 171.12 266.049 173.856 266.049 177.336V177.792H256.665C256.809 179.976 258.345 181.8 260.841 181.8C262.161 181.8 263.505 181.272 264.417 180.336L265.281 181.512C264.129 182.664 262.569 183.288 260.673 183.288C257.241 183.288 254.769 180.816 254.769 177.192ZM260.457 172.608C257.985 172.608 256.761 174.696 256.665 176.472H264.273C264.249 174.744 263.097 172.608 260.457 172.608ZM268.292 177.192C268.292 173.76 270.62 171.12 274.076 171.12C276.188 171.12 277.436 171.984 278.324 173.136L277.124 174.24C276.356 173.184 275.372 172.728 274.172 172.728C271.7 172.728 270.164 174.624 270.164 177.192C270.164 179.76 271.7 181.68 274.172 181.68C275.372 181.68 276.356 181.2 277.124 180.168L278.324 181.272C277.436 182.424 276.188 183.288 274.076 183.288C270.62 183.288 268.292 180.648 268.292 177.192ZM288.743 183L284.567 177.792L282.647 179.688V183H280.847V166.992H282.647V177.576L288.743 171.408H291.023L285.887 176.664L291.047 183H288.743ZM292.026 181.464L292.962 180.168C293.73 181.056 295.194 181.824 296.778 181.824C298.554 181.824 299.514 181.032 299.514 179.904C299.514 178.632 298.098 178.224 296.538 177.84C294.57 177.384 292.338 176.856 292.338 174.456C292.338 172.656 293.898 171.12 296.658 171.12C298.626 171.12 300.018 171.864 300.954 172.8L300.114 174.048C299.418 173.208 298.146 172.584 296.658 172.584C295.074 172.584 294.09 173.304 294.09 174.336C294.09 175.464 295.41 175.824 296.922 176.184C298.938 176.64 301.266 177.216 301.266 179.784C301.266 181.728 299.706 183.288 296.706 183.288C294.81 183.288 293.202 182.712 292.026 181.464ZM303.831 181.92C303.831 181.2 304.431 180.6 305.151 180.6C305.871 180.6 306.471 181.2 306.471 181.92C306.471 182.64 305.871 183.24 305.151 183.24C304.431 183.24 303.831 182.64 303.831 181.92Z" fill="black"/>
</g>
<defs>
<filter id="filter0_d_216_2" x="0.4" y="0.4" width="449.2" height="232.2" filterUnits="userSpaceOnUse" color-interpolation-filters="sRGB">
<feFlood flood-opacity="0" result="BackgroundImageFix"/>
<feColorMatrix in="SourceAlpha" type="matrix" values="0 0 0 0 0 0 0 0 0 0 0 0 0 0 0 0 0 0 127 0" result="hardAlpha"/>
<feOffset dy="4"/>
<feGaussianBlur stdDeviation="4.8"/>
<feComposite in2="hardAlpha" operator="out"/>
<feColorMatrix type="matrix" values="0 0 0 0 0 0 0 0 0 0 0 0 0 0 0 0 0 0 0.1 0"/>
<feBlend mode="normal" in2="BackgroundImageFix" result="effect1_dropShadow_216_2"/>
<feBlend mode="normal" in="SourceGraphic" in2="effect1_dropShadow_216_2" result="shape"/>
</filter>
</defs>
</svg>
