<svg width="450" height="232" viewBox="0 0 450 232" fill="none" xmlns="http://www.w3.org/2000/svg">
<g filter="url(#filter0_d_216_5)">
<rect x="10" y="6" width="430" height="212" rx="10" fill="white" shape-rendering="crispEdges"/>
<rect x="10.5" y="6.5" width="429" height="211" rx="9.5" stroke="#C1C1C1" shape-rendering="crispEdges"/>
<path d="M37.656 47.012C37.656 39.884 42.588 34.592 49.752 34.592C56.916 34.592 61.848 39.884 61.848 47.012C61.848 54.14 56.916 59.432 49.752 59.432C42.588 59.432 37.656 54.14 37.656 47.012ZM58.14 47.012C58.14 41.72 54.828 37.796 49.752 37.796C44.604 37.796 41.364 41.72 41.364 47.012C41.364 52.268 44.604 56.228 49.752 56.228C54.828 56.228 58.14 52.268 58.14 47.012ZM78.5753 59V47.876C78.5753 44.996 77.0993 44.06 74.8673 44.06C72.8513 44.06 71.0153 45.284 70.0793 46.58V59H66.8393V41.612H70.0793V44.06C71.2313 42.656 73.5353 41.18 76.2353 41.18C79.9073 41.18 81.8153 43.124 81.8153 46.796V59H78.5753ZM86.5887 50.288C86.5887 45.248 90.2247 41.18 95.3007 41.18C100.521 41.18 103.761 45.248 103.761 50.576V51.368H90.0087C90.2607 54.32 92.4207 56.768 95.9127 56.768C97.7487 56.768 99.7647 56.048 101.061 54.716L102.573 56.84C100.845 58.532 98.3967 59.432 95.5887 59.432C90.4047 59.432 86.5887 55.76 86.5887 50.288ZM95.3007 43.844C91.8087 43.844 90.1527 46.652 89.9727 49.028H100.593C100.521 46.724 98.9727 43.844 95.3007 43.844ZM133.618 59L129.334 45.644L125.05 59H121.702L116.23 41.612H119.614L123.574 54.86L127.93 41.612H130.738L135.094 54.86L139.054 41.612H142.438L136.966 59H133.618ZM153.748 59.432C148.348 59.432 144.964 55.328 144.964 50.288C144.964 45.284 148.348 41.18 153.748 41.18C159.184 41.18 162.532 45.284 162.532 50.288C162.532 55.328 159.184 59.432 153.748 59.432ZM153.748 56.552C157.24 56.552 159.148 53.6 159.148 50.288C159.148 47.012 157.24 44.06 153.748 44.06C150.292 44.06 148.348 47.012 148.348 50.288C148.348 53.6 150.292 56.552 153.748 56.552ZM167.365 59V41.612H170.605V44.276C171.937 42.548 173.989 41.216 176.293 41.216V44.492C175.969 44.42 175.609 44.384 175.177 44.384C173.557 44.384 171.361 45.608 170.605 46.904V59H167.365ZM191.913 59L186.117 51.512L183.489 54.176V59H180.249V34.988H183.489V50.432L191.877 41.612H195.945L188.457 49.496L196.017 59H191.913ZM202.912 65.624H199.672V41.612H202.912V44.096C204.172 42.368 206.26 41.18 208.6 41.18C213.136 41.18 216.34 44.6 216.34 50.288C216.34 55.976 213.136 59.432 208.6 59.432C206.332 59.432 204.316 58.388 202.912 56.48V65.624ZM212.956 50.288C212.956 46.688 210.976 44.06 207.736 44.06C205.756 44.06 203.776 45.212 202.912 46.616V53.996C203.776 55.364 205.756 56.552 207.736 56.552C210.976 56.552 212.956 53.924 212.956 50.288ZM221.17 59V34.988H224.41V59H221.17ZM241.02 59V57.092C239.652 58.604 237.672 59.432 235.332 59.432C232.452 59.432 229.284 57.488 229.284 53.672C229.284 49.712 232.416 47.984 235.332 47.984C237.672 47.984 239.688 48.74 241.02 50.288V47.408C241.02 45.248 239.256 43.952 236.772 43.952C234.792 43.952 233.1 44.708 231.552 46.256L230.148 44.024C232.092 42.116 234.468 41.18 237.276 41.18C241.056 41.18 244.26 42.836 244.26 47.264V59H241.02ZM241.02 55.184V52.232C240.048 50.936 238.356 50.252 236.556 50.252C234.216 50.252 232.56 51.656 232.56 53.708C232.56 55.76 234.216 57.164 236.556 57.164C238.356 57.164 240.048 56.48 241.02 55.184ZM249.092 50.288C249.092 45.068 252.692 41.18 257.948 41.18C261.224 41.18 263.204 42.548 264.464 44.24L262.304 46.22C261.26 44.744 259.856 44.06 258.092 44.06C254.672 44.06 252.476 46.688 252.476 50.288C252.476 53.888 254.672 56.552 258.092 56.552C259.856 56.552 261.26 55.832 262.304 54.392L264.464 56.372C263.204 58.064 261.224 59.432 257.948 59.432C252.692 59.432 249.092 55.508 249.092 50.288ZM267.672 50.288C267.672 45.248 271.308 41.18 276.384 41.18C281.604 41.18 284.844 45.248 284.844 50.576V51.368H271.092C271.344 54.32 273.504 56.768 276.996 56.768C278.832 56.768 280.848 56.048 282.144 54.716L283.656 56.84C281.928 58.532 279.48 59.432 276.672 59.432C271.488 59.432 267.672 55.76 267.672 50.288ZM276.384 43.844C272.892 43.844 271.236 46.652 271.056 49.028H281.676C281.604 46.724 280.056 43.844 276.384 43.844ZM290.377 63.68L288.865 62.42C290.017 61.7 291.133 60.26 291.313 59.072C291.241 59.072 290.953 59.144 290.773 59.144C289.657 59.144 288.829 58.28 288.829 57.092C288.829 55.868 289.801 54.896 291.025 54.896C292.357 54.896 293.545 55.976 293.545 57.884C293.545 60.224 292.213 62.384 290.377 63.68ZM37.512 86.288C37.512 81.248 41.148 77.18 46.224 77.18C51.444 77.18 54.684 81.248 54.684 86.576V87.368H40.932C41.184 90.32 43.344 92.768 46.836 92.768C48.672 92.768 50.688 92.048 51.984 90.716L53.496 92.84C51.768 94.532 49.32 95.432 46.512 95.432C41.328 95.432 37.512 91.76 37.512 86.288ZM46.224 79.844C42.732 79.844 41.076 82.652 40.896 85.028H51.516C51.444 82.724 49.896 79.844 46.224 79.844ZM64.0645 95L56.9005 77.612H60.3565L65.7925 91.256L71.2285 77.612H74.7205L67.5565 95H64.0645ZM76.9911 86.288C76.9911 81.248 80.6271 77.18 85.7031 77.18C90.9231 77.18 94.1631 81.248 94.1631 86.576V87.368H80.4111C80.6631 90.32 82.8231 92.768 86.3151 92.768C88.1511 92.768 90.1671 92.048 91.4631 90.716L92.9751 92.84C91.2471 94.532 88.7991 95.432 85.9911 95.432C80.8071 95.432 76.9911 91.76 76.9911 86.288ZM85.7031 79.844C82.2111 79.844 80.5551 82.652 80.3751 85.028H90.9951C90.9231 82.724 89.3751 79.844 85.7031 79.844ZM98.9356 95V77.612H102.176V80.276C103.508 78.548 105.56 77.216 107.864 77.216V80.492C107.54 80.42 107.18 80.384 106.748 80.384C105.128 80.384 102.932 81.608 102.176 82.904V95H98.9356ZM111.46 98.888C111.856 99.068 112.468 99.176 112.9 99.176C114.088 99.176 114.88 98.78 115.42 97.484L116.428 95.18L109.264 77.612H112.72L118.156 91.256L123.592 77.612H127.084L118.516 98.312C117.4 101.048 115.492 102.02 112.972 102.056C112.432 102.056 111.46 101.948 110.956 101.804L111.46 98.888ZM138.923 92.732L140.471 90.356C141.659 91.652 143.963 92.84 146.303 92.84C148.751 92.84 150.047 91.832 150.047 90.356C150.047 88.628 148.067 88.052 145.835 87.548C142.883 86.864 139.427 86.072 139.427 82.328C139.427 79.556 141.803 77.18 146.051 77.18C149.039 77.18 151.199 78.26 152.675 79.664L151.235 81.932C150.227 80.708 148.283 79.808 146.087 79.808C143.891 79.808 142.523 80.672 142.523 82.076C142.523 83.588 144.395 84.092 146.555 84.596C149.579 85.28 153.179 86.108 153.179 90.104C153.179 93.092 150.731 95.432 146.159 95.432C143.243 95.432 140.687 94.532 138.923 92.732ZM162.783 95.432C160.047 95.432 158.643 93.884 158.643 91.148V80.456H155.763V77.612H158.643V72.86H161.883V77.612H165.411V80.456H161.883V90.428C161.883 91.652 162.459 92.552 163.575 92.552C164.331 92.552 165.015 92.228 165.339 91.868L166.167 94.316C165.483 94.964 164.475 95.432 162.783 95.432ZM180.447 95V93.092C179.079 94.604 177.099 95.432 174.759 95.432C171.879 95.432 168.711 93.488 168.711 89.672C168.711 85.712 171.843 83.984 174.759 83.984C177.099 83.984 179.115 84.74 180.447 86.288V83.408C180.447 81.248 178.683 79.952 176.199 79.952C174.219 79.952 172.527 80.708 170.979 82.256L169.575 80.024C171.519 78.116 173.895 77.18 176.703 77.18C180.483 77.18 183.687 78.836 183.687 83.264V95H180.447ZM180.447 91.184V88.232C179.475 86.936 177.783 86.252 175.983 86.252C173.643 86.252 171.987 87.656 171.987 89.708C171.987 91.76 173.643 93.164 175.983 93.164C177.783 93.164 179.475 92.48 180.447 91.184ZM201.263 95L195.467 87.512L192.839 90.176V95H189.599V70.988H192.839V86.432L201.227 77.612H205.295L197.807 85.496L205.367 95H201.263ZM207.064 86.288C207.064 81.248 210.7 77.18 215.776 77.18C220.996 77.18 224.236 81.248 224.236 86.576V87.368H210.484C210.736 90.32 212.896 92.768 216.388 92.768C218.224 92.768 220.24 92.048 221.536 90.716L223.048 92.84C221.32 94.532 218.872 95.432 216.064 95.432C210.88 95.432 207.064 91.76 207.064 86.288ZM215.776 79.844C212.284 79.844 210.628 82.652 210.448 85.028H221.068C220.996 82.724 219.448 79.844 215.776 79.844ZM240.744 95V83.804C240.744 80.924 239.268 80.06 237.036 80.06C235.02 80.06 233.184 81.284 232.248 82.58V95H229.008V70.988H232.248V80.06C233.4 78.656 235.74 77.18 238.404 77.18C242.112 77.18 243.984 79.052 243.984 82.724V95H240.744ZM257.577 95.432C252.177 95.432 248.793 91.328 248.793 86.288C248.793 81.284 252.177 77.18 257.577 77.18C263.013 77.18 266.361 81.284 266.361 86.288C266.361 91.328 263.013 95.432 257.577 95.432ZM257.577 92.552C261.069 92.552 262.977 89.6 262.977 86.288C262.977 83.012 261.069 80.06 257.577 80.06C254.121 80.06 252.177 83.012 252.177 86.288C252.177 89.6 254.121 92.552 257.577 92.552ZM271.194 95V70.988H274.434V95H271.194ZM292.701 95V92.516C291.405 94.244 289.317 95.432 287.013 95.432C282.477 95.432 279.237 92.012 279.237 86.324C279.237 80.744 282.477 77.18 287.013 77.18C289.245 77.18 291.297 78.26 292.701 80.132V70.988H295.941V95H292.701ZM292.701 90.032V82.616C291.801 81.212 289.857 80.06 287.877 80.06C284.637 80.06 282.621 82.688 282.621 86.324C282.621 89.924 284.637 92.552 287.877 92.552C289.857 92.552 291.801 91.436 292.701 90.032ZM300.769 86.288C300.769 81.248 304.405 77.18 309.481 77.18C314.701 77.18 317.941 81.248 317.941 86.576V87.368H304.189C304.441 90.32 306.601 92.768 310.093 92.768C311.929 92.768 313.945 92.048 315.241 90.716L316.753 92.84C315.025 94.532 312.577 95.432 309.769 95.432C304.585 95.432 300.769 91.76 300.769 86.288ZM309.481 79.844C305.989 79.844 304.333 82.652 304.153 85.028H314.773C314.701 82.724 313.153 79.844 309.481 79.844ZM322.714 95V77.612H325.954V80.276C327.286 78.548 329.338 77.216 331.642 77.216V80.492C331.318 80.42 330.958 80.384 330.526 80.384C328.906 80.384 326.71 81.608 325.954 82.904V95H322.714Z" fill="black"/>
<path d="M390.25 62.4999L394.75 66.9999C395.193 67.4431 395.719 67.7946 396.298 68.0345C396.878 68.2744 397.498 68.3978 398.125 68.3978C398.752 68.3978 399.372 68.2744 399.952 68.0345C400.531 67.7946 401.057 67.4431 401.5 66.9999C401.943 66.5566 402.295 66.0305 402.535 65.4514C402.774 64.8723 402.898 64.2517 402.898 63.6249C402.898 62.9981 402.774 62.3774 402.535 61.7983C402.295 61.2193 401.943 60.6931 401.5 60.2499" stroke="#0F2251" stroke-width="5" stroke-linecap="round" stroke-linejoin="round"/>
<path d="M397 55.751L402.625 61.376C403.521 62.2711 404.735 62.774 406 62.774C407.266 62.774 408.48 62.2711 409.375 61.376C410.271 60.4809 410.773 59.2669 410.773 58.001C410.773 56.7352 410.271 55.5211 409.375 54.626L400.645 45.8961C399.38 44.632 397.664 43.922 395.875 43.922C394.087 43.922 392.371 44.632 391.105 45.8961L389.125 47.8761C388.23 48.7712 387.016 49.274 385.75 49.274C384.485 49.274 383.271 48.7712 382.376 47.8761C381.48 46.981 380.978 45.7669 380.978 44.5011C380.978 43.2352 381.48 42.0212 382.376 41.1261L388.698 34.8036C390.751 32.7565 393.427 31.4524 396.304 31.0978C399.182 30.7433 402.095 31.3585 404.583 32.8461L405.64 33.4761C406.598 34.0543 407.738 34.2549 408.835 34.0386L412.75 33.2511" stroke="#0F2251" stroke-width="5" stroke-linecap="round" stroke-linejoin="round"/>
<path d="M412.75 31L415 55.7499H410.5" stroke="#0F2251" stroke-width="5" stroke-linecap="round" stroke-linejoin="round"/>
<path d="M372.25 31.0001L370 55.75L384.625 70.375C385.52 71.2701 386.734 71.7729 388 71.7729C389.266 71.7729 390.48 71.2701 391.375 70.375C392.27 69.4799 392.773 68.2659 392.773 67C392.773 65.7341 392.27 64.5201 391.375 63.625" stroke="#0F2251" stroke-width="5" stroke-linecap="round" stroke-linejoin="round"/>
<path d="M372.25 33.25H390.25" stroke="#0F2251" stroke-width="5" stroke-linecap="round" stroke-linejoin="round"/>
<path d="M45.384 147.288C40.848 147.288 37.224 143.928 37.224 139.008C37.224 134.088 40.848 130.728 45.384 130.728C48.288 130.728 50.256 132.096 51.528 133.896L49.848 134.832C48.936 133.488 47.28 132.504 45.384 132.504C41.952 132.504 39.288 135.192 39.288 139.008C39.288 142.8 41.952 145.512 45.384 145.512C47.28 145.512 48.936 144.552 49.848 143.184L51.552 144.12C50.208 145.944 48.288 147.288 45.384 147.288ZM59.0828 147.288C55.5548 147.288 53.3468 144.552 53.3468 141.192C53.3468 137.832 55.5548 135.12 59.0828 135.12C62.6108 135.12 64.8188 137.832 64.8188 141.192C64.8188 144.552 62.6108 147.288 59.0828 147.288ZM59.0828 145.68C61.5548 145.68 62.9228 143.568 62.9228 141.192C62.9228 138.84 61.5548 136.728 59.0828 136.728C56.6108 136.728 55.2188 138.84 55.2188 141.192C55.2188 143.568 56.6108 145.68 59.0828 145.68ZM67.7531 147V130.992H69.5531V147H67.7531ZM73.1438 147V130.992H74.9438V147H73.1438ZM85.7824 147V145.68C84.8224 146.736 83.5024 147.288 81.9424 147.288C79.9744 147.288 77.8864 145.968 77.8864 143.448C77.8864 140.856 79.9744 139.632 81.9424 139.632C83.5264 139.632 84.8464 140.136 85.7824 141.216V139.128C85.7824 137.568 84.5344 136.68 82.8544 136.68C81.4624 136.68 80.3344 137.184 79.3024 138.288L78.4624 137.04C79.7104 135.744 81.1984 135.12 83.0944 135.12C85.5424 135.12 87.5824 136.224 87.5824 139.032V147H85.7824ZM85.7824 144.552V142.368C85.0864 141.408 83.8624 140.928 82.5904 140.928C80.9104 140.928 79.7344 141.984 79.7344 143.472C79.7344 144.936 80.9104 145.992 82.5904 145.992C83.8624 145.992 85.0864 145.512 85.7824 144.552ZM91.1906 147V130.992H92.9906V137.16C93.9266 135.888 95.3186 135.12 96.9026 135.12C99.9266 135.12 102.063 137.52 102.063 141.216C102.063 144.984 99.9266 147.288 96.9026 147.288C95.2706 147.288 93.8546 146.448 92.9906 145.272V147H91.1906ZM92.9906 143.856C93.6146 144.864 95.0306 145.68 96.4466 145.68C98.7986 145.68 100.191 143.784 100.191 141.216C100.191 138.648 98.7986 136.728 96.4466 136.728C95.0306 136.728 93.6146 137.592 92.9906 138.6V143.856ZM110.059 147.288C106.531 147.288 104.323 144.552 104.323 141.192C104.323 137.832 106.531 135.12 110.059 135.12C113.587 135.12 115.795 137.832 115.795 141.192C115.795 144.552 113.587 147.288 110.059 147.288ZM110.059 145.68C112.531 145.68 113.899 143.568 113.899 141.192C113.899 138.84 112.531 136.728 110.059 136.728C107.587 136.728 106.195 138.84 106.195 141.192C106.195 143.568 107.587 145.68 110.059 145.68ZM118.73 147V135.408H120.53V137.28C121.466 136.056 122.81 135.168 124.394 135.168V137.016C124.178 136.968 123.962 136.944 123.674 136.944C122.57 136.944 121.058 137.856 120.53 138.792V147H118.73ZM133.9 147V145.68C132.94 146.736 131.62 147.288 130.06 147.288C128.092 147.288 126.004 145.968 126.004 143.448C126.004 140.856 128.092 139.632 130.06 139.632C131.644 139.632 132.964 140.136 133.9 141.216V139.128C133.9 137.568 132.652 136.68 130.972 136.68C129.58 136.68 128.452 137.184 127.42 138.288L126.58 137.04C127.828 135.744 129.316 135.12 131.212 135.12C133.66 135.12 135.7 136.224 135.7 139.032V147H133.9ZM133.9 144.552V142.368C133.204 141.408 131.98 140.928 130.708 140.928C129.028 140.928 127.852 141.984 127.852 143.472C127.852 144.936 129.028 145.992 130.708 145.992C131.98 145.992 133.204 145.512 133.9 144.552ZM142.236 147.288C140.532 147.288 139.668 146.304 139.668 144.576V136.992H137.748V135.408H139.668V132.24H141.468V135.408H143.82V136.992H141.468V144.192C141.468 145.056 141.852 145.68 142.644 145.68C143.148 145.68 143.628 145.464 143.868 145.2L144.396 146.544C143.94 146.976 143.292 147.288 142.236 147.288ZM145.691 141.192C145.691 137.832 148.09 135.12 151.403 135.12C154.907 135.12 156.971 137.856 156.971 141.336V141.792H147.587C147.73 143.976 149.267 145.8 151.763 145.8C153.083 145.8 154.427 145.272 155.339 144.336L156.203 145.512C155.051 146.664 153.491 147.288 151.595 147.288C148.163 147.288 145.691 144.816 145.691 141.192ZM151.379 136.608C148.907 136.608 147.683 138.696 147.587 140.472H155.195C155.171 138.744 154.019 136.608 151.379 136.608ZM160.178 150.048L159.29 149.304C160.058 148.8 160.754 147.864 160.85 147.072C160.802 147.096 160.634 147.12 160.514 147.12C159.842 147.12 159.362 146.616 159.362 145.896C159.362 145.2 159.914 144.6 160.634 144.6C161.426 144.6 162.146 145.272 162.146 146.424C162.146 147.888 161.282 149.256 160.178 150.048ZM170.769 141.192C170.769 137.832 173.169 135.12 176.481 135.12C179.985 135.12 182.049 137.856 182.049 141.336V141.792H172.665C172.809 143.976 174.345 145.8 176.841 145.8C178.161 145.8 179.505 145.272 180.417 144.336L181.281 145.512C180.129 146.664 178.569 147.288 176.673 147.288C173.241 147.288 170.769 144.816 170.769 141.192ZM176.457 136.608C173.985 136.608 172.761 138.696 172.665 140.472H180.273C180.249 138.744 179.097 136.608 176.457 136.608ZM193.364 147V145.272C192.5 146.448 191.084 147.288 189.452 147.288C186.428 147.288 184.292 144.984 184.292 141.216C184.292 137.52 186.404 135.12 189.452 135.12C191.012 135.12 192.428 135.888 193.364 137.16V130.992H195.164V147H193.364ZM193.364 143.856V138.6C192.716 137.592 191.324 136.728 189.884 136.728C187.556 136.728 186.164 138.648 186.164 141.216C186.164 143.784 187.556 145.68 189.884 145.68C191.324 145.68 192.716 144.864 193.364 143.856ZM199.657 133.464C199.009 133.464 198.457 132.912 198.457 132.24C198.457 131.568 199.009 131.04 199.657 131.04C200.329 131.04 200.881 131.568 200.881 132.24C200.881 132.912 200.329 133.464 199.657 133.464ZM198.769 147V135.408H200.569V147H198.769ZM207.087 147.288C205.383 147.288 204.519 146.304 204.519 144.576V136.992H202.599V135.408H204.519V132.24H206.319V135.408H208.671V136.992H206.319V144.192C206.319 145.056 206.703 145.68 207.495 145.68C207.999 145.68 208.479 145.464 208.719 145.2L209.247 146.544C208.791 146.976 208.143 147.288 207.087 147.288ZM211.67 150.048L210.782 149.304C211.55 148.8 212.246 147.864 212.342 147.072C212.294 147.096 212.126 147.12 212.006 147.12C211.334 147.12 210.854 146.616 210.854 145.896C210.854 145.2 211.406 144.6 212.126 144.6C212.918 144.6 213.638 145.272 213.638 146.424C213.638 147.888 212.774 149.256 211.67 150.048ZM230.181 147V145.68C229.221 146.736 227.901 147.288 226.341 147.288C224.373 147.288 222.285 145.968 222.285 143.448C222.285 140.856 224.373 139.632 226.341 139.632C227.925 139.632 229.245 140.136 230.181 141.216V139.128C230.181 137.568 228.933 136.68 227.253 136.68C225.861 136.68 224.733 137.184 223.701 138.288L222.861 137.04C224.109 135.744 225.597 135.12 227.493 135.12C229.941 135.12 231.981 136.224 231.981 139.032V147H230.181ZM230.181 144.552V142.368C229.485 141.408 228.261 140.928 226.989 140.928C225.309 140.928 224.133 141.984 224.133 143.472C224.133 144.936 225.309 145.992 226.989 145.992C228.261 145.992 229.485 145.512 230.181 144.552ZM243.413 147V139.416C243.413 137.376 242.381 136.728 240.821 136.728C239.405 136.728 238.061 137.592 237.389 138.528V147H235.589V135.408H237.389V137.088C238.205 136.128 239.789 135.12 241.517 135.12C243.941 135.12 245.213 136.344 245.213 138.864V147H243.413ZM257.208 147V145.272C256.344 146.448 254.928 147.288 253.296 147.288C250.272 147.288 248.136 144.984 248.136 141.216C248.136 137.52 250.248 135.12 253.296 135.12C254.856 135.12 256.272 135.888 257.208 137.16V130.992H259.008V147H257.208ZM257.208 143.856V138.6C256.56 137.592 255.168 136.728 253.728 136.728C251.4 136.728 250.008 138.648 250.008 141.216C250.008 143.784 251.4 145.68 253.728 145.68C255.168 145.68 256.56 144.864 257.208 143.856ZM269.304 147V136.992H267.384V135.408H269.304V134.52C269.304 132.12 270.648 130.752 272.664 130.752C273.336 130.752 273.96 130.872 274.416 131.16L273.96 132.528C273.696 132.36 273.384 132.24 272.928 132.24C271.752 132.24 271.104 133.056 271.104 134.52V135.408H273.456V136.992H271.104V147H269.304ZM276.48 133.464C275.832 133.464 275.28 132.912 275.28 132.24C275.28 131.568 275.832 131.04 276.48 131.04C277.152 131.04 277.704 131.568 277.704 132.24C277.704 132.912 277.152 133.464 276.48 133.464ZM275.592 147V135.408H277.392V147H275.592ZM288.812 147V139.416C288.812 137.376 287.78 136.728 286.22 136.728C284.804 136.728 283.46 137.592 282.788 138.528V147H280.988V135.408H282.788V137.088C283.604 136.128 285.188 135.12 286.916 135.12C289.34 135.12 290.612 136.344 290.612 138.864V147H288.812ZM301.454 147V145.68C300.494 146.736 299.174 147.288 297.614 147.288C295.646 147.288 293.558 145.968 293.558 143.448C293.558 140.856 295.646 139.632 297.614 139.632C299.198 139.632 300.518 140.136 301.454 141.216V139.128C301.454 137.568 300.206 136.68 298.526 136.68C297.134 136.68 296.006 137.184 294.974 138.288L294.134 137.04C295.382 135.744 296.87 135.12 298.766 135.12C301.214 135.12 303.254 136.224 303.254 139.032V147H301.454ZM301.454 144.552V142.368C300.758 141.408 299.534 140.928 298.262 140.928C296.582 140.928 295.406 141.984 295.406 143.472C295.406 144.936 296.582 145.992 298.262 145.992C299.534 145.992 300.758 145.512 301.454 144.552ZM306.863 147V130.992H308.663V147H306.863ZM313.141 133.464C312.493 133.464 311.941 132.912 311.941 132.24C311.941 131.568 312.493 131.04 313.141 131.04C313.813 131.04 314.365 131.568 314.365 132.24C314.365 132.912 313.813 133.464 313.141 133.464ZM312.253 147V135.408H314.053V147H312.253ZM317.092 147V145.608L323.476 136.992H317.092V135.408H325.828V136.776L319.396 145.44H325.924V147H317.092ZM328.292 141.192C328.292 137.832 330.692 135.12 334.004 135.12C337.508 135.12 339.572 137.856 339.572 141.336V141.792H330.188C330.332 143.976 331.868 145.8 334.364 145.8C335.684 145.8 337.028 145.272 337.94 144.336L338.804 145.512C337.652 146.664 336.092 147.288 334.196 147.288C330.764 147.288 328.292 144.816 328.292 141.192ZM333.98 136.608C331.508 136.608 330.284 138.696 330.188 140.472H337.796C337.772 138.744 336.62 136.608 333.98 136.608ZM36.792 180.464L37.728 179.168C38.496 180.056 39.96 180.824 41.544 180.824C43.32 180.824 44.28 180.032 44.28 178.904C44.28 177.632 42.864 177.224 41.304 176.84C39.336 176.384 37.104 175.856 37.104 173.456C37.104 171.656 38.664 170.12 41.424 170.12C43.392 170.12 44.784 170.864 45.72 171.8L44.88 173.048C44.184 172.208 42.912 171.584 41.424 171.584C39.84 171.584 38.856 172.304 38.856 173.336C38.856 174.464 40.176 174.824 41.688 175.184C43.704 175.64 46.032 176.216 46.032 178.784C46.032 180.728 44.472 182.288 41.472 182.288C39.576 182.288 37.968 181.712 36.792 180.464ZM56.7803 182V180.368C55.8923 181.376 54.3803 182.288 52.6523 182.288C50.2283 182.288 48.9563 181.112 48.9563 178.592V170.408H50.7563V178.04C50.7563 180.08 51.7883 180.68 53.3483 180.68C54.7643 180.68 56.1083 179.864 56.7803 178.928V170.408H58.5803V182H56.7803ZM62.175 182V165.992H63.975V172.16C64.911 170.888 66.303 170.12 67.887 170.12C70.911 170.12 73.047 172.52 73.047 176.216C73.047 179.984 70.911 182.288 67.887 182.288C66.255 182.288 64.839 181.448 63.975 180.272V182H62.175ZM63.975 178.856C64.599 179.864 66.015 180.68 67.431 180.68C69.783 180.68 71.175 178.784 71.175 176.216C71.175 173.648 69.783 171.728 67.431 171.728C66.015 171.728 64.599 172.592 63.975 173.6V178.856ZM89.9717 182V174.128C89.9717 172.664 89.3237 171.728 87.8357 171.728C86.6357 171.728 85.3637 172.592 84.7637 173.504V182H82.9637V174.128C82.9637 172.664 82.3397 171.728 80.8277 171.728C79.6517 171.728 78.4037 172.592 77.7797 173.528V182H75.9797V170.408H77.7797V172.088C78.2597 171.344 79.8197 170.12 81.5237 170.12C83.2997 170.12 84.3077 171.08 84.6437 172.28C85.2917 171.224 86.8517 170.12 88.5317 170.12C90.6437 170.12 91.7717 171.296 91.7717 173.624V182H89.9717ZM96.2505 168.464C95.6025 168.464 95.0505 167.912 95.0505 167.24C95.0505 166.568 95.6025 166.04 96.2505 166.04C96.9225 166.04 97.4745 166.568 97.4745 167.24C97.4745 167.912 96.9225 168.464 96.2505 168.464ZM95.3625 182V170.408H97.1625V182H95.3625ZM103.681 182.288C101.977 182.288 101.113 181.304 101.113 179.576V171.992H99.1931V170.408H101.113V167.24H102.913V170.408H105.265V171.992H102.913V179.192C102.913 180.056 103.297 180.68 104.089 180.68C104.593 180.68 105.073 180.464 105.313 180.2L105.841 181.544C105.385 181.976 104.737 182.288 103.681 182.288ZM110.736 182.288C109.032 182.288 108.168 181.304 108.168 179.576V171.992H106.248V170.408H108.168V167.24H109.968V170.408H112.32V171.992H109.968V179.192C109.968 180.056 110.352 180.68 111.144 180.68C111.648 180.68 112.128 180.464 112.368 180.2L112.896 181.544C112.44 181.976 111.792 182.288 110.736 182.288ZM122.111 182V180.68C121.151 181.736 119.831 182.288 118.271 182.288C116.303 182.288 114.215 180.968 114.215 178.448C114.215 175.856 116.303 174.632 118.271 174.632C119.855 174.632 121.175 175.136 122.111 176.216V174.128C122.111 172.568 120.863 171.68 119.183 171.68C117.791 171.68 116.663 172.184 115.631 173.288L114.791 172.04C116.039 170.744 117.527 170.12 119.423 170.12C121.871 170.12 123.911 171.224 123.911 174.032V182H122.111ZM122.111 179.552V177.368C121.415 176.408 120.191 175.928 118.919 175.928C117.239 175.928 116.062 176.984 116.062 178.472C116.062 179.936 117.239 180.992 118.919 180.992C120.191 180.992 121.415 180.512 122.111 179.552ZM127.519 182V165.992H129.319V182H127.519ZM131.901 180.464L132.837 179.168C133.605 180.056 135.069 180.824 136.653 180.824C138.429 180.824 139.389 180.032 139.389 178.904C139.389 177.632 137.973 177.224 136.413 176.84C134.445 176.384 132.213 175.856 132.213 173.456C132.213 171.656 133.773 170.12 136.533 170.12C138.501 170.12 139.893 170.864 140.829 171.8L139.989 173.048C139.293 172.208 138.021 171.584 136.533 171.584C134.949 171.584 133.965 172.304 133.965 173.336C133.965 174.464 135.285 174.824 136.797 175.184C138.813 175.64 141.141 176.216 141.141 178.784C141.141 180.728 139.581 182.288 136.581 182.288C134.685 182.288 133.077 181.712 131.901 180.464ZM155.317 182.288C151.789 182.288 149.581 179.552 149.581 176.192C149.581 172.832 151.789 170.12 155.317 170.12C158.845 170.12 161.053 172.832 161.053 176.192C161.053 179.552 158.845 182.288 155.317 182.288ZM155.317 180.68C157.789 180.68 159.157 178.568 159.157 176.192C159.157 173.84 157.789 171.728 155.317 171.728C152.845 171.728 151.453 173.84 151.453 176.192C151.453 178.568 152.845 180.68 155.317 180.68ZM171.812 182V174.416C171.812 172.376 170.78 171.728 169.22 171.728C167.804 171.728 166.46 172.592 165.788 173.528V182H163.988V170.408H165.788V172.088C166.604 171.128 168.188 170.12 169.916 170.12C172.34 170.12 173.612 171.344 173.612 173.864V182H171.812ZM190.642 182V180.68C189.682 181.736 188.362 182.288 186.802 182.288C184.834 182.288 182.746 180.968 182.746 178.448C182.746 175.856 184.834 174.632 186.802 174.632C188.386 174.632 189.706 175.136 190.642 176.216V174.128C190.642 172.568 189.394 171.68 187.714 171.68C186.322 171.68 185.194 172.184 184.162 173.288L183.322 172.04C184.57 170.744 186.058 170.12 187.954 170.12C190.402 170.12 192.442 171.224 192.442 174.032V182H190.642ZM190.642 179.552V177.368C189.946 176.408 188.722 175.928 187.45 175.928C185.77 175.928 184.594 176.984 184.594 178.472C184.594 179.936 185.77 180.992 187.45 180.992C188.722 180.992 189.946 180.512 190.642 179.552ZM201.229 180.464L202.166 179.168C202.934 180.056 204.398 180.824 205.982 180.824C207.758 180.824 208.718 180.032 208.718 178.904C208.718 177.632 207.302 177.224 205.742 176.84C203.774 176.384 201.542 175.856 201.542 173.456C201.542 171.656 203.102 170.12 205.862 170.12C207.83 170.12 209.222 170.864 210.158 171.8L209.318 173.048C208.622 172.208 207.35 171.584 205.862 171.584C204.278 171.584 203.294 172.304 203.294 173.336C203.294 174.464 204.614 174.824 206.126 175.184C208.142 175.64 210.47 176.216 210.47 178.784C210.47 180.728 208.91 182.288 205.91 182.288C204.014 182.288 202.406 181.712 201.229 180.464ZM214.282 168.464C213.634 168.464 213.082 167.912 213.082 167.24C213.082 166.568 213.634 166.04 214.282 166.04C214.954 166.04 215.506 166.568 215.506 167.24C215.506 167.912 214.954 168.464 214.282 168.464ZM213.394 182V170.408H215.194V182H213.394ZM226.608 182V174.416C226.608 172.376 225.576 171.728 224.016 171.728C222.6 171.728 221.256 172.592 220.584 173.528V182H218.784V170.408H220.584V172.088C221.4 171.128 222.984 170.12 224.712 170.12C227.136 170.12 228.408 171.344 228.408 173.864V182H226.608ZM231.979 184.976L232.891 183.632C233.851 184.784 235.003 185.216 236.659 185.216C238.579 185.216 240.379 184.28 240.379 181.736V180.08C239.539 181.256 238.123 182.144 236.491 182.144C233.467 182.144 231.331 179.888 231.331 176.144C231.331 172.424 233.443 170.12 236.491 170.12C238.051 170.12 239.443 170.888 240.379 172.16V170.408H242.179V181.664C242.179 185.504 239.491 186.704 236.659 186.704C234.691 186.704 233.347 186.32 231.979 184.976ZM240.379 178.664V173.6C239.755 172.592 238.363 171.728 236.923 171.728C234.595 171.728 233.203 173.576 233.203 176.144C233.203 178.688 234.595 180.56 236.923 180.56C238.363 180.56 239.755 179.672 240.379 178.664ZM245.784 182V165.992H247.584V182H245.784ZM250.503 176.192C250.503 172.832 252.903 170.12 256.215 170.12C259.719 170.12 261.783 172.856 261.783 176.336V176.792H252.399C252.543 178.976 254.079 180.8 256.575 180.8C257.895 180.8 259.239 180.272 260.151 179.336L261.015 180.512C259.863 181.664 258.303 182.288 256.407 182.288C252.975 182.288 250.503 179.816 250.503 176.192ZM256.191 171.608C253.719 171.608 252.495 173.696 252.399 175.472H260.007C259.983 173.744 258.831 171.608 256.191 171.608ZM272.686 186.416H270.886V170.408H272.686V172.136C273.526 170.96 274.966 170.12 276.598 170.12C279.646 170.12 281.758 172.424 281.758 176.192C281.758 179.936 279.646 182.288 276.598 182.288C275.014 182.288 273.622 181.544 272.686 180.248V186.416ZM279.862 176.192C279.862 173.624 278.47 171.728 276.142 171.728C274.726 171.728 273.31 172.568 272.686 173.576V178.808C273.31 179.816 274.726 180.68 276.142 180.68C278.47 180.68 279.862 178.76 279.862 176.192ZM284.667 182V165.992H286.467V182H284.667ZM297.306 182V180.68C296.346 181.736 295.026 182.288 293.466 182.288C291.498 182.288 289.41 180.968 289.41 178.448C289.41 175.856 291.498 174.632 293.466 174.632C295.05 174.632 296.37 175.136 297.306 176.216V174.128C297.306 172.568 296.058 171.68 294.378 171.68C292.986 171.68 291.858 172.184 290.826 173.288L289.986 172.04C291.234 170.744 292.722 170.12 294.618 170.12C297.066 170.12 299.106 171.224 299.106 174.032V182H297.306ZM297.306 179.552V177.368C296.61 176.408 295.386 175.928 294.114 175.928C292.434 175.928 291.258 176.984 291.258 178.472C291.258 179.936 292.434 180.992 294.114 180.992C295.386 180.992 296.61 180.512 297.306 179.552ZM305.642 182.288C303.938 182.288 303.074 181.304 303.074 179.576V171.992H301.154V170.408H303.074V167.24H304.874V170.408H307.226V171.992H304.874V179.192C304.874 180.056 305.258 180.68 306.05 180.68C306.554 180.68 307.034 180.464 307.274 180.2L307.802 181.544C307.346 181.976 306.698 182.288 305.642 182.288ZM310.273 182V171.992H308.353V170.408H310.273V169.52C310.273 167.12 311.617 165.752 313.633 165.752C314.305 165.752 314.929 165.872 315.385 166.16L314.929 167.504C314.641 167.336 314.305 167.24 313.897 167.24C312.721 167.24 312.073 168.056 312.073 169.52V170.408H314.425V171.992H312.073V182H310.273ZM321.63 182.288C318.102 182.288 315.894 179.552 315.894 176.192C315.894 172.832 318.102 170.12 321.63 170.12C325.158 170.12 327.366 172.832 327.366 176.192C327.366 179.552 325.158 182.288 321.63 182.288ZM321.63 180.68C324.102 180.68 325.47 178.568 325.47 176.192C325.47 173.84 324.102 171.728 321.63 171.728C319.158 171.728 317.766 173.84 317.766 176.192C317.766 178.568 319.158 180.68 321.63 180.68ZM330.3 182V170.408H332.1V172.28C333.036 171.056 334.38 170.168 335.964 170.168V172.016C335.748 171.968 335.532 171.944 335.244 171.944C334.14 171.944 332.628 172.856 332.1 173.792V182H330.3ZM352.214 182V174.128C352.214 172.664 351.566 171.728 350.078 171.728C348.878 171.728 347.606 172.592 347.006 173.504V182H345.206V174.128C345.206 172.664 344.582 171.728 343.07 171.728C341.894 171.728 340.646 172.592 340.022 173.528V182H338.222V170.408H340.022V172.088C340.502 171.344 342.062 170.12 343.766 170.12C345.542 170.12 346.55 171.08 346.886 172.28C347.534 171.224 349.094 170.12 350.774 170.12C352.886 170.12 354.014 171.296 354.014 173.624V182H352.214ZM357.245 180.92C357.245 180.2 357.845 179.6 358.565 179.6C359.285 179.6 359.885 180.2 359.885 180.92C359.885 181.64 359.285 182.24 358.565 182.24C357.845 182.24 357.245 181.64 357.245 180.92Z" fill="black"/>
</g>
<defs>
<filter id="filter0_d_216_5" x="0.4" y="0.4" width="449.2" height="231.2" filterUnits="userSpaceOnUse" color-interpolation-filters="sRGB">
<feFlood flood-opacity="0" result="BackgroundImageFix"/>
<feColorMatrix in="SourceAlpha" type="matrix" values="0 0 0 0 0 0 0 0 0 0 0 0 0 0 0 0 0 0 127 0" result="hardAlpha"/>
<feOffset dy="4"/>
<feGaussianBlur stdDeviation="4.8"/>
<feComposite in2="hardAlpha" operator="out"/>
<feColorMatrix type="matrix" values="0 0 0 0 0 0 0 0 0 0 0 0 0 0 0 0 0 0 0.1 0"/>
<feBlend mode="normal" in2="BackgroundImageFix" result="effect1_dropShadow_216_5"/>
<feBlend mode="normal" in="SourceGraphic" in2="effect1_dropShadow_216_5" result="shape"/>
</filter>
</defs>
</svg>
