<svg width="450" height="232" viewBox="0 0 450 232" fill="none" xmlns="http://www.w3.org/2000/svg">
<g filter="url(#filter0_d_214_213)">
<rect x="10" y="5.90625" width="430" height="212" rx="10" fill="white" shape-rendering="crispEdges"/>
<rect x="10.5" y="6.40625" width="429" height="211" rx="9.5" stroke="#C1C1C1" shape-rendering="crispEdges"/>
<path d="M37.656 46.9182C37.656 39.7902 42.588 34.4982 49.752 34.4982C56.916 34.4982 61.848 39.7902 61.848 46.9182C61.848 54.0462 56.916 59.3383 49.752 59.3383C42.588 59.3383 37.656 54.0462 37.656 46.9182ZM58.14 46.9182C58.14 41.6262 54.828 37.7022 49.752 37.7022C44.604 37.7022 41.364 41.6262 41.364 46.9182C41.364 52.1742 44.604 56.1342 49.752 56.1342C54.828 56.1342 58.14 52.1742 58.14 46.9182ZM78.5753 58.9062V47.7822C78.5753 44.9022 77.0993 43.9662 74.8673 43.9662C72.8513 43.9662 71.0153 45.1902 70.0793 46.4862V58.9062H66.8393V41.5182H70.0793V43.9662C71.2313 42.5622 73.5353 41.0862 76.2353 41.0862C79.9073 41.0862 81.8153 43.0302 81.8153 46.7022V58.9062H78.5753ZM86.5887 50.1942C86.5887 45.1542 90.2247 41.0862 95.3007 41.0862C100.521 41.0862 103.761 45.1542 103.761 50.4822V51.2742H90.0087C90.2607 54.2262 92.4207 56.6742 95.9127 56.6742C97.7487 56.6742 99.7647 55.9542 101.061 54.6222L102.573 56.7462C100.845 58.4382 98.3967 59.3383 95.5887 59.3383C90.4047 59.3383 86.5887 55.6662 86.5887 50.1942ZM95.3007 43.7502C91.8087 43.7502 90.1527 46.5582 89.9727 48.9342H100.593C100.521 46.6302 98.9727 43.7502 95.3007 43.7502ZM133.618 58.9062L129.334 45.5502L125.05 58.9062H121.702L116.23 41.5182H119.614L123.574 54.7662L127.93 41.5182H130.738L135.094 54.7662L139.054 41.5182H142.438L136.966 58.9062H133.618ZM153.748 59.3383C148.348 59.3383 144.964 55.2342 144.964 50.1942C144.964 45.1902 148.348 41.0862 153.748 41.0862C159.184 41.0862 162.532 45.1902 162.532 50.1942C162.532 55.2342 159.184 59.3383 153.748 59.3383ZM153.748 56.4582C157.24 56.4582 159.148 53.5062 159.148 50.1942C159.148 46.9182 157.24 43.9662 153.748 43.9662C150.292 43.9662 148.348 46.9182 148.348 50.1942C148.348 53.5062 150.292 56.4582 153.748 56.4582ZM167.365 58.9062V41.5182H170.605V44.1822C171.937 42.4542 173.989 41.1222 176.293 41.1222V44.3982C175.969 44.3262 175.609 44.2902 175.177 44.2902C173.557 44.2902 171.361 45.5142 170.605 46.8102V58.9062H167.365ZM191.913 58.9062L186.117 51.4182L183.489 54.0822V58.9062H180.249V34.8942H183.489V50.3382L191.877 41.5182H195.945L188.457 49.4023L196.017 58.9062H191.913ZM202.912 65.5303H199.672V41.5182H202.912V44.0022C204.172 42.2742 206.26 41.0862 208.6 41.0862C213.136 41.0862 216.34 44.5062 216.34 50.1942C216.34 55.8822 213.136 59.3383 208.6 59.3383C206.332 59.3383 204.316 58.2942 202.912 56.3862V65.5303ZM212.956 50.1942C212.956 46.5942 210.976 43.9662 207.736 43.9662C205.756 43.9662 203.776 45.1182 202.912 46.5222V53.9022C203.776 55.2702 205.756 56.4582 207.736 56.4582C210.976 56.4582 212.956 53.8302 212.956 50.1942ZM221.17 58.9062V34.8942H224.41V58.9062H221.17ZM241.02 58.9062V56.9982C239.652 58.5102 237.672 59.3383 235.332 59.3383C232.452 59.3383 229.284 57.3942 229.284 53.5782C229.284 49.6182 232.416 47.8902 235.332 47.8902C237.672 47.8902 239.688 48.6462 241.02 50.1942V47.3142C241.02 45.1542 239.256 43.8582 236.772 43.8582C234.792 43.8582 233.1 44.6142 231.552 46.1622L230.148 43.9302C232.092 42.0222 234.468 41.0862 237.276 41.0862C241.056 41.0862 244.26 42.7422 244.26 47.1702V58.9062H241.02ZM241.02 55.0902V52.1382C240.048 50.8422 238.356 50.1582 236.556 50.1582C234.216 50.1582 232.56 51.5622 232.56 53.6143C232.56 55.6662 234.216 57.0702 236.556 57.0702C238.356 57.0702 240.048 56.3862 241.02 55.0902ZM249.092 50.1942C249.092 44.9742 252.692 41.0862 257.948 41.0862C261.224 41.0862 263.204 42.4542 264.464 44.1462L262.304 46.1262C261.26 44.6502 259.856 43.9662 258.092 43.9662C254.672 43.9662 252.476 46.5942 252.476 50.1942C252.476 53.7942 254.672 56.4582 258.092 56.4582C259.856 56.4582 261.26 55.7382 262.304 54.2982L264.464 56.2782C263.204 57.9702 261.224 59.3383 257.948 59.3383C252.692 59.3383 249.092 55.4142 249.092 50.1942ZM267.672 50.1942C267.672 45.1542 271.308 41.0862 276.384 41.0862C281.604 41.0862 284.844 45.1542 284.844 50.4822V51.2742H271.092C271.344 54.2262 273.504 56.6742 276.996 56.6742C278.832 56.6742 280.848 55.9542 282.144 54.6222L283.656 56.7462C281.928 58.4382 279.48 59.3383 276.672 59.3383C271.488 59.3383 267.672 55.6662 267.672 50.1942ZM276.384 43.7502C272.892 43.7502 271.236 46.5582 271.056 48.9342H281.676C281.604 46.6302 280.056 43.7502 276.384 43.7502ZM290.377 63.5863L288.865 62.3263C290.017 61.6063 291.133 60.1663 291.313 58.9783C291.241 58.9783 290.953 59.0503 290.773 59.0503C289.657 59.0503 288.829 58.1862 288.829 56.9982C288.829 55.7742 289.801 54.8022 291.025 54.8022C292.357 54.8022 293.545 55.8822 293.545 57.7902C293.545 60.1303 292.213 62.2903 290.377 63.5863ZM37.512 86.1942C37.512 81.1542 41.148 77.0862 46.224 77.0862C51.444 77.0862 54.684 81.1542 54.684 86.4822V87.2742H40.932C41.184 90.2262 43.344 92.6742 46.836 92.6742C48.672 92.6742 50.688 91.9542 51.984 90.6222L53.496 92.7462C51.768 94.4382 49.32 95.3383 46.512 95.3383C41.328 95.3383 37.512 91.6662 37.512 86.1942ZM46.224 79.7502C42.732 79.7502 41.076 82.5582 40.896 84.9342H51.516C51.444 82.6302 49.896 79.7502 46.224 79.7502ZM64.0645 94.9062L56.9005 77.5182H60.3565L65.7925 91.1622L71.2285 77.5182H74.7205L67.5565 94.9062H64.0645ZM76.9911 86.1942C76.9911 81.1542 80.6271 77.0862 85.7031 77.0862C90.9231 77.0862 94.1631 81.1542 94.1631 86.4822V87.2742H80.4111C80.6631 90.2262 82.8231 92.6742 86.3151 92.6742C88.1511 92.6742 90.1671 91.9542 91.4631 90.6222L92.9751 92.7462C91.2471 94.4382 88.7991 95.3383 85.9911 95.3383C80.8071 95.3383 76.9911 91.6662 76.9911 86.1942ZM85.7031 79.7502C82.2111 79.7502 80.5551 82.5582 80.3751 84.9342H90.9951C90.9231 82.6302 89.3751 79.7502 85.7031 79.7502ZM98.9356 94.9062V77.5182H102.176V80.1822C103.508 78.4542 105.56 77.1222 107.864 77.1222V80.3982C107.54 80.3262 107.18 80.2902 106.748 80.2902C105.128 80.2902 102.932 81.5142 102.176 82.8102V94.9062H98.9356ZM111.46 98.7943C111.856 98.9743 112.468 99.0823 112.9 99.0823C114.088 99.0823 114.88 98.6863 115.42 97.3903L116.428 95.0863L109.264 77.5182H112.72L118.156 91.1622L123.592 77.5182H127.084L118.516 98.2183C117.4 100.954 115.492 101.926 112.972 101.962C112.432 101.962 111.46 101.854 110.956 101.71L111.46 98.7943ZM138.923 92.6382L140.471 90.2622C141.659 91.5582 143.963 92.7462 146.303 92.7462C148.751 92.7462 150.047 91.7382 150.047 90.2622C150.047 88.5342 148.067 87.9582 145.835 87.4542C142.883 86.7702 139.427 85.9782 139.427 82.2342C139.427 79.4622 141.803 77.0862 146.051 77.0862C149.039 77.0862 151.199 78.1662 152.675 79.5702L151.235 81.8382C150.227 80.6142 148.283 79.7142 146.087 79.7142C143.891 79.7142 142.523 80.5782 142.523 81.9822C142.523 83.4942 144.395 83.9982 146.555 84.5022C149.579 85.1862 153.179 86.0142 153.179 90.0102C153.179 92.9982 150.731 95.3383 146.159 95.3383C143.243 95.3383 140.687 94.4382 138.923 92.6382ZM162.783 95.3383C160.047 95.3383 158.643 93.7902 158.643 91.0542V80.3622H155.763V77.5182H158.643V72.7662H161.883V77.5182H165.411V80.3622H161.883V90.3342C161.883 91.5582 162.459 92.4582 163.575 92.4582C164.331 92.4582 165.015 92.1342 165.339 91.7742L166.167 94.2222C165.483 94.8702 164.475 95.3383 162.783 95.3383ZM180.447 94.9062V92.9982C179.079 94.5102 177.099 95.3383 174.759 95.3383C171.879 95.3383 168.711 93.3942 168.711 89.5782C168.711 85.6182 171.843 83.8902 174.759 83.8902C177.099 83.8902 179.115 84.6462 180.447 86.1942V83.3142C180.447 81.1542 178.683 79.8582 176.199 79.8582C174.219 79.8582 172.527 80.6142 170.979 82.1622L169.575 79.9302C171.519 78.0222 173.895 77.0862 176.703 77.0862C180.483 77.0862 183.687 78.7422 183.687 83.1702V94.9062H180.447ZM180.447 91.0902V88.1382C179.475 86.8422 177.783 86.1582 175.983 86.1582C173.643 86.1582 171.987 87.5622 171.987 89.6143C171.987 91.6662 173.643 93.0702 175.983 93.0702C177.783 93.0702 179.475 92.3862 180.447 91.0902ZM201.263 94.9062L195.467 87.4182L192.839 90.0822V94.9062H189.599V70.8942H192.839V86.3382L201.227 77.5182H205.295L197.807 85.4023L205.367 94.9062H201.263ZM207.064 86.1942C207.064 81.1542 210.7 77.0862 215.776 77.0862C220.996 77.0862 224.236 81.1542 224.236 86.4822V87.2742H210.484C210.736 90.2262 212.896 92.6742 216.388 92.6742C218.224 92.6742 220.24 91.9542 221.536 90.6222L223.048 92.7462C221.32 94.4382 218.872 95.3383 216.064 95.3383C210.88 95.3383 207.064 91.6662 207.064 86.1942ZM215.776 79.7502C212.284 79.7502 210.628 82.5582 210.448 84.9342H221.068C220.996 82.6302 219.448 79.7502 215.776 79.7502ZM240.744 94.9062V83.7102C240.744 80.8302 239.268 79.9662 237.036 79.9662C235.02 79.9662 233.184 81.1902 232.248 82.4862V94.9062H229.008V70.8942H232.248V79.9662C233.4 78.5622 235.74 77.0862 238.404 77.0862C242.112 77.0862 243.984 78.9582 243.984 82.6302V94.9062H240.744ZM257.577 95.3383C252.177 95.3383 248.793 91.2342 248.793 86.1942C248.793 81.1902 252.177 77.0862 257.577 77.0862C263.013 77.0862 266.361 81.1902 266.361 86.1942C266.361 91.2342 263.013 95.3383 257.577 95.3383ZM257.577 92.4582C261.069 92.4582 262.977 89.5062 262.977 86.1942C262.977 82.9182 261.069 79.9662 257.577 79.9662C254.121 79.9662 252.177 82.9182 252.177 86.1942C252.177 89.5062 254.121 92.4582 257.577 92.4582ZM271.194 94.9062V70.8942H274.434V94.9062H271.194ZM292.701 94.9062V92.4222C291.405 94.1502 289.317 95.3383 287.013 95.3383C282.477 95.3383 279.237 91.9182 279.237 86.2302C279.237 80.6502 282.477 77.0862 287.013 77.0862C289.245 77.0862 291.297 78.1662 292.701 80.0382V70.8942H295.941V94.9062H292.701ZM292.701 89.9382V82.5222C291.801 81.1182 289.857 79.9662 287.877 79.9662C284.637 79.9662 282.621 82.5942 282.621 86.2302C282.621 89.8302 284.637 92.4582 287.877 92.4582C289.857 92.4582 291.801 91.3422 292.701 89.9382ZM300.769 86.1942C300.769 81.1542 304.405 77.0862 309.481 77.0862C314.701 77.0862 317.941 81.1542 317.941 86.4822V87.2742H304.189C304.441 90.2262 306.601 92.6742 310.093 92.6742C311.929 92.6742 313.945 91.9542 315.241 90.6222L316.753 92.7462C315.025 94.4382 312.577 95.3383 309.769 95.3383C304.585 95.3383 300.769 91.6662 300.769 86.1942ZM309.481 79.7502C305.989 79.7502 304.333 82.5582 304.153 84.9342H314.773C314.701 82.6302 313.153 79.7502 309.481 79.7502ZM322.714 94.9062V77.5182H325.954V80.1822C327.286 78.4542 329.338 77.1222 331.642 77.1222V80.3982C331.318 80.3262 330.958 80.2902 330.526 80.2902C328.906 80.2902 326.71 81.5142 325.954 82.8102V94.9062H322.714Z" fill="black"/>
<path d="M390.25 62.4062L394.75 66.9062C395.193 67.3494 395.719 67.701 396.298 67.9409C396.877 68.1807 397.498 68.3042 398.125 68.3042C398.752 68.3042 399.372 68.1807 399.951 67.9409C400.531 67.701 401.057 67.3494 401.5 66.9062C401.943 66.463 402.295 65.9368 402.535 65.3578C402.774 64.7787 402.898 64.158 402.898 63.5312C402.898 62.9044 402.774 62.2838 402.535 61.7047C402.295 61.1256 401.943 60.5995 401.5 60.1562" stroke="#CD6026" stroke-width="5" stroke-linecap="round" stroke-linejoin="round"/>
<path d="M397 55.6573L402.625 61.2823C403.52 62.1774 404.734 62.6802 406 62.6802C407.266 62.6802 408.48 62.1774 409.375 61.2823C410.27 60.3872 410.773 59.1731 410.773 57.9073C410.773 56.6414 410.27 55.4274 409.375 54.5323L400.645 45.8023C399.38 44.5383 397.664 43.8283 395.875 43.8283C394.087 43.8283 392.371 44.5383 391.105 45.8023L389.125 47.7823C388.23 48.6774 387.016 49.1803 385.75 49.1803C384.485 49.1803 383.271 48.6774 382.375 47.7823C381.48 46.8872 380.977 45.6732 380.977 44.4073C380.977 43.1415 381.48 41.9274 382.375 41.0323L388.698 34.7099C390.75 32.6627 393.427 31.3586 396.304 31.0041C399.182 30.6495 402.095 31.2648 404.583 32.7524L405.64 33.3824C406.598 33.9606 407.737 34.1611 408.835 33.9449L412.75 33.1574" stroke="#CD6026" stroke-width="5" stroke-linecap="round" stroke-linejoin="round"/>
<path d="M412.75 30.9062L415 55.6562H410.5" stroke="#CD6026" stroke-width="5" stroke-linecap="round" stroke-linejoin="round"/>
<path d="M372.25 30.9065L370 55.6564L384.625 70.2814C385.52 71.1765 386.734 71.6793 388 71.6793C389.266 71.6793 390.48 71.1765 391.375 70.2814C392.27 69.3862 392.773 68.1722 392.773 66.9064C392.773 65.6405 392.27 64.4265 391.375 63.5314" stroke="#CD6026" stroke-width="5" stroke-linecap="round" stroke-linejoin="round"/>
<path d="M372.25 33.1562H390.25" stroke="#CD6026" stroke-width="5" stroke-linecap="round" stroke-linejoin="round"/>
<path d="M45.384 147.194C40.848 147.194 37.224 143.834 37.224 138.914C37.224 133.994 40.848 130.634 45.384 130.634C48.288 130.634 50.256 132.002 51.528 133.802L49.848 134.738C48.936 133.394 47.28 132.41 45.384 132.41C41.952 132.41 39.288 135.098 39.288 138.914C39.288 142.706 41.952 145.418 45.384 145.418C47.28 145.418 48.936 144.458 49.848 143.09L51.552 144.026C50.208 145.85 48.288 147.194 45.384 147.194ZM59.0828 147.194C55.5548 147.194 53.3468 144.458 53.3468 141.098C53.3468 137.738 55.5548 135.026 59.0828 135.026C62.6108 135.026 64.8188 137.738 64.8188 141.098C64.8188 144.458 62.6108 147.194 59.0828 147.194ZM59.0828 145.586C61.5548 145.586 62.9228 143.474 62.9228 141.098C62.9228 138.746 61.5548 136.634 59.0828 136.634C56.6108 136.634 55.2188 138.746 55.2188 141.098C55.2188 143.474 56.6108 145.586 59.0828 145.586ZM67.7531 146.906V130.898H69.5531V146.906H67.7531ZM73.1438 146.906V130.898H74.9438V146.906H73.1438ZM85.7824 146.906V145.586C84.8224 146.642 83.5024 147.194 81.9424 147.194C79.9744 147.194 77.8864 145.874 77.8864 143.354C77.8864 140.762 79.9744 139.538 81.9424 139.538C83.5264 139.538 84.8464 140.042 85.7824 141.122V139.034C85.7824 137.474 84.5344 136.586 82.8544 136.586C81.4624 136.586 80.3344 137.09 79.3024 138.194L78.4624 136.946C79.7104 135.65 81.1984 135.026 83.0944 135.026C85.5424 135.026 87.5824 136.13 87.5824 138.938V146.906H85.7824ZM85.7824 144.458V142.274C85.0864 141.314 83.8624 140.834 82.5904 140.834C80.9104 140.834 79.7344 141.89 79.7344 143.378C79.7344 144.842 80.9104 145.898 82.5904 145.898C83.8624 145.898 85.0864 145.418 85.7824 144.458ZM91.1906 146.906V130.898H92.9906V137.066C93.9266 135.794 95.3186 135.026 96.9026 135.026C99.9266 135.026 102.063 137.426 102.063 141.122C102.063 144.89 99.9266 147.194 96.9026 147.194C95.2706 147.194 93.8546 146.354 92.9906 145.178V146.906H91.1906ZM92.9906 143.762C93.6146 144.77 95.0306 145.586 96.4466 145.586C98.7986 145.586 100.191 143.69 100.191 141.122C100.191 138.554 98.7986 136.634 96.4466 136.634C95.0306 136.634 93.6146 137.498 92.9906 138.506V143.762ZM110.059 147.194C106.531 147.194 104.323 144.458 104.323 141.098C104.323 137.738 106.531 135.026 110.059 135.026C113.587 135.026 115.795 137.738 115.795 141.098C115.795 144.458 113.587 147.194 110.059 147.194ZM110.059 145.586C112.531 145.586 113.899 143.474 113.899 141.098C113.899 138.746 112.531 136.634 110.059 136.634C107.587 136.634 106.195 138.746 106.195 141.098C106.195 143.474 107.587 145.586 110.059 145.586ZM118.73 146.906V135.314H120.53V137.186C121.466 135.962 122.81 135.074 124.394 135.074V136.922C124.178 136.874 123.962 136.85 123.674 136.85C122.57 136.85 121.058 137.762 120.53 138.698V146.906H118.73ZM133.9 146.906V145.586C132.94 146.642 131.62 147.194 130.06 147.194C128.092 147.194 126.004 145.874 126.004 143.354C126.004 140.762 128.092 139.538 130.06 139.538C131.644 139.538 132.964 140.042 133.9 141.122V139.034C133.9 137.474 132.652 136.586 130.972 136.586C129.58 136.586 128.452 137.09 127.42 138.194L126.58 136.946C127.828 135.65 129.316 135.026 131.212 135.026C133.66 135.026 135.7 136.13 135.7 138.938V146.906H133.9ZM133.9 144.458V142.274C133.204 141.314 131.98 140.834 130.708 140.834C129.028 140.834 127.852 141.89 127.852 143.378C127.852 144.842 129.028 145.898 130.708 145.898C131.98 145.898 133.204 145.418 133.9 144.458ZM142.236 147.194C140.532 147.194 139.668 146.21 139.668 144.482V136.898H137.748V135.314H139.668V132.146H141.468V135.314H143.82V136.898H141.468V144.098C141.468 144.962 141.852 145.586 142.644 145.586C143.148 145.586 143.628 145.37 143.868 145.106L144.396 146.45C143.94 146.882 143.292 147.194 142.236 147.194ZM145.691 141.098C145.691 137.738 148.09 135.026 151.403 135.026C154.907 135.026 156.971 137.762 156.971 141.242V141.698H147.587C147.73 143.882 149.267 145.706 151.763 145.706C153.083 145.706 154.427 145.178 155.339 144.242L156.203 145.418C155.051 146.57 153.491 147.194 151.595 147.194C148.163 147.194 145.691 144.722 145.691 141.098ZM151.379 136.514C148.907 136.514 147.683 138.602 147.587 140.378H155.195C155.171 138.65 154.019 136.514 151.379 136.514ZM160.178 149.954L159.29 149.21C160.058 148.706 160.754 147.77 160.85 146.978C160.802 147.002 160.634 147.026 160.514 147.026C159.842 147.026 159.362 146.522 159.362 145.802C159.362 145.106 159.914 144.506 160.634 144.506C161.426 144.506 162.146 145.178 162.146 146.33C162.146 147.794 161.282 149.162 160.178 149.954ZM170.769 141.098C170.769 137.738 173.169 135.026 176.481 135.026C179.985 135.026 182.049 137.762 182.049 141.242V141.698H172.665C172.809 143.882 174.345 145.706 176.841 145.706C178.161 145.706 179.505 145.178 180.417 144.242L181.281 145.418C180.129 146.57 178.569 147.194 176.673 147.194C173.241 147.194 170.769 144.722 170.769 141.098ZM176.457 136.514C173.985 136.514 172.761 138.602 172.665 140.378H180.273C180.249 138.65 179.097 136.514 176.457 136.514ZM193.364 146.906V145.178C192.5 146.354 191.084 147.194 189.452 147.194C186.428 147.194 184.292 144.89 184.292 141.122C184.292 137.426 186.404 135.026 189.452 135.026C191.012 135.026 192.428 135.794 193.364 137.066V130.898H195.164V146.906H193.364ZM193.364 143.762V138.506C192.716 137.498 191.324 136.634 189.884 136.634C187.556 136.634 186.164 138.554 186.164 141.122C186.164 143.69 187.556 145.586 189.884 145.586C191.324 145.586 192.716 144.77 193.364 143.762ZM199.657 133.37C199.009 133.37 198.457 132.818 198.457 132.146C198.457 131.474 199.009 130.946 199.657 130.946C200.329 130.946 200.881 131.474 200.881 132.146C200.881 132.818 200.329 133.37 199.657 133.37ZM198.769 146.906V135.314H200.569V146.906H198.769ZM207.087 147.194C205.383 147.194 204.519 146.21 204.519 144.482V136.898H202.599V135.314H204.519V132.146H206.319V135.314H208.671V136.898H206.319V144.098C206.319 144.962 206.703 145.586 207.495 145.586C207.999 145.586 208.479 145.37 208.719 145.106L209.247 146.45C208.791 146.882 208.143 147.194 207.087 147.194ZM211.67 149.954L210.782 149.21C211.55 148.706 212.246 147.77 212.342 146.978C212.294 147.002 212.126 147.026 212.006 147.026C211.334 147.026 210.854 146.522 210.854 145.802C210.854 145.106 211.406 144.506 212.126 144.506C212.918 144.506 213.638 145.178 213.638 146.33C213.638 147.794 212.774 149.162 211.67 149.954ZM230.181 146.906V145.586C229.221 146.642 227.901 147.194 226.341 147.194C224.373 147.194 222.285 145.874 222.285 143.354C222.285 140.762 224.373 139.538 226.341 139.538C227.925 139.538 229.245 140.042 230.181 141.122V139.034C230.181 137.474 228.933 136.586 227.253 136.586C225.861 136.586 224.733 137.09 223.701 138.194L222.861 136.946C224.109 135.65 225.597 135.026 227.493 135.026C229.941 135.026 231.981 136.13 231.981 138.938V146.906H230.181ZM230.181 144.458V142.274C229.485 141.314 228.261 140.834 226.989 140.834C225.309 140.834 224.133 141.89 224.133 143.378C224.133 144.842 225.309 145.898 226.989 145.898C228.261 145.898 229.485 145.418 230.181 144.458ZM243.413 146.906V139.322C243.413 137.282 242.381 136.634 240.821 136.634C239.405 136.634 238.061 137.498 237.389 138.434V146.906H235.589V135.314H237.389V136.994C238.205 136.034 239.789 135.026 241.517 135.026C243.941 135.026 245.213 136.25 245.213 138.77V146.906H243.413ZM257.208 146.906V145.178C256.344 146.354 254.928 147.194 253.296 147.194C250.272 147.194 248.136 144.89 248.136 141.122C248.136 137.426 250.248 135.026 253.296 135.026C254.856 135.026 256.272 135.794 257.208 137.066V130.898H259.008V146.906H257.208ZM257.208 143.762V138.506C256.56 137.498 255.168 136.634 253.728 136.634C251.4 136.634 250.008 138.554 250.008 141.122C250.008 143.69 251.4 145.586 253.728 145.586C255.168 145.586 256.56 144.77 257.208 143.762ZM269.304 146.906V136.898H267.384V135.314H269.304V134.426C269.304 132.026 270.648 130.658 272.664 130.658C273.336 130.658 273.96 130.778 274.416 131.066L273.96 132.434C273.696 132.266 273.384 132.146 272.928 132.146C271.752 132.146 271.104 132.962 271.104 134.426V135.314H273.456V136.898H271.104V146.906H269.304ZM276.48 133.37C275.832 133.37 275.28 132.818 275.28 132.146C275.28 131.474 275.832 130.946 276.48 130.946C277.152 130.946 277.704 131.474 277.704 132.146C277.704 132.818 277.152 133.37 276.48 133.37ZM275.592 146.906V135.314H277.392V146.906H275.592ZM288.812 146.906V139.322C288.812 137.282 287.78 136.634 286.22 136.634C284.804 136.634 283.46 137.498 282.788 138.434V146.906H280.988V135.314H282.788V136.994C283.604 136.034 285.188 135.026 286.916 135.026C289.34 135.026 290.612 136.25 290.612 138.77V146.906H288.812ZM301.454 146.906V145.586C300.494 146.642 299.174 147.194 297.614 147.194C295.646 147.194 293.558 145.874 293.558 143.354C293.558 140.762 295.646 139.538 297.614 139.538C299.198 139.538 300.518 140.042 301.454 141.122V139.034C301.454 137.474 300.206 136.586 298.526 136.586C297.134 136.586 296.006 137.09 294.974 138.194L294.134 136.946C295.382 135.65 296.87 135.026 298.766 135.026C301.214 135.026 303.254 136.13 303.254 138.938V146.906H301.454ZM301.454 144.458V142.274C300.758 141.314 299.534 140.834 298.262 140.834C296.582 140.834 295.406 141.89 295.406 143.378C295.406 144.842 296.582 145.898 298.262 145.898C299.534 145.898 300.758 145.418 301.454 144.458ZM306.863 146.906V130.898H308.663V146.906H306.863ZM313.141 133.37C312.493 133.37 311.941 132.818 311.941 132.146C311.941 131.474 312.493 130.946 313.141 130.946C313.813 130.946 314.365 131.474 314.365 132.146C314.365 132.818 313.813 133.37 313.141 133.37ZM312.253 146.906V135.314H314.053V146.906H312.253ZM317.092 146.906V145.514L323.476 136.898H317.092V135.314H325.828V136.682L319.396 145.346H325.924V146.906H317.092ZM328.292 141.098C328.292 137.738 330.692 135.026 334.004 135.026C337.508 135.026 339.572 137.762 339.572 141.242V141.698H330.188C330.332 143.882 331.868 145.706 334.364 145.706C335.684 145.706 337.028 145.178 337.94 144.242L338.804 145.418C337.652 146.57 336.092 147.194 334.196 147.194C330.764 147.194 328.292 144.722 328.292 141.098ZM333.98 136.514C331.508 136.514 330.284 138.602 330.188 140.378H337.796C337.772 138.65 336.62 136.514 333.98 136.514ZM36.792 180.37L37.728 179.074C38.496 179.962 39.96 180.73 41.544 180.73C43.32 180.73 44.28 179.938 44.28 178.81C44.28 177.538 42.864 177.13 41.304 176.746C39.336 176.29 37.104 175.762 37.104 173.362C37.104 171.562 38.664 170.026 41.424 170.026C43.392 170.026 44.784 170.77 45.72 171.706L44.88 172.954C44.184 172.114 42.912 171.49 41.424 171.49C39.84 171.49 38.856 172.21 38.856 173.242C38.856 174.37 40.176 174.73 41.688 175.09C43.704 175.546 46.032 176.122 46.032 178.69C46.032 180.634 44.472 182.194 41.472 182.194C39.576 182.194 37.968 181.618 36.792 180.37ZM56.7803 181.906V180.274C55.8923 181.282 54.3803 182.194 52.6523 182.194C50.2283 182.194 48.9563 181.018 48.9563 178.498V170.314H50.7563V177.946C50.7563 179.986 51.7883 180.586 53.3483 180.586C54.7643 180.586 56.1083 179.77 56.7803 178.834V170.314H58.5803V181.906H56.7803ZM62.175 181.906V165.898H63.975V172.066C64.911 170.794 66.303 170.026 67.887 170.026C70.911 170.026 73.047 172.426 73.047 176.122C73.047 179.89 70.911 182.194 67.887 182.194C66.255 182.194 64.839 181.354 63.975 180.178V181.906H62.175ZM63.975 178.762C64.599 179.77 66.015 180.586 67.431 180.586C69.783 180.586 71.175 178.69 71.175 176.122C71.175 173.554 69.783 171.634 67.431 171.634C66.015 171.634 64.599 172.498 63.975 173.506V178.762ZM89.9717 181.906V174.034C89.9717 172.57 89.3237 171.634 87.8357 171.634C86.6357 171.634 85.3637 172.498 84.7637 173.41V181.906H82.9637V174.034C82.9637 172.57 82.3397 171.634 80.8277 171.634C79.6517 171.634 78.4037 172.498 77.7797 173.434V181.906H75.9797V170.314H77.7797V171.994C78.2597 171.25 79.8197 170.026 81.5237 170.026C83.2997 170.026 84.3077 170.986 84.6437 172.186C85.2917 171.13 86.8517 170.026 88.5317 170.026C90.6437 170.026 91.7717 171.202 91.7717 173.53V181.906H89.9717ZM96.2505 168.37C95.6025 168.37 95.0505 167.818 95.0505 167.146C95.0505 166.474 95.6025 165.946 96.2505 165.946C96.9225 165.946 97.4745 166.474 97.4745 167.146C97.4745 167.818 96.9225 168.37 96.2505 168.37ZM95.3625 181.906V170.314H97.1625V181.906H95.3625ZM103.681 182.194C101.977 182.194 101.113 181.21 101.113 179.482V171.898H99.1931V170.314H101.113V167.146H102.913V170.314H105.265V171.898H102.913V179.098C102.913 179.962 103.297 180.586 104.089 180.586C104.593 180.586 105.073 180.37 105.313 180.106L105.841 181.45C105.385 181.882 104.737 182.194 103.681 182.194ZM110.736 182.194C109.032 182.194 108.168 181.21 108.168 179.482V171.898H106.248V170.314H108.168V167.146H109.968V170.314H112.32V171.898H109.968V179.098C109.968 179.962 110.352 180.586 111.144 180.586C111.648 180.586 112.128 180.37 112.368 180.106L112.896 181.45C112.44 181.882 111.792 182.194 110.736 182.194ZM122.111 181.906V180.586C121.151 181.642 119.831 182.194 118.271 182.194C116.303 182.194 114.215 180.874 114.215 178.354C114.215 175.762 116.303 174.538 118.271 174.538C119.855 174.538 121.175 175.042 122.111 176.122V174.034C122.111 172.474 120.863 171.586 119.183 171.586C117.791 171.586 116.663 172.09 115.631 173.194L114.791 171.946C116.039 170.65 117.527 170.026 119.423 170.026C121.871 170.026 123.911 171.13 123.911 173.938V181.906H122.111ZM122.111 179.458V177.274C121.415 176.314 120.191 175.834 118.919 175.834C117.239 175.834 116.062 176.89 116.062 178.378C116.062 179.842 117.239 180.898 118.919 180.898C120.191 180.898 121.415 180.418 122.111 179.458ZM127.519 181.906V165.898H129.319V181.906H127.519ZM131.901 180.37L132.837 179.074C133.605 179.962 135.069 180.73 136.653 180.73C138.429 180.73 139.389 179.938 139.389 178.81C139.389 177.538 137.973 177.13 136.413 176.746C134.445 176.29 132.213 175.762 132.213 173.362C132.213 171.562 133.773 170.026 136.533 170.026C138.501 170.026 139.893 170.77 140.829 171.706L139.989 172.954C139.293 172.114 138.021 171.49 136.533 171.49C134.949 171.49 133.965 172.21 133.965 173.242C133.965 174.37 135.285 174.73 136.797 175.09C138.813 175.546 141.141 176.122 141.141 178.69C141.141 180.634 139.581 182.194 136.581 182.194C134.685 182.194 133.077 181.618 131.901 180.37ZM155.317 182.194C151.789 182.194 149.581 179.458 149.581 176.098C149.581 172.738 151.789 170.026 155.317 170.026C158.845 170.026 161.053 172.738 161.053 176.098C161.053 179.458 158.845 182.194 155.317 182.194ZM155.317 180.586C157.789 180.586 159.157 178.474 159.157 176.098C159.157 173.746 157.789 171.634 155.317 171.634C152.845 171.634 151.453 173.746 151.453 176.098C151.453 178.474 152.845 180.586 155.317 180.586ZM171.812 181.906V174.322C171.812 172.282 170.78 171.634 169.22 171.634C167.804 171.634 166.46 172.498 165.788 173.434V181.906H163.988V170.314H165.788V171.994C166.604 171.034 168.188 170.026 169.916 170.026C172.34 170.026 173.612 171.25 173.612 173.77V181.906H171.812ZM190.642 181.906V180.586C189.682 181.642 188.362 182.194 186.802 182.194C184.834 182.194 182.746 180.874 182.746 178.354C182.746 175.762 184.834 174.538 186.802 174.538C188.386 174.538 189.706 175.042 190.642 176.122V174.034C190.642 172.474 189.394 171.586 187.714 171.586C186.322 171.586 185.194 172.09 184.162 173.194L183.322 171.946C184.57 170.65 186.058 170.026 187.954 170.026C190.402 170.026 192.442 171.13 192.442 173.938V181.906H190.642ZM190.642 179.458V177.274C189.946 176.314 188.722 175.834 187.45 175.834C185.77 175.834 184.594 176.89 184.594 178.378C184.594 179.842 185.77 180.898 187.45 180.898C188.722 180.898 189.946 180.418 190.642 179.458ZM201.229 180.37L202.166 179.074C202.934 179.962 204.398 180.73 205.982 180.73C207.758 180.73 208.718 179.938 208.718 178.81C208.718 177.538 207.302 177.13 205.742 176.746C203.774 176.29 201.542 175.762 201.542 173.362C201.542 171.562 203.102 170.026 205.862 170.026C207.83 170.026 209.222 170.77 210.158 171.706L209.318 172.954C208.622 172.114 207.35 171.49 205.862 171.49C204.278 171.49 203.294 172.21 203.294 173.242C203.294 174.37 204.614 174.73 206.126 175.09C208.142 175.546 210.47 176.122 210.47 178.69C210.47 180.634 208.91 182.194 205.91 182.194C204.014 182.194 202.406 181.618 201.229 180.37ZM214.282 168.37C213.634 168.37 213.082 167.818 213.082 167.146C213.082 166.474 213.634 165.946 214.282 165.946C214.954 165.946 215.506 166.474 215.506 167.146C215.506 167.818 214.954 168.37 214.282 168.37ZM213.394 181.906V170.314H215.194V181.906H213.394ZM226.608 181.906V174.322C226.608 172.282 225.576 171.634 224.016 171.634C222.6 171.634 221.256 172.498 220.584 173.434V181.906H218.784V170.314H220.584V171.994C221.4 171.034 222.984 170.026 224.712 170.026C227.136 170.026 228.408 171.25 228.408 173.77V181.906H226.608ZM231.979 184.882L232.891 183.538C233.851 184.69 235.003 185.122 236.659 185.122C238.579 185.122 240.379 184.186 240.379 181.642V179.986C239.539 181.162 238.123 182.05 236.491 182.05C233.467 182.05 231.331 179.794 231.331 176.05C231.331 172.33 233.443 170.026 236.491 170.026C238.051 170.026 239.443 170.794 240.379 172.066V170.314H242.179V181.57C242.179 185.41 239.491 186.61 236.659 186.61C234.691 186.61 233.347 186.226 231.979 184.882ZM240.379 178.57V173.506C239.755 172.498 238.363 171.634 236.923 171.634C234.595 171.634 233.203 173.482 233.203 176.05C233.203 178.594 234.595 180.466 236.923 180.466C238.363 180.466 239.755 179.578 240.379 178.57ZM245.784 181.906V165.898H247.584V181.906H245.784ZM250.503 176.098C250.503 172.738 252.903 170.026 256.215 170.026C259.719 170.026 261.783 172.762 261.783 176.242V176.698H252.399C252.543 178.882 254.079 180.706 256.575 180.706C257.895 180.706 259.239 180.178 260.151 179.242L261.015 180.418C259.863 181.57 258.303 182.194 256.407 182.194C252.975 182.194 250.503 179.722 250.503 176.098ZM256.191 171.514C253.719 171.514 252.495 173.602 252.399 175.378H260.007C259.983 173.65 258.831 171.514 256.191 171.514ZM272.686 186.322H270.886V170.314H272.686V172.042C273.526 170.866 274.966 170.026 276.598 170.026C279.646 170.026 281.758 172.33 281.758 176.098C281.758 179.842 279.646 182.194 276.598 182.194C275.014 182.194 273.622 181.45 272.686 180.154V186.322ZM279.862 176.098C279.862 173.53 278.47 171.634 276.142 171.634C274.726 171.634 273.31 172.474 272.686 173.482V178.714C273.31 179.722 274.726 180.586 276.142 180.586C278.47 180.586 279.862 178.666 279.862 176.098ZM284.667 181.906V165.898H286.467V181.906H284.667ZM297.306 181.906V180.586C296.346 181.642 295.026 182.194 293.466 182.194C291.498 182.194 289.41 180.874 289.41 178.354C289.41 175.762 291.498 174.538 293.466 174.538C295.05 174.538 296.37 175.042 297.306 176.122V174.034C297.306 172.474 296.058 171.586 294.378 171.586C292.986 171.586 291.858 172.09 290.826 173.194L289.986 171.946C291.234 170.65 292.722 170.026 294.618 170.026C297.066 170.026 299.106 171.13 299.106 173.938V181.906H297.306ZM297.306 179.458V177.274C296.61 176.314 295.386 175.834 294.114 175.834C292.434 175.834 291.258 176.89 291.258 178.378C291.258 179.842 292.434 180.898 294.114 180.898C295.386 180.898 296.61 180.418 297.306 179.458ZM305.642 182.194C303.938 182.194 303.074 181.21 303.074 179.482V171.898H301.154V170.314H303.074V167.146H304.874V170.314H307.226V171.898H304.874V179.098C304.874 179.962 305.258 180.586 306.05 180.586C306.554 180.586 307.034 180.37 307.274 180.106L307.802 181.45C307.346 181.882 306.698 182.194 305.642 182.194ZM310.273 181.906V171.898H308.353V170.314H310.273V169.426C310.273 167.026 311.617 165.658 313.633 165.658C314.305 165.658 314.929 165.778 315.385 166.066L314.929 167.41C314.641 167.242 314.305 167.146 313.897 167.146C312.721 167.146 312.073 167.962 312.073 169.426V170.314H314.425V171.898H312.073V181.906H310.273ZM321.63 182.194C318.102 182.194 315.894 179.458 315.894 176.098C315.894 172.738 318.102 170.026 321.63 170.026C325.158 170.026 327.366 172.738 327.366 176.098C327.366 179.458 325.158 182.194 321.63 182.194ZM321.63 180.586C324.102 180.586 325.47 178.474 325.47 176.098C325.47 173.746 324.102 171.634 321.63 171.634C319.158 171.634 317.766 173.746 317.766 176.098C317.766 178.474 319.158 180.586 321.63 180.586ZM330.3 181.906V170.314H332.1V172.186C333.036 170.962 334.38 170.074 335.964 170.074V171.922C335.748 171.874 335.532 171.85 335.244 171.85C334.14 171.85 332.628 172.762 332.1 173.698V181.906H330.3ZM352.214 181.906V174.034C352.214 172.57 351.566 171.634 350.078 171.634C348.878 171.634 347.606 172.498 347.006 173.41V181.906H345.206V174.034C345.206 172.57 344.582 171.634 343.07 171.634C341.894 171.634 340.646 172.498 340.022 173.434V181.906H338.222V170.314H340.022V171.994C340.502 171.25 342.062 170.026 343.766 170.026C345.542 170.026 346.55 170.986 346.886 172.186C347.534 171.13 349.094 170.026 350.774 170.026C352.886 170.026 354.014 171.202 354.014 173.53V181.906H352.214ZM357.245 180.826C357.245 180.106 357.845 179.506 358.565 179.506C359.285 179.506 359.885 180.106 359.885 180.826C359.885 181.546 359.285 182.146 358.565 182.146C357.845 182.146 357.245 181.546 357.245 180.826Z" fill="black"/>
</g>
<defs>
<filter id="filter0_d_214_213" x="0.4" y="0.30625" width="449.2" height="231.2" filterUnits="userSpaceOnUse" color-interpolation-filters="sRGB">
<feFlood flood-opacity="0" result="BackgroundImageFix"/>
<feColorMatrix in="SourceAlpha" type="matrix" values="0 0 0 0 0 0 0 0 0 0 0 0 0 0 0 0 0 0 127 0" result="hardAlpha"/>
<feOffset dy="4"/>
<feGaussianBlur stdDeviation="4.8"/>
<feComposite in2="hardAlpha" operator="out"/>
<feColorMatrix type="matrix" values="0 0 0 0 0 0 0 0 0 0 0 0 0 0 0 0 0 0 0.1 0"/>
<feBlend mode="normal" in2="BackgroundImageFix" result="effect1_dropShadow_214_213"/>
<feBlend mode="normal" in="SourceGraphic" in2="effect1_dropShadow_214_213" result="shape"/>
</filter>
</defs>
</svg>
