<svg width="28" height="35" viewBox="0 0 28 35" fill="none" xmlns="http://www.w3.org/2000/svg">
<g clip-path="url(#clip0_109_1560)">
<path d="M4.90852 10.6963L1.31055 8.70429L5.00981 6.30713L8.64685 8.61896L4.90852 10.6963Z" fill="white"/>
<path d="M4.55161 28.5749L0.953643 26.5829L0.729126 9.54736L4.87742 11.2974L4.55161 28.5749Z" fill="white"/>
<path d="M0.697998 8.83081L4.97675 6.30713L9.25941 8.83081" stroke="#CD6026" stroke-width="1.39598" stroke-linecap="round" stroke-linejoin="round"/>
<path d="M9.28163 8.97363V25.928L4.87744 28.4618L4.90041 11.3367" fill="#CD6026"/>
<path d="M9.28163 8.97363V25.928L4.87744 28.4618L4.90041 11.3367" stroke="#CD6026" stroke-width="1.39598" stroke-linecap="round" stroke-linejoin="round"/>
<path d="M4.87741 28.4613L0.697998 25.8983V8.94402L4.87741 11.296L9.10277 8.94402" stroke="#CD6026" stroke-width="1.39598" stroke-linecap="round" stroke-linejoin="round"/>
<path d="M13.4699 5.64296L9.87195 3.65091L13.5712 1.25375L17.2082 3.56559L13.4699 5.64296Z" fill="white"/>
<path d="M13.113 23.5216L9.51504 21.5295L9.29053 4.49399L13.4388 6.24398L13.113 23.5216Z" fill="white"/>
<path d="M9.2594 3.77785L13.5381 1.25417L17.8208 3.77785" stroke="#CD6026" stroke-width="1.39598" stroke-linecap="round" stroke-linejoin="round"/>
<path d="M17.843 3.9214V20.8757L13.4388 23.4096L13.4618 6.2845" fill="#CD6026"/>
<path d="M17.843 3.9214V20.8757L13.4388 23.4096L13.4618 6.2845" stroke="#CD6026" stroke-width="1.39598" stroke-linecap="round" stroke-linejoin="round"/>
<path d="M13.4388 23.409L9.2594 20.8461V3.89178L13.4388 6.24373L17.6642 3.89178" stroke="#CD6026" stroke-width="1.39598" stroke-linecap="round" stroke-linejoin="round"/>
<path d="M22.9289 10.6963L19.3309 8.70429L23.0302 6.30713L26.6672 8.61896L22.9289 10.6963Z" fill="white"/>
<path d="M22.572 28.5749L18.974 26.5829L18.7495 9.54736L22.8978 11.2974L22.572 28.5749Z" fill="white"/>
<path d="M18.7184 8.83081L22.9971 6.30713L27.2798 8.83081" stroke="#CD6026" stroke-width="1.39598" stroke-linecap="round" stroke-linejoin="round"/>
<path d="M27.302 8.97363V25.928L22.8978 28.4618L22.9208 11.3367" fill="#CD6026"/>
<path d="M27.302 8.97363V25.928L22.8978 28.4618L22.9208 11.3367" stroke="#CD6026" stroke-width="1.39598" stroke-linecap="round" stroke-linejoin="round"/>
<path d="M22.8978 28.4613L18.7184 25.8983V8.94402L22.8978 11.296L27.1232 8.94402" stroke="#CD6026" stroke-width="1.39598" stroke-linecap="round" stroke-linejoin="round"/>
<path d="M13.8509 16.321L10.2529 14.329L13.9522 11.9318L17.5892 14.2436L13.8509 16.321Z" fill="white"/>
<path d="M13.494 34.1996L9.89603 32.2076L9.67151 15.172L13.8198 16.922L13.494 34.1996Z" fill="white"/>
<path d="M9.64038 14.4551L13.9191 11.9314L18.2018 14.4551" stroke="#CD6026" stroke-width="1.39598" stroke-linecap="round" stroke-linejoin="round"/>
<path d="M18.224 14.599V31.5533L13.8198 34.0871L13.8428 16.9621" fill="#CD6026"/>
<path d="M18.224 14.599V31.5533L13.8198 34.0871L13.8428 16.9621" stroke="#CD6026" stroke-width="1.39598" stroke-linecap="round" stroke-linejoin="round"/>
<path d="M13.8198 34.0866L9.64038 31.5237V14.5693L13.8198 16.9213L18.0451 14.5693" stroke="#CD6026" stroke-width="1.39598" stroke-linecap="round" stroke-linejoin="round"/>
</g>
<defs>
<clipPath id="clip0_109_1560">
<rect width="28" height="34.2309" fill="white" transform="translate(0 0.554688)"/>
</clipPath>
</defs>
</svg>
