<svg width="596" height="161" viewBox="0 0 596 161" fill="none" xmlns="http://www.w3.org/2000/svg">
<g clip-path="url(#clip0_16_3874)">
<path d="M23.0734 47.6738L6.16016 38.3096L23.5496 27.0411L40.6465 37.9085L23.0734 47.6738Z" fill="#FAF9F6"/>
<path d="M21.3945 131.717L4.48119 122.353L3.42578 42.2727L22.9261 50.4991L21.3945 131.717Z" fill="#FAF9F6"/>
<path d="M3.28125 38.9044L23.3947 27.0411L43.5266 38.9044" stroke="#CD6026" stroke-width="6.56221" stroke-linecap="round" stroke-linejoin="round"/>
<path d="M43.6328 39.5757V119.274L22.9297 131.186L23.0377 50.6841" fill="#CD6026"/>
<path d="M43.6328 39.5757V119.274L22.9297 131.186L23.0377 50.6841" stroke="#CD6026" stroke-width="6.56221" stroke-linecap="round" stroke-linejoin="round"/>
<path d="M22.9278 131.183L3.28125 119.135V39.4363L22.9278 50.4923L42.7903 39.4363" stroke="#CD6026" stroke-width="6.56221" stroke-linecap="round" stroke-linejoin="round"/>
<path d="M63.3195 23.919L46.4062 14.5548L63.7957 3.28625L80.8926 14.1537L63.3195 23.919Z" fill="#FAF9F6"/>
<path d="M61.6406 107.962L44.7273 98.5983L43.6719 18.5179L63.1721 26.7442L61.6406 107.962Z" fill="#FAF9F6"/>
<path d="M43.5273 15.1511L63.6408 3.28778L83.7727 15.1511" stroke="#CD6026" stroke-width="6.56221" stroke-linecap="round" stroke-linejoin="round"/>
<path d="M83.875 15.826V95.5247L63.1719 107.436L63.2799 26.9344" fill="#CD6026"/>
<path d="M83.875 15.826V95.5247L63.1719 107.436L63.2799 26.9344" stroke="#CD6026" stroke-width="6.56221" stroke-linecap="round" stroke-linejoin="round"/>
<path d="M63.1739 107.433L43.5273 95.3853V15.6866L63.1739 26.7427L83.0364 15.6866" stroke="#CD6026" stroke-width="6.56221" stroke-linecap="round" stroke-linejoin="round"/>
<path d="M107.784 47.6738L90.8711 38.3096L108.261 27.0411L125.357 37.9085L107.784 47.6738Z" fill="#FAF9F6"/>
<path d="M106.105 131.717L89.1921 122.353L88.1367 42.2727L107.637 50.4991L106.105 131.717Z" fill="#FAF9F6"/>
<path d="M87.9922 38.9044L108.106 27.0411L128.238 38.9044" stroke="#CD6026" stroke-width="6.56221" stroke-linecap="round" stroke-linejoin="round"/>
<path d="M128.344 39.5757V119.274L107.641 131.186L107.749 50.6841" fill="#CD6026"/>
<path d="M128.344 39.5757V119.274L107.641 131.186L107.749 50.6841" stroke="#CD6026" stroke-width="6.56221" stroke-linecap="round" stroke-linejoin="round"/>
<path d="M107.639 131.183L87.9922 119.135V39.4363L107.639 50.4923L127.501 39.4363" stroke="#CD6026" stroke-width="6.56221" stroke-linecap="round" stroke-linejoin="round"/>
<path d="M64.1086 74.1139L47.1953 64.7498L64.5848 53.4812L81.6817 64.3487L64.1086 74.1139Z" fill="#FAF9F6"/>
<path d="M62.4296 158.157L45.5163 148.793L44.4609 68.7129L63.9612 76.9392L62.4296 158.157Z" fill="#FAF9F6"/>
<path d="M44.3164 65.3428L64.4299 53.4795L84.5618 65.3428" stroke="#CD6026" stroke-width="6.56221" stroke-linecap="round" stroke-linejoin="round"/>
<path d="M84.668 66.0193V145.718L63.9648 157.629L64.0728 77.1278" fill="#CD6026"/>
<path d="M84.668 66.0193V145.718L63.9648 157.629L64.0728 77.1278" stroke="#CD6026" stroke-width="6.56221" stroke-linecap="round" stroke-linejoin="round"/>
<path d="M63.9629 157.626L44.3164 145.579V65.8799L63.9629 76.9359L83.8254 65.8799" stroke="#CD6026" stroke-width="6.56221" stroke-linecap="round" stroke-linejoin="round"/>
</g>
<path d="M200.176 120.896C185.98 120.896 175.356 114.127 171.877 102.469L182.125 100.401C184.946 107.452 191.433 111.401 200.082 111.401C209.484 111.401 214.843 107.64 214.843 101.153C214.843 85.0763 174.792 96.2642 174.792 70.0338C174.792 58.6579 184.382 50.8546 198.39 50.8546C212.21 50.8546 221.518 56.9656 224.996 68.3415L215.031 70.3159C212.116 63.8288 206.851 60.5382 198.672 60.5382C190.211 60.5382 185.322 64.1108 185.322 70.0338C185.322 86.9566 225.56 74.5466 225.56 101.153C225.56 113.093 215.595 120.896 200.176 120.896ZM254.437 120.708C240.616 120.708 234.317 114.973 234.317 98.5206V74.3585H226.514V66.1792H234.317V56.3075L244.941 54.0511V66.1792H260.83V74.3585H244.941V97.2984C244.941 108.392 247.855 112.247 256.035 112.247C257.069 112.247 258.291 112.059 260.36 111.777L261.77 119.956C259.701 120.426 256.693 120.708 254.437 120.708ZM266.588 119.956V66.1792H277.118V75.2047C279.186 69.4697 284.827 64.2048 296.015 65.8031L294.887 75.9568C282.853 73.7004 277.118 80.1875 277.118 93.3497V119.956H266.588ZM320.806 120.99C305.952 120.99 299.089 112.341 299.089 95.4181V66.1792H309.619V94.5719C309.619 106.23 313.849 111.777 324.003 111.777C334.157 111.777 338.293 105.102 338.293 93.2557V66.1792H348.823V119.956H338.293V110.179C335.943 116.854 329.738 120.99 320.806 120.99ZM383.637 120.99C368.124 120.99 357.03 109.332 357.03 93.0677C357.03 76.8029 368.124 65.145 383.637 65.145C397.175 65.145 405.261 71.35 408.645 83.5721L399.62 85.3584C396.987 77.7431 392.004 74.0765 384.107 74.0765C374.329 74.0765 367.56 81.7858 367.56 93.0677C367.56 104.256 374.329 111.965 384.107 111.965C391.44 111.965 397.081 107.828 399.432 100.777L408.457 102.563C405.543 114.127 396.517 120.99 383.637 120.99ZM438.164 120.708C424.344 120.708 418.044 114.973 418.044 98.5206V74.3585H410.241V66.1792H418.044V56.3075L428.668 54.0511V66.1792H444.557V74.3585H428.668V97.2984C428.668 108.392 431.583 112.247 439.762 112.247C440.796 112.247 442.018 112.059 444.087 111.777L445.497 119.956C443.429 120.426 440.42 120.708 438.164 120.708ZM471.088 120.99C456.234 120.99 449.371 112.341 449.371 95.4181V66.1792H459.901V94.5719C459.901 106.23 464.131 111.777 474.285 111.777C484.439 111.777 488.575 105.102 488.575 93.2557V66.1792H499.105V119.956H488.575V110.179C486.225 116.854 480.02 120.99 471.088 120.99ZM509.193 119.956V66.1792H519.723V75.2047C521.791 69.4697 527.432 64.2048 538.62 65.8031L537.491 75.9568C525.457 73.7004 519.723 80.1875 519.723 93.3497V119.956H509.193ZM564.726 120.99C547.991 120.99 537.085 109.896 537.085 93.0677C537.085 76.5209 548.179 65.145 564.256 65.145C581.367 65.145 591.708 77.7431 590.392 95.7941H547.615C547.991 106.23 554.478 112.153 564.914 112.153C572.435 112.153 577.324 109.614 579.956 104.444L589.64 105.948C585.315 115.913 576.854 120.99 564.726 120.99ZM547.897 87.5207H580.521C579.768 78.9653 573.939 73.5124 564.444 73.5124C555.418 73.5124 549.119 78.2132 547.897 87.5207Z" fill="black"/>
<defs>
<clipPath id="clip0_16_3874">
<rect width="131.622" height="160.912" fill="white"/>
</clipPath>
</defs>
</svg>
