<?xml version="1.0" encoding="UTF-8"?>
<svg id="Layer_8" data-name="Layer 8" xmlns="http://www.w3.org/2000/svg" viewBox="0 0 393.812391 614.877621">
  <defs>
    <style>
      .cls-1 {
        fill: #0f2251;
        stroke: #0f2251;
        stroke-miterlimit: 10;
        stroke-width: 7px;
      }
    </style>
  </defs>
  <polygon class="cls-1" points="32.347417 236.858747 32.347417 199.882204 198.404751 17.540605 362.335629 197.755748 362.335629 236.339952 198.404751 56.072899 32.333234 237.577674 32.347417 236.858747"/>
  <polygon class="cls-1" points="32.943468 314.011844 32.943468 277.55378 45.545841 265.107457 58.510959 252.245844 64.00784 246.852469 199.000802 113.259841 331.193096 244.207534 338.297956 251.260483 349.655095 262.462522 362.93168 275.634968 362.93168 312.093032 332.178775 281.65096 319.991057 269.567381 313.716142 263.344061 199.000802 149.769816 81.432883 266.040907 76.869136 270.604654 62.970251 284.295895 32.943468 314.011844"/>
  <polygon class="cls-1" points="32.943468 379.978214 32.943468 347.617329 85.218596 308.721975 102.280894 296.016096 106.118519 293.163833 199.000802 223.98214 288.667129 290.88196 294.372287 295.186468 309.567051 306.492013 362.93168 346.320818 362.93168 378.681702 292.038819 325.732362 275.857744 313.700694 271.138897 310.122309 199.000802 256.291113 123.647384 312.404182 120.795438 314.530323 102.748094 328.014235 32.943468 379.978214"/>
  <polygon class="cls-1" points="32.934822 541.981985 32.934822 515.999838 198.992157 506.976166 199.71828 507.028077 362.923035 515.896016 362.923035 541.878163 198.992157 532.958314 32.934822 541.981985"/>
  <rect class="cls-1" x="32.934822" y="565.972145" width="329.988213" height="25.930236"/>
  <polygon class="cls-1" points="32.943468 439.047368 32.943468 409.797985 130.59651 358.663635 153.104411 346.839612 154.349011 346.216995 200.971526 321.790915 240.955747 343.261227 244.429994 345.128128 264.552516 355.915195 362.93168 408.709118 362.93168 438.165829 246.557084 375.674022 225.293783 364.264655 223.012226 363.020054 200.815792 351.091892 172.344443 365.976139 172.292532 366.027734 148.643853 378.422463 32.943468 439.047368"/>
  <polygon class="cls-1" points="32.943468 493.743056 32.943468 466.827459 178.930825 426.168709 197.444735 421.034573 214.196199 425.598319 362.93168 466.360575 362.93168 493.276173 197.548557 447.950171 32.943468 493.743056"/>
</svg>