<svg width="162" height="28" viewBox="0 0 162 28" fill="none" xmlns="http://www.w3.org/2000/svg">
<path d="M11.7 27.36C6.264 27.36 2.196 24.768 0.864 20.304L4.788 19.512C5.868 22.212 8.352 23.724 11.664 23.724C15.264 23.724 17.316 22.284 17.316 19.8C17.316 13.644 1.98 17.928 1.98 7.884C1.98 3.528 5.652 0.539999 11.016 0.539999C16.308 0.539999 19.872 2.88 21.204 7.236L17.388 7.992C16.272 5.508 14.256 4.248 11.124 4.248C7.884 4.248 6.012 5.616 6.012 7.884C6.012 14.364 21.42 9.612 21.42 19.8C21.42 24.372 17.604 27.36 11.7 27.36ZM32.4771 27.288C27.1851 27.288 24.7731 25.092 24.7731 18.792V9.54H21.7851V6.408H24.7731V2.628L28.8411 1.764V6.408H34.9251V9.54H28.8411V18.324C28.8411 22.572 29.9571 24.048 33.0891 24.048C33.4851 24.048 33.9531 23.976 34.7451 23.868L35.2851 27C34.4931 27.18 33.3411 27.288 32.4771 27.288ZM37.1301 27V6.408H41.1621V9.864C41.9541 7.668 44.1141 5.652 48.3981 6.264L47.9661 10.152C43.3581 9.288 41.1621 11.772 41.1621 16.812V27H37.1301ZM57.8911 27.396C52.2031 27.396 49.5751 24.084 49.5751 17.604V6.408H53.6071V17.28C53.6071 21.744 55.2271 23.868 59.1151 23.868C63.0031 23.868 64.5871 21.312 64.5871 16.776V6.408H68.6191V27H64.5871V23.256C63.6871 25.812 61.3111 27.396 57.8911 27.396ZM81.9498 27.396C76.0098 27.396 71.7618 22.932 71.7618 16.704C71.7618 10.476 76.0098 6.012 81.9498 6.012C87.1338 6.012 90.2298 8.388 91.5258 13.068L88.0698 13.752C87.0618 10.836 85.1538 9.432 82.1298 9.432C78.3858 9.432 75.7938 12.384 75.7938 16.704C75.7938 20.988 78.3858 23.94 82.1298 23.94C84.9378 23.94 87.0978 22.356 87.9978 19.656L91.4538 20.34C90.3378 24.768 86.8818 27.396 81.9498 27.396ZM102.829 27.288C97.5369 27.288 95.1249 25.092 95.1249 18.792V9.54H92.1369V6.408H95.1249V2.628L99.1929 1.764V6.408H105.277V9.54H99.1929V18.324C99.1929 22.572 100.309 24.048 103.441 24.048C103.837 24.048 104.305 23.976 105.097 23.868L105.637 27C104.845 27.18 103.693 27.288 102.829 27.288ZM115.436 27.396C109.748 27.396 107.12 24.084 107.12 17.604V6.408H111.152V17.28C111.152 21.744 112.772 23.868 116.66 23.868C120.548 23.868 122.132 21.312 122.132 16.776V6.408H126.164V27H122.132V23.256C121.232 25.812 118.856 27.396 115.436 27.396ZM130.027 27V6.408H134.059V9.864C134.851 7.668 137.011 5.652 141.295 6.264L140.863 10.152C136.255 9.288 134.059 11.772 134.059 16.812V27H130.027ZM151.291 27.396C144.883 27.396 140.707 23.148 140.707 16.704C140.707 10.368 144.955 6.012 151.111 6.012C157.663 6.012 161.623 10.836 161.119 17.748H144.739C144.883 21.744 147.367 24.012 151.363 24.012C154.243 24.012 156.115 23.04 157.123 21.06L160.831 21.636C159.175 25.452 155.935 27.396 151.291 27.396ZM144.847 14.58H157.339C157.051 11.304 154.819 9.216 151.183 9.216C147.727 9.216 145.315 11.016 144.847 14.58Z" fill="white"/>
</svg>
